<svg id="ac37e576-fbf4-407e-84c5-393f17de6ed7" data-name="Ebene 1" xmlns="http://www.w3.org/2000/svg" viewBox="0 0 50 50"><defs><style>.be9fcb74-0877-43eb-aa46-f14a3bbd7ffa{fill:#fff;}.aaf0958a-5eef-4fbf-9e8a-42365f7f4722{fill:#0e3ca5;}.aaf0958a-5eef-4fbf-9e8a-42365f7f4722,.b012da35-9a8b-4367-8fa7-15a939ea2c1c{fill-rule:evenodd;}.b012da35-9a8b-4367-8fa7-15a939ea2c1c{fill:#5493f7;}</style></defs><circle class="be9fcb74-0877-43eb-aa46-f14a3bbd7ffa" cx="25" cy="25" r="18.6"/><path class="aaf0958a-5eef-4fbf-9e8a-42365f7f4722" d="M23.41,33.74c.79,3.07,3.64,5.34,5.11,5.23a13.41,13.41,0,0,0,8.41-6.14c2.27-4,1.48-7.72-1.59-7.84-1.25.12-13.52,3-11.93,8.75M26.14,11a13.4,13.4,0,0,0-5.69,1.25,3.16,3.16,0,0,0-.9.45c-.23.11-.35.23-.57.34h0a18.23,18.23,0,0,0-1.48,1.36c-4.09,5.35,9.55,9.21,16.7,9.21,3.3,2.39,4.32-6.71,1-9.32A14.21,14.21,0,0,0,26.14,11Z"/><path class="b012da35-9a8b-4367-8fa7-15a939ea2c1c" d="M21,14.2c-1.82,2.72-7.95,4.54-9,4.32h0l.11-.23a15.06,15.06,0,0,1,4.32-5c.34-.23.79-.57,1.13-.8a4.73,4.73,0,0,1,2.05-.57C22.39,12,21,14.08,21,14.2"/><path class="b012da35-9a8b-4367-8fa7-15a939ea2c1c" d="M19.43,34.31A19.13,19.13,0,0,1,19.2,39a3.65,3.65,0,0,1-1.47-.46A16.85,16.85,0,0,1,13,34.31a14.31,14.31,0,0,1-2.15-4.09,13,13,0,0,1-.8-4.66,15.1,15.1,0,0,1,.91-5.12h0c1.14,1.48,2.39,2.73,3.41,4.21s2.38,3.63,2.73,4.09a11.08,11.08,0,0,1,2.38,5.57"/><path class="b012da35-9a8b-4367-8fa7-15a939ea2c1c" d="M40,25.67a14.6,14.6,0,0,1-1,5.46C37.27,33,25.57,28.4,25.45,28.4c-1.59-.68-6.47-2.84-6.93-6.13-.68-4.78,9.09-8.19,13.41-8.3a4.64,4.64,0,0,1,3,.8A13.91,13.91,0,0,1,40,25.67M29.89,37.61c.68-2.5,6.81-5,8.18-5.12.11,0,.23.12.11.23a15.29,15.29,0,0,1-6,6C30.91,39.31,29.43,38.86,29.89,37.61Z"/></svg>