<?xml version="1.0" encoding="UTF-8"?>
<svg id="Ebene_1" data-name="Ebene 1" xmlns="http://www.w3.org/2000/svg" width="50" height="50" xmlns:xlink="http://www.w3.org/1999/xlink" viewBox="0 0 50 50">
  <defs>
    <style>
      .cls-1 {
        fill-rule: evenodd;
      }

      .cls-1, .cls-2, .cls-3, .cls-4 {
        stroke-width: 0px;
      }

      .cls-1, .cls-3 {
        fill: #fff;
      }

      .cls-2, .cls-5 {
        fill: #000;
      }

      .cls-6 {
        clip-path: url(#clippath);
      }

      .cls-4 {
        fill: #0c0914;
      }
    </style>
    <clipPath id="clippath">
      <path class="cls-2" d="M35.61,14.39c-2.83-2.84-6.6-4.4-10.61-4.4-8.27,0-15,6.74-15,15.01s6.73,15.01,15,15.01c4.01,0,7.77-1.56,10.61-4.4,2.83-2.84,4.39-6.61,4.39-10.61,0-4.01-1.56-7.78-4.39-10.61Z"/>
    </clipPath>
  </defs>
  <circle class="cls-3" cx="25" cy="25" r="18.6"/>
  <g>
    <path class="cls-5" d="M35.61,14.39c-2.83-2.84-6.6-4.4-10.61-4.4-8.27,0-15,6.74-15,15.01s6.73,15.01,15,15.01c4.01,0,7.77-1.56,10.61-4.4,2.83-2.84,4.39-6.61,4.39-10.61,0-4.01-1.56-7.78-4.39-10.61Z"/>
    <g class="cls-6">
      <rect class="cls-4" x="5" y="5.51" width="40" height="40"/>
    </g>
  </g>
  <g>
    <path class="cls-1" d="M27.72,14.13c-1.5-1.5-3.94-1.5-5.44,0l-8.16,8.16c-1.5,1.5-1.5,3.94,0,5.44l8.16,8.16c1.5,1.5,3.94,1.5,5.44,0l8.16-8.16c1.5-1.5,1.5-3.94,0-5.44l-8.16-8.16ZM32.69,21.17c0-2.12-1.72-3.84-3.84-3.84h-7.69c-2.12,0-3.84,1.72-3.84,3.84v7.69c0,2.12,1.72,3.84,3.84,3.84h7.69c2.12,0,3.84-1.72,3.84-3.84v-7.69Z"/>
    <path class="cls-3" d="M23.91,18.49c.6-.6,1.57-.6,2.17,0l5.44,5.44c.6.6.6,1.57,0,2.17l-5.44,5.44c-.6.6-1.57.6-2.17,0l-5.44-5.44c-.6-.6-.6-1.57,0-2.17l5.44-5.44Z"/>
  </g>
</svg>