<?xml version="1.0" encoding="UTF-8"?>
<svg id="Ebene_1" data-name="Ebene 1" xmlns="http://www.w3.org/2000/svg" width="50" height="50" viewBox="0 0 50 50">
  <defs>
    <style>
      .cls-1, .cls-2 {
        fill: #fff;
      }

      .cls-2 {
        fill-rule: evenodd;
      }
    </style>
  </defs>
  <circle class="cls-1" cx="25" cy="25" r="18.6"/>
  <g>
    <circle cx="25" cy="25" r="15"/>
    <g>
      <path class="cls-2" d="M28.95,28.22c0,3.56-2.84,6.44-6.33,6.44s-6.33-2.88-6.33-6.44h3.1c0,1.78,1.48,3.22,3.23,3.22s3.23-1.44,3.23-3.22h3.1Z"/>
      <path class="cls-1" d="M30.61,26.53h3.12v-3.17h-3.12v3.17Z"/>
      <path class="cls-1" d="M28.95,23.36h-3.12v3.17h3.12v-3.17Z"/>
      <path class="cls-1" d="M21.05,26.53h3.12v-3.17h-3.12v3.17Z"/>
      <path class="cls-1" d="M19.39,23.36h-3.12v3.17h3.12v-3.17Z"/>
      <path class="cls-2" d="M21.05,21.78c0-3.56,2.84-6.44,6.33-6.44s6.33,2.88,6.33,6.44h-3.1c0-1.78-1.48-3.22-3.23-3.22s-3.23,1.44-3.23,3.22h-3.1Z"/>
    </g>
  </g>
</svg>