<?xml version="1.0" encoding="UTF-8"?>
<svg id="Ebene_1" data-name="Ebene 1" xmlns="http://www.w3.org/2000/svg" width="50" height="50" viewBox="0 0 50 50">
  <defs>
    <style>
      .cls-1, .cls-2 {
        fill: #000;
      }

      .cls-1, .cls-3 {
        stroke-width: 0px;
      }

      .cls-3 {
        fill: #fff;
      }
    </style>
  </defs>
  <circle class="cls-3" cx="25" cy="25" r="18.6"/>
  <path class="cls-2" d="M-84.07-47.57c-2.83-2.84-6.6-4.4-10.61-4.4-8.27,0-15,6.74-15,15.01s6.73,15.01,15,15.01c4.01,0,7.77-1.56,10.61-4.4,2.83-2.84,4.39-6.61,4.39-10.61,0-4.01-1.56-7.78-4.39-10.61Z"/>
  <circle class="cls-1" cx="25" cy="25" r="15"/>
  <g>
    <path class="cls-3" d="M22.24,16.04c-1.91,1.61-2.92,3.05-2.92,4.18,0,2.24,4.21,3.78,5.83,4.18.25.06,5.59,1.42,6.62,4.39.69-.42,1.37-.86,2.04-1.32,2.6-1.81,2.69-2.44,2.69-2.46,0-.34-.33-1.12-2.52-2.39-1.61-.93-3.65-1.81-5.46-2.59-1.75-.75-3.13-1.35-3.75-1.83-1.15-.89-1.2-2.24-.98-3.35-.53.38-1.05.77-1.55,1.19h0ZM24.45,32.79c-.5-.39-1.95-1.01-3.48-1.67-.5-.22-1.01-.44-1.53-.67.6,1.96,3.55,4.21,5.28,5.32.1-.26.19-.57.26-.91.18-.97,0-1.67-.52-2.08h0Z"/>
    <path class="cls-3" d="M27.75,33.96c1.91-1.61,2.92-3.05,2.92-4.18,0-2.24-4.21-3.78-5.83-4.18-.25-.06-5.59-1.42-6.62-4.39-.69.42-1.37.86-2.04,1.32-2.6,1.81-2.69,2.44-2.69,2.46,0,.34.33,1.12,2.52,2.39,1.61.93,3.65,1.81,5.46,2.59,1.75.75,3.13,1.35,3.75,1.83,1.15.89,1.2,2.24.98,3.35.53-.38,1.05-.77,1.55-1.19,0,0,0,0,0,0Z"/>
    <path class="cls-3" d="M25.29,14.22c-.11.3-.2.6-.26.91-.18.97,0,1.67.52,2.08.5.39,1.95,1.01,3.48,1.67.5.22,1.01.44,1.53.67-.6-1.96-3.55-4.21-5.28-5.32h0Z"/>
  </g>
</svg>