<svg id="a45bc3e7-2ea2-4d66-b5a1-e52a6dc0ab1a" data-name="Ebene 1" xmlns="http://www.w3.org/2000/svg" viewBox="0 0 50 50"><defs><style>.ff782e39-3399-4008-a03f-70a1d2377746{fill:#fff;}.af0e5a8c-7d9a-4026-a206-3d1189255188{fill:#a41115;}.a663d385-3389-439d-babc-1cc452a3e418{fill:#f2ba20;}.b600921b-a4f8-4880-9b9e-d2320f7c9455{fill:#fefefe;}.a91c569d-6d9d-4f8b-8343-4d13d1af99bb{fill:#f3b21f;}.b2339342-49e6-4b6e-a621-cbd4c63074a0{fill:#f6b91c;}.ac4882bd-fe1b-4458-977e-39148e64aea6{fill:#f6b81c;}.f6f4dbf5-e655-4c66-9e36-a356f9b68559{fill:#e7ad23;}.bd683f41-c19a-43b2-a650-f68e409b5ce0{fill:#f3d024;}.fd74723a-85ec-48d9-88ac-fdfccd30251a{fill:#f7d13c;}.b0d954e4-f0d7-40c9-9009-fdc34dccd886{fill:#f2b120;}.bd427b21-b69c-48d6-a96a-84aee41bb335{fill:#f0b021;}.b39de5fc-d8bf-4a5c-87ff-55e4c68534a8{fill:#f3c323;}.f22d1b7e-61a7-4ccb-ac80-2d9a4b74c238{fill:#f2b821;}.a2e86284-eadc-44dc-ba9e-f759465aa55a{fill:#f5c430;}.eed84ae5-e150-4732-bbf4-09126e8009a1{fill:#f4c322;}.f238857c-55d2-44ae-a74f-17dd7e2946ff{fill:#dda52c;}.a5bdcf34-618b-4e1c-b70d-26b2ca8642b4{fill:#f4b42c;}.f8f66c04-8a6c-421f-8534-103c61b0602f{fill:#f6c534;}.b19c798c-1390-4689-b386-f46bfd001cf2{fill:#f4cb2c;}.b84253e6-b079-48d5-be72-1b7a823d6a8c{fill:#f5cb60;}.f9f0899c-e6f5-4c3b-b780-9bed00b96a30{fill:#eb6022;}.f7435fc4-8303-492c-96b6-b4d05eff3264{fill:#ee6921;}.bab54b7f-7fa2-4a83-adbd-6e139c2725ad{fill:#ef7f20;}.b2d61aec-e469-4fe3-b48e-6a1a292fed0c{fill:#d3a32a;}.e532a9cf-3280-4246-b322-2b97693e8a55{fill:#d69e29;}.b052757f-9559-484f-ab0c-852b6d6a03b1{fill:#da9827;}.a4de9b3b-2ac9-42b7-86c7-1a10287916f6{fill:#f3c923;}.b45e9100-e1ac-42d1-8289-f07904bb041b{fill:#f1bc21;}.a966738e-f4b6-446e-9f2c-80b3e1407eec{fill:#e15826;}.a1837916-9eed-4101-a536-5f9317dc9001{fill:#a5aab6;}.ea5e7a15-daac-4d74-99dd-804b7c7f8484{fill:#f2b820;}.bf2d1f9d-7848-4ace-b2ca-7fb22de7a0a8{fill:#f5b81f;}.b493c1cd-7d46-4022-a731-b929b25d036d{fill:#f3ce23;}.ab5353ac-42d5-4621-8eca-1e2a71b86472{fill:#f2bc21;}.b7a69eea-e145-434b-809e-8252b3e943b8{fill:#f3c322;}.b5bb0121-cb12-4a6b-a4d4-3c98408225d4{fill:#f3c121;}.ec18caf3-c1bf-46d5-b3db-a7d187cfce75{fill:#f3c722;}.e83a2cd4-05bb-4a81-a07e-1bdba876a33d{fill:#f4d525;}.a2138820-97dc-42eb-902a-2e3d53d5f405{fill:#f2b220;}.a4347140-0b4b-42ce-91f1-7e5e5e962faf{fill:#a3a8b4;}.ab35bcae-214b-408a-9469-b1cbe42140e5{fill:#f6b920;}.f254969e-80ee-42b2-9d91-f71b9a4a1dca{fill:#060505;}.b6f9ef2b-535c-4d4a-8413-c5f76df4a56a{fill:#f3c926;}.b4c86f42-8662-4605-9281-eda5bf5098ab{fill:#f3c222;}.a95495a9-69e9-4e85-a203-888a3fabcb0d{fill:#f6b61f;}.f5f90782-9dd9-4ce5-864f-724c0a5ab984{fill:#f3b527;}.ae8603fb-1ade-4b5e-a975-20207d3d717a{fill:#f5c632;}.f4cebcc3-031b-43b8-ac80-742cc8a41448{fill:#f3c229;}.e25c0480-0aa5-4436-870f-4f6bfee9129b{fill:#b7b5b6;}.bec33804-37ec-46a2-8980-d571da481b65{fill:#3a3939;}.f3492d3a-91f1-4adc-b9fb-9931f6da95a1{fill:#f4bd2a;}.e5b1cbb7-1d9a-4711-99ee-8db2673a6ce7{fill:#5d5c5c;}.ae3c4133-a3d5-4e86-bd64-bb75296109e1{fill:#252525;}.b69b1ef6-645c-4b1f-b7c8-158c3f9ae859{fill:#565655;}.ef2d157a-c2d1-4294-945c-3392b5409ee9{fill:#f8cd69;}.b74730a4-31e2-430a-ac14-10edbecb6d3c{fill:#fce4b1;}.f180510a-bc62-4741-ab4e-4839197fa2f9{fill:#403f40;}.a85ecd58-5359-49fc-b789-1c146aa940f6{fill:#a5aab5;}.a4bec0ca-aeea-4aa4-becc-bde33a0d38da{fill:#f4d524;}.a0b6aced-fa64-469e-96ed-e518ace2e6fe{fill:#f3cd23;}.a78f16f3-c2c3-49ec-8a18-557e6345fde7{fill:#f2b620;}.b973b7ed-db72-4853-bfd8-d4b904d5886a{fill:#f3b926;}.a71a0938-ce39-4ca1-b307-915e5209698d{fill:#f4be2a;}.e483c012-5b08-465d-9674-539275f63bb2{fill:#f5b31e;}.ad08bac4-8717-4b4e-9ccb-c5cd35bbd203{fill:#f3c422;}.f2586512-6030-4c04-9792-b059bfb119f8{fill:#f5b21e;}.ae146e10-dd70-4c1b-9b29-8189789a2ae6{fill:#f3ab20;}.ece007cb-773a-4269-8307-482a0418c7dc{fill:#f3b521;}.e491a499-63f9-44c2-98bc-af0d64c2f6c3{fill:#f4d224;}.bb328600-be74-4f0e-828f-6ab7c3b4bd9a{fill:#f3b722;}.a3d52d05-7cd0-4fb8-b6a9-c3ba3f84d7eb{fill:#f3c421;}.bc652f47-3f59-4a81-b887-c1f0b4c52e51{fill:#f4bd29;}.b945b2ae-d9d2-4ab8-bc06-01cde74dc2da{fill:#f3ac1f;}.a3564765-004c-4f49-903b-272bb422abe5{fill:#e69623;}.a814b8ac-4c56-4ceb-80ad-0fa7fd7dedb7{fill:#ef9a20;}.f05e4476-6f78-4ac6-b535-df3837ad87e9{fill:#ec9421;}.b1b61bb6-1c36-4c7f-a822-3c5ffdd5d360{fill:#fbfbfb;}.a5ace59d-eaa3-40eb-96b1-4a4aa2dc1638{fill:#a3a7b3;}.bc0aae26-0b7d-4a9b-907e-bf22509d25f4{fill:#f7f6f6;}.e4918348-f4d2-4c67-ace7-b6a74381b17b{fill:#f8f8f8;}.ad67d132-a713-4ece-83ea-ccb71cde5c1e{fill:#170404;}.ff6ec468-74c1-499a-87d4-5c84e8e134c8{fill:#9ca0ab;}.b26f4023-ce42-4d3c-8248-e7cc9d0997b7{fill:#f6f6f5;}.b7ee19c4-49bd-4b8f-a287-c00f9879ff6a{fill:#f8f7f8;}.f29eafcc-f40a-4001-8bb4-f92c9ad185af{fill:#a0a5b0;}.fd9bc02e-0e42-443c-b4a3-84b3d9c9e17c{fill:#eee;}.f4272b3a-f149-4796-b0c4-b30d74d8e62c{fill:#9b9faa;}.fb9b39ed-48bc-40ea-80b4-d6a7848dc4ae{fill:#1e0a0b;}.b1c0a901-fe5b-4110-9ffe-27cef37c6810{fill:#9da1ac;}.a03d5af1-5016-470d-8747-613f589bcc71{fill:#282a2c;}.a74763ea-a5a2-43de-9cfd-6260755c4f73{fill:#cccbcb;}.f38b2332-dde5-4659-8b56-91aa731ade3f{fill:#8c9099;}.aace97dd-2273-494a-9f19-a07cb575e81d{fill:#a98a91;}.a92730e8-7971-491f-b712-e351ba3ae114{fill:#d6d5d5;}.ea97b7db-be81-46ba-b584-922499b02a71{fill:#888b93;}.a65d75d3-d4d1-4a2b-a72c-8ecc3fedaef6{fill:#292828;}.af52747b-479c-4bb2-9af4-e05110c24dad{fill:#2b1214;}.b744ad41-0c12-4fff-9970-dd32a5b52ae5{fill:#d8d7d7;}.ed7606c3-d59e-4b75-b26d-0e7e76d53129{fill:#303134;}.a21916d9-06f3-481a-afa8-771835cc0c7d{fill:#b6b5b6;}.b930ae47-bd2c-43c4-b022-3efb9af5f4db{fill:#7a7d84;}.f961720e-c354-4f60-afc8-2692212fa862{fill:#6d6a6a;}.ae3b7379-1f8b-4021-8fc5-779be2f234e7{fill:#a9a7a7;}.e6aef7b7-9cb2-42f4-b615-9d24c13b6262{fill:#212123;}.a319b01e-2556-4d1a-bcd3-4f68289dfeff{fill:#323235;}.bf74f630-2596-46cc-a4a4-e27601eb9b7e{fill:#484747;}.acfb7f1c-935e-4d74-888f-bbf09bea247b{fill:#820404;}.e7ac3814-deea-477d-aa69-5a96d3b105f0{fill:#73757b;}.e83848a9-ae87-4268-aa18-383581ca6b58{fill:#4c4d51;}.adb90dd8-923d-4a76-8135-c2d37ffbb161{fill:#393b3d;}.a048f619-ab59-4f4f-8941-314fd44b0b4a{fill:#5f6066;}.e01ef94f-a135-44bd-b164-7369b8b93b29{fill:#aaa9a9;}.fa86906f-7435-48ab-b610-7f0543e3bb94{fill:#303133;}.a7ee6913-37e9-428e-a0dd-da5e6eda7f95{fill:#7b7c83;}.b1932542-deb3-4234-8c62-e68b5662d238{fill:#333436;}.f2bc0133-6fbd-4712-abab-4ff2490e7a71{fill:#8d9095;}.ae93361c-e376-4f8b-89d6-40ce967d5ff5{fill:#f8f7f7;}.ab330d1e-4fe7-497e-a00a-e9de5e31c51f{fill:#9ca1ac;}.b33dcfc2-c061-40b6-aae2-89448956bbe8{fill:#180808;}.f585d5d1-02ae-4a80-ad29-6803ccd96ebe{fill:#3d0505;}.a5def43f-d09a-46aa-8101-5588d67a25ad{fill:#ededed;}.ef6776f1-15a5-407d-96bf-174adb1e099f{fill:#a75a5e;}.fc477859-db71-4943-a07a-a371503ce0d5{fill:#3a3b3f;}.a8c58a61-8f1f-4f34-8ce5-e64f2e513e6d{fill:#20090a;}.b35d6465-262b-4c6a-876c-98ea4c97916b{fill:#bcbaba;}.ea13e3ca-1246-4280-a91f-b23ed694db29{fill:#262729;}.f4e4ee54-624f-4269-99e1-157352614efe{fill:#bfbdbd;}.a9ca5e7f-7690-4594-be27-cfe77062cdc0{fill:#b0afaf;}.b0cc02a8-aaa8-475c-91ca-557aebe3c338{fill:#81838b;}.a655d200-73fa-4a2f-a20d-9145574407b7{fill:#0c0a0b;}.b343eeff-656d-44d3-9620-af938beca000{fill:#5f090a;}.a19e20de-7d79-48be-b3d7-794ff99de629{fill:#f4c22e;}.efa43dc4-84c4-41b1-b833-dc1abc522fe6{fill:#f5c832;}.ff272e30-72f1-483b-913d-d06a0d52285b{fill:#090809;}.ac686376-2084-432f-abd1-cfeef7fa84b0{fill:#4f090a;}.b41a288a-1ab4-446b-8531-454bc2932dcf{fill:#1c1010;}.ab02505f-0ade-40b4-ab97-def14458c98d{fill:#a4949e;}.a9ac0619-d2bd-4953-8533-2209af989f87{fill:#433436;}.a4505dce-79f3-430c-96c2-75134bc13ee6{fill:#a83a3c;}.acaec210-4625-423d-8493-e3aaaa485d4b{fill:#790404;}.b7b2d17d-9271-4a32-9790-c1724696da54{fill:#84878f;}.b7ef7db8-f30c-4fbb-97af-59144d3d5873{fill:#92484d;}.fc8b27b3-2fdb-4f57-ae6c-eb8436f7ec80{fill:#df2e31;}.b370f199-6e50-4fc2-82bb-53252bcc16ef{fill:#a3666d;}.b1f27c41-2138-45fe-a24a-3dcd195fbf60{fill:#d13d40;}.adccdbaf-197c-4dca-b308-9046962ca669{fill:#f2f0f0;}.b74b95dc-5184-49a6-8228-1c4db3ec7ce0{fill:#e42527;}.b892f063-91c5-43d2-b25b-3152472bc226{fill:#b49aa1;}.a46cae74-cab0-4cf6-b8c8-2134303d4986{fill:#e02628;}.a483183f-e82e-40c0-a0c5-171608896a48{fill:#c93e41;}</style></defs><circle class="ff782e39-3399-4008-a03f-70a1d2377746" cx="25" cy="25" r="18.6"/><path class="af0e5a8c-7d9a-4026-a206-3d1189255188" d="M35.61,14.39A15,15,0,1,0,25,40,15,15,0,0,0,35.61,14.39Z"/><circle class="a663d385-3389-439d-babc-1cc452a3e418" cx="24.9" cy="25" r="11.39"/><path class="b600921b-a4f8-4880-9b9e-d2320f7c9455" d="M10.39,25.39a1.19,1.19,0,0,1,0-.89,1.7,1.7,0,0,1,1.31-1.13c.28-.07.55-.14.83-.19.12,0,.21-.06.24-.2a.58.58,0,0,1,.47-.44c.23-.06.46-.15.69-.22l.75-.35.3-.24a2.55,2.55,0,0,1,.95-.63c.15,0,.31,0,.46-.08s.3-.07.31-.14a1.27,1.27,0,0,0,0-.51c0-.06-.07-.11-.1-.16v-.77c.06-.17.13-.34.19-.52s.23-.59.34-.89h0a1.64,1.64,0,0,1,.88-.78,1,1,0,0,1,.76,0l.25.12,0,0c.55.27,1.1.55,1.66.81a.45.45,0,0,0,.28,0A3.15,3.15,0,0,1,22,18a1.32,1.32,0,0,0,.39-.1,1.37,1.37,0,0,1,1.1-.13c.31.1.6.25.89.37l.19.11.17.06.18.12.62.41a4.52,4.52,0,0,0,.29-.64,1,1,0,0,1,.27-.47.66.66,0,0,1,.7.11,4.74,4.74,0,0,1,.56,1.5,1.11,1.11,0,0,0,.6-.91,1.51,1.51,0,0,1,.15-.59c.47-.26.65-.23,1,.17l.23.24.39.33.16-.74.48.36h0l.07.06h0l.24.18h0l.06,0a9.25,9.25,0,0,0,.88.32,2,2,0,0,1,1.34,1,.66.66,0,0,0,.53.36,2.92,2.92,0,0,1,1.18.41l.07.06h0a1.6,1.6,0,0,0,.7.59c.39.15.78.32,1.18.44a.76.76,0,0,1,.6.53.31.31,0,0,0,.19.14l.86.19a1.77,1.77,0,0,1,1.36,1.32A.89.89,0,0,1,39.27,25a1.39,1.39,0,0,0-.48.54,3.37,3.37,0,0,1-.84,1,7.7,7.7,0,0,1-.71.57,2.63,2.63,0,0,1-1.6.38l-.33,0,0,.84a2.18,2.18,0,0,1-.53,1.28l-.17.13-.41.24a7,7,0,0,1-2.52.29,2.89,2.89,0,0,0-.67-1.63,5.47,5.47,0,0,1-.31.5l-.81,1.13-.71.7-.7.54-.82.47a1,1,0,0,0-.16.06,7.4,7.4,0,0,1-3.37.64c-.26,0-.51,0-.76-.06a9.19,9.19,0,0,1-2.29-.7L19.76,31l-1.19-1.1c-.09.29-.17.53-.23.78s0,.33-.38.33H16.88l-.95-.21-.53-.25a2.07,2.07,0,0,1-.76-1.41l0-.87h-.92a3,3,0,0,1-1.64-.85,4.24,4.24,0,0,1-1-1.3c0-.09-.15-.15-.22-.22Zm8.42,2.3h0l0-.07a1.44,1.44,0,0,1-.45-.74,11.38,11.38,0,0,1-.07-1.31.87.87,0,0,1,.16-.43,5.65,5.65,0,0,0,.42-1.26v0c.06-.18.1-.36.17-.53a.53.53,0,0,1,.48-.36c.21,0,.21,0,.14-.3-.13.08-.3-.06-.43.12a.51.51,0,0,1-.86,0l-.2-.24c-.05-.08-.09-.18-.16-.22s-.28-.09-.42-.14a1.55,1.55,0,0,1-.37-.4c-.18-.39-.44-.4-.8-.3a1.87,1.87,0,0,0-1,.55,1.69,1.69,0,0,1-.74.52l-1.16.4-.2.09a1,1,0,0,1,0,.11c.1.22.09.26-.12.35l-.26.07c-.34.07-.69.13-1,.22a1.27,1.27,0,0,0-1,.87c-.12.4-.08.51.26.77a2.65,2.65,0,0,1,.45.49c.14.18.24.4.39.57s.47.45.7.67a2.11,2.11,0,0,0,1.84.56l.27-.07-.58-.48a.68.68,0,0,1,.5-.1,4.07,4.07,0,0,0,.61.07c.29,0,.58,0,.89-.05a1.19,1.19,0,0,1-.08.62l-.24.1c0,.14,0,.29,0,.43s0,.24-.06.35l-.52-.5a2.37,2.37,0,0,0,0,1.47,1,1,0,0,0,.62.63,5.06,5.06,0,0,0,2,.31,4.31,4.31,0,0,1,1.17-2c.39.37.41.57.15,1.22a8.56,8.56,0,0,0,1.92,1.5A24.2,24.2,0,0,0,22,28.34c-.31,0-.3,0-.44.22a.82.82,0,0,1-.22.19.74.74,0,0,1-.25,0,1.38,1.38,0,0,0-.92,0l-.13,0-.11,0-1.07-1Zm-.23-10h0a.39.39,0,0,0-.43,0h0l-.34.18a2,2,0,0,0-.25.35c-.14.29-.27.59-.38.89a4,4,0,0,0-.17.59.34.34,0,0,0,.13.42.3.3,0,0,1,.06.2c0,.13,0,.27,0,.41a1.64,1.64,0,0,0,.67,1.12l.2-.36c.27.33.38.73.68,1.06a4.44,4.44,0,0,0,.18-1.17c.13.1.08.32.3.31s.29,0,.37,0,.1.24.14.38l.26,0,.08.37.28,0c.12,0,.22.06.22.2a2.71,2.71,0,0,1-.12,1.08l-.35-.39-.17.56c-.18-.19-.23-.44-.49-.51,0,.1-.09.18-.12.28-.07.26-.13.53-.21.79a4.77,4.77,0,0,1-.28.83,1.35,1.35,0,0,0-.18.67c0,.24,0,.47.08.7a1,1,0,0,0,.17.4c.35.38.71.75,1.07,1.12a.89.89,0,0,0,.24.14v-.46l.33.19c.14.08.28.18.43.25s.22,0,.18-.17-.05-.16-.08-.25a5.14,5.14,0,0,0,.68,0c.27,0,.33-.16.32-.42a3.18,3.18,0,0,1,0-.76.63.63,0,0,1,.54-.56,1.65,1.65,0,0,1,.08.93,15.51,15.51,0,0,1-.7,2.84l-.52,1.56a2.63,2.63,0,0,0,.3.14l1.4.41a.1.1,0,0,0,0,0,8.1,8.1,0,0,0,2.2.06,1.18,1.18,0,0,0,.35-.11L26,32a6,6,0,0,0,1.7-.65,7.17,7.17,0,0,0,2.61-2.52c.2-.33.42-.65.67-1a4.26,4.26,0,0,1,1.13,1.94,6.42,6.42,0,0,0,1.75-.23,1.22,1.22,0,0,0,.88-.82,2.34,2.34,0,0,0,0-1.36l-.58.51-.07-.74c-.11-.09-.19-.13-.22-.19a1,1,0,0,1-.09-.31c-.06-.26,0-.29.24-.26a3.37,3.37,0,0,0,1.34,0,.35.35,0,0,1,.4.12l-.56.48a2.45,2.45,0,0,0,1.4,0A3.23,3.23,0,0,0,37.78,26a5.62,5.62,0,0,0,.55-.64c.08-.11.11-.26.19-.36a4.09,4.09,0,0,1,.44-.39c.14-.12.3-.24.26-.46a1.27,1.27,0,0,0-.76-1,3.24,3.24,0,0,0-.53-.16c-.34-.09-.69-.14-1-.23s-.3-.13-.17-.42c0,0,0,0,0-.09l-.32-.09a3.93,3.93,0,0,1-1.93-1,1.4,1.4,0,0,0-.53-.31,2,2,0,0,0-.48-.11,1.12,1.12,0,0,1-.89-.59l-.06-.1a1.36,1.36,0,0,0-.74-.64c-.51-.19-1-.36-1.55-.54l-.1.54a3.92,3.92,0,0,1-.47-.27l-.9-.79a1.43,1.43,0,0,0-.21-.12.92.92,0,0,0-.09.23c0,.18,0,.37,0,.56l-.06.18L28.33,19A2.05,2.05,0,0,1,27,20c0-.09,0-.13-.05-.18-.1-.4-.18-.8-.3-1.19a.74.74,0,0,0-.29-.5c-.16.33-.3.66-.46,1s-.34.43-.66.12a3.68,3.68,0,0,0-.92-.61l-.19-.1-.62-.27a1,1,0,0,0-1,.1.53.53,0,0,1-.36.09,1.91,1.91,0,0,0-1.08.2.55.55,0,0,1-.57,0c-.54-.27-1.09-.52-1.64-.78Z"/><path class="a91c569d-6d9d-4f8b-8343-4d13d1af99bb" d="M19,17.38l-.25-.12-.22-.21.81-.73h.06l.06-.06h0l.06-.06h0l.06-.06.76-.47h0l.06-.06.3-.11.37.05c.54,0,1.08.09,1.63.12s.91,0,1.37.06l1.9.06h.08l1.69.12,1.63.06h.06l1.69.11c.28.07.46.4.84.34a2.56,2.56,0,0,0-.09-.26l-.11-.2a10.14,10.14,0,0,1,.94.77l.07.12h0l0,.06h0l.11.06h0l.07.11.48.53a3.65,3.65,0,0,1,.24.31c.14.21.26.42.39.63-.23.22-.23.22-.46,0l-.13-.13a.44.44,0,0,0-.51-.16.36.36,0,0,1-.14,0,2.67,2.67,0,0,0-.48-.08H31.28c-.23,0-.46,0-.69-.05s-.18,0-.19.12l-.48-.36-.16.74-.39-.33L29.14,18c-.36-.4-.54-.43-1-.17a3,3,0,0,1-1.31,0,.66.66,0,0,0-.7-.11c-.36,0-.73-.1-1.1-.12s-1-.05-1.51-.06-.79,0-1.18,0c-.66,0-1.32-.13-2-.15A7.73,7.73,0,0,0,19,17.38Z"/><path class="b2339342-49e6-4b6e-a621-cbd4c63074a0" d="M30.4,18.21c0-.12.09-.13.19-.12s.46.05.69.05H32.4a2.67,2.67,0,0,1,.48.08.36.36,0,0,0,.14,0,.44.44,0,0,1,.51.16l.13.13c.23.23.23.23.46,0,.17.23.4.4.42.71l-.12-.09s-.06.07-.05.1a2.49,2.49,0,0,0,.37,1.08c.07.09.16.22,0,.33h0l-.07-.06a2.92,2.92,0,0,0-1.18-.41.66.66,0,0,1-.53-.36,2,2,0,0,0-1.34-1,9.25,9.25,0,0,1-.88-.32l-.06,0h0l-.24-.18h0l-.07-.06Z"/><path class="ac4882bd-fe1b-4458-977e-39148e64aea6" d="M32.3,32.93a3.88,3.88,0,0,1-.85.66,2.7,2.7,0,0,0-.34.25c-.29.2-.58.39-.88.57-.06,0-.15,0-.22.05l-1.31.46-.11-.29v-.06l.7-.24.41-.23.18-.06a1,1,0,0,0,.59-.35l.29-.12.42-.29c.23-.15.47-.29.69-.45a.9.9,0,0,0,.19-.2l.06-.06c0,.12,0,.27.16.28C32.29,32.85,32.29,32.9,32.3,32.93Z"/><path class="f6f4dbf5-e655-4c66-9e36-a356f9b68559" d="M15.4,30.51l.53.25s0,0,.06.06a.84.84,0,0,1,.54.5l0,.07c.05,0,.15.07.15.11,0,.19.19.27.28.4a3.42,3.42,0,0,0,.68.69.86.86,0,0,1,.07.1c0,.07.1.21.13.21s.16.09.23.16.07.3.1.45L18,33.33l-.12-.06h0l-.06,0a6,6,0,0,1-.91-.84c-.26-.06-.31-.36-.53-.49a1.42,1.42,0,0,1-.37-.43,7.57,7.57,0,0,0-.56-.74S15.41,30.59,15.4,30.51Z"/><path class="ac4882bd-fe1b-4458-977e-39148e64aea6" d="M31.76,16l.11.2a2.56,2.56,0,0,1,.09.26c-.38.06-.56-.27-.84-.34,0,0-.06-.08-.1-.1L29.7,15.2l-1.17-.47c.17,0,.13-.19.17-.29.39.15.77.3,1.15.47.1.05.14.06.15-.06a4.44,4.44,0,0,1,1.14.64l.46.32A1.14,1.14,0,0,1,31.76,16Z"/><path class="bd683f41-c19a-43b2-a650-f68e409b5ce0" d="M25,13.67h.71l.5.06.63.06.69.15a1.2,1.2,0,0,1,.2,0,1.15,1.15,0,0,1,.23.1l-.25.07L26.88,14h-.06l-.29,0-1.48-.06-.64.05h-.12l-1,.12-.59.12c-.19-.07,0-.15,0-.23a1.53,1.53,0,0,1,.47-.11c.26,0,.48-.15.76-.1a2.12,2.12,0,0,0,.59-.09Z"/><path class="fd74723a-85ec-48d9-88ac-fdfccd30251a" d="M26.53,35.62c-.32.05-.64.05-1,.12a2.86,2.86,0,0,1-.65,0,4.17,4.17,0,0,1-.5,0c-.51-.1-1-.11-1.55-.2-.34-.06-.66-.19-1-.28a.29.29,0,0,0-.3-.18c-.19,0-.23-.07-.18-.23l.3.06.06.05h0l.17.06H22l1.18.3c.52.08,1,.18,1.57.22s.84,0,1.25,0l.89-.11c.08,0,.19,0,.12.12h0l-.41.06h0Z"/><path class="b0d954e4-f0d7-40c9-9009-fdc34dccd886" d="M32.3,32.93s0-.08,0-.08c-.2,0-.16-.16-.16-.28l.29-.3.53-.58.41-.53.3-.3.06-.06h0a.18.18,0,0,1,.1.26c0,.09,0,.09.07.1l-.32.42c-.32.37-.63.74-1,1.1A2.42,2.42,0,0,1,32.3,32.93Z"/><path class="bd427b21-b69c-48d6-a96a-84aee41bb335" d="M18.22,33.51c0-.15,0-.31-.1-.45s-.08-.19-.23-.16-.09-.14-.13-.21l.52.11,1,.83c-.07.27,0,.36.27.43a.08.08,0,0,1,.07.07c0,.17.14.18.26.21a.91.91,0,0,1,.22.11l.06.13a5.62,5.62,0,0,1-1.36-.69l-.47-.33-.12-.05Z"/><path class="b39de5fc-d8bf-4a5c-87ff-55e4c68534a8" d="M34.76,20.68c.14-.11.05-.24,0-.33a2.49,2.49,0,0,1-.37-1.08s0-.07.05-.1l.12.09h0l.06.06h0l.06.06h0l.07.23c.18.08.17.27.24.41q.21.46.39.93a2.44,2.44,0,0,1,.11.32A1.6,1.6,0,0,1,34.76,20.68Z"/><path class="f22d1b7e-61a7-4ccb-ac80-2d9a4b74c238" d="M33.88,31.16c-.06,0-.1,0-.07-.1a.18.18,0,0,0-.1-.26l.53-.88.41-.24.17-.05-.53.91C34.16,30.75,34,31,33.88,31.16Z"/><path class="a2e86284-eadc-44dc-ba9e-f759465aa55a" d="M20.17,34.58l-.06-.13.06-.29.35.18.88.47c0,.16,0,.25.18.23a.29.29,0,0,1,.3.18A9.24,9.24,0,0,1,20.17,34.58Z"/><path class="eed84ae5-e150-4732-bbf4-09126e8009a1" d="M27.7,14.14l.25-.07a2,2,0,0,1,.87.26,3.12,3.12,0,0,0,.43.15l.67.28s0,.06.08.09-.05.11-.15.06c-.38-.17-.76-.32-1.15-.47Z"/><path class="f238857c-55d2-44ae-a74f-17dd7e2946ff" d="M13.77,28.23h.92l0,.87c-.05,0-.11-.05-.13-.09-.1-.24-.18-.48-.26-.71Z"/><path class="a5bdcf34-618b-4e1c-b70d-26b2ca8642b4" d="M28.7,34.92,30,34.46c-.14.24-.42.26-.63.38a5.13,5.13,0,0,1-.72.28,1.46,1.46,0,0,1-.31,0l-.12-.06Z"/><path class="f8f66c04-8a6c-421f-8534-103c61b0602f" d="M28.23,35.1l.12.06a4.45,4.45,0,0,1-.57.22c-.26.07-.52.09-.78.14.07-.15,0-.12-.12-.12h0l.12,0,.33-.06Z"/><path class="b19c798c-1390-4689-b386-f46bfd001cf2" d="M35.35,28.27l0-.84.33,0c-.15.15-.1.37-.18.55Z"/><path class="f8f66c04-8a6c-421f-8534-103c61b0602f" d="M26.59,35.58l.41-.06Z"/><path class="b2339342-49e6-4b6e-a621-cbd4c63074a0" d="M34.72,19.61l-.07-.23Z"/><path class="b84253e6-b079-48d5-be72-1b7a823d6a8c" d="M34.82,29.63l-.17.05.17-.13Z"/><path class="f9f0899c-e6f5-4c3b-b780-9bed00b96a30" d="M17.87,33.27l.12.06Z"/><path class="f6f4dbf5-e655-4c66-9e36-a356f9b68559" d="M18.22,33.51l.12.05Z"/><path class="f7435fc4-8303-492c-96b6-b4d05eff3264" d="M32.77,16.85l-.07-.12Z"/><path class="bab54b7f-7fa2-4a83-adbd-6e139c2725ad" d="M32.93,17l-.11-.06Z"/><path class="bab54b7f-7fa2-4a83-adbd-6e139c2725ad" d="M33,17.08,32.94,17Z"/><path class="f7435fc4-8303-492c-96b6-b4d05eff3264" d="M32.82,16.91l0-.06Z"/><path class="f9f0899c-e6f5-4c3b-b780-9bed00b96a30" d="M17.81,33.23l.06,0Z"/><path class="b2339342-49e6-4b6e-a621-cbd4c63074a0" d="M34.65,19.38l-.06-.06Z"/><path class="b2339342-49e6-4b6e-a621-cbd4c63074a0" d="M34.59,19.32l-.06-.06Z"/><path class="f8f66c04-8a6c-421f-8534-103c61b0602f" d="M26.53,35.62l.06,0Z"/><path class="b2d61aec-e469-4fe3-b48e-6a1a292fed0c" d="M14.69,22l-.75.35a.68.68,0,0,1,.12-.46c.06-.08,0-.23,0-.33a4.63,4.63,0,0,1,.32-.86c.13-.22.07-.54.35-.67,0,0,0-.09,0-.14a.32.32,0,0,1,.23-.3c.09-.08.07-.26.23-.28a.49.49,0,0,0,0-.14h0l.1-.14.37.13v.25h0l-.23-.07v.31c.05.18-.1.28-.18.41l-.12.35c0,.08-.12.19-.1.24s0,.23-.13.29l-.06.41a1,1,0,0,0-.11.2C14.77,21.66,14.73,21.82,14.69,22Z"/><path class="e532a9cf-3280-4246-b322-2b97693e8a55" d="M15.75,19.38v-.25L15.38,19l-.1.14a.42.42,0,0,1,.22-.43s.05-.09.08-.14,0-.13.07-.16.22-.3.34-.44l.12-.06h0l.05-.06s0-.07,0-.09l.54-.56s.07,0,.07,0c.06-.23.29-.29.43-.43l.36-.21v.33h0l-.12.12a.36.36,0,0,0-.18.35h-.05l-.12.06s-.06,0-.07.05-.16.34-.36.41c0,0,0,0,0,.07l-.06.18h0l-.06.05c-.14.19-.3.36-.42.56S15.87,19.15,15.75,19.38Z"/><path class="b052757f-9559-484f-ab0c-852b6d6a03b1" d="M17.58,16.85v-.33l-.36.21s0-.09,0-.11l.94-.7c.15-.11.31-.2.46-.3a3.67,3.67,0,0,1,.53-.34,5.34,5.34,0,0,1,1.27-.56h0c0,.1-.1.19-.24.18S20.1,15,20,15l-.28.14-.12.11c-.18.13-.45.14-.55.39,0,0-.07,0-.11,0s-.13,0-.15.08a.59.59,0,0,1-.32.28c-.17.09-.28.27-.45.38A4,4,0,0,0,17.58,16.85Z"/><path class="a4de9b3b-2ac9-42b7-86c7-1a10287916f6" d="M22.7,14c0,.08-.19.16,0,.23l-.15.12c-.05,0-.14.09-.13.13,0,.28-.17.37-.37.46l-.41.11c0-.09.17-.15.06-.28s-.2-.07-.31,0l-.34.08L21,14.55h0c.15,0,.3,0,.36-.17Z"/><path class="b052757f-9559-484f-ab0c-852b6d6a03b1" d="M20.46,14.72l.53-.23v.06h0c-.18,0-.31.25-.52.18Z"/><path class="e532a9cf-3280-4246-b322-2b97693e8a55" d="M15.28,19.14a.49.49,0,0,1,0,.14c-.16,0-.14.2-.23.28C15.05,19.38,15,19.18,15.28,19.14Z"/><path class="b45e9100-e1ac-42d1-8289-f07904bb041b" d="M21,14.55v-.06l.36-.11C21.29,14.57,21.14,14.56,21,14.55Z"/><path class="a966738e-f4b6-446e-9f2c-80b3e1407eec" d="M16.11,17.91,16,18Z"/><path class="a966738e-f4b6-446e-9f2c-80b3e1407eec" d="M16.16,17.85l-.05.06Z"/><path d="M23.23,32l-1.4-.41a2.63,2.63,0,0,1-.3-.14l.52-1.56a15.51,15.51,0,0,0,.7-2.84,1.65,1.65,0,0,0-.08-.93.63.63,0,0,0-.54.56,3.18,3.18,0,0,0,0,.76c0,.26-.05.39-.32.42a5.14,5.14,0,0,1-.68,0c0,.09.06.17.08.25s0,.24-.18.17-.29-.17-.43-.25l-.33-.19v.46a.89.89,0,0,1-.24-.14c-.36-.37-.72-.74-1.07-1.12a1,1,0,0,1-.17-.4c0-.23-.06-.46-.08-.7a1.35,1.35,0,0,1,.18-.67,4.77,4.77,0,0,0,.28-.83c.08-.26.14-.53.21-.79,0-.1.08-.18.12-.28.26.07.31.32.49.51l.17-.56.35.39a2.71,2.71,0,0,0,.12-1.08c0-.14-.1-.19-.22-.2l-.28,0L20,22.12l-.26,0c0-.14-.05-.31-.14-.38s-.24,0-.37,0-.17-.21-.3-.31a4.44,4.44,0,0,1-.18,1.17c-.3-.33-.41-.73-.68-1.06l-.2.36a1.64,1.64,0,0,1-.67-1.12c0-.14,0-.28,0-.41a.3.3,0,0,0-.06-.2.34.34,0,0,1-.13-.42,4,4,0,0,1,.17-.59c.11-.3.24-.6.38-.89a2,2,0,0,1,.25-.35l.34-.18h.42v.06c-.2,0-.4,0-.53.17h0L18,18l-.13.22-.06.17.07.06.07-.14.57-.36.07-.18.3.11c.55.26,1.1.51,1.64.78a.55.55,0,0,0,.57,0,1.91,1.91,0,0,1,1.08-.2.53.53,0,0,0,.36-.09,1,1,0,0,1,1-.1l.62.27.19.1a3.68,3.68,0,0,1,.92.61c.32.31.46.28.66-.12s.3-.66.46-1a.74.74,0,0,1,.29.5c.12.39.2.79.3,1.19,0,.05,0,.09.05.18a2.05,2.05,0,0,0,1.29-1l.08.15.05.21.08,0L28.47,19c0-.19,0-.38,0-.56a.92.92,0,0,1,.09-.23,1.43,1.43,0,0,1,.21.12l.9.79a3.92,3.92,0,0,0,.47.27l.1-.54c.53.18,1,.35,1.55.54a1.36,1.36,0,0,1,.74.64l.06.1a1.12,1.12,0,0,0,.89.59,2,2,0,0,1,.48.11,1.4,1.4,0,0,1,.53.31,3.93,3.93,0,0,0,1.93,1l.32.09c0,.05,0,.08,0,.09-.13.29-.12.33.17.42s.69.14,1,.23a3.24,3.24,0,0,1,.53.16,1.27,1.27,0,0,1,.76,1c0,.22-.12.34-.26.46a4.09,4.09,0,0,0-.44.39c-.08.1-.11.25-.19.36a5.62,5.62,0,0,1-.55.64,3.23,3.23,0,0,1-1.15.85,2.45,2.45,0,0,1-1.4,0l.56-.48a.35.35,0,0,0-.4-.12,3.37,3.37,0,0,1-1.34,0c-.27,0-.3,0-.24.26a1,1,0,0,0,.09.31c0,.06.11.1.22.19l.07.74.58-.51a2.34,2.34,0,0,1,0,1.36,1.22,1.22,0,0,1-.88.82,6.42,6.42,0,0,1-1.75.23A4.26,4.26,0,0,0,31,27.8c-.25.36-.47.68-.67,1a7.17,7.17,0,0,1-2.61,2.52A6,6,0,0,1,26,32l-.22.05h-.2a6.92,6.92,0,0,1-2.13,0Zm-.64-11.59h0l.07,0h0l-.13.07h0l-.12,0h0l-.12-.06h0a.32.32,0,0,0-.34-.19h0l-.07-.05a3.12,3.12,0,0,1-.46-.43,1.73,1.73,0,0,0-1.65-.87.68.68,0,0,1-.62-.31c-.05,0-.09,0-.11.08a.47.47,0,0,1-.52.18c-.11,0-.21-.05-.32-.06s-.23,0-.25.19a.72.72,0,0,0,.8.91c.17,0,.35,0,.58,0a1.23,1.23,0,0,0-.13.2c0,.05-.07.14-.05.17a.22.22,0,0,0,.19,0,1,1,0,0,0,.32-.12c.14-.07.26-.17.4-.25s.27-.12.37.07l.17.23c.07,0,.13.15.23,0s.24,0,.34,0a1.88,1.88,0,0,1,.64.76,12.73,12.73,0,0,1,.82,2.56,1.93,1.93,0,0,1,0,.34h-.06l-.3-.4a1.27,1.27,0,0,0,0,.33,1.59,1.59,0,0,1-.12.59,2.65,2.65,0,0,1-2,1.39c-.26,0-.52,0-.83.06,0,.31,0,.61,0,.91a.24.24,0,0,0,.12.19c.07,0,.15-.06.22-.12s.11-.12.18-.19l.51.43c.13.1.26.22.45.17s.05-.19,0-.3-.14-.14,0-.22h0l.07.05a3.3,3.3,0,0,0,.3.22.38.38,0,0,0,.27.05s.06-.14.07-.23,0-.24,0-.35a1.72,1.72,0,0,1,.18-.42c.1-.16.25-.3.34-.47a1.21,1.21,0,0,1,.84-.67.8.8,0,0,0,.56-.55.77.77,0,0,1,.09-.28.44.44,0,0,1,.26-.16s.12.13.14.22c.08.33.16.38.48.23,0-.05.1-.09.11-.15a5.13,5.13,0,0,0,.11-1,10.27,10.27,0,0,0-.12-1.1l.14.08a2.78,2.78,0,0,1,.76,1.83,1.69,1.69,0,0,0,.26-.28,1.25,1.25,0,0,0,.1-1.45,11,11,0,0,0-1.48-2L24,20.14l0-.06-.1-.14-.06,0a.75.75,0,0,0,.09.15c.06.15.13.3.2.44s0,.1-.08.1l-.64-.54a.28.28,0,0,1-.09-.37.7.7,0,0,0,0-.45.82.82,0,0,0-.93-.27c-.37.21-.58.85-.08,1.09h0v0a.24.24,0,0,0,.25.22h0ZM26.93,27h0l-.11.06-.72.46a7.37,7.37,0,0,0-.61.5c-.12.1-.09.17.07.22l.13,0,0,.44a.61.61,0,0,1,.56-.1.37.37,0,0,0,.2-.08c.05,0,.08-.1.13-.15l.13.65a2.47,2.47,0,0,0,.88-1.09l.16,1.29.07,0c.07-.13.16-.26.22-.39a3.88,3.88,0,0,0,.33-1.43,6.85,6.85,0,0,0-1.16-4.25L27.17,23h0l-.11-.18L27,22.73l-.13-.16-.05,0,.1.21L27,23l.12.24a13.86,13.86,0,0,1,.37,2.8.88.88,0,0,1-.48.9Zm8-1.82-.13,0s0,0,0,0l-.13,0a3.72,3.72,0,0,0-1.2,0v.09l1,.06.26.05h0l.25.1c.14.09.11.2,0,.3s-.25.34-.38.52a.85.85,0,0,0,.77-.2l.92.48-.16.14-.16.08,0,.06.38-.07a.65.65,0,0,0,.49-.46l-.2,0a1.63,1.63,0,0,1-1.23-.59,2,2,0,0,0-.35-.3l-.19-.11ZM18.05,20.8c0,.11,0,.23.11.29.1.23.12.51.41.66L18.7,21l.1-.32a1.19,1.19,0,0,1-1.12-.45,1.3,1.3,0,0,0-.08.84c0,.11.08.23.24.27l0-.42c.07,0,0-.2.17-.11Zm10.65-.54h0a.42.42,0,0,0-.2-.46l.08.52,0,.9a1.81,1.81,0,0,0,0,.23c.16.14.32.29.49.42a.17.17,0,0,0,.16.05c.1,0,.05-.12,0-.19l-.44-1,0-.29Zm5.94,2.6c-.06-.06-.11-.13-.17-.18s0-.16.08-.19a.05.05,0,0,1,0,0l.06,0,.28.15a.76.76,0,0,0,.59.05.45.45,0,0,0-.33-.54,5.83,5.83,0,0,1-.72-.32A2.4,2.4,0,0,0,33,21.53a1.89,1.89,0,0,1-.81-.1c-.49-.17-1-.38-1.46-.6a1.93,1.93,0,0,1-.52-.38c-.26-.26-.49-.55-.73-.83a.43.43,0,0,0-.09-.1s0,0-.07,0l0,.09a2.3,2.3,0,0,0,.55,1c.28.25.59.45.89.68l-.22.26a6.76,6.76,0,0,1,1.7.44A4.14,4.14,0,0,0,31,24.31l-.46-.43a2.3,2.3,0,0,0-.7.79,2.42,2.42,0,0,0-.49,1.88,2.11,2.11,0,0,1-.21,1.51c-.13.25-.22.52-.36.77a.49.49,0,0,0,.06.59c.12.16.21.16.32,0a3.33,3.33,0,0,0,.28-.48q.36-.78.69-1.56a.58.58,0,0,0-.17-.74.54.54,0,0,1-.14-.57c.1-.39.19-.79.3-1.24,0,.1,0,.15.06.2s0,.32,0,.47a.79.79,0,0,0,.29.64c.34.3.65.63,1,.94a4.11,4.11,0,0,1,1.08,1.8,1.11,1.11,0,0,0,.12.3s.12.1.16.08c.25-.08.5-.19.8-.31l-.3-.27a2.1,2.1,0,0,1-.74-.85c-.15-.41-.29-.83-.41-1.26-.07-.27-.09-.55-.14-.83s0-.29-.09-.47a3.24,3.24,0,0,1,2.32-.8l-.09-.34a1.8,1.8,0,0,1,1.19.69,4.47,4.47,0,0,0,.42.45.53.53,0,0,0,.36.15A2.61,2.61,0,0,0,37.18,25a.42.42,0,0,0,.19-.37,2,2,0,0,0-.27-1,.53.53,0,0,0-.29-.22,3,3,0,0,0-1.54,0,2,2,0,0,1-1.27,0l0-.1.44-.25C34.52,23,34.65,23,34.64,22.86Zm3.13,1.29.17.11c-.09,0-.16.1-.1.2s.14.1.22,0,.28-.19.44-.3a2.82,2.82,0,0,0-.85-.52l-.18-.12,0,.05.08.14Zm-17.43.36a3.16,3.16,0,0,1,0,.32.26.26,0,0,1-.24.25c-.06,0-.16-.08-.21-.15a1.77,1.77,0,0,1-.15-.31L19.59,24h-.06l-.06.22c0,.33-.06.66,0,1s.1.3.33.32a1.49,1.49,0,0,0,.93-.17c.25-.15.49-.32.73-.47l.18-.18-.05-.06-.37.22L21,25c-.3.05-.4,0-.51-.29l-.05-.1c0-.13-.06-.21-.2-.25Zm7.77-4.61-1.87,1a1.81,1.81,0,0,0,1.53-.31l.05.05-.4,1.15C27.91,21.61,28.22,20.74,28.11,19.9Zm4.79,7.54,0,0a1.66,1.66,0,0,0,.12.31,1.63,1.63,0,0,0,.35.39,8.48,8.48,0,0,0,.81.51c.11.06.27.07.32-.09a4,4,0,0,0,.09-.5.31.31,0,0,0-.2.07l-.11.16c-.34-.17-.34-.17-.25-.51a.33.33,0,0,0,0-.17.8.8,0,0,0-.05-.21,1,1,0,0,0-.23.26c-.14.2-.24.22-.44.07S33,27.55,32.9,27.44Zm.7.07a1.28,1.28,0,0,1-.27-.88c0-.32,0-.42-.37-.53a.52.52,0,0,0,0,.11c0,.27,0,.54.07.81S33.23,27.48,33.6,27.51Zm-2.35-7.66a1,1,0,0,0,1,1C32.05,20.4,31.61,20.17,31.25,19.85ZM38,25.09a.73.73,0,0,0-.64.44.27.27,0,0,0,0,.21.25.25,0,0,0,.21,0,.39.39,0,0,0,.23-.16A4.07,4.07,0,0,0,38,25.09Z"/><path d="M21.35,28.75a.82.82,0,0,0,.22-.19c.14-.19.13-.2.44-.22a24.2,24.2,0,0,1-.92,2.93,8.56,8.56,0,0,1-1.92-1.5c.26-.65.24-.85-.15-1.22a4.31,4.31,0,0,0-1.17,2,5.06,5.06,0,0,1-2-.31,1,1,0,0,1-.62-.63,2.37,2.37,0,0,1,0-1.47l.52.5.08.05c0-.06,0-.11,0-.17,0-.26,0-.54.22-.73v0a1.19,1.19,0,0,0,.08-.62c-.31,0-.6.05-.89.05a4.07,4.07,0,0,1-.61-.07.68.68,0,0,0-.5.1l.58.48-.27.07a2.11,2.11,0,0,1-1.84-.56c-.23-.22-.48-.43-.7-.67s-.25-.39-.39-.57a2.65,2.65,0,0,0-.45-.49c-.34-.26-.38-.37-.26-.77a1.27,1.27,0,0,1,1-.87c.34-.09.69-.15,1-.22l.26-.07c.21-.09.22-.13.12-.35a1,1,0,0,0,0-.11l.2-.09,1.16-.4a1.69,1.69,0,0,0,.74-.52,1.87,1.87,0,0,1,1-.55c.36-.1.62-.09.8.3a1.55,1.55,0,0,0,.37.4c-.05,0-.09.11-.13.12a1.87,1.87,0,0,1-.41,0,2.46,2.46,0,0,0-1.58.43,2.58,2.58,0,0,1-.56.25c-.32.11-.4.21-.38.55,0,0,0,.06.08.07a1,1,0,0,0,.62-.12l.05-.07h0l.07-.05.06,0v.25h0l-.05.06.12.17.17.07c.15.22.38,0,.55.13l-.25.15a1.92,1.92,0,0,1-1,0,3.31,3.31,0,0,0-1.13-.1c-.78.1-.9.18-1.07.95-.11.5,0,.69.47.89l.24.11c.74.23.64.2,1.12-.28a.73.73,0,0,0,.08-.09,5.32,5.32,0,0,1,.48-.47,1.33,1.33,0,0,1,.8-.32l-.08.32.1,0A3.51,3.51,0,0,1,18,26l0,.22s0,0,0,0-.06.05-.06.08a4.46,4.46,0,0,1-.17,1.2.07.07,0,0,0,0,.06l-.06.24h0l-.06.18h0l-.06.18h0l-.23.59s0,0,0,0l-.06.13h0l-.06.06h0l-.06.06h0l-.06.06h0l-.18.17h0l-.23.19h0l-.06.05h0l-.31.24.49.17,0,0h0l.13.06h0c.29.12.29.12.37-.18h0l.05-.18h0l.05-.12s0,0,0,0l.28-.67s0,0,0,0l.05-.08h0l.25-.34h0l.07-.06h0l.06-.07h0l.13-.18h0l.06-.07h0l.06-.06h0l.06-.07h0l.06-.06h0l.05-.07h0l.06-.06h.11l.06.06,1.07,1,.11.07h0l.12.12c.2.39.4.78.61,1.16a.64.64,0,0,0,.16.2.16.16,0,0,0,.15,0,.54.54,0,0,0,.17-.61c-.12-.27-.25-.55-.36-.81Zm-9.19-2.42.06.07a1.38,1.38,0,0,0,.25.17.2.2,0,0,0,.18-.05.23.23,0,0,0,0-.18.69.69,0,0,0-.62-.45l.09.32.05.12Zm2.65-.24-.07.05c-.08.08-.17.14-.24.22a1.61,1.61,0,0,1-1.21.57L13.1,27c.21.4.47.53.81.43l-.25-.2.91-.49a.92.92,0,0,0,.78.22l-.43-.61v-.18h0l.07-.05.05,0,.12-.05h0l.17-.06h0l.37-.05a1.79,1.79,0,0,0,.85-.13h-1l-.24.05h-.06l-.13.05s0,0,0,0h-.06L15,26l-.05,0,0,.05-.07.05Zm2.18.77-.11.06a.47.47,0,0,0-.21.56.33.33,0,0,1,0,.17c-.07.22-.15.44-.22.65a.51.51,0,0,0,.55-.54c0-.23,0-.45.06-.67a.59.59,0,0,0,.05-.22c0-.07-.07-.08-.11,0Zm-.89,1.36s-.1,0-.1,0a.4.4,0,0,0-.07.2c0,.18.08.36.12.53l-.25.19-.28-.26-.07,0c0,.14,0,.29.08.42s.13.23.33.16a2.42,2.42,0,0,0,1-.67,2.65,2.65,0,0,0,.26-.39s0-.11,0-.2l-.5.39a.19.19,0,0,1-.3,0C16.24,28.45,16.18,28.33,16.1,28.22ZM11.45,25l.47.32a.15.15,0,0,0,.23,0c.07-.11,0-.16-.09-.21L11.88,25a.57.57,0,0,0,.6-.58Z"/><path class="a1837916-9eed-4101-a536-5f9317dc9001" d="M17.53,29.47s0,0,0,0l-.05.12h0l-.05.18h0c-.1.12-.2.22-.37.18h0l-.13-.06h0l0,0-.31-.22.13-.19h0l.06-.05h0l.23-.19h0c.13,0,.19,0,.18-.17h0l.06-.06h0l.06-.06h0l.06-.06h0l.06-.13s0,0,0,0a.7.7,0,0,0,.23-.59h0l.06-.18h0l.06-.18h0l.06-.24a.07.07,0,0,1,0-.06,1,1,0,0,0,.16-.34c0-.31.05-.63.07-.94,0,0,0,0,0,0s.12-.12,0-.22a3.51,3.51,0,0,0-2.16-.72l-.1,0,.08-.32a1.33,1.33,0,0,0-.8.32,5.32,5.32,0,0,0-.48.47.73.73,0,0,1-.08.09c-.48.48-.38.51-1.12.28L13.13,26c-.48-.2-.58-.39-.47-.89.17-.77.29-.85,1.07-.95a3.31,3.31,0,0,1,1.13.1,1.92,1.92,0,0,0,1,0,.81.81,0,0,0,.83-.7l.55-.86c-.22,0-.42,0-.63,0a.8.8,0,0,0-.57.22l-.07.05h0l-.53.36h0l-.07.05-.05,0-.06,0-.07.05h0a1.22,1.22,0,0,1-.7.11c0-.34.06-.44.38-.55a2.58,2.58,0,0,0,.56-.25A2.46,2.46,0,0,1,17,22.32a1.87,1.87,0,0,0,.41,0s.08-.08.13-.12.29.08.42.14.11.14.16.22l-.35.15,1,1.29.09-.15v0a5.65,5.65,0,0,1-.42,1.26.87.87,0,0,0-.16.43,11.38,11.38,0,0,0,.07,1.31,1.44,1.44,0,0,0,.45.74l-.06.07h0l-.06.06h0l-.05.07h0l-.06.06h0l-.06.07h0l-.06.06h0l-.06.07h0l-.13.18h0l-.06.07h0l-.07.06h0a.39.39,0,0,0-.25.34h0l-.05.08s0,0,0,0A.84.84,0,0,0,17.53,29.47Z"/><path class="ea5e7a15-daac-4d74-99dd-804b7c7f8484" d="M18.28,32.8l-.52-.11a.86.86,0,0,0-.07-.1A3.42,3.42,0,0,1,17,31.9c-.09-.13-.26-.21-.28-.4,0,0-.1-.07-.15-.11l.31,0L16.66,31l.22,0H17l.29.06a2,2,0,0,0,.21.28c.19.2.34.44.64.48s.54.05.81.06c.58,0,1.17,0,1.75.07a.79.79,0,0,0,.43-.07,9.19,9.19,0,0,0,2.29.7v.07s-.07,0-.1,0q-.94,0-1.89-.06l-.7,0L19,32.51c-.14,0-.14.08-.14.18a2.73,2.73,0,0,0-.25-.23.33.33,0,0,0-.18-.05c-.05,0-.08.1-.09.16A1.85,1.85,0,0,0,18.28,32.8Z"/><path class="bf2d1f9d-7848-4ace-b2ca-7fb22de7a0a8" d="M19,17.38a7.73,7.73,0,0,1,1.36,0c.65,0,1.31.11,2,.15.39,0,.78,0,1.18,0s1,0,1.51.06.74.08,1.1.12a1,1,0,0,0-.27.47,4.52,4.52,0,0,1-.29.64l-.62-.41-.18-.12-.17-.06-.19-.11c-.29-.12-.58-.27-.89-.37a1.37,1.37,0,0,0-1.1.13A1.32,1.32,0,0,1,22,18a3.15,3.15,0,0,0-1.05.2.45.45,0,0,1-.28,0c-.56-.26-1.11-.54-1.66-.81Z"/><path class="b493c1cd-7d46-4022-a731-b929b25d036d" d="M34.24,29.92l-.53.88h0l-.06.06-.3.3a2.79,2.79,0,0,0-.91-.13c-.4,0-.8,0-1.19-.05-.16,0-.33,0-.48,0a8.94,8.94,0,0,0-1.55-.07l.71-.7a1,1,0,0,1,.56,0,6.32,6.32,0,0,0,.75.06,3.93,3.93,0,0,0,.48-.06A7,7,0,0,0,34.24,29.92Z"/><path class="ab5353ac-42d5-4621-8eca-1e2a71b86472" d="M23.41,32.63v-.07c.25,0,.5,0,.76.06A7.4,7.4,0,0,0,27.54,32a1,1,0,0,1,.16-.06,1.43,1.43,0,0,0,.39.11L30,32.1l.93.06,1.44.11-.29.3-.06.06a1.36,1.36,0,0,1-.38.11l-2.25-.05h-.06L28,32.57a7.94,7.94,0,0,0-1,0,3.78,3.78,0,0,0-1.06,0,7,7,0,0,1-1.12.14H23.76l-.06-.06Z"/><path class="b7a69eea-e145-434b-809e-8252b3e943b8" d="M32.41,32.27,31,32.16,30,32.1,28.09,32a1.43,1.43,0,0,1-.39-.11l.82-.47a.81.81,0,0,1,.22,0c.48,0,1,.1,1.44.12s.88,0,1.32,0l1.44.12Z"/><path class="b5bb0121-cb12-4a6b-a4d4-3c98408225d4" d="M21.12,31.86a.79.79,0,0,1-.43.07c-.58,0-1.17,0-1.75-.07q-.4,0-.81-.06c-.3,0-.45-.28-.64-.48a2,2,0,0,1-.21-.28c.29,0,.57,0,.85,0a.29.29,0,0,0,.22-.08c.08-.18.22-.16.37-.14a1.37,1.37,0,0,0,.28.05,1.32,1.32,0,0,1,.76.12Z"/><path class="ec18caf3-c1bf-46d5-b3db-a7d187cfce75" d="M32.94,31.69l-1.44-.12c-.44,0-.88,0-1.32,0s-1-.08-1.44-.12a.81.81,0,0,0-.22,0l.7-.54a8.94,8.94,0,0,1,1.55.07c.15,0,.32,0,.48,0,.39,0,.79.05,1.19.05a2.79,2.79,0,0,1,.91.13Z"/><path class="ac4882bd-fe1b-4458-977e-39148e64aea6" d="M17.23,17.32h.05l.17.15c-.14.18-.37.3-.34.56h0a1.53,1.53,0,0,0-.18.18l-.76,1.11a3.24,3.24,0,0,0-.42.83l-.05.11-.06.12a2.7,2.7,0,0,0-.17.34,1.94,1.94,0,0,1-.47,1s0,0,0,.06l-.3.24c0-.15.08-.31.13-.45a1,1,0,0,1,.11-.2l.06-.41c.11-.06.2-.12.13-.29s.07-.16.1-.24.1-.08.12-.12a.88.88,0,0,0,0-.23c.08-.13.23-.23.18-.41l.23-.24h0c.12-.23.22-.47.35-.68s.28-.37.42-.56l.06-.05h0l.06-.18s0-.06,0-.07c.2-.07.26-.26.36-.41s0,0,.07-.05Z"/><path class="e83a2cd4-05bb-4a81-a07e-1bdba876a33d" d="M31.72,30.21a3.93,3.93,0,0,1-.48.06,6.32,6.32,0,0,1-.75-.06,1,1,0,0,0-.56,0l.81-1.13a5.47,5.47,0,0,0,.31-.5A2.89,2.89,0,0,1,31.72,30.21Z"/><path class="a2138820-97dc-42eb-902a-2e3d53d5f405" d="M17.11,18c0-.26.2-.38.34-.56l-.17-.15a.36.36,0,0,1,.18-.35l.12-.12h0a4,4,0,0,1,.48-.44c.17-.11.28-.29.45-.38a.59.59,0,0,0,.32-.28s.1-.06.15-.08.1,0,.11,0c.1-.25.37-.26.55-.39,0,.09.18.17.06.29l-.47.36a2.53,2.53,0,0,0-.27.18c-.25.22-.48.48-.75.68a.45.45,0,0,0-.22.48A1.64,1.64,0,0,0,17.11,18Z"/><path class="a4347140-0b4b-42ce-91f1-7e5e5e962faf" d="M21.35,28.75l-.45.12c.11.26.24.54.36.81a.54.54,0,0,1-.17.61.16.16,0,0,1-.15,0,.64.64,0,0,1-.16-.2c-.21-.38-.41-.77-.61-1.16l0-.1,0,0a1.38,1.38,0,0,1,.92,0A.74.74,0,0,0,21.35,28.75Z"/><path class="ab35bcae-214b-408a-9469-b1cbe42140e5" d="M26.82,17.85a3,3,0,0,0,1.31,0,1.51,1.51,0,0,0-.15.59,1.11,1.11,0,0,1-.6.91A4.74,4.74,0,0,0,26.82,17.85Z"/><path class="f254969e-80ee-42b2-9d91-f71b9a4a1dca" d="M18.81,23.85l-.09.15-1-1.29.35-.15.2.24a.51.51,0,0,0,.86,0c.13-.18.3,0,.43-.12.07.27.07.28-.14.3a.53.53,0,0,0-.48.36C18.91,23.49,18.87,23.67,18.81,23.85Z"/><path class="b6f9ef2b-535c-4d4a-8413-c5f76df4a56a" d="M19.76,31a1.32,1.32,0,0,0-.76-.12,1.37,1.37,0,0,1-.28-.05c-.15,0-.29,0-.37.14a.29.29,0,0,1-.22.08c-.28,0-.56,0-.85,0L17,31h1c.39,0,.28,0,.38-.33s.14-.49.23-.78Z"/><path class="b4c86f42-8662-4605-9281-eda5bf5098ab" d="M18,17.25a.45.45,0,0,1,.22-.48c.27-.2.5-.46.75-.68a2.53,2.53,0,0,1,.27-.18l.11.41-.81.73.22.21A1,1,0,0,0,18,17.25Z"/><path class="a95495a9-69e9-4e85-a203-888a3fabcb0d" d="M16.58,20.21c0,.05.09.1.1.16a1.27,1.27,0,0,1,0,.51c0,.07-.2.11-.31.14s-.31.05-.46.08l-.07-.19.41-.94.18-.24C16.5,19.89,16.37,20.09,16.58,20.21Z"/><path class="f5f90782-9dd9-4ce5-864f-724c0a5ab984" d="M16.46,19.73l-.18.24v-.41a.2.2,0,0,0-.11-.24l.76-1.11a1.53,1.53,0,0,1,.18-.18c-.11.3-.23.6-.34.89s-.13.35-.19.52Z"/><path class="ae8603fb-1ade-4b5e-a975-20207d3d717a" d="M15.87,20.91l.07.19a2.55,2.55,0,0,0-.95.63s0-.05,0-.06a1.94,1.94,0,0,0,.47-1,2.7,2.7,0,0,1,.17-.34l.06-.12.05-.11Z"/><path class="f4cebcc3-031b-43b8-ac80-742cc8a41448" d="M16.88,31l-.22,0,.23.36-.31,0,0-.07a.84.84,0,0,0-.54-.5s0,0-.06-.06Z"/><path class="e25c0480-0aa5-4436-870f-4f6bfee9129b" d="M23.23,32h.26a6.92,6.92,0,0,0,2.13,0h.2a1.18,1.18,0,0,1-.35.11,8.1,8.1,0,0,1-2.2-.06A.1.1,0,0,1,23.23,32Z"/><path class="bec33804-37ec-46a2-8980-d571da481b65" d="M16.1,27.73v0c-.23.19-.21.47-.22.73,0,.06,0,.11,0,.17l-.08-.05c0-.11.05-.23.06-.35s0-.29,0-.43Z"/><path class="f3492d3a-91f1-4adc-b9fb-9931f6da95a1" d="M16.46,19.73l.12-.29v.77C16.37,20.09,16.5,19.89,16.46,19.73Z"/><path class="e5b1cbb7-1d9a-4711-99ee-8db2673a6ce7" d="M28.47,19l.07.37-.08,0-.05-.21Z"/><path class="ae3c4133-a3d5-4e86-bd64-bb75296109e1" d="M18.16,17.73l-.34.18Z"/><path class="ae3c4133-a3d5-4e86-bd64-bb75296109e1" d="M18.59,17.73h-.43A.39.39,0,0,1,18.59,17.73Z"/><path class="ae3c4133-a3d5-4e86-bd64-bb75296109e1" d="M18.88,17.9l-.3-.11h0v-.06Z"/><path class="a91c569d-6d9d-4f8b-8343-4d13d1af99bb" d="M30.46,18.27l.24.18Z"/><path class="b69b1ef6-645c-4b1f-b7c8-158c3f9ae859" d="M24.36,18.67l-.19-.1Z"/><path class="ef2d157a-c2d1-4294-945c-3392b5409ee9" d="M24.76,18.32l.18.12Z"/><path class="b74730a4-31e2-430a-ac14-10edbecb6d3c" d="M24.4,18.15l.19.11Z"/><path class="f180510a-bc62-4741-ab4e-4839197fa2f9" d="M20.05,28.8l-.11-.07.11,0S20.06,28.78,20.05,28.8Z"/><path class="a4347140-0b4b-42ce-91f1-7e5e5e962faf" d="M20.05,28.8s0,0,0-.05l.13,0,0,0-.1,0Z"/><path class="a85ecd58-5359-49fc-b789-1c146aa940f6" d="M18.7,27.69l.06-.07,0,.07Z"/><path class="a91c569d-6d9d-4f8b-8343-4d13d1af99bb" d="M30.7,18.44l.06,0Z"/><path class="a91c569d-6d9d-4f8b-8343-4d13d1af99bb" d="M30.4,18.21l.07.06Z"/><path class="a85ecd58-5359-49fc-b789-1c146aa940f6" d="M18.87,27.75l-.06-.06Z"/><path class="b39de5fc-d8bf-4a5c-87ff-55e4c68534a8" d="M34.69,20.62l.07.06Z"/><path class="a663d385-3389-439d-babc-1cc452a3e418" d="M21.64,15l.41-.11a.73.73,0,0,0,.2.05c.6,0,1.21,0,1.81.06h.24a11.61,11.61,0,0,0,1.77.11h.18c.55,0,1.1.09,1.66.12h.85c.27,0,.54,0,.81,0,.05,0,.09-.07.13-.11L31,16s.07.07.1.1L29.43,16h-.06l-1.63-.06-1.69-.12H26l-1.9-.06c-.46,0-.92,0-1.37-.06s-1.09-.07-1.63-.12l-.37-.05Z"/><path class="a4bec0ca-aeea-4aa4-becc-bde33a0d38da" d="M21.64,15l-.94.48-.3.11-.06.06h0c-.21-.1-.22-.13-.11-.41l.82-.47.34-.08c.11,0,.22-.09.31,0S21.67,14.93,21.64,15Z"/><path class="a0b6aced-fa64-469e-96ed-e518ace2e6fe" d="M20.23,15.26c-.11.28-.1.31.11.41l-.76.47-.06.06h0l-.06.06h0l-.06.06h-.06l-.11-.41.47-.36.17-.08Z"/><path class="b4c86f42-8662-4605-9281-eda5bf5098ab" d="M19.4,16.32l.06-.06Z"/><path class="b4c86f42-8662-4605-9281-eda5bf5098ab" d="M19.46,16.26l.06-.06Z"/><path class="b4c86f42-8662-4605-9281-eda5bf5098ab" d="M19.52,16.2l.06-.06Z"/><path class="a0b6aced-fa64-469e-96ed-e518ace2e6fe" d="M20.34,15.67l.06-.06Z"/><path class="a2138820-97dc-42eb-902a-2e3d53d5f405" d="M30.47,33.69a1,1,0,0,1-.59.35L29.63,34c-.41,0-.82,0-1.23-.06a8.45,8.45,0,0,1-1.12,0,8.92,8.92,0,0,0-1.37-.07c-.27,0-.55,0-.82,0s-.79-.09-1.19-.11c-.56,0-1.13,0-1.69-.06h-.09c-.58,0-1.16-.08-1.74-.1-.07,0-.14.07-.21.11h-.06l-.06-.06H20l-.06-.06-.17-.12-.06-.06-.3-.17c0-.24.2-.18.34-.17l.57,0,1.58.06.75.06c.48,0,.95.09,1.42.11l1.87.07c.66,0,1.32.11,2,.1s1.29.1,1.94.08a2.57,2.57,0,0,1,.55.06S30.45,33.65,30.47,33.69Z"/><path class="a78f16f3-c2c3-49ec-8a18-557e6345fde7" d="M23.41,32.63h.29l.06.06h1.12a.58.58,0,0,0,.18.11c.29,0,.58.05.88.06.62,0,1.25,0,1.87.06l1.46.06h.09l1,.11H31c.12,0,.21,0,.22.18l-.42.29c0-.2,0-.23-.2-.23l-2-.07L27,33.22H26.9c-.64-.06-1.29-.14-1.94-.16s-1.53-.06-2.3-.12c-.58,0-1.17,0-1.75-.07-.37,0-.74,0-1.11,0s-.46,0-.69,0h-.06L19,32.8l-.12,0-.06-.06h0c0-.1,0-.18.14-.18l1.77.06.7,0q.95,0,1.89.06S23.37,32.65,23.41,32.63Z"/><path class="b973b7ed-db72-4853-bfd8-d4b904d5886a" d="M29.29,34.33l-.7.24s-.07-.11-.11-.11a7.91,7.91,0,0,0-.84-.06c-.71,0-1.42-.13-2.14-.07-.14,0-.29,0-.43,0-.52,0-1.05,0-1.57-.06h-.06L22,34.1h-1l-.59-.29a4.62,4.62,0,0,1,.64-.06c.37,0,.73.1,1.1.11.81,0,1.61.07,2.42.11s1.46.06,2.19.12,1.35,0,2,.07c.05,0,.1,0,.14,0Z"/><path class="a2138820-97dc-42eb-902a-2e3d53d5f405" d="M19.11,32.86c.23,0,.46,0,.69,0s.74,0,1.11,0c.58,0,1.17,0,1.75.07.77.06,1.53.09,2.3.12s1.3.1,1.94.16H27l1.58.05,2,.07c.2,0,.22,0,.2.23l-.29.12s0-.11-.07-.11a2.57,2.57,0,0,0-.55-.06c-.65,0-1.29-.09-1.94-.08s-1.32-.07-2-.1l-1.87-.07c-.47,0-.94-.07-1.42-.11l-.75-.06L20.31,33l-.57,0c-.14,0-.32-.07-.34.17l-.06-.06L19.29,33h0L19.23,33h-.06l-.06-.06h0Z"/><path class="ea5e7a15-daac-4d74-99dd-804b7c7f8484" d="M31.18,33.28c0-.15-.1-.18-.22-.18h-.62l-1-.11h-.09l-1.46-.06c-.62,0-1.25,0-1.87-.06-.3,0-.59,0-.88-.06a.58.58,0,0,1-.18-.11A7,7,0,0,0,26,32.55a3.78,3.78,0,0,1,1.06,0,7.94,7.94,0,0,1,1,0l1.33.11h.06l2.25.05a1.36,1.36,0,0,0,.38-.11.9.9,0,0,1-.19.2C31.65,33,31.41,33.13,31.18,33.28Z"/><path class="a71a0938-ce39-4ca1-b307-915e5209698d" d="M21.05,34.1h1l1.42.11h.06c.52,0,1.05,0,1.57.06.14,0,.29.06.43,0,.72-.06,1.43.07,2.14.07a7.91,7.91,0,0,1,.84.06s.07.07.11.11v.06l-.65.18c0-.18-.2-.17-.33-.18-.5,0-1,0-1.51-.06l-1.61-.06h0c-.61,0-1.24-.07-1.85-.12a5.53,5.53,0,0,0-.91,0h-.12l-.06-.06h-.06l-.06,0h0l-.12-.06Z"/><path class="a2138820-97dc-42eb-902a-2e3d53d5f405" d="M20.17,33.63c.07,0,.14-.12.21-.11.58,0,1.16.07,1.74.1h.09c.56,0,1.13,0,1.69.06.4,0,.79.08,1.19.11s.55,0,.82,0a8.92,8.92,0,0,1,1.37.07,8.45,8.45,0,0,0,1.12,0c.41,0,.82,0,1.23.06l.25.06-.18.06L28.51,34c-.77,0-1.54-.1-2.31-.11s-1.61-.07-2.42-.11c-.65,0-1.3-.09-2-.12a6.12,6.12,0,0,0-1.6,0Z"/><path class="a78f16f3-c2c3-49ec-8a18-557e6345fde7" d="M20.23,33.69a6.12,6.12,0,0,1,1.6,0c.65,0,1.3.08,2,.12.81,0,1.61.09,2.42.11s1.54.07,2.31.11l1.19.06-.41.23L29,34.16s-.09,0-.14,0c-.67,0-1.35,0-2-.07S25.35,34,24.62,34s-1.61-.11-2.42-.11c-.37,0-.73-.09-1.1-.11a4.62,4.62,0,0,0-.64.06h0l-.12-.06Z"/><path class="e483c012-5b08-465d-9674-539275f63bb2" d="M27.94,34.81l.65-.18.11.29-.47.18-.9.18-.33.06c-.06-.23-.22-.26-.42-.24V35l.36-.06a2.6,2.6,0,0,0,.39,0Z"/><path class="ad08bac4-8717-4b4e-9ccb-c5cd35bbd203" d="M29.7,15.2s-.08.11-.13.11c-.27,0-.54,0-.81,0h-.85c-.56,0-1.11-.08-1.66-.12h-.18A11.61,11.61,0,0,1,24.3,15h-.24c-.6,0-1.21,0-1.81-.06a.73.73,0,0,1-.2-.05c.2-.09.39-.18.37-.46,0,0,.08-.09.13-.13l.15-.12.59-.12c-.06.14-.2.27,0,.39l1.48-.15a2.27,2.27,0,0,0,.25-.06h1.11l.53.06h.06l.12.06c.3,0,.61.09.9.16s.54.12.81.19Z"/><path class="f2586512-6030-4c04-9792-b059bfb119f8" d="M28.53,14.73c-.27-.07-.54-.14-.81-.19s-.6-.11-.9-.16l-.12-.06a.28.28,0,0,0,.18-.3l.82.12,1,.3C28.66,14.54,28.7,14.7,28.53,14.73Z"/><path class="ae146e10-dd70-4c1b-9b29-8189789a2ae6" d="M26.88,14a.28.28,0,0,1-.18.3h-.06l-.53-.06H24.54c-.28,0-.29,0-.25-.3h.12l.64-.05,1.48.06.29,0Z"/><path class="ece007cb-773a-4269-8307-482a0418c7dc" d="M24.29,14c0,.28,0,.3.25.3H25a2.27,2.27,0,0,1-.25.06l-1.48.15c-.18-.12,0-.25,0-.39Z"/><path class="ece007cb-773a-4269-8307-482a0418c7dc" d="M25.05,13.91l-.64.05Z"/><path class="f2586512-6030-4c04-9792-b059bfb119f8" d="M26.82,14l-.29,0Z"/><path class="e491a499-63f9-44c2-98bc-af0d64c2f6c3" d="M20.23,33.69l.11.06.12.06h0l.59.29.18.12.12.06h0l.06,0h.06l.06.06h.12l.29.18V35h-.06l-.17-.06h0l-.06-.05-.3-.06-.88-.47-.35-.18-.47-.3a2.49,2.49,0,0,1-.11-.29c0-.08,0-.17.11-.18h.06l.17.12.06.06h.06l.06.06h.06Z"/><path class="bb328600-be74-4f0e-828f-6ab7c3b4bd9a" d="M26,35.51c-.41,0-.84,0-1.25,0s-1-.14-1.57-.22c-.11-.14-.1-.21.06-.36l.51.07.49.11-.1.29.93.06H26Z"/><path class="ad08bac4-8717-4b4e-9ccb-c5cd35bbd203" d="M23.23,34.92c-.16.15-.17.22-.06.36L22,35v-.41l.71.18h0l.06.06h.17l.12,0Z"/><path class="f8f66c04-8a6c-421f-8534-103c61b0602f" d="M26,35.51v-.06l.88-.06h0Z"/><path class="a2e86284-eadc-44dc-ba9e-f759465aa55a" d="M21.76,34.92l.17.06Z"/><path class="a2e86284-eadc-44dc-ba9e-f759465aa55a" d="M21.7,34.87l.06.05Z"/><path class="f22d1b7e-61a7-4ccb-ac80-2d9a4b74c238" d="M33.65,30.86l.06-.06Z"/><path class="a3d52d05-7cd0-4fb8-b6a9-c3ba3f84d7eb" d="M19.7,33.39c-.13,0-.13.1-.11.18a2.49,2.49,0,0,0,.11.29l-.22-.12-.19-.11-1-.83a1.85,1.85,0,0,1,0-.23c0-.06,0-.14.09-.16a.33.33,0,0,1,.18.05,2.73,2.73,0,0,1,.25.23h0l.06.06.12,0,.06.06h0l.06.06h0l.06.06h.06l.06.06h0l.05.06.06.06.3.17Z"/><path class="bc652f47-3f59-4a81-b887-c1f0b4c52e51" d="M19.29,33.63l.19.11.22.12.47.3-.06.29a.91.91,0,0,0-.22-.11c-.12,0-.25,0-.26-.21a.08.08,0,0,0-.07-.07C19.28,34,19.22,33.9,19.29,33.63Z"/><path class="b945b2ae-d9d2-4ab8-bc06-01cde74dc2da" d="M26.88,35.39l-.88.06h-.94l-.93-.06.1-.29h.18l.53.06h.84A1.41,1.41,0,0,0,26,35.1h.58c.2,0,.36,0,.42.24Z"/><path class="e532a9cf-3280-4246-b322-2b97693e8a55" d="M15.75,19.38l-.23.24v-.31Z"/><path class="a3564765-004c-4f49-903b-272bb422abe5" d="M15.34,20a.88.88,0,0,1,0,.23s-.08.08-.12.12Z"/><path class="a814b8ac-4c56-4ceb-80ad-0fa7fd7dedb7" d="M15,20.91l-.06.41Z"/><path class="b052757f-9559-484f-ab0c-852b6d6a03b1" d="M17.58,16.85l-.12.12Z"/><path class="f05e4476-6f78-4ac6-b535-df3837ad87e9" d="M16.64,17.91l-.06.18Z"/><path class="a2138820-97dc-42eb-902a-2e3d53d5f405" d="M17.23,17.32l-.12.06Z"/><path class="f05e4476-6f78-4ac6-b535-df3837ad87e9" d="M16.58,18.09l-.06.05Z"/><path class="b45e9100-e1ac-42d1-8289-f07904bb041b" d="M20.23,15.26l-.36.21-.17.08c.12-.12,0-.2-.06-.29l.12-.11L20,15c.06,0,.13-.1.19-.1s.19-.08.24-.18c.21.07.34-.13.52-.18l.06.24Z"/><path class="a1837916-9eed-4101-a536-5f9317dc9001" d="M34,23.38a2,2,0,0,0,1.27,0,3,3,0,0,1,1.54,0,.53.53,0,0,1,.29.22,2,2,0,0,1,.27,1,.42.42,0,0,1-.19.37,2.61,2.61,0,0,1-1.06.41.53.53,0,0,1-.36-.15,4.47,4.47,0,0,1-.42-.45,1.8,1.8,0,0,0-1.19-.69l.09.34a3.24,3.24,0,0,0-2.32.8c0,.18.07.32.09.47s.07.56.14.83c.12.43.26.85.41,1.26a2.1,2.1,0,0,0,.74.85l.3.27c-.3.12-.55.23-.8.31,0,0-.13,0-.16-.08a1.11,1.11,0,0,1-.12-.3,4.11,4.11,0,0,0-1.08-1.8c-.32-.31-.63-.64-1-.94a.79.79,0,0,1-.29-.64c0-.15,0-.31,0-.47s0-.1-.06-.2c-.11.45-.2.85-.3,1.24a.54.54,0,0,0,.14.57.58.58,0,0,1,.17.74q-.33.78-.69,1.56a3.33,3.33,0,0,1-.28.48c-.11.16-.2.16-.32,0a.49.49,0,0,1-.06-.59c.14-.25.23-.52.36-.77a2.11,2.11,0,0,0,.21-1.51,2.42,2.42,0,0,1,.49-1.88,2.3,2.3,0,0,1,.7-.79l.46.43A4.14,4.14,0,0,1,32.27,22a6.76,6.76,0,0,0-1.7-.44l.22-.26c-.3-.23-.61-.43-.89-.68a2.3,2.3,0,0,1-.55-1h.12c.24.28.47.57.73.83a1.93,1.93,0,0,0,.52.38c.48.22,1,.43,1.46.6a1.89,1.89,0,0,0,.81.1,2.4,2.4,0,0,1,1.48.37,5.83,5.83,0,0,0,.72.32.45.45,0,0,1,.33.54.76.76,0,0,1-.59-.05l-.28-.15-.06,0a.05.05,0,0,0,0,0l-.14-.11v0a1,1,0,0,0-.65-.42c-.3,0-.59-.06-.89-.07-.11,0-.15,0,0,.12l.25.29,0,.07h0l.06.12h0l.06.11h0l.05.12.14.35,0,.05A.63.63,0,0,0,34,23.38Z"/><path class="a1837916-9eed-4101-a536-5f9317dc9001" d="M23.35,20.14l.64.54.17.13,0,0-.07-.3.16,0a11,11,0,0,1,1.48,2,1.25,1.25,0,0,1-.1,1.45,1.69,1.69,0,0,1-.26.28,2.78,2.78,0,0,0-.76-1.83l-.18-.24a.26.26,0,0,0-.32-.21l.13.16c0,.1.1.19.13.29a3.82,3.82,0,0,1,0,2.12c-.32.15-.4.1-.48-.23,0-.09-.11-.22-.14-.22a.44.44,0,0,0-.26.16.77.77,0,0,0-.09.28.8.8,0,0,1-.56.55,1.21,1.21,0,0,0-.84.67c-.09.17-.24.31-.34.47a1.72,1.72,0,0,0-.18.42c0,.11,0,.24,0,.35s0,.22-.07.23a.38.38,0,0,1-.27-.05,3.3,3.3,0,0,1-.3-.22l-.07-.05h0c-.12,0-.14,0-.12.08s.07.29.11.44c-.19.05-.32-.07-.45-.17l-.51-.43c-.07.07-.12.14-.18.19s-.15.13-.22.12a.24.24,0,0,1-.12-.19c0-.3,0-.6,0-.91.31,0,.57,0,.83-.06a2.65,2.65,0,0,0,2-1.39,1.59,1.59,0,0,0,.12-.59,1.27,1.27,0,0,1,0-.33l.3.4h.06a1.93,1.93,0,0,0,0-.34,12.73,12.73,0,0,0-.82-2.56,1.88,1.88,0,0,0-.64-.76c-.1-.07-.21-.15-.34,0s-.16,0-.23,0L20.41,20c-.1-.19-.24-.16-.37-.07s-.26.18-.4.25a1,1,0,0,1-.32.12.22.22,0,0,1-.19,0s0-.12.05-.17a1.23,1.23,0,0,1,.13-.2c-.23,0-.41,0-.58,0a.72.72,0,0,1-.8-.91c0-.17.07-.21.25-.19s.21,0,.32.06a.47.47,0,0,0,.52-.18s.06,0,.11-.08a.68.68,0,0,0,.62.31,1.73,1.73,0,0,1,1.65.87,3.12,3.12,0,0,0,.46.43l.07.05h0l.34.19h0l.12.06h0l.12,0h0l.24.13,0-.06-.15-.14h0l-.07,0h0l-.06-.06h0l-.25-.22v0l.3-.08h.3Z"/><path class="a1837916-9eed-4101-a536-5f9317dc9001" d="M27.24,23.14a6.85,6.85,0,0,1,1.16,4.25,3.88,3.88,0,0,1-.33,1.43c-.06.13-.15.26-.22.39l-.07,0-.16-1.29A2.47,2.47,0,0,1,26.74,29l-.13-.65c-.05.05-.08.11-.13.15a.37.37,0,0,1-.2.08.61.61,0,0,0-.56.1l0-.44-.13,0c-.16-.05-.19-.12-.07-.22a7.37,7.37,0,0,1,.61-.5l.72-.46.11-.06h0l.07,0a.88.88,0,0,0,.48-.9,13.86,13.86,0,0,0-.37-2.8l.06-.19h0Z"/><path class="b1b61bb6-1c36-4c7f-a822-3c5ffdd5d360" d="M21.41,24.93c-.24.15-.48.32-.73.47a1.49,1.49,0,0,1-.93.17c-.23,0-.33-.08-.33-.32s0-.65,0-1c.08-.06.11,0,.14.06l.16.29a1.77,1.77,0,0,0,.15.31c0,.07.15.16.21.15a.26.26,0,0,0,.24-.25,3.16,3.16,0,0,0,0-.32l.13,0,.05.1c.11.28.21.34.51.29l.14,0Z"/><path class="a5ace59d-eaa3-40eb-96b1-4a4aa2dc1638" d="M28.11,19.9c.11.84-.2,1.71-.69,1.89l.4-1.15-.05-.05a1.81,1.81,0,0,1-1.53.31Z"/><path class="bc0aae26-0b7d-4a9b-907e-bf22509d25f4" d="M36.18,26.56l.16-.14-.92-.48a.85.85,0,0,1-.77.2c.13-.18.26-.34.38-.52s.11-.21,0-.3a0,0,0,0,0,0-.05h.13a2,2,0,0,1,.35.3,1.63,1.63,0,0,0,1.23.59l.2,0a.65.65,0,0,1-.49.46Z"/><path class="e4918348-f4d2-4c67-ace7-b6a74381b17b" d="M32.9,27.44c.13.11.26.22.4.32s.3.13.44-.07a1,1,0,0,1,.23-.26.8.8,0,0,1,.05.21.33.33,0,0,1,0,.17c-.09.34-.09.34.25.51l.11-.16a.31.31,0,0,1,.2-.07,4,4,0,0,1-.09.5c-.05.16-.21.15-.32.09a8.48,8.48,0,0,1-.81-.51,1.63,1.63,0,0,1-.35-.39,1.66,1.66,0,0,1-.12-.31Z"/><path class="ad67d132-a713-4ece-83ea-ccb71cde5c1e" d="M23.35,20.14l-.48-.07c-.08-.11,0-.15.09-.21A.49.49,0,0,0,23,19.4a.41.41,0,0,0-.4-.2.51.51,0,0,0-.46.34l-.12.1.12.11.17.27-.11.12c-.5-.24-.29-.88.08-1.09a.82.82,0,0,1,.93.27.7.7,0,0,1,0,.45A.28.28,0,0,0,23.35,20.14Z"/><path class="ff6ec468-74c1-499a-87d4-5c84e8e134c8" d="M33.6,27.51c-.37,0-.57-.2-.59-.49s0-.54-.07-.81a.52.52,0,0,1,0-.11c.33.11.41.21.37.53A1.28,1.28,0,0,0,33.6,27.51Z"/><path class="b26f4023-ce42-4d3c-8248-e7cc9d0997b7" d="M28.81,20.74l.44,1c0,.07.08.15,0,.19a.17.17,0,0,1-.16-.05c-.17-.13-.33-.28-.49-.42l.09-.88Z"/><path class="b7ee19c4-49bd-4b8f-a287-c00f9879ff6a" d="M18.7,21l-.13.76c-.29-.15-.31-.43-.41-.66l-.06-.28s.08-.12.12-.12a4,4,0,0,1,.46.08Z"/><path class="f29eafcc-f40a-4001-8bb4-f92c9ad185af" d="M31.25,19.85c.36.32.8.55,1,1A1,1,0,0,1,31.25,19.85Z"/><path class="fd9bc02e-0e42-443c-b4a3-84b3d9c9e17c" d="M18.7,21l0-.22a4,4,0,0,0-.46-.08s-.08.08-.12.12,0,0-.05,0h0L18,20.69a.44.44,0,0,0-.1.08.66.66,0,0,0,0,.14l0,.42c-.16,0-.2-.16-.24-.27a1.3,1.3,0,0,1,.08-.84,1.19,1.19,0,0,0,1.12.45Z"/><path class="f4272b3a-f149-4796-b0c4-b30d74d8e62c" d="M37.65,23.68a2.82,2.82,0,0,1,.85.52c-.16.11-.29.21-.44.3s-.17.07-.22,0,0-.16.1-.2l.16-.06v-.05h-.32l-.25-.4Z"/><path class="fb9b39ed-48bc-40ea-80b4-d6a7848dc4ae" d="M34,23.38a.63.63,0,0,1-.55-.29l0-.05-.14-.35v-.2h.05l.06.07c.08.15.15.31.34.36l.32,0,.34.06-.44.25Z"/><path class="b1c0a901-fe5b-4110-9ffe-27cef37c6810" d="M38,25.09a4.07,4.07,0,0,1-.22.53.39.39,0,0,1-.23.16.25.25,0,0,1-.21,0,.27.27,0,0,1,0-.21A.73.73,0,0,1,38,25.09Z"/><path class="a03d5af1-5016-470d-8747-613f589bcc71" d="M24.47,22.14l.18.24-.14-.08a10.27,10.27,0,0,1,.12,1.1,5.13,5.13,0,0,1-.11,1c0,.06-.07.1-.11.15a3.82,3.82,0,0,0,0-2.12c0-.1-.09-.19-.13-.29S24.4,22.16,24.47,22.14Z"/><path class="a74763ea-a5a2-43de-9cfd-6260755c4f73" d="M34.78,25.08s0,0,0,0l.13,0h0v.06h-.23l-.26-.05-1-.06V25a3.72,3.72,0,0,1,1.2,0Z"/><path class="f38b2332-dde5-4659-8b56-91aa731ade3f" d="M17.86,18.24,18,18,18,18h0l.32-.1c.09,0,.15,0,.14.11l-.57.36Z"/><path class="aace97dd-2273-494a-9f19-a07cb575e81d" d="M34.41,23,34.07,23l0,0v0l0,0v-.07l0-.05,0-.07h.17l.29.18C34.65,23,34.52,23,34.41,23Z"/><path class="a92730e8-7971-491f-b712-e351ba3ae114" d="M28.81,20.74l-.14-.17-.09.88a1.81,1.81,0,0,1,0-.23l0-.9.12-.06h0l.06.19Z"/><path class="ea97b7db-be81-46ba-b584-922499b02a71" d="M24.29,20.5l-.16,0,.07.3,0,0L24,20.68c.07,0,.12,0,.08-.1s-.14-.29-.2-.44H24Z"/><path class="a65d75d3-d4d1-4a2b-a72c-8ecc3fedaef6" d="M28.7,20.26l-.12.06-.08-.52A.42.42,0,0,1,28.7,20.26Z"/><path class="af52747b-479c-4bb2-9af4-e05110c24dad" d="M34.64,22.86l-.29-.18a1.25,1.25,0,0,1,0-.19s.06-.07.09-.11l.14.11c-.12,0-.2.06-.08.19S34.58,22.8,34.64,22.86Z"/><path class="b744ad41-0c12-4fff-9970-dd32a5b52ae5" d="M19.77,24.62l-.16-.29c0-.06-.06-.12-.14-.06l.06-.22h.06Z"/><path class="ae3c4133-a3d5-4e86-bd64-bb75296109e1" d="M18.51,18c0-.11-.05-.14-.14-.11l-.32.1c.13-.2.33-.18.53-.17h0Z"/><path class="ed7606c3-d59e-4b75-b26d-0e7e76d53129" d="M20.81,27.38c0-.15-.08-.29-.11-.44s0-.12.12-.08c-.12.08,0,.15,0,.22S20.94,27.29,20.81,27.38Z"/><path class="a21916d9-06f3-481a-afa8-771835cc0c7d" d="M21.41,24.93l-.24,0,.37-.22.05.06Z"/><path class="b930ae47-bd2c-43c4-b022-3efb9af5f4db" d="M27.17,23l-.06.19L27,23l.07-.13Z"/><path class="ad67d132-a713-4ece-83ea-ccb71cde5c1e" d="M22.28,20.45l-.34-.19A.32.32,0,0,1,22.28,20.45Z"/><path class="f961720e-c354-4f60-afc8-2692212fa862" d="M20.47,24.56l-.13,0-.07-.2C20.41,24.35,20.48,24.43,20.47,24.56Z"/><path class="ae3b7379-1f8b-4021-8fc5-779be2f234e7" d="M36.18,26.56l.24.07L36,26.7l0-.06Z"/><path class="e6aef7b7-9cb2-42f4-b615-9d24c13b6262" d="M23.87,20.14a.75.75,0,0,1-.09-.15l.06,0,.1.14,0,.07Z"/><path class="a319b01e-2556-4d1a-bcd3-4f68289dfeff" d="M37.77,24.15h.32v.05l-.16.06Z"/><path class="bf74f630-2596-46cc-a4a4-e27601eb9b7e" d="M17.88,20.91a.66.66,0,0,1,0-.14.44.44,0,0,1,.1-.08l.07.11C17.91,20.71,18,20.9,17.88,20.91Z"/><path class="ad67d132-a713-4ece-83ea-ccb71cde5c1e" d="M22.65,20.49l.15.14,0,.06-.24-.13Z"/><path class="ad67d132-a713-4ece-83ea-ccb71cde5c1e" d="M22.28,20.16l.25.22A.24.24,0,0,1,22.28,20.16Z"/><path class="acfb7f1c-935e-4d74-888f-bbf09bea247b" d="M22.23,20.14l.11-.12.23,0-.3.08h0Z"/><path class="e7ac3814-deea-477d-aa69-5a96d3b105f0" d="M37.65,23.68l-.13.07-.08-.14,0-.05Z"/><path class="bf74f630-2596-46cc-a4a4-e27601eb9b7e" d="M18.05,20.8s0,0,.05,0l.06.28C18,21,18,20.91,18.05,20.8Z"/><path class="e83848a9-ae87-4268-aa18-383581ca6b58" d="M26.92,22.81l-.1-.21.05,0,.13.16Z"/><path class="adb90dd8-923d-4a76-8135-c2d37ffbb161" d="M20.41,20l.17.23Z"/><path class="a048f619-ab59-4f4f-8941-314fd44b0b4a" d="M26.92,22.81l.08-.08.06.12L27,23Z"/><path class="e01ef94f-a135-44bd-b164-7369b8b93b29" d="M34.75,25.22h.19l.06.06h0a0,0,0,0,1,0,.05Z"/><path class="fa86906f-7435-48ab-b610-7f0543e3bb94" d="M29.47,19.62h-.12l0-.09s.06,0,.07,0A.43.43,0,0,1,29.47,19.62Z"/><path class="e01ef94f-a135-44bd-b164-7369b8b93b29" d="M34.94,25.21v-.06l.19.11H35l-.06-.06Z"/><path class="a7ee6913-37e9-428e-a0dd-da5e6eda7f95" d="M17.86,18.24l.08.09-.07.14-.07-.06Z"/><path class="e01ef94f-a135-44bd-b164-7369b8b93b29" d="M34.45,25.16l.26.05Z"/><path class="a65d75d3-d4d1-4a2b-a72c-8ecc3fedaef6" d="M28.76,20.45l-.06-.19Z"/><path class="b930ae47-bd2c-43c4-b022-3efb9af5f4db" d="M27.24,23.14,27.17,23Z"/><path class="e01ef94f-a135-44bd-b164-7369b8b93b29" d="M34.78,25.08l-.13,0Z"/><path class="e01ef94f-a135-44bd-b164-7369b8b93b29" d="M35,25.15l-.13,0Z"/><path class="b1932542-deb3-4234-8c62-e68b5662d238" d="M26.93,27l-.11.06Z"/><path class="ad67d132-a713-4ece-83ea-ccb71cde5c1e" d="M22.4,20.51l-.12-.06Z"/><path class="ad67d132-a713-4ece-83ea-ccb71cde5c1e" d="M22.52,20.56l-.12,0Z"/><path class="ae3c4133-a3d5-4e86-bd64-bb75296109e1" d="M18,18,18,18Z"/><path class="ed7606c3-d59e-4b75-b26d-0e7e76d53129" d="M20.82,26.86l.07.05Z"/><path class="b1932542-deb3-4234-8c62-e68b5662d238" d="M27,26.92l-.07,0Z"/><path class="af52747b-479c-4bb2-9af4-e05110c24dad" d="M34.59,22.51l.06,0Z"/><path class="ad67d132-a713-4ece-83ea-ccb71cde5c1e" d="M22.58,20.44l.07,0Z"/><path class="ad67d132-a713-4ece-83ea-ccb71cde5c1e" d="M22.53,20.38l.06.06Z"/><path class="ad67d132-a713-4ece-83ea-ccb71cde5c1e" d="M21.93,20.26l-.07-.05Z"/><path class="f2bc0133-6fbd-4712-abab-4ff2490e7a71" d="M23.9,20.15l0-.07,0,.06Z"/><path class="ae93361c-e376-4f8b-89d6-40ce967d5ff5" d="M14.92,26.33l.43.61a.92.92,0,0,1-.78-.22l-.91.49.25.2c-.34.1-.6,0-.81-.43l.19-.05a1.61,1.61,0,0,0,1.21-.57c.07-.08.16-.14.24-.22l.07-.05h.12v.07h0C14.81,26.2,14.79,26.26,14.92,26.33Z"/><path class="ae93361c-e376-4f8b-89d6-40ce967d5ff5" d="M16.1,28.22c.08.11.14.23.23.34a.19.19,0,0,0,.3,0l.5-.39c0,.09,0,.16,0,.2a2.65,2.65,0,0,1-.26.39,2.42,2.42,0,0,1-1,.67c-.2.07-.27,0-.33-.16s0-.28-.08-.42l.07,0,.28.26.25-.19c.11-.14,0-.26,0-.39S15.93,28.28,16.1,28.22Z"/><path class="ab330d1e-4fe7-497e-a00a-e9de5e31c51f" d="M17.05,27.09c0,.22-.05.44-.06.67a.51.51,0,0,1-.55.54c.07-.21.15-.43.22-.65a.33.33,0,0,0,0-.17.47.47,0,0,1,.21-.56l.11-.06h0Z"/><path class="f4272b3a-f149-4796-b0c4-b30d74d8e62c" d="M11.45,25l1-.58a.57.57,0,0,1-.6.58l.18.09c.08.05.16.1.09.21a.15.15,0,0,1-.23,0Z"/><path class="ab330d1e-4fe7-497e-a00a-e9de5e31c51f" d="M12.11,26.21,12,25.89a.69.69,0,0,1,.62.45.23.23,0,0,1,0,.18.2.2,0,0,1-.18.05,1.38,1.38,0,0,1-.25-.17l-.06-.07h0Z"/><path class="b33dcfc2-c061-40b6-aae2-89448956bbe8" d="M16.7,23.5a.81.81,0,0,1-.83.7l.25-.15c-.17-.08-.4.09-.55-.13l.23,0a.6.6,0,0,0,.72-.55l.11-.19Z"/><path class="f585d5d1-02ae-4a80-ad29-6803ccd96ebe" d="M16.52,23.39a.6.6,0,0,1-.72.55l-.23,0-.17-.07.29,0c.14,0,.28,0,.42-.09a.39.39,0,0,0,.3-.28Z"/><path class="a5def43f-d09a-46aa-8101-5588d67a25ad" d="M15.58,25.8h1a1.79,1.79,0,0,1-.85.13l-.37.05h-.17l-.06-.06s0,0,0,0l.13-.05h.06Z"/><path class="a85ecd58-5359-49fc-b789-1c146aa940f6" d="M18.05,26.22c0,.31,0,.63-.07.94a1,1,0,0,1-.16.34A4.46,4.46,0,0,0,18,26.3S18,26.24,18.05,26.22Z"/><path class="ef6776f1-15a5-407d-96bf-174adb1e099f" d="M15.69,23.83l-.29,0-.12-.17.05-.06h0l.12-.06h0Z"/><path class="bec33804-37ec-46a2-8980-d571da481b65" d="M16.1,28.22c-.17.06-.09.19-.09.31s.15.25,0,.39c0-.17-.09-.35-.12-.53a.4.4,0,0,1,.07-.2S16.07,28.21,16.1,28.22Z"/><path class="a85ecd58-5359-49fc-b789-1c146aa940f6" d="M17.53,29.47a.84.84,0,0,1,.28-.67Z"/><path class="a85ecd58-5359-49fc-b789-1c146aa940f6" d="M16.69,29.5l-.13.19.31.22-.49-.17Z"/><path class="a85ecd58-5359-49fc-b789-1c146aa940f6" d="M17.63,28.15a.7.7,0,0,1-.23.59Z"/><path class="fc477859-db71-4943-a07a-a371503ce0d5" d="M14.47,23.55a1.22,1.22,0,0,0,.7-.11v.06a1,1,0,0,1-.62.12S14.49,23.57,14.47,23.55Z"/><path class="a8c58a61-8f1f-4f34-8ce5-e64f2e513e6d" d="M15.46,23.55l-.12.06v-.25l.05,0,.07-.05h0l.06.23h0Z"/><path class="a85ecd58-5359-49fc-b789-1c146aa940f6" d="M17,30c.17,0,.27-.06.37-.18C17.33,30.1,17.33,30.1,17,30Z"/><path class="a85ecd58-5359-49fc-b789-1c146aa940f6" d="M17.87,28.68a.39.39,0,0,1,.25-.34Z"/><path class="a85ecd58-5359-49fc-b789-1c146aa940f6" d="M17.16,29.09c0,.13-.05.19-.18.17Z"/><path class="b35d6465-262b-4c6a-876c-98ea4c97916b" d="M15.11,25.92l.06.06V26h0l-.12.05-.05,0,0,0,0,0V26L15,26l.07,0Z"/><path class="a85ecd58-5359-49fc-b789-1c146aa940f6" d="M17,29.26l-.23.19Z"/><path class="ea13e3ca-1246-4280-a91f-b23ed694db29" d="M17.05,27.09,17,26.86c0-.07.1-.06.11,0A.59.59,0,0,1,17.05,27.09Z"/><path class="b35d6465-262b-4c6a-876c-98ea4c97916b" d="M15.34,26l.37-.05Z"/><path class="a85ecd58-5359-49fc-b789-1c146aa940f6" d="M18,26c.17.1.17.12,0,.22Z"/><path class="a85ecd58-5359-49fc-b789-1c146aa940f6" d="M18.23,28.22l.13-.18Z"/><path class="a85ecd58-5359-49fc-b789-1c146aa940f6" d="M17.81,27.56l-.06.24Z"/><path class="f4e4ee54-624f-4269-99e1-157352614efe" d="M14.92,26.33c-.13-.07-.11-.13,0-.18Z"/><path class="b35d6465-262b-4c6a-876c-98ea4c97916b" d="M15.58,25.8l-.24.05Z"/><path class="a85ecd58-5359-49fc-b789-1c146aa940f6" d="M17.75,27.79l-.06.18Z"/><path class="a85ecd58-5359-49fc-b789-1c146aa940f6" d="M17.69,28l-.06.18Z"/><path class="f180510a-bc62-4741-ab4e-4839197fa2f9" d="M20.05,28.8l.1,0,0,.1Z"/><path class="a9ca5e7f-7690-4594-be27-cfe77062cdc0" d="M15.17,26V26h.17Z"/><path class="a85ecd58-5359-49fc-b789-1c146aa940f6" d="M17.41,29.81l.05-.18Z"/><path class="a85ecd58-5359-49fc-b789-1c146aa940f6" d="M17.39,28.78l-.06.13Z"/><path class="b35d6465-262b-4c6a-876c-98ea4c97916b" d="M15.28,25.86l-.13.05Z"/><path class="f4e4ee54-624f-4269-99e1-157352614efe" d="M14.93,26.09h-.12l.07-.05h0v0a.06.06,0,0,0,0,0Z"/><path class="a9ca5e7f-7690-4594-be27-cfe77062cdc0" d="M15.05,26.09l.12-.05Z"/><path class="a85ecd58-5359-49fc-b789-1c146aa940f6" d="M17.46,29.63l.05-.12Z"/><path class="b0cc02a8-aaa8-475c-91ca-557aebe3c338" d="M12.11,26.21l.05.12Z"/><path class="ea13e3ca-1246-4280-a91f-b23ed694db29" d="M17,26.86l-.11.06Z"/><path class="a85ecd58-5359-49fc-b789-1c146aa940f6" d="M16.92,29.92l.13.06Z"/><path class="a85ecd58-5359-49fc-b789-1c146aa940f6" d="M16.75,29.45l-.06.05Z"/><path class="f4e4ee54-624f-4269-99e1-157352614efe" d="M14.81,26.09l-.07.05Z"/><path class="f4e4ee54-624f-4269-99e1-157352614efe" d="M14.93,26.16v-.07H15l0,0Z"/><path class="b0cc02a8-aaa8-475c-91ca-557aebe3c338" d="M12.16,26.33l.06.07Z"/><path class="a85ecd58-5359-49fc-b789-1c146aa940f6" d="M18.64,27.75l.06-.06Z"/><path class="a85ecd58-5359-49fc-b789-1c146aa940f6" d="M18.59,27.81l.05-.07Z"/><path class="a85ecd58-5359-49fc-b789-1c146aa940f6" d="M18.53,27.87l.06-.06Z"/><path class="a85ecd58-5359-49fc-b789-1c146aa940f6" d="M18.47,27.93l.06-.07Z"/><path class="a85ecd58-5359-49fc-b789-1c146aa940f6" d="M18.41,28l.06-.06Z"/><path class="a8c58a61-8f1f-4f34-8ce5-e64f2e513e6d" d="M15.33,23.62l-.05.06Z"/><path class="a85ecd58-5359-49fc-b789-1c146aa940f6" d="M18.35,28.05l.06-.07Z"/><path class="a85ecd58-5359-49fc-b789-1c146aa940f6" d="M18.17,28.28l.06-.07Z"/><path class="a85ecd58-5359-49fc-b789-1c146aa940f6" d="M18.11,28.34l.07-.06Z"/><path class="a8c58a61-8f1f-4f34-8ce5-e64f2e513e6d" d="M15.17,23.5v-.06h.05Z"/><path class="a85ecd58-5359-49fc-b789-1c146aa940f6" d="M17.82,28.76l.05-.08Z"/><path class="a9ca5e7f-7690-4594-be27-cfe77062cdc0" d="M15.05,25.93,15,26Z"/><path class="a9ca5e7f-7690-4594-be27-cfe77062cdc0" d="M14.93,26h0l0-.05Z"/><path class="a85ecd58-5359-49fc-b789-1c146aa940f6" d="M17.34,28.91l-.06.06Z"/><path class="a85ecd58-5359-49fc-b789-1c146aa940f6" d="M17.28,29l-.06.06Z"/><path class="a85ecd58-5359-49fc-b789-1c146aa940f6" d="M17.22,29l-.06.06Z"/><path class="a8c58a61-8f1f-4f34-8ce5-e64f2e513e6d" d="M15.21,23.44l.07-.05Z"/><path class="a655d200-73fa-4a2f-a20d-9145574407b7" d="M16.7,23.5l-.07-.3c.07-.27.06-.28-.22-.23h-.05l-.08.05h0L16,22.91h0l.07-.05a.8.8,0,0,1,.57-.22c.21,0,.41,0,.63,0Z"/><path class="b343eeff-656d-44d3-9620-af938beca000" d="M16,22.91l.29.12a.09.09,0,0,1,0,0l-.16.08-.43.28-.16.06-.06-.23Z"/><path class="b343eeff-656d-44d3-9620-af938beca000" d="M15.46,23.27l-.07.05Z"/><path class="b343eeff-656d-44d3-9620-af938beca000" d="M16.05,22.86l-.07.05Z"/><path class="ea5e7a15-daac-4d74-99dd-804b7c7f8484" d="M23.76,32.69l-.06-.06Z"/><path class="f3492d3a-91f1-4adc-b9fb-9931f6da95a1" d="M15.87,20.91l-.12-.76a3.24,3.24,0,0,1,.42-.83.2.2,0,0,1,.11.24V20Z"/><path class="f3492d3a-91f1-4adc-b9fb-9931f6da95a1" d="M15.7,20.26l-.06.12Z"/><path class="a2138820-97dc-42eb-902a-2e3d53d5f405" d="M19.93,33.51l-.17-.12Z"/><path class="a2138820-97dc-42eb-902a-2e3d53d5f405" d="M19.7,33.39v-.06l.06.06Z"/><path class="a2138820-97dc-42eb-902a-2e3d53d5f405" d="M20,33.57l-.06-.06Z"/><path class="a2138820-97dc-42eb-902a-2e3d53d5f405" d="M20.11,33.63l-.06-.06Z"/><path class="ea5e7a15-daac-4d74-99dd-804b7c7f8484" d="M18.87,32.75l-.06-.06Z"/><path class="ea5e7a15-daac-4d74-99dd-804b7c7f8484" d="M19.05,32.86,19,32.8Z"/><path class="ea5e7a15-daac-4d74-99dd-804b7c7f8484" d="M19.11,32.92l-.06-.06h.06Z"/><path class="ea5e7a15-daac-4d74-99dd-804b7c7f8484" d="M19.17,33l-.06-.06Z"/><path class="ea5e7a15-daac-4d74-99dd-804b7c7f8484" d="M19.29,33,19.23,33Z"/><path class="ea5e7a15-daac-4d74-99dd-804b7c7f8484" d="M19.34,33.1,19.29,33Z"/><path class="a19e20de-7d79-48be-b3d7-794ff99de629" d="M22.7,34.75,22,34.57l-.29-.18a5.53,5.53,0,0,1,.91,0c.61,0,1.24.08,1.85.12h0l1.61.06c.5,0,1,0,1.51.06.13,0,.29,0,.33.18l-.61.12a2.6,2.6,0,0,1-.39,0h0c-.05-.11-.14-.12-.25-.12h-.35l-1.15-.09c-.37,0-.74,0-1.11,0l-1.29-.05S22.73,34.73,22.7,34.75Z"/><path class="a19e20de-7d79-48be-b3d7-794ff99de629" d="M21.35,34.28l-.12-.06Z"/><path class="a19e20de-7d79-48be-b3d7-794ff99de629" d="M21.46,34.33l-.06,0Z"/><path class="a19e20de-7d79-48be-b3d7-794ff99de629" d="M21.58,34.39l-.06-.06Z"/><path class="b973b7ed-db72-4853-bfd8-d4b904d5886a" d="M20.46,33.81l-.12-.06Z"/><path class="a19e20de-7d79-48be-b3d7-794ff99de629" d="M26.58,35.1h-.41l.41-.06h0Z"/><path class="a19e20de-7d79-48be-b3d7-794ff99de629" d="M26.94,35l-.36.06h0l.36-.06Z"/><path class="f2586512-6030-4c04-9792-b059bfb119f8" d="M26.11,14.26l.53.06Z"/><path class="efa43dc4-84c4-41b1-b833-dc1abc522fe6" d="M26.94,35l-.36.06-.41.06H24.23L23.74,35l-.51-.07-.18-.06-.12,0h-.17l-.06-.06h0s.06-.06.09-.06l1.29.05c.37,0,.74,0,1.11,0l1.15.09h.35C26.8,34.86,26.89,34.87,26.94,35Z"/><path class="a19e20de-7d79-48be-b3d7-794ff99de629" d="M22.93,34.81l.12,0Z"/><path class="a19e20de-7d79-48be-b3d7-794ff99de629" d="M22.7,34.75l.06.06Z"/><path class="a19e20de-7d79-48be-b3d7-794ff99de629" d="M24.94,35.1H26a1.41,1.41,0,0,1-.22.06h-.84Z"/><path class="bb328600-be74-4f0e-828f-6ab7c3b4bd9a" d="M24.94,35.1v.06l-.53-.06Z"/><path class="ff272e30-72f1-483b-913d-d06a0d52285b" d="M33.3,22.49v.08h-.06l-.06-.11h0l-.06-.12h0l0-.07L32.82,22a.54.54,0,0,1,.21,0l.74,0h0l-.3.18H33.4l0,0c0-.06-.08-.06-.11,0v.15l0,.08h0Z"/><path class="ac686376-2084-432f-abd1-cfeef7fa84b0" d="M34.41,22.38s-.08.07-.09.11a1.25,1.25,0,0,0,0,.19H34.3l-.18-.12-.24-.17-.29-.12h0l-.06,0h0v-.06l.43-.07.46.26Z"/><path class="b41a288a-1ab4-446b-8531-454bc2932dcf" d="M33.77,22l-.74,0a.54.54,0,0,0-.21,0c-.1-.08-.06-.13,0-.12.3,0,.59,0,.89.07Z"/><path class="ab02505f-0ade-40b4-ab97-def14458c98d" d="M33.77,22v0a1,1,0,0,1,.65.42L34,22.08h0L33.89,22,33.77,22Z"/><path class="a9ac0619-d2bd-4953-8533-2209af989f87" d="M33.11,22.33l.06.12Z"/><path class="a9ac0619-d2bd-4953-8533-2209af989f87" d="M33.17,22.45l.06.11Z"/><path class="a9ac0619-d2bd-4953-8533-2209af989f87" d="M33.23,22.57h.06v.12Z"/><path class="a4505dce-79f3-430c-96c2-75134bc13ee6" d="M33.42,23l0,.05Z"/><path class="a9ac0619-d2bd-4953-8533-2209af989f87" d="M33.07,22.26l0,.07Z"/><path class="acaec210-4625-423d-8493-e3aaaa485d4b" d="M22.57,20.06l-.23,0-.17-.27v0l.18.05v0a.34.34,0,0,0,.52,0c0-.05.08-.12.07-.15-.09-.26-.28-.29-.6-.1h-.17v0a.51.51,0,0,1,.46-.34.41.41,0,0,1,.4.2.49.49,0,0,1-.07.46c-.05.06-.17.1-.09.21Z"/><path class="b7b2d17d-9271-4a32-9790-c1724696da54" d="M24.47,22.14c-.07,0-.09-.17-.19-.05l-.13-.16A.26.26,0,0,1,24.47,22.14Z"/><path class="b7ef7db8-f30c-4fbb-97af-59144d3d5873" d="M22.17,19.75l-.12-.11.12-.1v.21Z"/><path class="a4505dce-79f3-430c-96c2-75134bc13ee6" d="M33.75,22.93c-.19-.05-.26-.21-.34-.36v0l.17-.15a.53.53,0,0,0,.18.51Z"/><path class="a4505dce-79f3-430c-96c2-75134bc13ee6" d="M34.05,22.92l0,0-.32,0,0,0Z"/><path class="a9ac0619-d2bd-4953-8533-2209af989f87" d="M33.3,22.49v-.1l.09.11H33.3Z"/><path class="a4505dce-79f3-430c-96c2-75134bc13ee6" d="M33.41,22.57l-.06-.07h0l0,.05Z"/><path class="fc8b27b3-2fdb-4f57-ae6c-eb8436f7ec80" d="M34.05,22.92h-.28a.53.53,0,0,1-.18-.51h.29l.24.17.06.12,0,.07,0,.05v.07l0,0Z"/><path class="a4505dce-79f3-430c-96c2-75134bc13ee6" d="M34.18,22.67l-.06-.12.18.12Z"/><path class="a4505dce-79f3-430c-96c2-75134bc13ee6" d="M34.06,22.9l0,0Z"/><path class="a4505dce-79f3-430c-96c2-75134bc13ee6" d="M34.12,22.79l0-.05Z"/><path class="bc0aae26-0b7d-4a9b-907e-bf22509d25f4" d="M34.94,25.21l.06.06Z"/><path class="b370f199-6e50-4fc2-82bb-53252bcc16ef" d="M16.27,23.08a.09.09,0,0,0,0,0h0l.08-.05h.05c.28,0,.29,0,.22.23l-.11.19-.11.07Z"/><path class="b1f27c41-2138-45fe-a24a-3dcd195fbf60" d="M16.27,23.08l.14.38a.39.39,0,0,1-.3.28c-.14,0-.28.06-.42.09l-.18-.28a.43.43,0,0,0,0-.05h0l.16-.06.11.13c.14.15.22.13.36,0s0-.26,0-.39Z"/><path class="b343eeff-656d-44d3-9620-af938beca000" d="M15.52,23.5a.43.43,0,0,1,0,.05h0Z"/><path class="adccdbaf-197c-4dca-b308-9046962ca669" d="M15,26.08h-.05a.06.06,0,0,1,0,0Z"/><path class="b343eeff-656d-44d3-9620-af938beca000" d="M16.36,23l-.08.05Z"/><path class="b74b95dc-5184-49a6-8228-1c4db3ec7ce0" d="M16.11,23.16c0,.13.18.23,0,.39s-.22.17-.36,0l-.11-.13Z"/><path class="b892f063-91c5-43d2-b25b-3152472bc226" d="M33.42,22.55l0-.05-.09-.11h0l0-.08v-.15l.11,0,0,0,.12.05h0l.06,0h0l0,.13h0Z"/><path class="b41a288a-1ab4-446b-8531-454bc2932dcf" d="M33.77,22l.12.07.06.05h0l-.43.07h-.05Z"/><path class="b41a288a-1ab4-446b-8531-454bc2932dcf" d="M33.35,22.14l-.11,0C33.27,22.08,33.31,22.08,33.35,22.14Z"/><path class="a9ac0619-d2bd-4953-8533-2209af989f87" d="M33.47,22.15h.05v.06l-.12-.05Z"/><path class="a9ac0619-d2bd-4953-8533-2209af989f87" d="M33.24,22.31l0,.08Z"/><path class="a4505dce-79f3-430c-96c2-75134bc13ee6" d="M33.61,22.39l0-.13.29.12Z"/><path class="a4505dce-79f3-430c-96c2-75134bc13ee6" d="M33.59,22.26l-.06,0Z"/><path class="ac686376-2084-432f-abd1-cfeef7fa84b0" d="M34,22.09,33.89,22Z"/><path class="a46cae74-cab0-4cf6-b8c8-2134303d4986" d="M22.34,19.55c.32-.19.51-.16.6.1,0,0,0,.1-.07.15h-.52v-.25Z"/><path class="acfb7f1c-935e-4d74-888f-bbf09bea247b" d="M22.35,19.8h.52A.34.34,0,0,1,22.35,19.8Z"/><path class="a483183f-e82e-40c0-a0c5-171608896a48" d="M22.34,19.55v.23l-.18-.05v-.17Z"/></svg>