<svg id="a5365cc0-59c1-468f-87e7-ef88999cd612" data-name="Ebene 1" xmlns="http://www.w3.org/2000/svg" viewBox="0 0 50 50"><defs><style>.a679e7b1-6061-4811-9cb3-ba999bf9136a{fill:#fff;}.e320d66d-18ba-4510-a7d0-bef131bcb98c{fill:#e6e6e6;}.f8f76e12-8017-4aff-914e-44d10e00d005{fill:#f2ba20;}.aae06afd-2c6f-45ee-8249-179ca5af877f{fill:#fefefe;}.b62abbeb-63f4-4aab-a91e-a4aa12f45bca{fill:#f3b21f;}.a8ef5b7f-aa96-4c73-8d61-4366fd192bde{fill:#f6b91c;}.f4e35c86-0df9-45e7-8b8b-fa57d18d8cb1{fill:#f6b81c;}.fcce31cc-4978-4ba4-8c43-e6091303efcd{fill:#e7ad23;}.b75fee63-b3c7-49cf-8629-8f487f01d9ca{fill:#f3d024;}.b7db864c-4632-4af4-934c-68d17491218b{fill:#f7d13c;}.e4746b94-1bb6-4999-a40b-6f63673060c0{fill:#f2b120;}.bff85b72-8634-49e5-9f45-913663b77b8d{fill:#f0b021;}.ec22239a-b965-452e-9c70-ebb378bf300e{fill:#f3c323;}.a025edc6-9575-4fe3-8251-dcba31b71dd8{fill:#f2b821;}.b3201107-b113-4900-9cf7-2b1dc14a538b{fill:#f5c430;}.aed7a226-eb9a-43c5-94b0-832892ac1a82{fill:#f4c322;}.a518090a-78bb-4d36-8ccd-34342cd2beb6{fill:#dda52c;}.b0194bbe-d543-4ac7-949a-7b315a7f5748{fill:#f4b42c;}.e08b2457-169c-4d9b-a234-a1cec90cf058{fill:#f6c534;}.b0f57c29-43f9-4d7a-914f-fbd68900b570{fill:#f4cb2c;}.e8e67050-1621-4eb4-a69a-4659a37fc66b{fill:#f5cb60;}.ec94c01e-4c01-40b3-8fc9-e92c552d03db{fill:#eb6022;}.b89584a2-5bb9-4b4b-b930-672f3dca7d9e{fill:#ee6921;}.bee0a7f3-fa66-4c01-88ee-6905bf586232{fill:#ef7f20;}.b9163e3f-0a23-4c6b-84c4-f403e7de162a{fill:#d3a32a;}.ab200ca7-f301-437c-9ed5-814866d96db7{fill:#d69e29;}.aa3e3387-5f93-45ae-a42c-9fc460b5447f{fill:#da9827;}.f5ad9143-7866-4735-9185-a903c1edcd1e{fill:#f3c923;}.a157c716-e377-46c7-9990-a291bfbf6547{fill:#f1bc21;}.eca10dd5-b122-4194-8232-48e676a7927b{fill:#e15826;}.e137bd9e-1b95-46b8-b469-7dbdcf12f1e6{fill:#a5aab6;}.ab0bcc6d-a649-46ee-ba94-d496a8b47c61{fill:#f2b820;}.bc93c803-9297-41d4-8019-2a2dd1810903{fill:#f5b81f;}.e3976759-8219-45ab-82d2-5041f1cb2979{fill:#f3ce23;}.abf411ee-558e-4aef-8e16-c9ad49043210{fill:#f2bc21;}.ae23cc95-7ca0-4290-89d7-9f2a6445fe29{fill:#f3c322;}.fbaddab4-e267-4227-a957-e524fa04eef2{fill:#f3c121;}.a5b9e040-9b77-4a1e-be5c-d1f10249bee2{fill:#f3c722;}.e0f6be94-a30a-439f-b7ac-955c644c74a4{fill:#f4d525;}.bfb35042-cf7c-4022-968c-aea13160ecc2{fill:#f2b220;}.ae8d40c0-1056-43e1-9b12-9a03f357e749{fill:#a3a8b4;}.f20edb5f-524c-4595-8f11-765402f8abb2{fill:#f6b920;}.a5144536-22cb-4c61-8bc2-9e71eec098ff{fill:#060505;}.be8e2f78-ecc2-4f5b-828c-e46b3531b762{fill:#f3c926;}.f80098c0-288d-4664-af75-f3eee142f4a4{fill:#f3c222;}.f0b917f5-6561-4980-90b2-175fb5b6fd87{fill:#f6b61f;}.e18cdbad-59fc-419e-ad9e-6e81c082291b{fill:#f3b527;}.f898446a-18c3-4476-85ff-d90a61fa32cd{fill:#f5c632;}.a224eac7-0d8f-4bbd-be16-7e45bbf2143a{fill:#f3c229;}.b9d5bd7f-00f6-4f33-9530-4afc8baef16b{fill:#b7b5b6;}.ab599557-30ab-485f-9035-3a6ae26fab09{fill:#3a3939;}.a726154a-8bce-46c1-8ea6-ecdfd008b7e7{fill:#f4bd2a;}.b6cb512e-a0b3-4b70-8ee8-5c5318ea0020{fill:#5d5c5c;}.b6943695-cd8a-49de-8548-0b7d04dad6c2{fill:#252525;}.b7c2be8a-f0a9-4c79-a041-149881b6d67f{fill:#565655;}.facb2051-dcca-447b-a5b4-41fa54bb655a{fill:#f8cd69;}.e2c06d39-fdd2-4775-8088-754d6ff3f66d{fill:#fce4b1;}.e43bf095-7114-4333-9a67-64dfaead7b24{fill:#403f40;}.b2a507ee-1eb5-40c7-b96a-a1d1f39832bc{fill:#a5aab5;}.a574638f-5c93-489d-9f0e-be554a72ffba{fill:#f4d524;}.affaf882-6c76-4991-ac2e-3d95f3f738b7{fill:#f3cd23;}.a7229886-2618-4547-932d-193e5b09d2b5{fill:#f2b620;}.ff97dacd-255e-486a-85a4-f177fb11b38d{fill:#f3b926;}.eb2f4998-be1b-48e2-991a-999bf3d6df87{fill:#f4be2a;}.ec12aaac-217d-46d5-ba13-3f2743474f67{fill:#f5b31e;}.e708f0b0-2753-456a-a0ea-faaaf1a510ea{fill:#f3c422;}.b6ae8d4e-84e2-40c2-9b49-7b37a76e55f9{fill:#f5b21e;}.b42dbabc-fd24-483f-912d-a7138e478896{fill:#f3ab20;}.eb5eb813-10f3-497c-834c-693e32a38f5d{fill:#f3b521;}.b891ecde-0be7-418a-a3ff-8ae519da8bf9{fill:#f4d224;}.b3312371-6845-4638-a19a-f2433385844c{fill:#f3b722;}.a5592326-05c4-4a7f-9895-a05387f9a415{fill:#f3c421;}.f7c18514-b245-475f-8cd1-722409f314e3{fill:#f4bd29;}.afd2128d-dbb3-476e-a692-5788b3ef8eb1{fill:#f3ac1f;}.b9b942e4-ae41-47f7-98b8-5a5ecca766b9{fill:#e69623;}.b05bdd8d-3249-478c-8a65-19c0d0f68512{fill:#ef9a20;}.b855a025-d7d2-4553-a592-fee917762345{fill:#ec9421;}.b6f52468-782f-4edf-9b16-c19f36844434{fill:#fbfbfb;}.bb377d97-41dc-4d1b-9fc5-6b4693e5bc4d{fill:#a3a7b3;}.b5cc34fd-7be6-4206-a3e8-c2dfe232c4a6{fill:#f7f6f6;}.f54b2af9-9f3b-459a-9639-5434b4fff651{fill:#f8f8f8;}.aef99ef9-66ee-4d3e-86a8-cf7ec19e9b55{fill:#170404;}.aed79cdd-2b15-40b7-b4bc-9862175070c1{fill:#9ca0ab;}.ad8e0d11-dccc-4daf-b3dd-859022909616{fill:#f6f6f5;}.bdf9905a-65b0-4a3d-b574-bb80c107c032{fill:#f8f7f8;}.be250e68-bfdd-4d9b-a845-0d73b8767428{fill:#a0a5b0;}.a09ef8cd-6f46-483b-a532-43c0267c7b52{fill:#eee;}.b591e30e-4d5d-41ed-b006-25e6715cd0ab{fill:#9b9faa;}.b6d39cdc-f506-44c5-9197-9a85e8764933{fill:#1e0a0b;}.b62acd61-d5f0-4562-a1b8-6a7e926c7ace{fill:#9da1ac;}.aff9e071-06b9-4938-8158-b9517d5a2d55{fill:#282a2c;}.b7af94ae-765f-49af-a9c1-cdf2530465f7{fill:#cccbcb;}.b97d04ba-b685-4c28-9ebc-562b4d8cba1f{fill:#8c9099;}.e1afbf83-9cc1-412b-a3d2-5aa9c3edadfd{fill:#a98a91;}.aab00098-3f4d-4999-abda-eed45f26379a{fill:#d6d5d5;}.f9cd2f8a-2759-4259-814d-ccf3ab4d5b0b{fill:#888b93;}.a5cd574b-f228-4165-a209-bbb855088640{fill:#292828;}.bbc8ecc8-282c-4368-9ef4-a3622560b2c0{fill:#2b1214;}.bfa97d54-2f59-43ca-ae33-b6ceedeac926{fill:#d8d7d7;}.ea0621cf-04f2-44d2-8dc3-ca6911451e60{fill:#303134;}.e4874153-99fc-45f1-ad4f-2e327cd90a3b{fill:#b6b5b6;}.f61de029-fa71-4f79-b80c-51902b66d21c{fill:#7a7d84;}.b50104f6-67ca-41a6-a464-85eec83e8ee8{fill:#6d6a6a;}.bbcaaec7-2da1-4ffc-8f01-9fcf3ec543d6{fill:#a9a7a7;}.b7b3dfa5-e647-46ce-98ad-efef0f846a84{fill:#212123;}.baddd82f-4d55-4cc9-8607-67418862be9b{fill:#323235;}.b7636ba8-8835-493d-855a-0ba2f0e009ef{fill:#484747;}.a9d362b9-2fbf-4c90-a61c-15187cc1ad75{fill:#820404;}.e0383215-e917-4e9d-aeb3-48411c60a0f8{fill:#73757b;}.b375816a-1956-4956-b7ba-9788d912d690{fill:#4c4d51;}.b687c276-2d60-47cc-b524-4151a8f5cf5a{fill:#393b3d;}.ad536fe9-0b4e-4150-9790-047554c854a8{fill:#5f6066;}.b017a4ef-8775-4698-aa9f-5cca0ff319cb{fill:#aaa9a9;}.a782b511-5a7f-4e47-ae9c-a44f183ac1cf{fill:#303133;}.b56eda82-73f4-4f33-8259-dc6b520954df{fill:#7b7c83;}.afbca49b-fa85-4a52-bb5b-dc8cdae0229b{fill:#333436;}.e17545b1-a08c-496e-851d-42e04c792565{fill:#8d9095;}.b6a3405a-8ab9-444e-857d-140672ce791d{fill:#f8f7f7;}.ac6c6b3e-1f05-44b2-ae43-7d9ed10cec44{fill:#9ca1ac;}.e004b5a1-459f-4e47-82cc-44c72d4e3c2d{fill:#180808;}.b709a590-dfad-4d5b-b2c6-5f158c3b888a{fill:#3d0505;}.abcb132d-f734-4447-b4d0-7537ab9dd555{fill:#ededed;}.aeba928c-1f86-476e-a219-418a853c59ab{fill:#a75a5e;}.a2786aa2-2b71-4a0a-ae0c-4b4e546a4440{fill:#3a3b3f;}.b45a73f1-abc1-448b-b935-48de2638ae1c{fill:#20090a;}.b40055ec-2f0b-4717-805e-d7c53b93936a{fill:#bcbaba;}.b98a0f7f-a647-482d-a096-fdd955cdb8b1{fill:#262729;}.bde2d20f-44ca-437a-a285-e2a78483f536{fill:#bfbdbd;}.b01b4b05-0a97-4878-bec2-06d8df7612e9{fill:#b0afaf;}.a19a12b9-c163-4a8c-8d92-bbe4713ead4b{fill:#81838b;}.a01d7e67-9ed4-46ec-a634-fd62d8505f8d{fill:#0c0a0b;}.ff64e14f-aeb3-452d-b4ea-1f612b4e0385{fill:#5f090a;}.e395b299-0e4f-4efa-9384-c22e0de73fa7{fill:#f4c22e;}.f3f14491-f843-4a56-90ee-3f300df5a458{fill:#f5c832;}.a6f74e24-a41f-4eec-96c3-385c4fc427b2{fill:#090809;}.af0ab7d3-58d6-46a5-965e-2c76ddc151ab{fill:#4f090a;}.e0eb1f28-1586-4f74-a352-ea5879ca10d8{fill:#1c1010;}.b8e95738-0541-426c-9fd7-1160168fe167{fill:#a4949e;}.edbfa43e-2467-4a41-8fbb-f5754f2c3946{fill:#433436;}.bfa76d19-3682-42dd-9df5-0b94389d4460{fill:#a83a3c;}.b147d1ad-a934-4fb9-a044-45fe84008975{fill:#790404;}.a5092de9-1bb4-4108-878d-99ccb9e6eec8{fill:#84878f;}.af0c7190-b445-4bb8-9974-c061f454dc27{fill:#92484d;}.b8617408-6a25-4860-9865-e29fd15daa18{fill:#df2e31;}.b2d6de7e-c9a1-4210-9436-48a349dd29cc{fill:#a3666d;}.e1180151-f8ff-4a61-9cd7-32e3358d8a42{fill:#d13d40;}.e508e347-b142-4188-a285-4b5ec49baad5{fill:#f2f0f0;}.ebb3fbf3-daf7-4c89-b8db-e6773531b971{fill:#e42527;}.a9bf14a5-525c-437c-bd0c-18db5e65be32{fill:#b49aa1;}.e51c7ca5-5f3d-4596-aa96-8a4c125bb32b{fill:#e02628;}.b4a4cb72-0117-4247-8364-9961699a4619{fill:#c93e41;}</style></defs><circle class="a679e7b1-6061-4811-9cb3-ba999bf9136a" cx="25" cy="25" r="18.6"/><path class="e320d66d-18ba-4510-a7d0-bef131bcb98c" d="M35.607,14.385A15.021,15.021,0,1,0,40,25,14.893,14.893,0,0,0,35.607,14.385Z"/><circle class="f8f76e12-8017-4aff-914e-44d10e00d005" cx="24.882" cy="25" r="13.064"/><path class="aae06afd-2c6f-45ee-8249-179ca5af877f" d="M41.8,23.727a2.008,2.008,0,0,0-1.557-1.512c-.326-.083-.659-.134-.985-.216a.327.327,0,0,1-.215-.162.875.875,0,0,0-.7-.6c-.458-.141-.9-.336-1.348-.507a2.007,2.007,0,0,1-.8-.676h0l-.084-.068a3.237,3.237,0,0,0-1.35-.471.758.758,0,0,1-.607-.411,2.342,2.342,0,0,0-1.541-1.2c-.342-.1-.671-.243-1.006-.367l-.075-.052,0,0-.27-.211,0,0-.074-.069v.005l-.557-.417c-.059.275-.114.529-.183.847-.172-.145-.315-.257-.448-.379-.091-.082-.17-.177-.253-.268-.423-.464-.624-.5-1.161-.193a1.607,1.607,0,0,0-.178.667,1.24,1.24,0,0,1-.679,1.043,5.382,5.382,0,0,0-.648-1.715.755.755,0,0,0-.8-.131,1.212,1.212,0,0,0-.31.543,4.866,4.866,0,0,1-.328.734l-.719-.474-.208-.128-.19-.079-.213-.12c-.34-.142-.673-.309-1.022-.421a1.6,1.6,0,0,0-1.269.139,1.055,1.055,0,0,1-.439.117,3.6,3.6,0,0,0-1.214.235.445.445,0,0,1-.314.016c-.639-.3-1.27-.611-1.9-.922-.018-.008-.028-.033-.042-.051l-.277-.14a1.184,1.184,0,0,0-.876,0,1.847,1.847,0,0,0-1.008.89l0,0q-.2.513-.394,1.025-.113.3-.223.593V19.5c.043.065.113.125.124.2a1.591,1.591,0,0,1,.033.58c-.017.078-.231.125-.363.159-.17.044-.348.06-.522.089a3.069,3.069,0,0,0-1.1.723l-.335.276-.863.4c-.266.088-.527.191-.8.261a.651.651,0,0,0-.532.5c-.036.165-.135.2-.279.233-.319.062-.635.139-.951.212a1.969,1.969,0,0,0-1.5,1.3,1.355,1.355,0,0,0-.013,1.015l.549.536c.087.086.208.156.254.26a4.722,4.722,0,0,0,1.2,1.482,3.363,3.363,0,0,0,1.878.977h1.056c-.021.342-.041.674-.061,1a2.389,2.389,0,0,0,.871,1.615l.616.281,1.091.248.123.011c.369,0,.738.01,1.106.007.446,0,.324.029.435-.374.078-.286.169-.569.266-.895L19,31.853l1.557,1.01a10.477,10.477,0,0,0,2.624.8c.29.025.58.062.87.073A8.525,8.525,0,0,0,27.908,33c.061-.027.126-.043.189-.065l.935-.543.8-.61.816-.808c.312-.432.627-.862.935-1.3.119-.168.22-.349.355-.566a3.319,3.319,0,0,1,.763,1.861,7.772,7.772,0,0,0,2.887-.332l.471-.269.2-.147a2.625,2.625,0,0,0,.609-1.479l-.052-.96.378.032a3.005,3.005,0,0,0,1.837-.432,6.848,6.848,0,0,0,.813-.652,4.019,4.019,0,0,0,.971-1.151,1.571,1.571,0,0,1,.542-.621A1.015,1.015,0,0,0,41.8,23.727Z"/><path class="b62abbeb-63f4-4aab-a91e-a4aa12f45bca" d="M18.115,16.259l-.277-.14-.254-.235.931-.838h.067l.067-.067h0l.068-.067h0l.068-.067.877-.541h0l.068-.067.337-.135c.142.022.284.054.427.065.621.049,1.242.1,1.864.135.523.032,1.048.05,1.572.069.726.026,1.452.046,2.178.068.034,0,.067,0,.1,0,.644.044,1.287.1,1.931.131.625.033,1.25.048,1.875.07l.068,0,1.931.132c.322.08.526.459.969.38-.042-.116-.068-.205-.1-.289s-.08-.152-.121-.228a11.648,11.648,0,0,1,1.076.882l.072.132h0l.067.068,0,0,.129.07,0,0,.08.123c.183.2.37.4.549.6a3.2,3.2,0,0,1,.284.363c.155.238.3.483.447.725-.266.246-.266.246-.534-.021-.048-.047-.095-.1-.143-.143a.512.512,0,0,0-.589-.187c-.044.017-.106-.011-.16-.021a4.016,4.016,0,0,0-.551-.094c-.425-.014-.852,0-1.278-.007-.266-.007-.531-.042-.8-.065-.11-.009-.205.007-.216.145l-.557-.417-.183.847c-.172-.145-.315-.257-.448-.379-.091-.082-.17-.177-.253-.268-.423-.464-.624-.5-1.161-.193a3.652,3.652,0,0,1-1.5-.005.755.755,0,0,0-.8-.131c-.419-.046-.836-.108-1.256-.135-.58-.037-1.16-.053-1.741-.07-.451-.013-.9,0-1.354-.023-.754-.046-1.505-.15-2.259-.17A8.931,8.931,0,0,0,18.115,16.259Z"/><path class="a8ef5b7f-aa96-4c73-8d61-4366fd192bde" d="M31.194,17.216c.011-.138.106-.154.216-.145.265.023.53.058.8.065.426.011.853-.007,1.278.007a4.016,4.016,0,0,1,.551.094c.054.01.116.038.16.021a.512.512,0,0,1,.589.187c.048.048.095.1.143.143.268.267.268.267.534.021.187.253.456.458.473.809l-.134-.109c-.022.041-.063.081-.059.115a2.742,2.742,0,0,0,.433,1.241c.076.111.175.25.018.385h0l-.084-.068a3.237,3.237,0,0,0-1.35-.471.758.758,0,0,1-.607-.411,2.342,2.342,0,0,0-1.541-1.2c-.343-.1-.671-.243-1.006-.367l-.075-.052,0,0-.27-.211,0,0-.074-.068Z"/><path class="f4e35c86-0df9-45e7-8b8b-fa57d18d8cb1" d="M33.367,34.092a4.65,4.65,0,0,1-.974.76,3.126,3.126,0,0,0-.386.286c-.332.224-.667.445-1.008.656a.76.76,0,0,1-.254.051l-1.5.534-.135-.337v-.067l.81-.27.472-.27.2-.068a1.145,1.145,0,0,0,.675-.4l.337-.135.473-.338c.268-.167.54-.329.8-.506a1.292,1.292,0,0,0,.21-.236l.068-.068c.005.14-.045.311.186.325C33.356,34,33.361,34.061,33.367,34.092Z"/><path class="fcce31cc-4978-4ba4-8c43-e6091303efcd" d="M13.987,31.321l.616.281c.02.025.035.064.061.074a.975.975,0,0,1,.628.569.517.517,0,0,0,.05.084c.062.04.173.075.177.121.023.223.21.311.317.462a4.054,4.054,0,0,0,.78.8.491.491,0,0,1,.076.107c.052.085.117.248.155.242.171-.028.189.1.263.188.138.155.075.348.121.518l-.268-.206-.134-.069h0l-.075-.055a6.425,6.425,0,0,1-1.042-.956c-.3-.076-.358-.414-.609-.562a1.762,1.762,0,0,1-.423-.49,7.666,7.666,0,0,0-.642-.85C13.987,31.523,14,31.407,13.987,31.321Z"/><path class="f4e35c86-0df9-45e7-8b8b-fa57d18d8cb1" d="M32.757,14.639c.041.076.087.15.121.228s.063.173.1.289c-.443.079-.647-.3-.969-.38a.553.553,0,0,0-.109-.121c-.5-.3-1.007-.595-1.511-.892l-1.35-.54c.2-.032.153-.214.2-.337.439.18.882.352,1.315.545.113.05.16.068.17-.072a5.083,5.083,0,0,1,1.3.733c.173.13.361.238.537.364A1.673,1.673,0,0,1,32.757,14.639Z"/><path class="b75fee63-b3c7-49cf-8629-8f487f01d9ca" d="M24.992,12l.273,0,.54,0c.191.024.381.053.572.072.241.025.485.03.724.068.265.043.526.115.789.171.075.016.155.011.227.033a2.561,2.561,0,0,1,.263.116l-.281.085-.945-.135h-.067l-.338-.067-1.687-.068-.743.067h-.135l-1.147.135-.675.134c-.22-.086-.03-.174,0-.261a1.829,1.829,0,0,1,.536-.126c.3.02.557-.174.872-.12a2.15,2.15,0,0,0,.685-.1Z"/><path class="b7db864c-4632-4af4-934c-68d17491218b" d="M26.75,37.182c-.365.053-.735.057-1.1.129a3.182,3.182,0,0,1-.739-.029,3.926,3.926,0,0,1-.581-.016c-.584-.106-1.185-.125-1.771-.225a10.566,10.566,0,0,1-1.142-.325.317.317,0,0,0-.339-.2c-.222.026-.263-.085-.2-.271l.337.069.068.067h0l.2.067h.067l1.35.338c.6.09,1.2.207,1.8.261.477.043.96.008,1.441.008l1.014-.134c.09,0,.223-.034.138.142v0l-.476.069,0,0Z"/><path class="e4746b94-1bb6-4999-a40b-6f63673060c0" d="M33.367,34.092c-.006-.031-.011-.088-.019-.088-.231-.014-.181-.185-.186-.325l.337-.337.607-.675.474-.608.336-.338.068-.067h0a.208.208,0,0,1,.119.292c-.036.1.013.109.085.114-.125.16-.245.325-.376.481-.358.424-.716.849-1.085,1.264A2.606,2.606,0,0,1,33.367,34.092Z"/><path class="bff85b72-8634-49e5-9f45-913663b77b8d" d="M17.231,34.762c-.046-.17.017-.363-.121-.518-.074-.085-.092-.216-.263-.188-.038.006-.1-.157-.155-.242l.608.135,1.147.946c-.079.31-.01.414.317.491.032.007.079.051.08.08.011.2.155.21.3.243a1.065,1.065,0,0,1,.246.131l.066.141A6.2,6.2,0,0,1,17.9,35.19c-.181-.116-.354-.245-.531-.368l-.136-.061Z"/><path class="ec22239a-b965-452e-9c70-ebb378bf300e" d="M36.192,20.05c.157-.135.058-.274-.018-.385a2.742,2.742,0,0,1-.433-1.241c0-.034.037-.074.059-.115l.134.109h0l.071.068,0,0,.068.072v0l.075.271c.214.081.2.3.281.466.165.35.3.711.451,1.069.049.12.083.245.123.367A2.007,2.007,0,0,1,36.192,20.05Z"/><path class="a025edc6-9575-4fe3-8251-dcba31b71dd8" d="M35.188,32.06c-.072-.005-.121-.013-.085-.114a.208.208,0,0,0-.119-.292l.607-1.015.471-.269.2-.066c-.2.351-.405.705-.616,1.052C35.5,31.6,35.342,31.825,35.188,32.06Z"/><path class="b3201107-b113-4900-9cf7-2b1dc14a538b" d="M19.458,35.981l-.066-.141.068-.338.4.209,1.012.533c-.062.186-.021.3.2.271a.317.317,0,0,1,.339.2A9.986,9.986,0,0,1,19.458,35.981Z"/><path class="aed7a226-eb9a-43c5-94b0-832892ac1a82" d="M28.1,12.548l.281-.085a2.351,2.351,0,0,1,1,.3,3.3,3.3,0,0,0,.492.177c.261.1.52.21.778.321.035.015.056.066.083.1-.01.14-.057.122-.17.072-.433-.193-.876-.365-1.315-.545Z"/><path class="a518090a-78bb-4d36-8ccd-34342cd2beb6" d="M12.121,28.7h1.056l-.061,1c-.05-.037-.128-.063-.147-.113-.109-.268-.2-.542-.3-.814Z"/><path class="b0194bbe-d543-4ac7-949a-7b315a7f5748" d="M29.247,36.379l1.5-.534c-.158.279-.477.3-.722.435a5.071,5.071,0,0,1-.821.322,1.907,1.907,0,0,1-.358.052l-.137-.072Z"/><path class="e08b2457-169c-4d9b-a234-a1cec90cf058" d="M28.707,36.582l.137.072a5.8,5.8,0,0,1-.66.251c-.292.074-.594.106-.891.157.085-.176-.048-.138-.138-.142h0l.135-.067c.13-.019.26-.033.389-.058C28.021,36.726,28.364,36.653,28.707,36.582Z"/><path class="b0f57c29-43f9-4d7a-914f-fbd68900b570" d="M36.872,28.744l-.052-.96.378.032c-.174.179-.106.433-.2.637C36.953,28.549,36.914,28.647,36.872,28.744Z"/><path class="e08b2457-169c-4d9b-a234-a1cec90cf058" d="M26.818,37.128l.476-.069Z"/><path class="a8ef5b7f-aa96-4c73-8d61-4366fd192bde" d="M36.142,18.824l-.075-.271Z"/><path class="e8e67050-1621-4eb4-a69a-4659a37fc66b" d="M36.265,30.3l-.2.066.2-.147Z"/><path class="ec94c01e-4c01-40b3-8fc9-e92c552d03db" d="M16.829,34.487l.134.069Z"/><path class="fcce31cc-4978-4ba4-8c43-e6091303efcd" d="M17.23,34.761l.136.061Z"/><path class="b89584a2-5bb9-4b4b-b930-672f3dca7d9e" d="M33.905,15.653l-.072-.132Z"/><path class="bee0a7f3-fa66-4c01-88ee-6905bf586232" d="M34.1,15.794l-.129-.07Z"/><path class="bee0a7f3-fa66-4c01-88ee-6905bf586232" d="M34.181,15.919,34.1,15.8Z"/><path class="b89584a2-5bb9-4b4b-b930-672f3dca7d9e" d="M33.972,15.721l-.067-.068Z"/><path class="ec94c01e-4c01-40b3-8fc9-e92c552d03db" d="M16.754,34.432l.075.055Z"/><path class="a8ef5b7f-aa96-4c73-8d61-4366fd192bde" d="M36.068,18.555,36,18.483Z"/><path class="a8ef5b7f-aa96-4c73-8d61-4366fd192bde" d="M36,18.485l-.071-.068Z"/><path class="e08b2457-169c-4d9b-a234-a1cec90cf058" d="M26.75,37.182l.072-.057Z"/><path class="b9163e3f-0a23-4c6b-84c4-f403e7de162a" d="M13.181,21.523l-.863.4a.819.819,0,0,1,.134-.527c.066-.088.017-.254.057-.372a5.845,5.845,0,0,1,.372-.993c.142-.249.08-.609.4-.765.031-.015.037-.1.038-.154a.377.377,0,0,1,.263-.354c.1-.09.075-.288.259-.322.014,0,.011-.1.016-.153v0l.119-.161.425.144v.288h0l-.268-.085v.357c.056.211-.111.324-.2.471l-.136.406c-.041.094-.141.211-.114.277.076.189-.033.254-.154.33l-.07.472a1.166,1.166,0,0,0-.128.22C13.267,21.174,13.227,21.349,13.181,21.523Z"/><path class="ab200ca7-f301-437c-9ed5-814866d96db7" d="M14.4,18.556v-.288l-.425-.144-.119.161a.5.5,0,0,1,.25-.5c.047-.024.066-.105.094-.162s.039-.147.086-.174c.2-.119.252-.344.385-.51l.135-.068h0l.063-.071c.006-.033,0-.076.019-.1.2-.217.412-.431.621-.644.021-.022.078-.025.083-.045.065-.265.323-.336.491-.5l.41-.239v.376h0l-.136.134a.421.421,0,0,0-.2.4l-.066,0-.135.066c-.027.018-.066.029-.081.054-.107.182-.182.389-.406.472-.025.009-.036.053-.053.081l-.067.2h0l-.069.066a7.808,7.808,0,0,0-.476.633C14.645,18.02,14.529,18.293,14.4,18.556Z"/><path class="aa3e3387-5f93-45ae-a42c-9fc460b5447f" d="M16.49,15.654v-.376l-.41.239c.014-.041.013-.1.042-.122q.537-.409,1.083-.806c.169-.122.348-.229.523-.344a4.6,4.6,0,0,1,.608-.394,6.214,6.214,0,0,1,1.453-.638l.011.014c-.056.109-.105.212-.265.206-.075,0-.152.072-.228.111-.1.052-.212.1-.312.158a1.008,1.008,0,0,0-.144.127c-.2.153-.512.16-.629.444-.009.023-.083.016-.124.032-.06.024-.147.042-.169.088a.744.744,0,0,1-.374.326c-.188.1-.321.308-.518.436A4.274,4.274,0,0,0,16.49,15.654Z"/><path class="f5ad9143-7866-4735-9185-a903c1edcd1e" d="M22.361,12.354c-.029.087-.219.175,0,.261-.059.046-.119.089-.175.138s-.154.1-.15.15c.026.315-.19.42-.418.523l-.472.135c.038-.1.194-.174.074-.321s-.233-.081-.361-.043-.258.063-.388.094L20.4,13.02h0c.173.011.347.023.405-.2Z"/><path class="aa3e3387-5f93-45ae-a42c-9fc460b5447f" d="M19.789,13.213l.614-.262v.069h0c-.206.055-.354.279-.6.207Z"/><path class="ab200ca7-f301-437c-9ed5-814866d96db7" d="M13.854,18.282c0,.053,0,.151-.016.153-.184.034-.155.232-.259.322C13.586,18.55,13.566,18.327,13.854,18.282Z"/><path class="a157c716-e377-46c7-9990-a291bfbf6547" d="M20.4,13.02v-.069l.406-.131C20.751,13.043,20.577,13.031,20.4,13.02Z"/><path class="eca10dd5-b122-4194-8232-48e676a7927b" d="M14.8,16.87l-.135.068Z"/><path class="eca10dd5-b122-4194-8232-48e676a7927b" d="M14.866,16.8l-.063.071Z"/><path d="M22.971,33.067c-.537-.158-1.076-.313-1.612-.478a2.329,2.329,0,0,1-.334-.163c.2-.609.4-1.192.588-1.778a17.609,17.609,0,0,0,.8-3.268,1.785,1.785,0,0,0-.088-1.059.722.722,0,0,0-.625.638,3.755,3.755,0,0,0-.043.868c.013.307-.055.449-.364.486a6.538,6.538,0,0,1-.781.006c.034.1.074.19.1.285.044.2-.028.268-.209.188a5.309,5.309,0,0,1-.495-.284l-.373-.214v.53a1.4,1.4,0,0,1-.276-.164c-.415-.424-.831-.848-1.227-1.291a.975.975,0,0,1-.2-.452,5.554,5.554,0,0,1-.088-.8,1.519,1.519,0,0,1,.2-.77,5.694,5.694,0,0,0,.33-.949c.09-.3.157-.61.242-.913a2.82,2.82,0,0,1,.129-.311c.305.078.357.357.563.58l.2-.646.4.449a3.162,3.162,0,0,0,.147-1.241.237.237,0,0,0-.252-.224,2.108,2.108,0,0,0-.331.034l-.089-.424-.293.018c-.054-.159-.064-.35-.163-.431s-.281-.05-.425-.039c-.25.019-.193-.242-.348-.35a4.624,4.624,0,0,1-.205,1.339c-.34-.372-.467-.838-.775-1.213l-.229.415a1.888,1.888,0,0,1-.769-1.288c-.007-.157.012-.315,0-.472,0-.081-.023-.2-.078-.232a.406.406,0,0,1-.149-.48,4.6,4.6,0,0,1,.2-.677c.132-.345.274-.687.433-1.021a2.535,2.535,0,0,1,.289-.4l.4-.211h0l.486,0h0l0,.077c-.227-.009-.46-.033-.611.2l0,0-.066.06-.145.259-.066.2.081.063.08-.16.655-.417.073-.2.348.131c.626.295,1.256.583,1.876.891a.634.634,0,0,0,.654.007,2.228,2.228,0,0,1,1.241-.23.565.565,0,0,0,.407-.1,1.129,1.129,0,0,1,1.177-.123l.707.308.215.117a4.563,4.563,0,0,1,1.06.7c.369.355.524.318.754-.139.185-.369.35-.748.53-1.135a.87.87,0,0,1,.334.574c.132.452.233.912.346,1.369.014.053.026.107.051.21a2.384,2.384,0,0,0,1.486-1.2l.087.169.062.242.092-.02-.081-.427c-.009-.214-.029-.427-.021-.64a.9.9,0,0,1,.1-.268,1.426,1.426,0,0,1,.243.141c.346.3.679.615,1.031.906a3.915,3.915,0,0,0,.533.314l.118-.625c.605.211,1.195.408,1.779.623a1.567,1.567,0,0,1,.851.731c.021.039.046.076.068.115a1.264,1.264,0,0,0,1.015.68,2.087,2.087,0,0,1,.556.13,1.623,1.623,0,0,1,.6.345,4.451,4.451,0,0,0,2.22,1.2c.125.038.252.072.361.1.009.061.02.086.013.1-.149.329-.142.382.2.478.388.109.789.171,1.182.264a4.814,4.814,0,0,1,.609.188,1.441,1.441,0,0,1,.865,1.16c.053.247-.135.385-.3.525a4.816,4.816,0,0,0-.5.445c-.1.114-.124.292-.218.414a6.669,6.669,0,0,1-.632.74,3.834,3.834,0,0,1-1.318.969,2.821,2.821,0,0,1-1.607.062l.643-.555a.424.424,0,0,0-.464-.142,3.78,3.78,0,0,1-1.538.048c-.306-.035-.34,0-.274.3a1.486,1.486,0,0,0,.105.353c.038.073.13.117.255.222l.078.848.666-.592a2.72,2.72,0,0,1,.01,1.563,1.389,1.389,0,0,1-1.01.943,7.452,7.452,0,0,1-2.008.262,4.9,4.9,0,0,0-1.3-2.23c-.277.416-.531.782-.768,1.159a8.273,8.273,0,0,1-2.988,2.9A6.765,6.765,0,0,1,26.2,33c-.088.018-.174.045-.261.067a1.616,1.616,0,0,0-.231,0,8.094,8.094,0,0,1-2.437.007A2.267,2.267,0,0,0,22.971,33.067Zm-.74-13.3,0,0,.075.066v0l-.145.076h0l-.144-.059,0,0-.14-.069,0,0a.368.368,0,0,0-.4-.216h0l-.084-.059a3.159,3.159,0,0,1-.525-.5,2.007,2.007,0,0,0-1.893-1,.781.781,0,0,1-.719-.351c-.056.041-.1.059-.123.092a.531.531,0,0,1-.6.2c-.121-.023-.241-.051-.363-.067-.2-.025-.259.027-.291.223a.829.829,0,0,0,.918,1.046,5.063,5.063,0,0,1,.668.008,1.891,1.891,0,0,0-.151.223c-.029.065-.076.169-.049.2a.247.247,0,0,0,.208.062,1.394,1.394,0,0,0,.374-.139c.156-.087.3-.2.451-.293s.317-.131.425.079l.205.269c.077.054.14.167.255.061.147-.135.275-.037.393.044a2.107,2.107,0,0,1,.733.864,14.061,14.061,0,0,1,.936,2.945,1.917,1.917,0,0,1,0,.379l-.072.016-.343-.456a2.31,2.31,0,0,0-.022.377,1.809,1.809,0,0,1-.131.682,3.053,3.053,0,0,1-2.3,1.584c-.3.039-.6.049-.953.076.016.349.022.693.053,1.035.007.083.085.214.147.225s.17-.075.244-.134a2.2,2.2,0,0,0,.209-.224c.21.177.4.338.588.492.148.119.293.254.51.2.154-.1.067-.224.037-.347-.02-.083-.16-.16-.024-.257h0l.078.061a2.986,2.986,0,0,0,.353.256.436.436,0,0,0,.3.06c.052-.016.074-.17.081-.264a2.844,2.844,0,0,1,0-.4,1.72,1.72,0,0,1,.2-.484c.114-.19.287-.348.387-.544a1.427,1.427,0,0,1,.969-.768.89.89,0,0,0,.638-.633,1.045,1.045,0,0,1,.107-.315.505.505,0,0,1,.293-.18c.043-.006.144.149.165.242.087.39.179.442.546.273.045-.058.12-.111.13-.175a6.748,6.748,0,0,0,.128-1.091,12.242,12.242,0,0,0-.139-1.256l.164.085a3.229,3.229,0,0,1,.867,2.1,1.745,1.745,0,0,0,.295-.319,1.43,1.43,0,0,0,.124-1.663,12.848,12.848,0,0,0-1.706-2.268l-.372-.416-.027-.068-.118-.16c-.023.021-.068.053-.064.063a1.868,1.868,0,0,0,.1.171c.076.167.15.335.229.5.046.1-.011.11-.085.112l-.743-.619a.322.322,0,0,1-.1-.419.768.768,0,0,0-.018-.516.939.939,0,0,0-1.066-.311c-.42.239-.669.971-.09,1.249l.024,0h.024l.01.015a.275.275,0,0,0,.28.255l0,0Zm4.986,7.487,0,0-.126.072c-.274.175-.555.341-.82.529a6.994,6.994,0,0,0-.708.566c-.131.121-.095.2.08.253a1.268,1.268,0,0,0,.149.03l.036.5a.711.711,0,0,1,.642-.119c.06.021.161-.043.23-.088a.93.93,0,0,0,.153-.172l.142.742A2.743,2.743,0,0,0,28,28.325l.189,1.481.078.019a4.982,4.982,0,0,0,.257-.448,4.507,4.507,0,0,0,.374-1.631,7.8,7.8,0,0,0-1.329-4.873l-.077-.13h0l-.123-.212-.075-.129-.154-.187-.05.03.118.244.079.19.131.275a15.956,15.956,0,0,1,.423,3.219.993.993,0,0,1-.548,1.027ZM36.4,25.17l-.138-.059a.047.047,0,0,0-.051-.015l-.151-.046a3.949,3.949,0,0,0-1.379-.037l0,.1,1.159.066.29.056.024.013.026,0,.291.12c.153.1.123.224.036.345-.142.2-.289.389-.443.6a1,1,0,0,0,.888-.234l1.053.554-.189.158-.178.087.024.074.43-.087a.751.751,0,0,0,.569-.522c-.1-.013-.17-.025-.235-.028a1.865,1.865,0,0,1-1.406-.672,2.938,2.938,0,0,0-.408-.341l-.21-.131ZM17.027,20.18c-.007.131-.014.262.128.337.118.262.139.585.476.759l.149-.875.107-.369a1.342,1.342,0,0,1-1.276-.515,1.411,1.411,0,0,0-.092.96c.043.131.089.269.269.318l.044-.482c.084-.017.032-.23.2-.134Zm12.22-.611h0a.512.512,0,0,0-.233-.534l.1.6c-.014.342-.031.684-.04,1.027a1.627,1.627,0,0,0,.038.265c.185.162.366.328.556.482a.242.242,0,0,0,.193.059c.113-.05.057-.138.018-.224-.171-.377-.334-.757-.5-1.136l-.067-.326Zm6.808,2.982c-.064-.072-.124-.148-.192-.217-.141-.141-.046-.182.085-.211A.05.05,0,0,1,36,22.15l.066.052c.109.056.218.112.327.17a.874.874,0,0,0,.673.062.517.517,0,0,0-.382-.625,5.816,5.816,0,0,1-.821-.369,2.774,2.774,0,0,0-1.7-.42,2.243,2.243,0,0,1-.925-.113,17.707,17.707,0,0,1-1.678-.69,2.053,2.053,0,0,1-.591-.433c-.3-.3-.566-.635-.846-.955a.718.718,0,0,0-.1-.114c-.014-.011-.054.01-.082.017l.051.1a2.657,2.657,0,0,0,.624,1.1c.319.283.68.519,1.021.776l-.248.3a8.011,8.011,0,0,1,1.946.5A4.737,4.737,0,0,0,31.859,24.2l-.532-.491a2.646,2.646,0,0,0-.8.906,2.771,2.771,0,0,0-.562,2.153,2.486,2.486,0,0,1-.235,1.737c-.156.285-.255.6-.417.882a.567.567,0,0,0,.073.682c.13.18.24.183.367,0a3.96,3.96,0,0,0,.316-.556c.272-.59.542-1.182.793-1.782a.692.692,0,0,0-.191-.854.589.589,0,0,1-.169-.645c.121-.452.223-.909.349-1.433a1.665,1.665,0,0,1,.063.24c.013.18.024.36.024.54a.919.919,0,0,0,.337.733c.387.341.748.713,1.113,1.077a4.723,4.723,0,0,1,1.24,2.056,1.468,1.468,0,0,0,.133.345c.031.053.135.115.181.1.291-.1.576-.223.925-.363-.15-.132-.249-.216-.345-.3a2.492,2.492,0,0,1-.857-.974c-.163-.478-.327-.957-.459-1.445-.085-.312-.111-.64-.166-.96-.028-.165-.062-.329-.1-.535a3.725,3.725,0,0,1,2.654-.915l-.1-.392a2.093,2.093,0,0,1,1.367.789,6.074,6.074,0,0,0,.478.521.607.607,0,0,0,.411.17,2.917,2.917,0,0,0,1.216-.467.484.484,0,0,0,.217-.432,2.166,2.166,0,0,0-.3-1.125.575.575,0,0,0-.336-.242,3.368,3.368,0,0,0-1.763-.03,2.318,2.318,0,0,1-1.458-.039l-.034-.123.507-.278C35.914,22.725,36.07,22.753,36.055,22.551Zm3.587,1.473.2.133c-.108.041-.181.109-.122.229s.166.105.258.045c.166-.106.325-.223.5-.346a3.229,3.229,0,0,0-.971-.6l-.214-.132-.034.053.1.157Zm-19.987.409a3.3,3.3,0,0,1,.038.369.312.312,0,0,1-.281.292c-.066.014-.181-.1-.239-.176A2.2,2.2,0,0,1,19,24.56l-.207-.656-.066.011-.066.246c-.023.376-.07.753-.06,1.129.006.272.114.346.382.368a1.7,1.7,0,0,0,1.066-.2c.284-.174.56-.36.839-.54l.2-.2-.057-.071-.43.254c-.054.013-.107.03-.161.04-.338.056-.456-.012-.583-.33-.017-.041-.039-.08-.058-.119.013-.149-.066-.239-.228-.286Zm8.906-5.281L26.424,20.3a2.1,2.1,0,0,0,1.751-.354l.057.054-.462,1.317C28.337,21.115,28.694,20.11,28.561,19.152Zm5.5,8.649-.051.029a1.421,1.421,0,0,0,.132.357,1.915,1.915,0,0,0,.4.446,8.843,8.843,0,0,0,.929.585c.125.069.309.081.368-.1a3.942,3.942,0,0,0,.1-.566.322.322,0,0,0-.226.077,1.647,1.647,0,0,0-.134.18c-.387-.2-.387-.2-.278-.579a.635.635,0,0,0,.046-.2,1.286,1.286,0,0,0-.062-.248,1.154,1.154,0,0,0-.266.3c-.164.228-.271.246-.5.079C34.363,28.052,34.212,27.924,34.058,27.8Zm.8.073a1.508,1.508,0,0,1-.3-1.007c.043-.362-.043-.476-.432-.605a.588.588,0,0,0-.02.126c.024.311.051.621.078.931C34.209,27.647,34.44,27.85,34.856,27.874ZM32.164,19.1a1.133,1.133,0,0,0,1.14,1.189C33.089,19.722,32.584,19.465,32.164,19.1Zm7.749,6.009a.827.827,0,0,0-.73.495.29.29,0,0,0-.018.243.262.262,0,0,0,.237.05.487.487,0,0,0,.267-.184A4.849,4.849,0,0,0,39.913,25.109Z"/><path d="M20.819,29.3a1.433,1.433,0,0,0,.247-.216c.16-.224.153-.229.506-.255a29.631,29.631,0,0,1-1.052,3.357,10.022,10.022,0,0,1-2.211-1.714c.306-.743.28-.981-.166-1.4A4.92,4.92,0,0,0,16.8,31.327a5.777,5.777,0,0,1-2.257-.35,1.193,1.193,0,0,1-.707-.724,2.727,2.727,0,0,1-.023-1.686l.591.578.1.046a1.207,1.207,0,0,0,.039-.186,1,1,0,0,1,.262-.84c.005,0,0-.021,0-.032.048-.234.176-.461.09-.709-.357.02-.691.052-1.025.051a4.859,4.859,0,0,1-.7-.073.725.725,0,0,0-.566.108l.658.547a2.279,2.279,0,0,1-2.415-.555c-.267-.256-.554-.494-.8-.768-.176-.2-.287-.451-.45-.661a2.991,2.991,0,0,0-.516-.56c-.384-.3-.438-.416-.294-.884a1.464,1.464,0,0,1,1.167-1c.392-.1.791-.164,1.186-.248a1.753,1.753,0,0,0,.291-.083c.244-.1.259-.149.142-.4a1.075,1.075,0,0,1-.037-.124c.078-.034.154-.071.233-.1.443-.157.889-.306,1.331-.468a2,2,0,0,0,.848-.589,2.118,2.118,0,0,1,1.155-.635c.413-.111.71-.1.913.343a2.066,2.066,0,0,0,.423.464c-.049.045-.095.123-.15.13a2.035,2.035,0,0,1-.468.007,2.728,2.728,0,0,0-1.8.493,2.96,2.96,0,0,1-.64.283c-.369.123-.459.236-.445.631.03.026.059.075.091.077a1.044,1.044,0,0,0,.71-.132l.06-.079,0,0,.078-.052.06-.03,0,.285-.005.005-.058.068.137.205.2.072c.162.256.427.062.627.149l-.286.176a2.316,2.316,0,0,1-1.166.036,3.659,3.659,0,0,0-1.3-.115c-.888.111-1.025.209-1.218,1.086-.126.572-.011.792.537,1.025.093.04.183.09.278.12.849.265.734.236,1.279-.315.032-.032.058-.07.089-.1a6.855,6.855,0,0,1,.55-.542,1.531,1.531,0,0,1,.927-.367l-.1.366a.782.782,0,0,0,.12.025,4.029,4.029,0,0,1,2.478.823l.057.258a.023.023,0,0,0-.037.012c-.024.032-.072.065-.069.1a5.172,5.172,0,0,1-.2,1.383.053.053,0,0,0-.009.061l-.073.276,0-.006-.073.207,0,0-.068.209,0,0-.263.682a.029.029,0,0,0-.011.043l-.074.154.006-.008-.067.077,0,0-.069.073,0,0-.072.07,0,0-.213.2.007,0-.264.217h0l-.077.063,0,0-.356.28.562.2.024.017.029,0,.15.067,0,0c.326.137.33.135.417-.2l0,.005.067-.208,0,0,.057-.137a.028.028,0,0,0,.017-.043l.321-.768a.031.031,0,0,0,.016-.043l.058-.094h0l.285-.4-.006.007.071-.076-.006.006.066-.077v0l.147-.2-.007.006.068-.077,0,0,.074-.071-.006.005.075-.071-.006.006.073-.074-.005.006.065-.078,0,0,.072-.069,0,0H17.9l.07.067L19.2,29.278l.132.076h0l.131.14c.233.444.464.89.7,1.332a.817.817,0,0,0,.184.232.2.2,0,0,0,.178.006.622.622,0,0,0,.193-.694c-.146-.318-.288-.64-.418-.929ZM10.28,26.523l.059.083a1.625,1.625,0,0,0,.29.193.226.226,0,0,0,.2-.058.243.243,0,0,0-.007-.21.8.8,0,0,0-.71-.509l.1.366.066.135Zm3.038-.268-.081.058a2.149,2.149,0,0,0-.276.244,1.853,1.853,0,0,1-1.388.659,1.189,1.189,0,0,0-.218.053c.242.46.534.609.926.49l-.291-.222,1.05-.563a1.052,1.052,0,0,0,.9.25l-.5-.7.02-.2h0l.081-.057a.047.047,0,0,0,.051-.021l.139-.058,0,0,.2-.07h0l.422-.058a1.888,1.888,0,0,0,.968-.143H14.2l-.278.059a.063.063,0,0,0-.059.009l-.153.052a.046.046,0,0,0-.049.015l-.07.013-.081.045a.048.048,0,0,0-.051.029l-.059.048-.076.065Zm2.5.878-.134.073a.539.539,0,0,0-.235.639.344.344,0,0,1-.015.2c-.078.25-.165.5-.246.739a.582.582,0,0,0,.63-.62c.009-.254.041-.507.063-.761a.816.816,0,0,0,.059-.258c-.007-.078-.075-.095-.123-.008ZM14.8,28.689a.7.7,0,0,0-.119-.034c-.035.076-.093.161-.082.235.03.2.091.405.139.608l-.29.21-.32-.294-.077.047a4.319,4.319,0,0,0,.09.485c.069.229.148.266.375.185a2.787,2.787,0,0,0,1.124-.775,2.618,2.618,0,0,0,.3-.44.725.725,0,0,0,.03-.24c-.216.171-.389.31-.564.447a.229.229,0,0,1-.354-.04C14.957,28.961,14.883,28.821,14.8,28.689Zm-5.333-3.74c.227.16.38.269.536.375.094.064.187.08.26-.031.084-.127-.005-.181-.1-.233l-.2-.11a.646.646,0,0,0,.684-.665Z"/><path class="e137bd9e-1b95-46b8-b469-7dbdcf12f1e6" d="M16.431,30.128a.028.028,0,0,1-.017.043l-.057.137,0,0-.067.208,0-.005c-.109.13-.224.246-.417.2l0,0-.15-.067-.029,0-.024-.017-.354-.253.148-.223,0,0,.077-.063h0l.264-.217-.007,0c.15.017.216-.054.213-.2l0,0,.072-.07,0,0,.069-.073,0,0,.067-.077-.006.008.074-.154a.029.029,0,0,1,.011-.043.823.823,0,0,0,.263-.682l0,0,.068-.209,0,0,.073-.207,0,.006.073-.276a.053.053,0,0,1,.009-.061,1.435,1.435,0,0,0,.188-.4c.045-.358.053-.72.076-1.081a.023.023,0,0,1,.037-.012c.138-.119.132-.149-.057-.258a4.029,4.029,0,0,0-2.478-.823.782.782,0,0,1-.12-.025l.1-.366a1.531,1.531,0,0,0-.927.367,6.855,6.855,0,0,0-.55.542c-.031.032-.057.07-.089.1-.545.551-.43.58-1.279.315-.095-.03-.185-.08-.278-.12-.548-.233-.663-.453-.537-1.025.193-.877.33-.975,1.218-1.086a3.659,3.659,0,0,1,1.3.115,2.316,2.316,0,0,0,1.166-.036.927.927,0,0,0,.948-.8l.633-.995c-.253,0-.486-.006-.719,0a.893.893,0,0,0-.663.261l-.07.052v0l-.6.41h0l-.079.061-.064.051-.06.03-.078.052,0,0a.064.064,0,0,0-.059.014,1.512,1.512,0,0,1-.8.12c-.014-.395.076-.508.445-.631a2.96,2.96,0,0,0,.64-.283,2.728,2.728,0,0,1,1.8-.493,2.035,2.035,0,0,0,.468-.007c.055-.007.1-.085.15-.13a2.961,2.961,0,0,1,.482.16c.083.043.126.16.188.245l-.4.181,1.1,1.474.1-.172c0,.011.012.024.009.033a6.543,6.543,0,0,1-.481,1.443,1.039,1.039,0,0,0-.184.5,12.4,12.4,0,0,0,.081,1.505,1.672,1.672,0,0,0,.518.848l-.069.077,0,0-.072.069,0,0-.065.078.005-.006-.073.074.006-.006-.075.071.006-.005-.074.071,0,0-.068.077.007-.006-.147.2v0l-.066.077.006-.006-.071.076.006-.007a.464.464,0,0,0-.285.4h0l-.058.094a.031.031,0,0,1-.016.043C16.483,29.548,16.473,29.845,16.431,30.128Z"/><path class="ab0bcc6d-a649-46ee-ba94-d496a8b47c61" d="M17.3,33.949l-.608-.135a.491.491,0,0,0-.076-.107,4.054,4.054,0,0,1-.78-.8c-.107-.151-.294-.239-.317-.462,0-.046-.115-.081-.177-.121l.357-.042-.261-.42.256-.017.123.011.335.068a2.915,2.915,0,0,0,.236.321c.213.222.392.5.734.545.308.037.618.059.929.072.667.029,1.337.029,2,.082a.823.823,0,0,0,.5-.086,10.477,10.477,0,0,0,2.624.8l0,.079c-.036.022-.073.064-.108.063-.724-.02-1.449-.042-2.173-.071-.265-.011-.53-.052-.795-.062-.68-.027-1.359-.043-2.039-.065-.153-.005-.151.1-.15.2a3.84,3.84,0,0,0-.3-.257.259.259,0,0,0-.2-.055c-.053.023-.09.115-.105.184A1.355,1.355,0,0,0,17.3,33.949Z"/><path class="bc93c803-9297-41d4-8019-2a2dd1810903" d="M18.115,16.259a8.931,8.931,0,0,1,1.56.013c.754.02,1.5.124,2.259.17.45.028.9.01,1.354.023.581.017,1.161.033,1.741.07.42.027.837.089,1.256.135a1.212,1.212,0,0,0-.31.543,4.866,4.866,0,0,1-.328.734l-.719-.474-.208-.128-.19-.079-.213-.12c-.34-.142-.673-.309-1.022-.421a1.6,1.6,0,0,0-1.269.139,1.055,1.055,0,0,1-.439.117,3.6,3.6,0,0,0-1.214.235.445.445,0,0,1-.314.016c-.639-.3-1.27-.611-1.9-.922C18.139,16.3,18.129,16.277,18.115,16.259Z"/><path class="e3976759-8219-45ab-82d2-5041f1cb2979" d="M35.591,30.639l-.607,1.015h0l-.068.067-.336.338a3.513,3.513,0,0,0-1.051-.141c-.455,0-.91-.042-1.366-.06-.182-.007-.369.027-.548,0a9.811,9.811,0,0,0-1.78-.077l.816-.809a1.191,1.191,0,0,1,.646,0,5.1,5.1,0,0,0,.856.069,3.859,3.859,0,0,0,.551-.069A7.772,7.772,0,0,0,35.591,30.639Z"/><path class="abf411ee-558e-4aef-8e16-c9ad49043210" d="M23.172,33.747l0-.079c.29.025.58.062.87.073A8.525,8.525,0,0,0,27.908,33c.061-.027.126-.043.189-.065a1.894,1.894,0,0,0,.443.131c.746.035,1.492.047,2.239.075.354.013.709.043,1.063.07.552.041,1.105.087,1.657.131l-.337.337-.068.068a1.515,1.515,0,0,1-.433.128c-.86-.009-1.719-.038-2.578-.061l-.067,0c-.508-.044-1.016-.091-1.525-.129-.377-.029-.755-.067-1.132-.062a4.514,4.514,0,0,0-1.215.037,8.254,8.254,0,0,1-1.284.161l-1.283,0-.067-.063Z"/><path class="ae23cc95-7ca0-4290-89d7-9f2a6445fe29" d="M33.5,33.342c-.552-.044-1.105-.09-1.657-.131-.354-.027-.709-.057-1.063-.07-.747-.028-1.493-.04-2.239-.075a1.894,1.894,0,0,1-.443-.131l.935-.543a2.214,2.214,0,0,1,.257-.008c.551.047,1.1.115,1.653.143.5.025,1.007-.01,1.509.013.553.024,1.1.083,1.655.127Z"/><path class="fbaddab4-e267-4227-a957-e524fa04eef2" d="M20.552,32.863a.823.823,0,0,1-.5.086c-.666-.053-1.336-.053-2-.082-.311-.013-.621-.035-.929-.072-.342-.041-.521-.323-.734-.545a2.915,2.915,0,0,1-.236-.321c.323,0,.647,0,.971-.009.086,0,.219-.039.248-.1.1-.206.259-.175.425-.152a3.275,3.275,0,0,0,.325.051,1.583,1.583,0,0,1,.874.134Z"/><path class="a5b9e040-9b77-4a1e-be5c-d1f10249bee2" d="M34.106,32.667c-.551-.044-1.1-.1-1.655-.127-.5-.023-1.007.012-1.509-.013-.552-.028-1.1-.1-1.653-.143a2.214,2.214,0,0,0-.257.008l.8-.609a9.811,9.811,0,0,1,1.78.077c.179.025.366-.009.548,0,.456.018.911.061,1.366.06a3.513,3.513,0,0,1,1.051.141Z"/><path class="f4e35c86-0df9-45e7-8b8b-fa57d18d8cb1" d="M16.085,16.2l.066,0,.189.171c-.163.209-.42.343-.386.647l0,0a1.475,1.475,0,0,0-.208.2c-.3.424-.587.853-.879,1.28a3.808,3.808,0,0,0-.473.946l-.067.134-.068.135a2.9,2.9,0,0,0-.19.393,2.2,2.2,0,0,1-.544,1.085c-.013.011-.008.042-.012.065l-.335.276c.046-.174.086-.349.142-.519a1.166,1.166,0,0,1,.128-.22l.07-.472c.121-.076.23-.141.154-.33-.027-.066.073-.183.114-.277.045-.048.114-.089.13-.145a1.032,1.032,0,0,0,.006-.261c.092-.147.259-.26.2-.471l.268-.272h0c.132-.263.248-.536.4-.785a7.808,7.808,0,0,1,.476-.633l.069-.066h0l.067-.2c.017-.028.028-.072.053-.081.224-.083.3-.29.406-.472.015-.025.054-.036.081-.054Z"/><path class="e0f6be94-a30a-439f-b7ac-955c644c74a4" d="M32.7,30.971a3.859,3.859,0,0,1-.551.069,5.1,5.1,0,0,1-.856-.069,1.191,1.191,0,0,0-.646,0c.312-.432.627-.862.935-1.3.119-.168.22-.349.355-.566A3.319,3.319,0,0,1,32.7,30.971Z"/><path class="bfb35042-cf7c-4022-968c-aea13160ecc2" d="M15.954,17.01c-.034-.3.223-.438.386-.647l-.189-.171a.421.421,0,0,1,.2-.4l.136-.134h0a4.274,4.274,0,0,1,.547-.5c.2-.128.33-.335.518-.436a.744.744,0,0,0,.374-.326c.022-.046.109-.064.169-.088.041-.016.115-.009.124-.032.117-.284.424-.291.629-.444.046.109.209.194.069.339l-.54.406a2.745,2.745,0,0,0-.3.2,10.622,10.622,0,0,1-.869.78.544.544,0,0,0-.247.561A1.851,1.851,0,0,0,15.954,17.01Z"/><path class="ae8d40c0-1056-43e1-9b12-9a03f357e749" d="M20.819,29.3l-.522.141c.13.289.272.611.418.929a.622.622,0,0,1-.193.694.2.2,0,0,1-.178-.006.817.817,0,0,1-.184-.232c-.237-.442-.468-.888-.7-1.332l-.023-.111.032-.034a1.621,1.621,0,0,1,1.061-.02A.743.743,0,0,0,20.819,29.3Z"/><path class="f20edb5f-524c-4595-8f11-765402f8abb2" d="M27.087,16.8a3.652,3.652,0,0,0,1.5.005,1.607,1.607,0,0,0-.178.667,1.242,1.242,0,0,1-.679,1.043A5.382,5.382,0,0,0,27.087,16.8Z"/><path class="a5144536-22cb-4c61-8bc2-9e71eec098ff" d="M17.9,23.681l-.1.172-1.1-1.474.4-.181c.077.093.153.188.231.281a.584.584,0,0,0,.988-.019c.149-.215.342-.053.495-.142.079.312.08.321-.162.341a.607.607,0,0,0-.555.418C18.02,23.274,17.965,23.479,17.9,23.681Z"/><path class="be8e2f78-ecc2-4f5b-828c-e46b3531b762" d="M19,31.853a1.583,1.583,0,0,0-.874-.134,3.275,3.275,0,0,1-.325-.051c-.166-.023-.326-.054-.425.152-.029.061-.162.1-.248.1-.324.013-.648.008-.971.009l-.335-.068c.369,0,.738.01,1.106.007.446,0,.324.029.435-.374.078-.286.169-.569.266-.895Z"/><path class="f80098c0-288d-4664-af75-f3eee142f4a4" d="M16.962,16.118a.544.544,0,0,1,.247-.561,10.622,10.622,0,0,0,.869-.78,2.745,2.745,0,0,1,.3-.2l.135.472-.931.838.254.235A1.189,1.189,0,0,0,16.962,16.118Z"/><path class="f0b917f5-6561-4980-90b2-175fb5b6fd87" d="M15.34,19.5c.043.065.113.125.124.2a1.591,1.591,0,0,1,.033.58c-.017.078-.231.125-.363.159-.17.044-.348.06-.522.089l-.08-.212.473-1.08.2-.27C15.249,19.142,15.1,19.37,15.34,19.5Z"/><path class="e18cdbad-59fc-419e-ad9e-6e81c082291b" d="M15.206,18.962l-.2.27c0-.156,0-.312,0-.468,0-.117-.005-.225-.135-.275.292-.427.582-.856.879-1.28a1.475,1.475,0,0,1,.208-.2q-.2.513-.394,1.025-.113.3-.223.593Z"/><path class="f898446a-18c3-4476-85ff-d90a61fa32cd" d="M14.532,20.312l.08.212a3.06,3.06,0,0,0-1.1.723c0-.023,0-.054.012-.065a2.2,2.2,0,0,0,.544-1.085,2.9,2.9,0,0,1,.19-.393l.068-.135.067-.134Z"/><path class="a224eac7-0d8f-4bbd-be16-7e45bbf2143a" d="M15.694,31.85l-.256.017.261.42-.357.042a.517.517,0,0,1-.05-.084.975.975,0,0,0-.628-.569c-.026-.01-.041-.049-.061-.074Z"/><path class="b9d5bd7f-00f6-4f33-9530-4afc8baef16b" d="M22.971,33.067a2.267,2.267,0,0,1,.3.009,8.094,8.094,0,0,0,2.437-.007,1.616,1.616,0,0,1,.231,0,1.773,1.773,0,0,1-.4.126,9.17,9.17,0,0,1-2.525-.077C23,33.111,22.985,33.083,22.971,33.067Z"/><path class="ab599557-30ab-485f-9035-3a6ae26fab09" d="M14.8,28.133c0,.011.009.028,0,.032a1,1,0,0,0-.262.84,1.207,1.207,0,0,1-.039.186l-.1-.046c.025-.135.056-.27.074-.407.022-.166.032-.333.047-.5Z"/><path class="a726154a-8bce-46c1-8ea6-ecdfd008b7e7" d="M15.206,18.962l.134-.337V19.5C15.1,19.37,15.249,19.142,15.206,18.962Z"/><path class="b6cb512e-a0b3-4b70-8ee8-5c5318ea0020" d="M28.982,18.082l.081.427-.092.02-.062-.242Z"/><path class="b6943695-cd8a-49de-8548-0b7d04dad6c2" d="M17.161,16.66l-.4.211Z"/><path class="b6943695-cd8a-49de-8548-0b7d04dad6c2" d="M17.645,16.659l-.486,0A.454.454,0,0,1,17.645,16.659Z"/><path class="b6943695-cd8a-49de-8548-0b7d04dad6c2" d="M17.984,16.864l-.348-.131,0,0,0-.077Z"/><path class="b62abbeb-63f4-4aab-a91e-a4aa12f45bca" d="M31.266,17.277l.27.211Z"/><path class="b7c2be8a-f0a9-4c79-a041-149881b6d67f" d="M24.261,17.738l-.215-.117Z"/><path class="facb2051-dcca-447b-a5b4-41fa54bb655a" d="M24.72,17.345l.208.128Z"/><path class="e2c06d39-fdd2-4775-8088-754d6ff3f66d" d="M24.317,17.146l.213.12Z"/><path class="e43bf095-7114-4333-9a67-64dfaead7b24" d="M19.329,29.354l-.132-.076.123.018A.1.1,0,0,1,19.329,29.354Z"/><path class="ae8d40c0-1056-43e1-9b12-9a03f357e749" d="M19.329,29.354a.1.1,0,0,0-.009-.058l.148.053-.032.034-.108-.029Z"/><path class="b2a507ee-1eb5-40c7-b96a-a1d1f39832bc" d="M17.775,28.083l.069-.077.056.078Z"/><path class="b62abbeb-63f4-4aab-a91e-a4aa12f45bca" d="M31.532,17.483l.075.052Z"/><path class="b62abbeb-63f4-4aab-a91e-a4aa12f45bca" d="M31.2,17.211l.074.068Z"/><path class="b2a507ee-1eb5-40c7-b96a-a1d1f39832bc" d="M17.969,28.151l-.07-.067Z"/><path class="ec22239a-b965-452e-9c70-ebb378bf300e" d="M36.111,19.982l.084.068Z"/><path class="f8f76e12-8017-4aff-914e-44d10e00d005" d="M21.147,13.561l.472-.135a.929.929,0,0,0,.222.064c.694.027,1.388.048,2.081.07a2.425,2.425,0,0,1,.27,0,13.082,13.082,0,0,0,2.036.132c.067,0,.135,0,.2,0,.634.044,1.267.095,1.9.13.325.018.652,0,.977.012s.623.044.935.051c.049,0,.1-.083.15-.128.5.3,1.009.592,1.511.892a.553.553,0,0,1,.109.121l-1.931-.132-.068,0c-.625-.022-1.25-.037-1.875-.07-.644-.034-1.287-.087-1.931-.131-.034,0-.067,0-.1,0-.726-.022-1.452-.042-2.178-.068-.524-.019-1.049-.037-1.572-.069-.622-.037-1.243-.086-1.864-.135-.143-.011-.285-.043-.427-.065Z"/><path class="a574638f-5c93-489d-9f0e-be554a72ffba" d="M21.147,13.561l-1.08.54-.337.135-.068.067h0c-.245-.112-.255-.147-.135-.472l.945-.54c.13-.031.26-.057.388-.094s.248-.095.361.043S21.185,13.457,21.147,13.561Z"/><path class="affaf882-6c76-4991-ac2e-3d95f3f738b7" d="M19.527,13.831c-.12.325-.11.36.135.472l-.877.541-.068.067h0l-.068.067h0l-.067.067h-.067l-.135-.472.54-.406c.065-.032.133-.06.2-.1C19.254,13.993,19.39,13.911,19.527,13.831Z"/><path class="f80098c0-288d-4664-af75-f3eee142f4a4" d="M18.582,15.045l.067-.067Z"/><path class="f80098c0-288d-4664-af75-f3eee142f4a4" d="M18.649,14.978l.068-.067Z"/><path class="f80098c0-288d-4664-af75-f3eee142f4a4" d="M18.717,14.911l.068-.067Z"/><path class="affaf882-6c76-4991-ac2e-3d95f3f738b7" d="M19.662,14.3l.068-.067Z"/><path class="bfb35042-cf7c-4022-968c-aea13160ecc2" d="M31.272,34.962a1.145,1.145,0,0,1-.675.4,1.887,1.887,0,0,0-.292-.065c-.467-.028-.935-.041-1.4-.072a11.229,11.229,0,0,1-1.292-.049,10.887,10.887,0,0,0-1.568-.082c-.314-.01-.629.012-.942-.009-.454-.029-.9-.1-1.359-.124-.646-.037-1.294-.049-1.941-.072-.033,0-.067,0-.1-.006-.666-.043-1.332-.09-2-.122-.079,0-.162.084-.244.129l-.067,0-.068-.066h-.067l-.068-.066-.2-.135-.068-.068-.337-.2c.024-.266.224-.2.382-.2.221.011.441.049.663.059.6.027,1.205.043,1.807.071.288.013.576.043.864.067.543.044,1.085.1,1.628.13.714.036,1.43.04,2.144.073.756.035,1.512.131,2.267.12s1.48.119,2.224.091a3.181,3.181,0,0,1,.627.067C31.222,34.843,31.244,34.919,31.272,34.962Z"/><path class="a7229886-2618-4547-932d-193e5b09d2b5" d="M23.172,33.747l.338,0,.067.063,1.283,0c.071.044.138.119.213.127.332.035.667.058,1,.071.716.028,1.432.045,2.148.07.559.02,1.118.045,1.676.068.034,0,.068.005.1.008.375.042.75.093,1.126.123.235.018.472.005.708,0,.144,0,.244.04.249.2l-.473.338c.018-.224-.006-.26-.237-.268-.772-.027-1.543-.045-2.314-.07-.6-.02-1.206-.045-1.808-.068-.023,0-.045,0-.068,0-.741-.066-1.481-.167-2.224-.19-.882-.026-1.761-.06-2.64-.136-.667-.058-1.34-.05-2.01-.076-.423-.017-.846-.056-1.269-.061-.265,0-.53.04-.794.062h-.068l-.068-.068-.134-.067-.068-.068h0c0-.1,0-.207.15-.2.68.022,1.359.038,2.039.065.265.01.53.051.795.062.724.029,1.449.051,2.173.071C23.1,33.811,23.136,33.769,23.172,33.747Z"/><path class="ff97dacd-255e-486a-85a4-f177fb11b38d" d="M29.922,35.705l-.81.27c-.039-.044-.074-.123-.117-.128a9.152,9.152,0,0,0-.964-.071c-.82,0-1.634-.149-2.457-.077a3.853,3.853,0,0,1-.493-.06c-.6-.028-1.2-.047-1.8-.07l-.068,0c-.542-.044-1.083-.1-1.626-.128-.369-.019-.74,0-1.11,0L19.8,35.1a5.145,5.145,0,0,1,.73-.06c.421.022.84.117,1.26.12.929.007,1.853.085,2.779.131.836.041,1.673.066,2.509.137.768.066,1.543.055,2.316.077.056,0,.12-.018.167,0C29.683,35.563,29.8,35.637,29.922,35.705Z"/><path class="bfb35042-cf7c-4022-968c-aea13160ecc2" d="M18.245,34.017c.264-.022.529-.065.794-.062.423.005.846.044,1.269.061.67.026,1.343.018,2.01.076.879.076,1.758.11,2.64.136.743.023,1.483.124,2.224.19.023,0,.045,0,.068,0,.6.023,1.2.048,1.808.068.771.025,1.542.043,2.314.07.231.008.255.044.237.268l-.337.135c-.028-.043-.05-.119-.084-.125a3.181,3.181,0,0,0-.627-.067c-.744.028-1.479-.1-2.224-.091s-1.511-.085-2.267-.12c-.714-.033-1.43-.037-2.144-.073-.543-.027-1.085-.086-1.628-.13-.288-.024-.576-.054-.864-.067-.6-.028-1.205-.044-1.807-.071-.222-.01-.442-.048-.663-.059-.158-.007-.358-.071-.382.2l-.067-.067-.068-.067h0l-.068-.068h-.067l-.067-.068h0Z"/><path class="ab0bcc6d-a649-46ee-ba94-d496a8b47c61" d="M32.082,34.489c-.005-.163-.105-.2-.249-.2-.236,0-.473.016-.708,0-.376-.03-.751-.081-1.126-.123-.033,0-.067-.007-.1-.008-.558-.023-1.117-.048-1.676-.068-.716-.025-1.432-.042-2.148-.07-.334-.013-.669-.036-1-.071-.075-.008-.142-.083-.213-.127a8.254,8.254,0,0,0,1.284-.161,4.514,4.514,0,0,1,1.215-.037c.377-.005.755.033,1.132.062.509.038,1.017.085,1.525.129l.067,0c.859.023,1.718.052,2.578.061a1.515,1.515,0,0,0,.433-.128,1.292,1.292,0,0,1-.21.236C32.622,34.16,32.35,34.322,32.082,34.489Z"/><path class="eb2f4998-be1b-48e2-991a-999bf3d6df87" d="M20.472,35.435c.37,0,.741-.016,1.11,0,.543.03,1.084.084,1.626.128l.068,0c.6.023,1.2.042,1.8.07a3.853,3.853,0,0,0,.493.06c.823-.072,1.637.079,2.457.077a9.152,9.152,0,0,1,.964.071c.043,0,.078.084.117.128v.067l-.743.2c-.048-.206-.232-.188-.371-.2-.579-.035-1.159-.051-1.738-.073l-1.84-.068h-.034c-.71-.044-1.422-.076-2.131-.139a5.656,5.656,0,0,0-1.041,0h-.135l-.067-.067h-.068l-.067-.067h-.068l-.134-.067Z"/><path class="bfb35042-cf7c-4022-968c-aea13160ecc2" d="M19.459,34.9c.082-.045.165-.133.244-.129.666.032,1.332.079,2,.122.033,0,.067.005.1.006.647.023,1.3.035,1.941.072.454.025.9.095,1.359.124.313.021.628,0,.942.009a10.887,10.887,0,0,1,1.568.082,11.229,11.229,0,0,0,1.292.049c.467.031.935.044,1.4.072a1.887,1.887,0,0,1,.292.065l-.2.068-1.372-.067c-.882-.045-1.762-.112-2.644-.13-.928-.018-1.853-.077-2.779-.129-.747-.043-1.493-.1-2.239-.129a7.246,7.246,0,0,0-1.832-.018Z"/><path class="a7229886-2618-4547-932d-193e5b09d2b5" d="M19.528,34.962a7.246,7.246,0,0,1,1.832.018c.746.029,1.492.086,2.239.129.926.052,1.851.111,2.779.129.882.018,1.762.085,2.644.13l1.372.067-.472.27c-.121-.068-.239-.142-.364-.2-.047-.022-.111,0-.167,0-.773-.022-1.548-.011-2.316-.077-.836-.071-1.673-.1-2.509-.137-.926-.046-1.85-.124-2.779-.131-.42,0-.839-.1-1.26-.12a5.145,5.145,0,0,0-.73.06h0l-.135-.067Z"/><path class="ec12aaac-217d-46d5-ba13-3f2743474f67" d="M28.369,36.244l.743-.2.135.337-.54.2c-.343.071-.686.144-1.029.212-.129.025-.259.039-.389.058-.064-.254-.247-.3-.472-.27v-.067l.405-.067c.15-.019.3-.029.45-.057C27.905,36.348,28.137,36.294,28.369,36.244Z"/><path class="e708f0b0-2753-456a-a0ea-faaaf1a510ea" d="M30.394,13.763c-.05.045-.1.129-.15.128-.312-.007-.623-.04-.935-.051s-.652.006-.977-.012c-.635-.035-1.268-.086-1.9-.13-.067-.005-.135,0-.2,0a13.082,13.082,0,0,1-2.036-.132,2.425,2.425,0,0,0-.27,0c-.693-.022-1.387-.043-2.081-.07a.929.929,0,0,1-.222-.064c.228-.1.444-.208.418-.523,0-.046.1-.1.15-.15s.116-.092.175-.138l.675-.134c-.069.154-.222.308-.026.444.585-.06,1.146-.116,1.707-.176A2.317,2.317,0,0,0,25,12.683h1.282l.607.067h.068a.611.611,0,0,0,.14.065c.343.063.689.113,1.031.184.309.064.614.148.921.223Z"/><path class="b6ae8d4e-84e2-40c2-9b49-7b37a76e55f9" d="M29.044,13.223c-.307-.075-.612-.159-.921-.223-.342-.071-.688-.121-1.031-.184a.611.611,0,0,1-.14-.065.313.313,0,0,0,.2-.338l.945.135,1.147.338C29.2,13.009,29.245,13.191,29.044,13.223Z"/><path class="b42dbabc-fd24-483f-912d-a7138e478896" d="M27.154,12.413a.313.313,0,0,1-.2.338h-.068l-.607-.067H24.468c-.316,0-.33-.02-.284-.337h.135l.743-.067,1.687.068.338.067Z"/><path class="eb5eb813-10f3-497c-834c-693e32a38f5d" d="M24.184,12.346c-.046.317-.032.334.284.337H25a2.317,2.317,0,0,1-.277.066c-.561.06-1.122.116-1.707.176-.2-.136-.043-.29.026-.444Z"/><path class="eb5eb813-10f3-497c-834c-693e32a38f5d" d="M25.062,12.278l-.743.067Z"/><path class="b6ae8d4e-84e2-40c2-9b49-7b37a76e55f9" d="M27.087,12.413l-.338-.067Z"/><path class="b891ecde-0be7-418a-a3ff-8ae519da8bf9" d="M19.528,34.962l.134.068.135.067h0l.675.338.2.135.134.067h.068l.067.067h.068l.067.067h.135l.338.2v.472h-.067l-.2-.067h0l-.068-.067-.337-.069-1.012-.533-.4-.209-.54-.337a3.208,3.208,0,0,1-.125-.334c-.026-.1-.025-.2.125-.207h.067l.2.135.068.066h.067l.068.066.067,0Z"/><path class="b3312371-6845-4638-a19a-f2433385844c" d="M26.141,37.054c-.481,0-.964.035-1.441-.008-.6-.054-1.2-.171-1.8-.261-.124-.157-.111-.232.068-.4.2.024.392.041.586.075s.374.084.561.127L24,36.919c.384.024.725.055,1.068.066s.714,0,1.071,0Z"/><path class="e708f0b0-2753-456a-a0ea-faaaf1a510ea" d="M22.97,36.38c-.179.173-.192.248-.068.4l-1.35-.338v-.472l.81.2h0l.067.068h.2l.135.067Z"/><path class="e08b2457-169c-4d9b-a234-a1cec90cf058" d="M26.141,37.054v-.066l1.012-.069h0Z"/><path class="b3201107-b113-4900-9cf7-2b1dc14a538b" d="M21.282,36.38l.2.067Z"/><path class="b3201107-b113-4900-9cf7-2b1dc14a538b" d="M21.214,36.313l.068.067Z"/><path class="a025edc6-9575-4fe3-8251-dcba31b71dd8" d="M34.916,31.721l.068-.067Z"/><path class="a5592326-05c4-4a7f-9895-a05387f9a415" d="M18.92,34.624c-.15,0-.151.108-.125.207a3.208,3.208,0,0,0,.125.334c-.083-.049-.165-.1-.249-.147s-.149-.082-.224-.123L17.3,33.949a1.355,1.355,0,0,1,0-.263c.015-.069.052-.161.105-.184a.259.259,0,0,1,.2.055,3.84,3.84,0,0,1,.3.257h0l.068.068.134.067.068.068h0l.068.067h0l.067.068h.067l.068.068h0l.068.067.067.067.337.2Z"/><path class="f7c18514-b245-475f-8cd1-722409f314e3" d="M18.447,34.9c.075.041.15.081.224.123s.166.1.249.147l.54.337-.068.338a1.065,1.065,0,0,0-.246-.131c-.147-.033-.291-.043-.3-.243,0-.029-.048-.073-.08-.08C18.437,35.309,18.368,35.205,18.447,34.9Z"/><path class="afd2128d-dbb3-476e-a692-5788b3ef8eb1" d="M27.154,36.919l-1.012.069c-.357,0-.715.008-1.071,0s-.684-.042-1.068-.066l.114-.337h.2l.608.066c.324,0,.649.005.973,0a1.084,1.084,0,0,0,.242-.064h.675c.225-.028.408.016.472.27Z"/><path class="ab200ca7-f301-437c-9ed5-814866d96db7" d="M14.4,18.556l-.268.272v-.357Z"/><path class="b9b942e4-ae41-47f7-98b8-5a5ecca766b9" d="M13.925,19.3a1.032,1.032,0,0,1-.006.261c-.016.056-.085.1-.13.145Z"/><path class="b05bdd8d-3249-478c-8a65-19c0d0f68512" d="M13.521,20.312l-.07.472Z"/><path class="aa3e3387-5f93-45ae-a42c-9fc460b5447f" d="M16.49,15.654l-.136.134Z"/><path class="b855a025-d7d2-4553-a592-fee917762345" d="M15.41,16.868l-.067.2Z"/><path class="bfb35042-cf7c-4022-968c-aea13160ecc2" d="M16.085,16.2l-.135.066Z"/><path class="b855a025-d7d2-4553-a592-fee917762345" d="M15.343,17.072l-.069.066Z"/><path class="a157c716-e377-46c7-9990-a291bfbf6547" d="M19.527,13.831c-.137.08-.273.162-.411.241-.063.036-.131.064-.2.1.14-.145-.023-.23-.069-.339A1.008,1.008,0,0,1,19,13.7c.1-.059.208-.106.312-.158.076-.039.153-.114.228-.111.16.006.209-.1.265-.206.25.072.4-.152.6-.207l.068.271Z"/><path class="e137bd9e-1b95-46b8-b469-7dbdcf12f1e6" d="M35.321,23.147a2.318,2.318,0,0,0,1.458.039,3.368,3.368,0,0,1,1.763.03.575.575,0,0,1,.336.242,2.166,2.166,0,0,1,.3,1.125.484.484,0,0,1-.217.432,2.917,2.917,0,0,1-1.216.467.607.607,0,0,1-.411-.17,6.074,6.074,0,0,1-.478-.521A2.093,2.093,0,0,0,35.492,24l.1.392a3.725,3.725,0,0,0-2.654.915c.039.206.073.37.1.535.055.32.081.648.166.96.132.488.3.967.459,1.445a2.492,2.492,0,0,0,.857.974c.1.087.2.171.345.3-.349.14-.634.262-.925.363-.046.016-.15-.046-.181-.1a1.468,1.468,0,0,1-.133-.345,4.723,4.723,0,0,0-1.24-2.056c-.365-.364-.726-.736-1.113-1.077a.919.919,0,0,1-.337-.733c0-.18-.011-.36-.024-.54a1.665,1.665,0,0,0-.063-.24c-.126.524-.228.981-.349,1.433a.589.589,0,0,0,.169.645.692.692,0,0,1,.191.854c-.251.6-.521,1.192-.793,1.782a3.96,3.96,0,0,1-.316.556c-.127.187-.237.184-.367,0a.567.567,0,0,1-.073-.682c.162-.281.261-.6.417-.882a2.486,2.486,0,0,0,.235-1.737,2.771,2.771,0,0,1,.562-2.153,2.646,2.646,0,0,1,.8-.906l.532.491a4.737,4.737,0,0,1,1.478-2.694,8.011,8.011,0,0,0-1.946-.5l.248-.3c-.341-.257-.7-.493-1.021-.776a2.657,2.657,0,0,1-.624-1.1h.129c.28.32.547.653.846.955a2.053,2.053,0,0,0,.591.433,17.707,17.707,0,0,0,1.678.69,2.243,2.243,0,0,0,.925.113,2.774,2.774,0,0,1,1.7.42,5.816,5.816,0,0,0,.821.369.517.517,0,0,1,.382.625.874.874,0,0,1-.673-.062c-.109-.058-.218-.114-.327-.17L36,22.15a.05.05,0,0,0-.049-.027L35.786,22a.174.174,0,0,0,0-.051,1.168,1.168,0,0,0-.744-.486c-.339-.028-.677-.06-1.017-.081-.129-.008-.172.046-.057.147l.28.333.053.076h0l.069.135h0l.069.136h0l.062.144.16.4.033.054A.711.711,0,0,0,35.321,23.147Z"/><path class="e137bd9e-1b95-46b8-b469-7dbdcf12f1e6" d="M23.1,19.425l.743.619.189.154.051-.047L24,19.8l.184.038a12.848,12.848,0,0,1,1.706,2.268,1.43,1.43,0,0,1-.124,1.663,1.745,1.745,0,0,1-.295.319,3.229,3.229,0,0,0-.867-2.1l-.21-.275c-.04-.163-.124-.266-.368-.238l.152.184a3.4,3.4,0,0,1,.147.333,4.349,4.349,0,0,1,0,2.433c-.367.169-.459.117-.546-.273-.021-.093-.122-.248-.165-.242a.505.505,0,0,0-.293.18,1.045,1.045,0,0,0-.107.315.89.89,0,0,1-.638.633,1.427,1.427,0,0,0-.969.768c-.1.2-.273.354-.387.544a1.72,1.72,0,0,0-.2.484,2.844,2.844,0,0,0,0,.4c-.007.094-.029.248-.081.264a.436.436,0,0,1-.3-.06,2.986,2.986,0,0,1-.353-.256l-.078-.061h0c-.14-.046-.162-.032-.134.094.039.17.081.34.121.51-.217.054-.362-.081-.51-.2-.192-.154-.378-.315-.588-.492a2.2,2.2,0,0,1-.209.224c-.074.059-.172.146-.244.134s-.14-.142-.147-.225c-.031-.342-.037-.686-.053-1.035.356-.027.656-.037.953-.076a3.053,3.053,0,0,0,2.3-1.584,1.809,1.809,0,0,0,.131-.682,2.31,2.31,0,0,1,.022-.377l.343.456.072-.016a1.917,1.917,0,0,0,0-.379,14.061,14.061,0,0,0-.936-2.945,2.107,2.107,0,0,0-.733-.864c-.118-.081-.246-.179-.393-.044-.115.106-.178-.007-.255-.061l-.205-.269c-.108-.21-.266-.175-.425-.079s-.295.206-.451.293a1.394,1.394,0,0,1-.374.139.247.247,0,0,1-.208-.062c-.027-.031.02-.135.049-.2a1.891,1.891,0,0,1,.151-.223,5.063,5.063,0,0,0-.668-.008.829.829,0,0,1-.918-1.046c.032-.2.087-.248.291-.223.122.016.242.044.363.067a.531.531,0,0,0,.6-.2c.022-.033.067-.051.123-.092a.781.781,0,0,0,.719.351,2.007,2.007,0,0,1,1.893,1,3.159,3.159,0,0,0,.525.5l.084.059h0l.4.216,0,0,.14.069,0,0,.144.059h0l.273.149.044-.065-.172-.16v0l-.075-.066,0,0-.069-.07,0,0-.28-.255-.01-.015.342-.093.345.012Z"/><path class="e137bd9e-1b95-46b8-b469-7dbdcf12f1e6" d="M27.568,22.873A7.8,7.8,0,0,1,28.9,27.746a4.507,4.507,0,0,1-.374,1.631,4.982,4.982,0,0,1-.257.448l-.078-.019L28,28.325a2.743,2.743,0,0,1-1.009,1.246l-.142-.742A.93.93,0,0,1,26.7,29c-.069.045-.17.109-.23.088a.711.711,0,0,0-.642.119l-.036-.5a1.268,1.268,0,0,1-.149-.03c-.175-.055-.211-.132-.08-.253a6.994,6.994,0,0,1,.708-.566c.265-.188.546-.354.82-.529l.126-.072,0,0,.075-.056a.993.993,0,0,0,.548-1.027,15.956,15.956,0,0,0-.423-3.219l.074-.211h0Z"/><path class="b6f52468-782f-4edf-9b16-c19f36844434" d="M20.887,24.916c-.279.18-.555.366-.839.54a1.7,1.7,0,0,1-1.066.2c-.268-.022-.376-.1-.382-.368-.01-.376.037-.753.06-1.129.093-.063.124,0,.16.072.054.112.119.218.179.327a2.2,2.2,0,0,0,.174.358c.058.08.173.19.239.176a.312.312,0,0,0,.281-.292,3.3,3.3,0,0,0-.038-.369l.147.059c.019.039.041.078.058.119.127.318.245.386.583.33.054-.01.107-.027.161-.04Z"/><path class="bb377d97-41dc-4d1b-9fc5-6b4693e5bc4d" d="M28.561,19.152c.133.958-.224,1.963-.791,2.167L28.232,20l-.057-.054a2.1,2.1,0,0,1-1.751.354Z"/><path class="b5cc34fd-7be6-4206-a3e8-c2dfe232c4a6" d="M37.817,26.79l.189-.158-1.053-.554a1,1,0,0,1-.888.234c.154-.208.3-.4.443-.6.087-.121.117-.245-.036-.345a.126.126,0,0,0-.005-.064l.146-.005a2.938,2.938,0,0,1,.408.341,1.865,1.865,0,0,0,1.406.672c.065,0,.13.015.235.028a.751.751,0,0,1-.569.522Z"/><path class="f54b2af9-9f3b-459a-9639-5434b4fff651" d="M34.058,27.8c.154.123.3.251.464.367.228.167.335.149.5-.079a1.154,1.154,0,0,1,.266-.3,1.286,1.286,0,0,1,.062.248.635.635,0,0,1-.046.2c-.109.382-.109.382.278.579a1.647,1.647,0,0,1,.134-.18.322.322,0,0,1,.226-.077,3.942,3.942,0,0,1-.1.566c-.059.184-.243.172-.368.1a8.843,8.843,0,0,1-.929-.585,1.915,1.915,0,0,1-.4-.446,1.421,1.421,0,0,1-.132-.357Z"/><path class="aef99ef9-66ee-4d3e-86a8-cf7ec19e9b55" d="M23.1,19.425l-.542-.075c-.092-.13.04-.172.1-.242a.537.537,0,0,0,.079-.53.46.46,0,0,0-.45-.229.6.6,0,0,0-.536.392l-.136.118.137.119.2.314-.128.136c-.579-.278-.33-1.01.09-1.249a.939.939,0,0,1,1.066.311.768.768,0,0,1,.018.516A.322.322,0,0,0,23.1,19.425Z"/><path class="aed79cdd-2b15-40b7-b4bc-9862175070c1" d="M34.856,27.874c-.416-.024-.647-.227-.675-.555-.027-.31-.054-.62-.078-.931a.588.588,0,0,1,.02-.126c.389.129.475.243.432.605A1.508,1.508,0,0,0,34.856,27.874Z"/><path class="ad8e0d11-dccc-4daf-b3dd-859022909616" d="M29.374,20.11c.166.379.329.759.5,1.136.039.086.1.174-.018.224a.242.242,0,0,1-.193-.059c-.19-.154-.371-.32-.556-.482l.106-1.011Z"/><path class="bdf9905a-65b0-4a3d-b574-bb80c107c032" d="M17.78,20.4l-.149.875c-.337-.174-.358-.5-.476-.759l-.065-.324c.045-.048.094-.138.136-.134a5.089,5.089,0,0,1,.525.088Z"/><path class="be250e68-bfdd-4d9b-a845-0d73b8767428" d="M32.164,19.1c.42.365.925.622,1.14,1.189A1.133,1.133,0,0,1,32.164,19.1Z"/><path class="a09ef8cd-6f46-483b-a532-43c0267c7b52" d="M17.78,20.4l-.029-.254a5.089,5.089,0,0,0-.525-.088c-.042,0-.091.086-.136.134a.093.093,0,0,0-.063-.013h0l-.082-.12c-.036.031-.09.055-.106.094a.471.471,0,0,0-.007.16l-.044.482c-.18-.049-.226-.187-.269-.318a1.411,1.411,0,0,1,.092-.96,1.342,1.342,0,0,0,1.276.515Z"/><path class="b591e30e-4d5d-41ed-b006-25e6715cd0ab" d="M39.508,23.484a3.229,3.229,0,0,1,.971.6c-.176.123-.335.24-.5.346-.092.06-.2.075-.258-.045s.014-.188.122-.229l.183-.079-.012-.054h-.371l-.28-.462Z"/><path class="b6d39cdc-f506-44c5-9197-9a85e8764933" d="M35.321,23.147a.711.711,0,0,1-.628-.342l-.033-.054-.16-.4.008-.143.008-.082.059.009.065.072c.1.173.174.364.4.416l.368.048.388.074-.507.278Z"/><path class="b62acd61-d5f0-4562-a1b8-6a7e926c7ace" d="M39.913,25.109a4.849,4.849,0,0,1-.244.6.487.487,0,0,1-.267.184.262.262,0,0,1-.237-.05.29.29,0,0,1,.018-.243A.827.827,0,0,1,39.913,25.109Z"/><path class="aff9e071-06b9-4938-8158-b9517d5a2d55" d="M24.392,21.718l.21.275-.164-.085a12.242,12.242,0,0,1,.139,1.256,6.748,6.748,0,0,1-.128,1.091c-.01.064-.085.117-.13.175a4.349,4.349,0,0,0,0-2.433,3.4,3.4,0,0,0-.147-.333C24.287,21.526,24.308,21.746,24.392,21.718Z"/><path class="b7af94ae-765f-49af-a9c1-cdf2530465f7" d="M36.215,25.1a.047.047,0,0,1,.051.015l.138.059h0l0,.07-.22.01-.026,0-.024-.013-.29-.056-1.159-.066,0-.1a3.949,3.949,0,0,1,1.379.037Z"/><path class="b97d04ba-b685-4c28-9ebc-562b4d8cba1f" d="M16.813,17.252l.145-.259.066-.06,0,0c.123-.041.244-.086.369-.121.1-.029.172,0,.167.124l-.655.417Z"/><path class="e1afbf83-9cc1-412b-a3d2-5aa9c3edadfd" d="M35.794,22.746l-.388-.074-.03-.062.016-.016.049-.046.022-.086.046-.048.014-.087.137.006.032.008h.033l.33.21C36.07,22.753,35.914,22.725,35.794,22.746Z"/><path class="aab00098-3f4d-4999-abda-eed45f26379a" d="M29.374,20.11l-.161-.192-.106,1.011a1.627,1.627,0,0,1-.038-.265c.009-.343.026-.685.04-1.027l.138-.068h0l.06.215Z"/><path class="f9cd2f8a-2759-4259-814d-ccf3ab4d5b0b" d="M24.182,19.841,24,19.8l.088.348-.051.047-.189-.154c.074,0,.131-.013.085-.112-.079-.166-.153-.334-.229-.5a.067.067,0,0,0,.037.008l.071-.014Z"/><path class="a5cd574b-f228-4165-a209-bbb855088640" d="M29.247,19.569l-.138.068-.1-.6A.512.512,0,0,1,29.247,19.569Z"/><path class="bbc8ecc8-282c-4368-9ef4-a3622560b2c0" d="M36.055,22.551l-.33-.21a.915.915,0,0,1-.035-.222c0-.042.062-.079.1-.118l.162.122c-.131.029-.226.07-.085.211C35.931,22.4,35.991,22.479,36.055,22.551Z"/><path class="bfa97d54-2f59-43ca-ae33-b6ceedeac926" d="M19,24.56c-.06-.109-.125-.215-.179-.327-.036-.075-.067-.135-.16-.072l.066-.246.066-.011Z"/><path class="b6943695-cd8a-49de-8548-0b7d04dad6c2" d="M17.563,16.933c.005-.123-.066-.153-.167-.124-.125.035-.246.08-.369.121.151-.228.384-.2.611-.2l0,0Z"/><path class="ea0621cf-04f2-44d2-8dc3-ca6911451e60" d="M20.191,27.732c-.04-.17-.082-.34-.121-.51-.028-.126-.006-.14.134-.094-.136.1,0,.174.024.257C20.258,27.508,20.345,27.631,20.191,27.732Z"/><path class="e4874153-99fc-45f1-ad4f-2e327cd90a3b" d="M20.887,24.916,20.6,24.9l.43-.254.057.071Z"/><path class="f61de029-fa71-4f79-b80c-51902b66d21c" d="M27.491,22.743l-.074.211-.131-.275.082-.148Z"/><path class="aef99ef9-66ee-4d3e-86a8-cf7ec19e9b55" d="M21.882,19.785l-.4-.216A.368.368,0,0,1,21.882,19.785Z"/><path class="b50104f6-67ca-41a6-a464-85eec83e8ee8" d="M19.8,24.492l-.147-.059-.081-.227C19.736,24.253,19.815,24.343,19.8,24.492Z"/><path class="bbcaaec7-2da1-4ffc-8f01-9fcf3ec543d6" d="M37.817,26.79l.276.074-.43.087-.024-.074Z"/><path class="b7b3dfa5-e647-46ce-98ad-efef0f846a84" d="M23.7,19.431a1.868,1.868,0,0,1-.1-.171c0-.01.041-.042.064-.063l.118.16-.044.082A.067.067,0,0,1,23.7,19.431Z"/><path class="baddd82f-4d55-4cc9-8607-67418862be9b" d="M39.642,24.024h.371l.012.054-.183.079Z"/><path class="b7636ba8-8835-493d-855a-0ba2f0e009ef" d="M16.832,20.313a.471.471,0,0,1,.007-.16c.016-.039.07-.063.106-.094l.082.12C16.864,20.083,16.916,20.3,16.832,20.313Z"/><path class="aef99ef9-66ee-4d3e-86a8-cf7ec19e9b55" d="M22.3,19.831l.172.16-.044.065-.273-.149Z"/><path class="aef99ef9-66ee-4d3e-86a8-cf7ec19e9b55" d="M21.884,19.446l.28.255A.275.275,0,0,1,21.884,19.446Z"/><path class="a9d362b9-2fbf-4c90-a61c-15187cc1ad75" d="M21.826,19.428l.128-.136.262.046-.342.093H21.85Z"/><path class="e0383215-e917-4e9d-aeb3-48411c60a0f8" d="M39.508,23.484l-.146.078-.1-.157.034-.053Z"/><path class="b7636ba8-8835-493d-855a-0ba2f0e009ef" d="M17.027,20.18a.093.093,0,0,1,.063.013l.065.324C17.013,20.442,17.02,20.311,17.027,20.18Z"/><path class="b375816a-1956-4956-b7ba-9788d912d690" d="M27.207,22.489l-.118-.244.05-.03.154.187Z"/><path class="b687c276-2d60-47cc-b524-4151a8f5cf5a" d="M19.732,19.3l.205.269Z"/><path class="ad536fe9-0b4e-4150-9790-047554c854a8" d="M27.207,22.489l.086-.087.075.129-.082.148Z"/><path class="b017a4ef-8775-4698-aa9f-5cca0ff319cb" d="M36.181,25.25l.22-.01,0,0,.072.072,0,0a.126.126,0,0,1,.005.064Z"/><path class="a782b511-5a7f-4e47-ae9c-a44f183ac1cf" d="M30.123,18.829h-.129l-.051-.1c.028-.007.068-.028.082-.017A.718.718,0,0,1,30.123,18.829Z"/><path class="b017a4ef-8775-4698-aa9f-5cca0ff319cb" d="M36.4,25.24l0-.07.21.131-.146.005,0,0-.072-.072Z"/><path class="b56eda82-73f4-4f33-8259-dc6b520954df" d="M16.813,17.252l.1.1-.08.16-.081-.063Z"/><path class="b017a4ef-8775-4698-aa9f-5cca0ff319cb" d="M35.841,25.184l.29.056Z"/><path class="a5cd574b-f228-4165-a209-bbb855088640" d="M29.307,19.784l-.06-.215Z"/><path class="f61de029-fa71-4f79-b80c-51902b66d21c" d="M27.568,22.873l-.077-.13Z"/><path class="b017a4ef-8775-4698-aa9f-5cca0ff319cb" d="M36.215,25.1l-.151-.046Z"/><path class="b017a4ef-8775-4698-aa9f-5cca0ff319cb" d="M36.4,25.17l-.138-.059Z"/><path class="afbca49b-fa85-4a52-bb5b-dc8cdae0229b" d="M27.212,27.259l-.126.072Z"/><path class="aef99ef9-66ee-4d3e-86a8-cf7ec19e9b55" d="M22.019,19.851l-.14-.069Z"/><path class="aef99ef9-66ee-4d3e-86a8-cf7ec19e9b55" d="M22.159,19.907l-.144-.059Z"/><path class="b6943695-cd8a-49de-8548-0b7d04dad6c2" d="M17.024,16.933l-.066.06Z"/><path class="ea0621cf-04f2-44d2-8dc3-ca6911451e60" d="M20.2,27.128l.078.061Z"/><path class="afbca49b-fa85-4a52-bb5b-dc8cdae0229b" d="M27.292,27.2l-.075.056Z"/><path class="bbc8ecc8-282c-4368-9ef4-a3622560b2c0" d="M36,22.15l.066.052Z"/><path class="aef99ef9-66ee-4d3e-86a8-cf7ec19e9b55" d="M22.229,19.767l.075.066Z"/><path class="aef99ef9-66ee-4d3e-86a8-cf7ec19e9b55" d="M22.162,19.7l.069.07Z"/><path class="aef99ef9-66ee-4d3e-86a8-cf7ec19e9b55" d="M21.484,19.568l-.084-.059Z"/><path class="e17545b1-a08c-496e-851d-42e04c792565" d="M23.739,19.439l.044-.082.027.068Z"/><path class="b6a3405a-8ab9-444e-857d-140672ce791d" d="M13.437,26.526l.5.7a1.052,1.052,0,0,1-.9-.25l-1.05.563.291.222c-.392.119-.684-.03-.926-.49a1.189,1.189,0,0,1,.218-.053,1.853,1.853,0,0,0,1.388-.659,2.149,2.149,0,0,1,.276-.244l.081-.058h.134l0,.072h0C13.316,26.378,13.3,26.444,13.437,26.526Z"/><path class="b6a3405a-8ab9-444e-857d-140672ce791d" d="M14.8,28.689c.084.132.158.272.254.394a.229.229,0,0,0,.354.04c.175-.137.348-.276.564-.447a.725.725,0,0,1-.03.24,2.618,2.618,0,0,1-.3.44,2.787,2.787,0,0,1-1.124.775c-.227.081-.306.044-.375-.185a4.319,4.319,0,0,1-.09-.485l.077-.047.32.294.29-.21c.129-.164-.042-.3-.046-.451C14.688,28.911,14.6,28.76,14.8,28.689Z"/><path class="ac6c6b3e-1f05-44b2-ae43-7d9ed10cec44" d="M15.88,27.4c-.022.254-.054.507-.063.761a.582.582,0,0,1-.63.62c.081-.241.168-.489.246-.739a.344.344,0,0,0,.015-.2.539.539,0,0,1,.235-.639l.134-.073h0Z"/><path class="b591e30e-4d5d-41ed-b006-25e6715cd0ab" d="M9.466,24.949l1.178-.664a.646.646,0,0,1-.684.665l.2.11c.093.052.182.106.1.233-.073.111-.166.1-.26.031C9.846,25.218,9.693,25.109,9.466,24.949Z"/><path class="ac6c6b3e-1f05-44b2-ae43-7d9ed10cec44" d="M10.214,26.388l-.1-.366a.8.8,0,0,1,.71.509.243.243,0,0,1,.007.21.226.226,0,0,1-.2.058,1.625,1.625,0,0,1-.29-.193l-.059-.083h0Z"/><path class="e004b5a1-459f-4e47-82cc-44c72d4e3c2d" d="M15.481,23.284a.927.927,0,0,1-.948.8l.286-.176c-.2-.087-.465.107-.627-.149a2.546,2.546,0,0,1,.263.027.689.689,0,0,0,.819-.637l.13-.213Z"/><path class="b709a590-dfad-4d5b-b2c6-5f158c3b888a" d="M15.274,23.149a.689.689,0,0,1-.819.637,2.546,2.546,0,0,0-.263-.027l-.2-.072.335-.023c.158-.035.318-.069.476-.107a.453.453,0,0,0,.343-.318Z"/><path class="abcb132d-f734-4447-b4d0-7537ab9dd555" d="M14.2,25.919h1.121a1.888,1.888,0,0,1-.968.143l-.422.058h0l-.205,0-.067-.065a.046.046,0,0,1,.049-.015l.153-.052a.063.063,0,0,1,.059-.009Z"/><path class="b2a507ee-1eb5-40c7-b96a-a1d1f39832bc" d="M17.03,26.394c-.023.361-.031.723-.076,1.081a1.435,1.435,0,0,1-.188.4,5.172,5.172,0,0,0,.2-1.383C16.958,26.459,17.006,26.426,17.03,26.394Z"/><path class="aeba928c-1f86-476e-a219-418a853c59ab" d="M14.329,23.664l-.335.023-.137-.205.058-.068.005-.005.138-.073.029.005h.029Z"/><path class="ab599557-30ab-485f-9035-3a6ae26fab09" d="M14.8,28.689c-.2.071-.111.222-.108.358,0,.152.175.287.046.451-.048-.2-.109-.4-.139-.608-.011-.074.047-.159.082-.235A.7.7,0,0,1,14.8,28.689Z"/><path class="b2a507ee-1eb5-40c7-b96a-a1d1f39832bc" d="M16.431,30.128c.042-.283.052-.58.321-.768Z"/><path class="b2a507ee-1eb5-40c7-b96a-a1d1f39832bc" d="M15.472,30.158l-.148.223.354.253-.562-.2Z"/><path class="b2a507ee-1eb5-40c7-b96a-a1d1f39832bc" d="M16.553,28.609a.823.823,0,0,1-.263.682Z"/><path class="a2786aa2-2b71-4a0a-ae0c-4b4e546a4440" d="M12.921,23.337a1.512,1.512,0,0,0,.8-.12v.065a1.044,1.044,0,0,1-.71.132C12.98,23.412,12.951,23.363,12.921,23.337Z"/><path class="b45a73f1-abc1-448b-b935-48de2638ae1c" d="M14.058,23.336l-.138.073,0-.285.064-.051.079-.061h0l.067.268h0Z"/><path class="b2a507ee-1eb5-40c7-b96a-a1d1f39832bc" d="M15.877,30.712c.193.042.308-.074.417-.2C16.207,30.847,16.2,30.849,15.877,30.712Z"/><path class="b2a507ee-1eb5-40c7-b96a-a1d1f39832bc" d="M16.826,29.222a.464.464,0,0,1,.285-.4Z"/><path class="b2a507ee-1eb5-40c7-b96a-a1d1f39832bc" d="M16.013,29.689c0,.145-.063.216-.213.2Z"/><path class="b40055ec-2f0b-4717-805e-d7c53b93936a" d="M13.656,26.054l.067.065,0,.072,0,0-.139.058a.047.047,0,0,1-.051.021l-.032-.027-.042-.042-.011-.013a.226.226,0,0,0,0-.045.048.048,0,0,1,.051-.029l.081-.045Z"/><path class="b2a507ee-1eb5-40c7-b96a-a1d1f39832bc" d="M15.807,29.884l-.264.217Z"/><path class="b98a0f7f-a647-482d-a096-fdd955cdb8b1" d="M15.88,27.4l-.064-.266c.048-.087.116-.07.123.008A.816.816,0,0,1,15.88,27.4Z"/><path class="b40055ec-2f0b-4717-805e-d7c53b93936a" d="M13.926,26.12l.422-.058Z"/><path class="b2a507ee-1eb5-40c7-b96a-a1d1f39832bc" d="M17.01,26.124c.189.109.195.139.057.258Z"/><path class="b2a507ee-1eb5-40c7-b96a-a1d1f39832bc" d="M17.235,28.688l.147-.2Z"/><path class="b2a507ee-1eb5-40c7-b96a-a1d1f39832bc" d="M16.757,27.933l-.073.276Z"/><path class="bde2d20f-44ca-437a-a285-e2a78483f536" d="M13.437,26.526c-.14-.082-.121-.148.02-.2Z"/><path class="b40055ec-2f0b-4717-805e-d7c53b93936a" d="M14.2,25.919l-.278.059Z"/><path class="b2a507ee-1eb5-40c7-b96a-a1d1f39832bc" d="M16.687,28.2l-.073.207Z"/><path class="b2a507ee-1eb5-40c7-b96a-a1d1f39832bc" d="M16.618,28.405l-.068.209Z"/><path class="e43bf095-7114-4333-9a67-64dfaead7b24" d="M19.328,29.354l.108.029.023.111Z"/><path class="b01b4b05-0a97-4878-bec2-06d8df7612e9" d="M13.725,26.191l0-.072.205,0Z"/><path class="b2a507ee-1eb5-40c7-b96a-a1d1f39832bc" d="M16.292,30.513l.067-.208Z"/><path class="b2a507ee-1eb5-40c7-b96a-a1d1f39832bc" d="M16.279,29.334l-.074.154Z"/><path class="b40055ec-2f0b-4717-805e-d7c53b93936a" d="M13.858,25.987l-.153.052Z"/><path class="bde2d20f-44ca-437a-a285-e2a78483f536" d="M13.452,26.253h-.133l.076-.065a.273.273,0,0,0,.057,0l.011.013a.15.15,0,0,0-.011.055Z"/><path class="b01b4b05-0a97-4878-bec2-06d8df7612e9" d="M13.588,26.247l.139-.058Z"/><path class="b2a507ee-1eb5-40c7-b96a-a1d1f39832bc" d="M16.357,30.308l.057-.137Z"/><path class="a19a12b9-c163-4a8c-8d92-bbe4713ead4b" d="M10.214,26.388l.066.135Z"/><path class="b98a0f7f-a647-482d-a096-fdd955cdb8b1" d="M15.817,27.133l-.134.073Z"/><path class="b2a507ee-1eb5-40c7-b96a-a1d1f39832bc" d="M15.731,30.647l.15.067Z"/><path class="b2a507ee-1eb5-40c7-b96a-a1d1f39832bc" d="M15.544,30.1l-.077.063Z"/><path class="bde2d20f-44ca-437a-a285-e2a78483f536" d="M13.318,26.255l-.081.058Z"/><path class="bde2d20f-44ca-437a-a285-e2a78483f536" d="M13.456,26.325l0-.072h0a.2.2,0,0,0,.053-.013l.032.027Z"/><path class="a19a12b9-c163-4a8c-8d92-bbe4713ead4b" d="M10.28,26.523l.059.083Z"/><path class="b2a507ee-1eb5-40c7-b96a-a1d1f39832bc" d="M17.707,28.148l.072-.069Z"/><path class="b2a507ee-1eb5-40c7-b96a-a1d1f39832bc" d="M17.644,28.223l.065-.078Z"/><path class="b2a507ee-1eb5-40c7-b96a-a1d1f39832bc" d="M17.576,28.291l.073-.074Z"/><path class="b2a507ee-1eb5-40c7-b96a-a1d1f39832bc" d="M17.507,28.356l.075-.071Z"/><path class="b2a507ee-1eb5-40c7-b96a-a1d1f39832bc" d="M17.439,28.422l.074-.071Z"/><path class="b45a73f1-abc1-448b-b935-48de2638ae1c" d="M13.915,23.414l-.058.068Z"/><path class="b2a507ee-1eb5-40c7-b96a-a1d1f39832bc" d="M17.375,28.494l.068-.077Z"/><path class="b2a507ee-1eb5-40c7-b96a-a1d1f39832bc" d="M17.17,28.762l.066-.077Z"/><path class="b2a507ee-1eb5-40c7-b96a-a1d1f39832bc" d="M17.105,28.832l.071-.076Z"/><path class="b45a73f1-abc1-448b-b935-48de2638ae1c" d="M13.722,23.282v-.065a.064.064,0,0,1,.059-.014Z"/><path class="b2a507ee-1eb5-40c7-b96a-a1d1f39832bc" d="M16.768,29.317l.058-.094Z"/><path class="b01b4b05-0a97-4878-bec2-06d8df7612e9" d="M13.586,26.067l-.081.045Z"/><path class="b01b4b05-0a97-4878-bec2-06d8df7612e9" d="M13.452,26.186a.273.273,0,0,1-.057,0l.059-.048A.226.226,0,0,1,13.452,26.186Z"/><path class="b2a507ee-1eb5-40c7-b96a-a1d1f39832bc" d="M16.211,29.48l-.067.077Z"/><path class="b2a507ee-1eb5-40c7-b96a-a1d1f39832bc" d="M16.148,29.553l-.069.073Z"/><path class="b2a507ee-1eb5-40c7-b96a-a1d1f39832bc" d="M16.082,29.623l-.072.07Z"/><path class="b45a73f1-abc1-448b-b935-48de2638ae1c" d="M13.779,23.206l.078-.052Z"/><path class="a01d7e67-9ed4-46ec-a634-fd62d8505f8d" d="M15.481,23.284l-.077-.348c.075-.315.064-.326-.25-.262l-.066.012L15,22.741h0l-.341-.138v0l.07-.052a.893.893,0,0,1,.663-.261c.233-.008.466,0,.719,0Z"/><path class="ff64e14f-aeb3-452d-b4ea-1f612b4e0385" d="M14.663,22.6,15,22.74a.5.5,0,0,1-.01.056l-.192.092-.484.321-.192.071-.067-.268Z"/><path class="ff64e14f-aeb3-452d-b4ea-1f612b4e0385" d="M14.06,23.012l-.079.061Z"/><path class="ff64e14f-aeb3-452d-b4ea-1f612b4e0385" d="M14.732,22.552l-.07.052Z"/><path class="ab0bcc6d-a649-46ee-ba94-d496a8b47c61" d="M23.577,33.814l-.067-.063Z"/><path class="a726154a-8bce-46c1-8ea6-ecdfd008b7e7" d="M14.532,20.312l-.135-.877a3.808,3.808,0,0,1,.473-.946c.13.05.138.158.135.275,0,.156,0,.312,0,.468Z"/><path class="a726154a-8bce-46c1-8ea6-ecdfd008b7e7" d="M14.33,19.569l-.068.135Z"/><path class="bfb35042-cf7c-4022-968c-aea13160ecc2" d="M19.189,34.76l-.2-.135Z"/><path class="bfb35042-cf7c-4022-968c-aea13160ecc2" d="M18.92,34.624v-.067l.068.068Z"/><path class="bfb35042-cf7c-4022-968c-aea13160ecc2" d="M19.257,34.826l-.068-.066Z"/><path class="bfb35042-cf7c-4022-968c-aea13160ecc2" d="M19.392,34.893l-.068-.066Z"/><path class="ab0bcc6d-a649-46ee-ba94-d496a8b47c61" d="M17.975,33.882l-.068-.068Z"/><path class="ab0bcc6d-a649-46ee-ba94-d496a8b47c61" d="M18.177,34.017l-.068-.068Z"/><path class="ab0bcc6d-a649-46ee-ba94-d496a8b47c61" d="M18.245,34.084l-.068-.067h.068Z"/><path class="ab0bcc6d-a649-46ee-ba94-d496a8b47c61" d="M18.312,34.152l-.067-.068Z"/><path class="ab0bcc6d-a649-46ee-ba94-d496a8b47c61" d="M18.447,34.22l-.068-.068Z"/><path class="ab0bcc6d-a649-46ee-ba94-d496a8b47c61" d="M18.515,34.287l-.068-.067Z"/><path class="e395b299-0e4f-4efa-9384-c22e0de73fa7" d="M22.362,36.177l-.81-.2-.338-.2a5.656,5.656,0,0,1,1.041,0c.709.063,1.421.095,2.131.139h.034l1.84.068c.579.022,1.159.038,1.738.073.139.008.323-.01.371.2-.232.05-.464.1-.7.147-.149.028-.3.038-.45.057h0c-.05-.132-.16-.137-.277-.136-.135,0-.27,0-.4-.009-.442-.031-.882-.077-1.324-.1-.424-.021-.849-.016-1.273-.03-.491-.016-.982-.042-1.473-.058C22.435,36.113,22.4,36.155,22.362,36.177Z"/><path class="e395b299-0e4f-4efa-9384-c22e0de73fa7" d="M20.809,35.637l-.134-.067Z"/><path class="e395b299-0e4f-4efa-9384-c22e0de73fa7" d="M20.944,35.7l-.067-.067Z"/><path class="e395b299-0e4f-4efa-9384-c22e0de73fa7" d="M21.079,35.772l-.067-.067Z"/><path class="ff97dacd-255e-486a-85a4-f177fb11b38d" d="M19.8,35.1l-.135-.067Z"/><path class="e395b299-0e4f-4efa-9384-c22e0de73fa7" d="M26.817,36.582h-.473l.473-.067h0Z"/><path class="e395b299-0e4f-4efa-9384-c22e0de73fa7" d="M27.222,36.448l-.405.067h0l.4-.068Z"/><path class="b6ae8d4e-84e2-40c2-9b49-7b37a76e55f9" d="M26.277,12.683l.607.067Z"/><path class="f3f14491-f843-4a56-90ee-3f300df5a458" d="M27.221,36.447l-.4.068-.473.067H24.117c-.187-.043-.373-.094-.561-.127s-.391-.051-.586-.075l-.2-.068-.135-.067h-.2l-.067-.068h0c.036-.022.073-.064.108-.063.491.016.982.042,1.473.058.424.014.849.009,1.273.03.442.023.882.069,1.324.1.134.01.269.011.4.009C27.061,36.31,27.171,36.315,27.221,36.447Z"/><path class="e395b299-0e4f-4efa-9384-c22e0de73fa7" d="M22.632,36.245l.135.067Z"/><path class="e395b299-0e4f-4efa-9384-c22e0de73fa7" d="M22.362,36.177l.067.068Z"/><path class="e395b299-0e4f-4efa-9384-c22e0de73fa7" d="M24.926,36.583h1.216a1.084,1.084,0,0,1-.242.064c-.324.007-.649,0-.973,0Z"/><path class="b3312371-6845-4638-a19a-f2433385844c" d="M24.926,36.583v.066l-.608-.066Z"/><path class="a6f74e24-a41f-4eec-96c3-385c4fc427b2" d="M34.516,22.127l-.008.082h-.07l-.069-.136h0l-.069-.135h0l-.053-.076-.28-.333a.79.79,0,0,1,.236-.066c.283.012.565.04.847.063h0l-.34.2-.078.015a.1.1,0,0,1-.056-.018c-.054-.077-.1-.073-.13.018l.006.178.053.082v0Z"/><path class="af0ab7d3-58d6-46a5-965e-2c76ddc151ab" d="M35.786,22c-.034.039-.093.076-.1.118a.915.915,0,0,0,.035.222h-.033l-.032-.008-.2-.139-.286-.2-.326-.132h0l-.073-.045,0-.012,0-.07.485-.079.527.293A.174.174,0,0,1,35.786,22Z"/><path class="e0eb1f28-1586-4f74-a352-ea5879ca10d8" d="M35.052,21.527c-.282-.023-.564-.051-.847-.063a.79.79,0,0,0-.236.066c-.115-.1-.072-.155.057-.147.34.021.678.053,1.017.081Z"/><path class="b8e95738-0541-426c-9fd7-1160168fe167" d="M35.052,21.527l-.009-.063a1.168,1.168,0,0,1,.744.486l-.527-.293v0l-.069-.053-.138-.079Z"/><path class="edbfa43e-2467-4a41-8fbb-f5754f2c3946" d="M34.3,21.938l.069.135Z"/><path class="edbfa43e-2467-4a41-8fbb-f5754f2c3946" d="M34.369,22.072l.069.136Z"/><path class="edbfa43e-2467-4a41-8fbb-f5754f2c3946" d="M34.438,22.208h.07l-.008.143Z"/><path class="bfa76d19-3682-42dd-9df5-0b94389d4460" d="M34.66,22.751l.033.054Z"/><path class="edbfa43e-2467-4a41-8fbb-f5754f2c3946" d="M34.249,21.863l.053.076Z"/><path class="b147d1ad-a934-4fb9-a044-45fe84008975" d="M22.216,19.338l-.262-.046-.2-.314.007-.023.2.062,0,.016a.4.4,0,0,0,.606,0c.027-.058.09-.129.075-.172-.105-.3-.32-.328-.685-.115l-.2.02,0-.026a.6.6,0,0,1,.536-.392.46.46,0,0,1,.45.229.537.537,0,0,1-.079.53c-.057.07-.189.112-.1.242Z"/><path class="a5092de9-1bb4-4108-878d-99ccb9e6eec8" d="M24.392,21.718c-.084.028-.105-.192-.216-.054l-.152-.184C24.268,21.452,24.352,21.555,24.392,21.718Z"/><path class="af0c7190-b445-4bb8-9974-c061f454dc27" d="M21.752,18.978l-.137-.119.136-.118,0,.026,0,.188Z"/><path class="bfa76d19-3682-42dd-9df5-0b94389d4460" d="M35.038,22.624c-.224-.052-.3-.243-.4-.416l.02-.022.187-.167a.633.633,0,0,0,.207.585Z"/><path class="bfa76d19-3682-42dd-9df5-0b94389d4460" d="M35.376,22.61l.03.062-.368-.048.016-.02Z"/><path class="edbfa43e-2467-4a41-8fbb-f5754f2c3946" d="M34.516,22.127,34.508,22l.1.127-.034,0Z"/><path class="bfa76d19-3682-42dd-9df5-0b94389d4460" d="M34.64,22.208l-.065-.072.034,0,.051.055Z"/><path class="b8617408-6a25-4860-9865-e29fd15daa18" d="M35.376,22.61l-.322-.006a.633.633,0,0,1-.207-.585L34.871,22,35.177,22l.286.2.06.133-.014.087-.046.048-.022.086-.049.046Z"/><path class="bfa76d19-3682-42dd-9df5-0b94389d4460" d="M35.523,22.327l-.06-.133.2.139Z"/><path class="bfa76d19-3682-42dd-9df5-0b94389d4460" d="M35.392,22.594l.049-.046Z"/><path class="bfa76d19-3682-42dd-9df5-0b94389d4460" d="M35.463,22.462l.046-.048Z"/><path class="b5cc34fd-7be6-4206-a3e8-c2dfe232c4a6" d="M36.4,25.238l.072.072Z"/><path class="b2d6de7e-c9a1-4210-9436-48a349dd29cc" d="M14.994,22.8A.5.5,0,0,0,15,22.74h0l.085-.055.066-.012c.314-.064.325-.053.25.262l-.13.213-.126.09Z"/><path class="e1180151-f8ff-4a61-9cd7-32e3358d8a42" d="M14.994,22.8l.154.443a.453.453,0,0,1-.343.318c-.158.038-.318.072-.476.107l-.213-.324a.148.148,0,0,0,.008-.059h0l.192-.071c.041.05.081.1.124.149.154.169.254.147.4-.021.167-.184-.034-.3-.045-.449Z"/><path class="ff64e14f-aeb3-452d-b4ea-1f612b4e0385" d="M14.124,23.281a.148.148,0,0,1-.008.059h-.029l-.029-.005Z"/><path class="e508e347-b142-4188-a285-4b5ec49baad5" d="M13.505,26.241a.2.2,0,0,1-.053.013.15.15,0,0,1,.011-.055Z"/><path class="ff64e14f-aeb3-452d-b4ea-1f612b4e0385" d="M15.088,22.686,15,22.741Z"/><path class="ebb3fbf3-daf7-4c89-b8db-e6773531b971" d="M14.8,22.888c.011.149.212.265.045.449-.151.168-.251.19-.4.021-.043-.048-.083-.1-.124-.149Z"/><path class="a9bf14a5-525c-437c-bd0c-18db5e65be32" d="M34.66,22.186l-.051-.055-.1-.127v0l-.053-.082-.006-.178.13-.018a.1.1,0,0,0,.056.018l.139.064,0,.012.073.045h0l.02.139-.024.017Z"/><path class="e0eb1f28-1586-4f74-a352-ea5879ca10d8" d="M35.052,21.527l.138.079.069.053v0l-.485.079q-.032,0-.063-.009Z"/><path class="e0eb1f28-1586-4f74-a352-ea5879ca10d8" d="M34.578,21.724l-.13.018C34.48,21.651,34.524,21.647,34.578,21.724Z"/><path class="edbfa43e-2467-4a41-8fbb-f5754f2c3946" d="M34.712,21.727q.031.006.063.009l0,.07-.139-.064Z"/><path class="edbfa43e-2467-4a41-8fbb-f5754f2c3946" d="M34.454,21.92l.053.082Z"/><path class="bfa76d19-3682-42dd-9df5-0b94389d4460" d="M34.871,22l-.02-.139.326.132Z"/><path class="bfa76d19-3682-42dd-9df5-0b94389d4460" d="M34.851,21.863l-.073-.045Z"/><path class="af0ab7d3-58d6-46a5-965e-2c76ddc151ab" d="M35.259,21.659l-.069-.053Z"/><path class="e51c7ca5-5f3d-4596-aa96-8a4c125bb32b" d="M21.953,18.747c.365-.213.58-.181.685.115.015.043-.048.114-.075.172h-.606l0-.016Z"/><path class="a9d362b9-2fbf-4c90-a61c-15187cc1ad75" d="M21.957,19.033h.606A.4.4,0,0,1,21.957,19.033Z"/><path class="b4a4cb72-0117-4247-8364-9961699a4619" d="M21.953,18.747l.007.27-.2-.062,0-.188Z"/><polygon class="aae06afd-2c6f-45ee-8249-179ca5af877f" points="17.899 28.084 17.899 28.084 17.899 28.084 17.899 28.084"/></svg>