<svg id="b9460c8b-413d-48a7-818d-211e72308689" data-name="Ebene 1" xmlns="http://www.w3.org/2000/svg" viewBox="0 0 50 50">
  <defs>
    <style>
      .a0b61aef-a25b-4157-a5a4-73d7df31df94 {
        fill: #fff;
      }

      .fc1a111a-643a-4daa-b7a8-73f83d2f7906 {
        fill: #a41115;
      }

      .a972a628-5680-4df3-8045-5dba72a48907 {
        fill: #f2ba20;
      }

      .bf061658-7862-4f55-bb79-f9ecaaf01cab {
        fill: #fefefe;
      }

      .aadac545-99ec-4e39-be40-e42b040c81ab {
        fill: #f3b21f;
      }

      .bca10781-e419-443f-aa26-74ca62c0f7a5 {
        fill: #f6b91c;
      }

      .b52c225d-46fe-4401-9300-521c4bd031a5 {
        fill: #f6b81c;
      }

      .b0b85289-c306-4052-a691-86710383cb6c {
        fill: #e7ad23;
      }

      .ad9b5a22-e401-43cc-8552-86acf489593c {
        fill: #f3d024;
      }

      .b0c2e770-ca30-4d5c-8044-e147b1212fae {
        fill: #f7d13c;
      }

      .e2746780-1036-47fc-8f61-21443c0efd46 {
        fill: #f2b120;
      }

      .bc03f853-0113-4e83-b367-26008a5dea4d {
        fill: #f0b021;
      }

      .ef9dc699-c503-44b5-9270-a97a29beeda8 {
        fill: #f3c323;
      }

      .a34ea87a-87c9-43d1-a099-64608de1d517 {
        fill: #f2b821;
      }

      .ae9abc36-2143-476f-b0d2-1459d90d4f31 {
        fill: #f5c430;
      }

      .fdbc3a9a-303e-4fdf-af42-a2f364c8ddc1 {
        fill: #f4c322;
      }

      .b40b086e-5096-4794-8949-0558dcac97d2 {
        fill: #dda52c;
      }

      .b0f6dcb8-8b93-428b-910a-ab3e2ddfa584 {
        fill: #f4b42c;
      }

      .f019c921-3e92-493d-b5eb-8ecd2d9b76c0 {
        fill: #f6c534;
      }

      .a24b3e4c-d11d-4389-9927-23f4f7a50067 {
        fill: #f4cb2c;
      }

      .b9190710-a214-4b5a-9fa3-d06ec3f45d57 {
        fill: #f5cb60;
      }

      .a70a4286-6325-432d-91b6-e1473cb7f437 {
        fill: #eb6022;
      }

      .f35a4fa9-2b51-441f-8b66-50ede28653bb {
        fill: #ee6921;
      }

      .f4da06ed-ddac-4eb5-a098-c9d1dbcefbd2 {
        fill: #ef7f20;
      }

      .e8b90044-7694-4c6b-94db-6e333d187a83 {
        fill: #d3a32a;
      }

      .bb74997e-d202-4281-a1b5-523cced1471e {
        fill: #d69e29;
      }

      .a33faeb8-4ee7-4357-9905-7debb88bc39e {
        fill: #da9827;
      }

      .b3f8baf7-d8a8-4091-a9e4-02211cf75163 {
        fill: #f3c923;
      }

      .ae9d714b-0a9e-444c-adb3-ec38ea507428 {
        fill: #f1bc21;
      }

      .b25d2f65-4bf5-4652-8a98-c9d089271bb4 {
        fill: #e15826;
      }

      .aef50a50-edf0-427e-82b5-522ded15ee11 {
        fill: #a5aab6;
      }

      .a005c3a3-54de-4917-8856-f27abd03a1b9 {
        fill: #f2b820;
      }

      .a7536399-b2dc-4a68-9b07-d614a4784f18 {
        fill: #f5b81f;
      }

      .ed60e95a-3f0e-41ad-b9c4-8ebfb351e31c {
        fill: #f3ce23;
      }

      .a8bef1b3-61d9-43ac-98fe-f40339381192 {
        fill: #f2bc21;
      }

      .a1c1cc3b-9cef-4df4-9c72-b32a695016c7 {
        fill: #f3c322;
      }

      .ab531bc3-4629-49a1-9b1a-d2337ff27a3f {
        fill: #f3c121;
      }

      .b4130271-2054-4093-ba70-c0194708b65d {
        fill: #f3c722;
      }

      .b8a675c3-1213-4d21-a5ab-4acc69c36a04 {
        fill: #f4d525;
      }

      .ecc9f309-8c12-4cc1-889c-30d6962874c9 {
        fill: #f2b220;
      }

      .ef19b66b-1c2e-48de-b1b0-74bffd0aca30 {
        fill: #a3a8b4;
      }

      .e96b35d0-9461-4b15-b2b5-a2cd43216cfc {
        fill: #f6b920;
      }

      .aa252ae5-2020-49c8-88c2-a932f6ca4685 {
        fill: #060505;
      }

      .b1435c1b-c226-42aa-9347-41e618075b40 {
        fill: #f3c926;
      }

      .b5c6eaa6-759f-409c-ab17-1b32397183f5 {
        fill: #f3c222;
      }

      .bc4f5aa0-52eb-4848-97e4-a39986cd3094 {
        fill: #f6b61f;
      }

      .a263d62d-062f-4c0e-ab1b-ace71a445d5b {
        fill: #f3b527;
      }

      .b274f6e1-ce50-47e8-95fe-53b202dbc35b {
        fill: #f5c632;
      }

      .a61f4ba7-47fd-4286-9d71-ebd9c000cf0a {
        fill: #f3c229;
      }

      .b1ea4cc5-f4f4-4013-baf5-1c60cff899cb {
        fill: #b7b5b6;
      }

      .e0a73f6a-eb91-481e-af65-67f5375369a6 {
        fill: #3a3939;
      }

      .b8b56c12-8e06-4817-bae3-ffa7c74b3c1f {
        fill: #f4bd2a;
      }

      .b619ffc8-43c7-4959-898f-fed896129e46 {
        fill: #5d5c5c;
      }

      .fe02915f-d836-412c-9b6c-9827f38c8f77 {
        fill: #252525;
      }

      .a3b132b3-29f3-447c-af95-741cb7489c30 {
        fill: #565655;
      }

      .b32da538-e454-4648-97e3-fa3e687bc1a2 {
        fill: #f8cd69;
      }

      .ade74853-1aec-4748-95db-9ef1d000fd54 {
        fill: #fce4b1;
      }

      .ac1c2219-8ece-4f00-a1aa-6d6223d02ba4 {
        fill: #403f40;
      }

      .be5aa488-b5c9-4bfe-9f9d-f3bc5b4d97a3 {
        fill: #a5aab5;
      }

      .e47c0ae5-c55d-49ca-af4c-773be1f63be4 {
        fill: #f4d524;
      }

      .a0608b88-6c25-4ff9-9320-4d6af3ab2c00 {
        fill: #f3cd23;
      }

      .b995a737-6024-4972-b80d-f369649a0c6d {
        fill: #f2b620;
      }

      .fbc37c49-0e9a-4708-8621-5f69c4678b37 {
        fill: #f3b926;
      }

      .ba0b6622-7a9c-414b-b473-3f03254ee15c {
        fill: #f4be2a;
      }

      .ad0fe3b5-5705-44a1-93e2-ba774d909617 {
        fill: #f5b31e;
      }

      .fef6fd30-b293-4281-997c-32dd2e03148a {
        fill: #f3c422;
      }

      .eabe6504-70f9-4323-a60d-14730674a9d6 {
        fill: #f5b21e;
      }

      .fd5aab44-d819-4606-88a0-8f92e1089c77 {
        fill: #f3ab20;
      }

      .fa84a518-bd10-4013-852b-a644ac2ce043 {
        fill: #f3b521;
      }

      .fd9f3889-95ae-483c-8eb2-943472ffee1e {
        fill: #f4d224;
      }

      .ed6f3c53-998e-4618-80a9-cdbfda7d3eae {
        fill: #f3b722;
      }

      .aa3baa34-1ae4-40b9-9177-35e60f551609 {
        fill: #f3c421;
      }

      .b9fbe042-1d03-4e49-ab87-907cd72be207 {
        fill: #f4bd29;
      }

      .a8d65c83-aa51-4aed-a0bf-85d5d0feb36e {
        fill: #f3ac1f;
      }

      .f8576ee5-05da-460e-981d-02231c96e963 {
        fill: #e69623;
      }

      .a7fb61f0-2969-46d5-bf06-1d581f1dba02 {
        fill: #ef9a20;
      }

      .ef90124e-15be-460a-8262-137fbb79a7f7 {
        fill: #ec9421;
      }

      .b32c4a48-dbb2-49aa-a50b-b4045cdb8335 {
        fill: #fbfbfb;
      }

      .e165f2db-8d13-4edd-97e7-efe4c490b14c {
        fill: #a3a7b3;
      }

      .bcfaf42f-28ee-4174-ac58-f0b9dc0cae38 {
        fill: #f7f6f6;
      }

      .a0a29e5d-5c17-4dca-8e67-8d88a463ab59 {
        fill: #f8f8f8;
      }

      .b5dd4485-77b3-43b2-9af2-fa63f0307f29 {
        fill: #170404;
      }

      .aaa231ef-e56b-4665-beef-ad238557e895 {
        fill: #9ca0ab;
      }

      .b35c19a6-a551-4c20-b07f-dfe22ac62a80 {
        fill: #f6f6f5;
      }

      .ad01b7e7-b315-4837-ae73-a7d82e746b79 {
        fill: #f8f7f8;
      }

      .b631d51c-6d74-41a9-9659-0b28b4441c23 {
        fill: #a0a5b0;
      }

      .f338d121-9447-4504-b50b-9a3551d52a37 {
        fill: #eee;
      }

      .fbf66ba0-f60b-4a51-aa1e-2017c901dbb6 {
        fill: #9b9faa;
      }

      .a5554ddd-709c-47af-b0fb-c8277a4f2a18 {
        fill: #1e0a0b;
      }

      .b56e15f9-c049-4c9d-b3b3-619a5a0754ae {
        fill: #9da1ac;
      }

      .bee00709-6a47-4f14-94a7-6fecd03d5ecc {
        fill: #282a2c;
      }

      .b82648d6-8ca8-4d51-a11f-de15250fd726 {
        fill: #cccbcb;
      }

      .b7537fe7-7c8f-46a7-8dca-23ee8186e12b {
        fill: #8c9099;
      }

      .a59e6b8f-9d83-4840-86dd-2df1713ba10c {
        fill: #a98a91;
      }

      .af68b4d4-088e-4d91-905a-7eeea255fdeb {
        fill: #d6d5d5;
      }

      .bbea5171-41fe-4f70-b71a-0b72b4bd6bda {
        fill: #888b93;
      }

      .fbad9dca-a707-4ed7-a005-dbae8f9805f2 {
        fill: #292828;
      }

      .b8ed23b2-2542-40df-bf22-5d3c4bacaa1b {
        fill: #2b1214;
      }

      .e58ca44f-1b7f-41d5-883d-6540d32e977d {
        fill: #d8d7d7;
      }

      .fb54c549-9e2f-40e1-9fec-11e6064e031a {
        fill: #303134;
      }

      .f385510d-3a3c-45e6-b686-cfd28523bdfa {
        fill: #b6b5b6;
      }

      .be7b737f-db74-4d32-9a23-9d85245663d9 {
        fill: #7a7d84;
      }

      .b75ad845-a66a-427f-9fe1-5185c1026640 {
        fill: #6d6a6a;
      }

      .acfd345c-bcdc-4bb8-bdc2-e8cfef2009c9 {
        fill: #a9a7a7;
      }

      .f1c41a48-8c58-40e8-8991-4cfffbf47d77 {
        fill: #212123;
      }

      .f9aacdda-469e-43f4-bb20-f382e3a08d80 {
        fill: #323235;
      }

      .fec9f638-ea4b-45f5-acd3-07f76269f905 {
        fill: #484747;
      }

      .a151871d-0877-4dc6-b684-f023f4777845 {
        fill: #820404;
      }

      .ae540ec3-3cfd-42fa-ab86-78fd7d1a3cad {
        fill: #73757b;
      }

      .edb29710-d05f-46d8-a961-f1c7fd7e10bd {
        fill: #4c4d51;
      }

      .a41d27fe-c35f-4e82-b2a1-c607b8cc2113 {
        fill: #393b3d;
      }

      .a7d79570-f0bf-4dbe-b564-5f6540b010eb {
        fill: #5f6066;
      }

      .e17d15be-41d2-4d6f-bf94-2a50c59d33e3 {
        fill: #aaa9a9;
      }

      .fc734e26-1716-4de5-ae80-dd70ee076bc0 {
        fill: #303133;
      }

      .b82bb085-4500-4f4b-8702-46331645c71d {
        fill: #7b7c83;
      }

      .e659e906-5258-422c-8640-4eca02388d91 {
        fill: #333436;
      }

      .bc0eafbc-d0db-47e7-b97a-b2cb088e79d6 {
        fill: #8d9095;
      }

      .a20d2751-b6f8-4fed-85f1-0f86f4fe62cb {
        fill: #f8f7f7;
      }

      .b0202988-a71a-4e9a-af93-eaac1bccfe3c {
        fill: #9ca1ac;
      }

      .e9239ff1-aa3d-4de0-a8e0-0faaa868556c {
        fill: #180808;
      }

      .a5f0a41c-9687-446f-9bb1-5014b4f3ed91 {
        fill: #3d0505;
      }

      .a05ebf1a-822c-4e75-930a-c6184dab0085 {
        fill: #ededed;
      }

      .a50f5289-c9fc-42ff-bfcd-2b9cebc0289f {
        fill: #a75a5e;
      }

      .afb1ca31-4dde-46a9-a3b9-233213fd3761 {
        fill: #3a3b3f;
      }

      .f26964cf-86b9-4ff8-a4e3-fcec00ba6ccd {
        fill: #20090a;
      }

      .bdbdfef5-3bcd-4f62-b169-38bdb22b3461 {
        fill: #bcbaba;
      }

      .bba5aaed-ad23-48cf-b235-be6cb171d461 {
        fill: #262729;
      }

      .be11148a-a219-435d-b935-e8b72a146de6 {
        fill: #bfbdbd;
      }

      .b0a35bf3-ac4b-43ef-afd0-8ac89481939e {
        fill: #b0afaf;
      }

      .b6d7d9f4-fa50-4b0a-804c-07d7761fd654 {
        fill: #81838b;
      }

      .a10fe354-a5f3-4250-8c9c-a893252bcfe7 {
        fill: #0c0a0b;
      }

      .bfd817a7-7026-447b-b02a-47f4d21c751f {
        fill: #5f090a;
      }

      .a387283b-c12b-4cf8-b359-ed5782983cdb {
        fill: #f4c22e;
      }

      .fe09e9ca-75b8-4f5f-b6f7-120ca412be6c {
        fill: #f5c832;
      }

      .b60f6868-7dab-4bd4-b55e-d71170b47fca {
        fill: #090809;
      }

      .e9af3387-1ad8-4e18-a8fb-0ab1e039af64 {
        fill: #4f090a;
      }

      .ed48d417-bd43-4dc8-afb9-94b15ccc747d {
        fill: #1c1010;
      }

      .b8f4f8ca-eef3-4a6a-980a-611aa693612c {
        fill: #a4949e;
      }

      .ffeb037e-d376-40c8-a4fc-bd636684c8ac {
        fill: #433436;
      }

      .ade4be5a-e6a9-4baa-bfdf-ca2c9166cb45 {
        fill: #a83a3c;
      }

      .a45a3c20-5cf5-48a6-84bc-7bc608fdaa12 {
        fill: #790404;
      }

      .bbeea538-057a-40cc-81e5-79c2bbba3e48 {
        fill: #84878f;
      }

      .a403f51e-4365-43d2-ba3e-38340d6c5de0 {
        fill: #92484d;
      }

      .e5887b26-f33a-4192-bcfb-c9860ac91b18 {
        fill: #df2e31;
      }

      .a51076f8-37b0-403c-bd5d-86bb4850ccee {
        fill: #a3666d;
      }

      .fa0df80d-f487-41b1-81cb-22e166e24e84 {
        fill: #d13d40;
      }

      .bad3a943-d0b6-4d95-8149-f603d342bb09 {
        fill: #f2f0f0;
      }

      .b16197f1-5331-4c80-ae2e-14016715c5ab {
        fill: #e42527;
      }

      .a5994f22-0ed0-46aa-8bf7-a9bbecddb981 {
        fill: #b49aa1;
      }

      .a580b42a-3658-4cff-b86e-0789651ef68d {
        fill: #e02628;
      }

      .bc4ac621-1ec7-4d55-95b7-1f09e89271a4 {
        fill: #c93e41;
      }
    </style>
  </defs>
  <circle class="a0b61aef-a25b-4157-a5a4-73d7df31df94" cx="25" cy="25" r="18.6"/>
  <path class="fc1a111a-643a-4daa-b7a8-73f83d2f7906" d="M35.607,14.385A15.021,15.021,0,1,0,40,25,14.893,14.893,0,0,0,35.607,14.385Z"/>
  <g>
    <circle class="a972a628-5680-4df3-8045-5dba72a48907" cx="24.897" cy="25" r="11.392"/>
    <g>
      <path class="bf061658-7862-4f55-bb79-f9ecaaf01cab" d="M39.647,23.89a1.747,1.747,0,0,0-1.357-1.318c-.284-.073-.575-.118-.859-.189a.283.283,0,0,1-.187-.141.766.766,0,0,0-.607-.527c-.4-.123-.784-.293-1.175-.442a1.745,1.745,0,0,1-.7-.589h0l-.073-.059a2.821,2.821,0,0,0-1.177-.411.661.661,0,0,1-.53-.358,2.038,2.038,0,0,0-1.343-1.045c-.3-.085-.585-.212-.877-.32l-.066-.045,0,0-.236-.184,0,0-.065-.059v0l-.485-.363-.16.738c-.15-.126-.274-.224-.391-.33-.079-.072-.148-.155-.22-.234-.369-.405-.544-.434-1.013-.168a1.426,1.426,0,0,0-.155.582,1.08,1.08,0,0,1-.592.908,4.7,4.7,0,0,0-.565-1.495.656.656,0,0,0-.7-.114,1.058,1.058,0,0,0-.271.474,4.255,4.255,0,0,1-.286.639l-.627-.413-.181-.111-.166-.069-.186-.105c-.3-.124-.586-.269-.891-.368a1.4,1.4,0,0,0-1.107.122.91.91,0,0,1-.382.1,3.147,3.147,0,0,0-1.059.2.389.389,0,0,1-.274.014c-.557-.259-1.107-.533-1.659-.8-.015-.007-.024-.029-.036-.044l-.242-.122a1.029,1.029,0,0,0-.764,0,1.612,1.612,0,0,0-.879.777l0,0c-.114.3-.229.595-.343.894-.066.172-.13.344-.2.517V20.2c.038.056.1.109.108.17a1.358,1.358,0,0,1,.029.5c-.015.068-.2.109-.317.139-.148.038-.3.053-.455.077a2.673,2.673,0,0,0-.955.631l-.293.241-.753.348c-.231.077-.459.167-.694.228a.565.565,0,0,0-.464.434c-.032.144-.118.179-.244.2-.278.054-.553.121-.829.185A1.715,1.715,0,0,0,10.4,24.5a1.178,1.178,0,0,0-.012.885l.479.468c.076.074.181.136.221.226a4.138,4.138,0,0,0,1.042,1.293,2.928,2.928,0,0,0,1.638.851h.921c-.018.3-.035.588-.053.877a2.082,2.082,0,0,0,.759,1.408l.538.245.951.217.107.009c.322,0,.643.008.965.006.388,0,.282.025.379-.326.068-.249.147-.5.232-.78l1.2,1.093,1.358.881a9.17,9.17,0,0,0,2.288.7c.253.022.506.054.759.063a7.422,7.422,0,0,0,3.368-.646c.053-.023.11-.038.165-.056l.815-.474.7-.531.712-.7c.272-.377.547-.752.815-1.132.1-.147.192-.3.31-.494a2.886,2.886,0,0,1,.665,1.623,6.785,6.785,0,0,0,2.517-.29l.411-.234.176-.129a2.288,2.288,0,0,0,.531-1.289l-.045-.837.329.028a2.618,2.618,0,0,0,1.6-.377,6.125,6.125,0,0,0,.709-.568,3.509,3.509,0,0,0,.847-1,1.378,1.378,0,0,1,.472-.541A.884.884,0,0,0,39.647,23.89Z"/>
      <path class="aadac545-99ec-4e39-be40-e42b040c81ab" d="M19,17.378l-.242-.122-.221-.206.812-.73H19.4l.059-.058h0l.059-.059h0l.059-.059.765-.471h0l.06-.058L20.7,15.5c.124.019.248.047.372.056.542.043,1.084.086,1.626.118.456.028.914.044,1.371.06.633.023,1.266.04,1.9.06.029,0,.059,0,.088,0,.562.039,1.123.085,1.685.115.544.029,1.09.041,1.635.061l.058,0,1.685.115c.281.07.458.4.844.331-.036-.1-.059-.178-.091-.251s-.07-.133-.106-.2a10.182,10.182,0,0,1,.939.769l.062.115h0l.059.059,0,0,.113.061,0,0,.069.107c.16.175.323.347.479.525a2.7,2.7,0,0,1,.247.317c.136.207.261.421.391.632-.233.214-.233.214-.466-.018l-.125-.125a.446.446,0,0,0-.513-.163c-.039.015-.093-.01-.14-.018a3.322,3.322,0,0,0-.48-.082c-.371-.013-.744,0-1.115-.007-.232-.006-.463-.037-.7-.056-.095-.008-.178.006-.188.126l-.485-.363-.16.738c-.15-.126-.274-.224-.391-.33-.079-.072-.148-.155-.22-.234-.369-.405-.544-.434-1.013-.168a3.187,3.187,0,0,1-1.312,0,.656.656,0,0,0-.7-.114c-.365-.041-.73-.094-1.1-.118-.5-.032-1.012-.046-1.518-.061-.393-.011-.788.005-1.181-.02-.657-.04-1.312-.131-1.97-.148A7.818,7.818,0,0,0,19,17.378Z"/>
      <path class="bca10781-e419-443f-aa26-74ca62c0f7a5" d="M30.4,18.212c.01-.12.093-.134.188-.126.232.019.463.05.7.056.371.01.744-.006,1.115.007a3.322,3.322,0,0,1,.48.082c.047.008.1.033.14.018a.446.446,0,0,1,.513.163l.125.125c.233.232.233.232.466.018.163.22.4.4.412.706l-.117-.1c-.019.036-.055.071-.051.1a2.409,2.409,0,0,0,.377,1.082c.066.1.152.218.016.336h0l-.073-.059a2.806,2.806,0,0,0-1.177-.41.664.664,0,0,1-.53-.359,2.038,2.038,0,0,0-1.343-1.045c-.3-.085-.585-.212-.877-.32l-.066-.045,0,0-.236-.184,0,0-.065-.059Z"/>
      <path class="b52c225d-46fe-4401-9300-521c4bd031a5" d="M32.3,32.929a4.092,4.092,0,0,1-.85.663,2.6,2.6,0,0,0-.336.249c-.291.2-.582.388-.88.572a.649.649,0,0,1-.221.044l-1.307.466-.118-.294v-.058l.706-.236L29.7,34.1l.176-.058a1,1,0,0,0,.589-.354l.294-.118.412-.294c.234-.146.472-.287.7-.442a1.094,1.094,0,0,0,.183-.2l.059-.059c.005.121-.038.271.162.283C32.287,32.852,32.291,32.9,32.3,32.929Z"/>
      <path class="b0b85289-c306-4052-a691-86710383cb6c" d="M15.4,30.512l.538.245c.017.022.03.056.053.065a.851.851,0,0,1,.548.5.388.388,0,0,0,.043.073c.054.035.15.065.155.105.019.2.182.272.276.4a3.524,3.524,0,0,0,.68.694.391.391,0,0,1,.066.093c.046.074.1.217.135.211.149-.024.165.09.23.164.12.136.065.3.105.452l-.234-.179-.117-.061h0l-.065-.048a5.609,5.609,0,0,1-.908-.834c-.263-.066-.313-.361-.531-.49A1.51,1.51,0,0,1,16,31.474a6.494,6.494,0,0,0-.561-.741C15.4,30.688,15.409,30.587,15.4,30.512Z"/>
      <path class="b52c225d-46fe-4401-9300-521c4bd031a5" d="M31.764,15.965c.036.066.076.13.106.2s.055.15.091.251c-.386.07-.563-.261-.844-.331a.483.483,0,0,0-.1-.105c-.438-.261-.879-.519-1.318-.778l-1.177-.471c.175-.028.133-.186.176-.294.383.157.768.307,1.146.475.1.044.14.059.149-.062a4.426,4.426,0,0,1,1.138.638c.15.114.315.209.468.319A1.264,1.264,0,0,1,31.764,15.965Z"/>
      <path class="ad9b5a22-e401-43cc-8552-86acf489593c" d="M24.993,13.667l.238,0,.471,0c.166.021.332.046.5.063.21.022.423.026.631.059.231.037.458.1.688.149.065.014.135.01.2.029.079.026.153.067.23.1l-.246.075-.823-.118H26.82l-.294-.058-1.472-.059-.648.059h-.117l-1,.118L22.7,14.2c-.191-.075-.025-.152,0-.228a1.629,1.629,0,0,1,.468-.11c.263.018.486-.152.76-.1a1.865,1.865,0,0,0,.6-.091Z"/>
      <path class="b0c2e770-ca30-4d5c-8044-e147b1212fae" d="M26.526,35.623c-.318.046-.641.049-.96.113a2.8,2.8,0,0,1-.644-.025,3.459,3.459,0,0,1-.506-.015c-.51-.092-1.033-.109-1.544-.2a9.093,9.093,0,0,1-1-.284.276.276,0,0,0-.3-.175c-.194.023-.229-.073-.175-.235l.294.059.059.059h0l.176.058h.059l1.177.3c.523.078,1.043.18,1.568.227.416.038.838.008,1.257.008l.884-.117c.079,0,.2-.03.12.123l0,0-.415.06,0,0Z"/>
      <path class="e2746780-1036-47fc-8f61-21443c0efd46" d="M32.3,32.929c-.006-.027-.01-.077-.018-.077-.2-.012-.157-.162-.162-.283l.294-.3.53-.588.413-.53.293-.295.059-.059h0a.181.181,0,0,1,.1.255c-.031.088.012.1.075.1-.109.14-.214.284-.328.42-.313.37-.625.74-.946,1.1A2.335,2.335,0,0,1,32.3,32.929Z"/>
      <path class="bc03f853-0113-4e83-b367-26008a5dea4d" d="M18.225,33.513c-.04-.149.015-.316-.105-.452-.065-.074-.081-.188-.23-.164-.033.006-.089-.137-.135-.211l.53.118,1,.824c-.069.271-.009.362.276.429.028.007.069.045.07.07.009.174.135.183.263.212a.9.9,0,0,1,.214.114l.058.123a5.433,5.433,0,0,1-1.361-.69c-.158-.1-.309-.214-.464-.321l-.118-.053Z"/>
      <path class="ef9dc699-c503-44b5-9270-a97a29beeda8" d="M34.76,20.684c.136-.118.05-.239-.016-.336a2.409,2.409,0,0,1-.377-1.082c0-.03.032-.065.051-.1l.117.1,0,0,.062.06,0,0,.058.063v0l.066.236c.187.071.179.266.245.407.144.3.267.62.394.932.042.1.072.213.107.32A1.745,1.745,0,0,1,34.76,20.684Z"/>
      <path class="a34ea87a-87c9-43d1-a099-64608de1d517" d="M33.885,31.156c-.063,0-.106-.011-.075-.1a.181.181,0,0,0-.1-.255l.529-.885.411-.234.177-.058c-.178.306-.353.615-.537.917C34.159,30.751,34.019,30.952,33.885,31.156Z"/>
      <path class="ae9abc36-2143-476f-b0d2-1459d90d4f31" d="M20.167,34.576l-.058-.123.059-.294c.118.06.237.12.354.182.3.154.589.31.883.465-.054.162-.019.258.175.235a.276.276,0,0,1,.3.175A8.638,8.638,0,0,1,20.167,34.576Z"/>
      <path class="fdbc3a9a-303e-4fdf-af42-a2f364c8ddc1" d="M27.7,14.142l.246-.075a2.053,2.053,0,0,1,.87.26,2.99,2.99,0,0,0,.429.155c.228.088.454.182.678.279.031.014.049.058.073.088-.009.121-.05.106-.149.062-.378-.168-.763-.318-1.146-.475Z"/>
      <path class="b40b086e-5096-4794-8949-0558dcac97d2" d="M13.769,28.227h.921l-.053.877c-.044-.032-.112-.055-.129-.1-.094-.233-.176-.472-.262-.709Z"/>
      <path class="b0f6dcb8-8b93-428b-910a-ab3e2ddfa584" d="M28.7,34.923l1.307-.466c-.138.244-.416.262-.629.379a4.356,4.356,0,0,1-.717.281,1.608,1.608,0,0,1-.312.045l-.119-.062Z"/>
      <path class="f019c921-3e92-493d-b5eb-8ecd2d9b76c0" d="M28.233,35.1l.119.062a4.975,4.975,0,0,1-.576.22c-.254.064-.517.092-.777.136.075-.153-.041-.12-.12-.123h0L27,35.336c.113-.017.227-.029.339-.051C27.635,35.226,27.933,35.162,28.233,35.1Z"/>
      <path class="a24b3e4c-d11d-4389-9927-23f4f7a50067" d="M35.353,28.265l-.045-.837.329.028c-.151.156-.093.378-.175.555C35.424,28.1,35.389,28.181,35.353,28.265Z"/>
      <path class="f019c921-3e92-493d-b5eb-8ecd2d9b76c0" d="M26.586,35.576l.415-.06Z"/>
      <path class="bca10781-e419-443f-aa26-74ca62c0f7a5" d="M34.716,19.614l-.066-.236Z"/>
      <path class="b9190710-a214-4b5a-9fa3-d06ec3f45d57" d="M34.823,29.625l-.177.058.176-.129Z"/>
      <path class="a70a4286-6325-432d-91b6-e1473cb7f437" d="M17.874,33.273l.117.061Z"/>
      <path class="b0b85289-c306-4052-a691-86710383cb6c" d="M18.224,33.512l.118.053Z"/>
      <path class="f35a4fa9-2b51-441f-8b66-50ede28653bb" d="M32.765,16.849l-.062-.115Z"/>
      <path class="f4da06ed-ddac-4eb5-a098-c9d1dbcefbd2" d="M32.935,16.972l-.113-.061Z"/>
      <path class="f4da06ed-ddac-4eb5-a098-c9d1dbcefbd2" d="M33.006,17.081l-.069-.107Z"/>
      <path class="f35a4fa9-2b51-441f-8b66-50ede28653bb" d="M32.824,16.908l-.059-.059Z"/>
      <path class="a70a4286-6325-432d-91b6-e1473cb7f437" d="M17.809,33.225l.065.048Z"/>
      <path class="bca10781-e419-443f-aa26-74ca62c0f7a5" d="M34.651,19.38l-.058-.063Z"/>
      <path class="bca10781-e419-443f-aa26-74ca62c0f7a5" d="M34.6,19.319l-.062-.06Z"/>
      <path class="f019c921-3e92-493d-b5eb-8ecd2d9b76c0" d="M26.526,35.623l.063-.049Z"/>
      <path class="e8b90044-7694-4c6b-94db-6e333d187a83" d="M14.693,21.968l-.753.348a.725.725,0,0,1,.118-.46c.057-.076.014-.221.049-.324a5.1,5.1,0,0,1,.324-.866c.124-.217.071-.531.347-.667.027-.013.032-.088.033-.135a.329.329,0,0,1,.229-.308c.091-.079.066-.251.226-.281.013,0,.01-.087.014-.134v0l.1-.14.371.125v.251h0l-.234-.075v.312c.049.183-.1.283-.177.41l-.118.354c-.037.082-.123.185-.1.242.066.165-.029.221-.134.288l-.061.412a1.059,1.059,0,0,0-.112.191C14.768,21.663,14.734,21.816,14.693,21.968Z"/>
      <path class="bb74997e-d202-4281-a1b5-523cced1471e" d="M15.754,19.38v-.251L15.383,19l-.1.14a.436.436,0,0,1,.219-.436c.04-.022.057-.092.081-.142s.035-.128.075-.152c.177-.1.22-.3.336-.445l.118-.059h0l.055-.062c0-.028,0-.066.016-.084.179-.189.36-.375.542-.561.018-.019.068-.021.072-.039.057-.232.282-.293.429-.433l.357-.209v.328h0l-.118.117a.364.364,0,0,0-.178.352l-.058,0-.117.058c-.024.016-.058.025-.071.047-.093.159-.159.339-.354.412-.021.008-.031.046-.046.071l-.059.177h0l-.06.058a6.629,6.629,0,0,0-.415.552C15.97,18.914,15.869,19.151,15.754,19.38Z"/>
      <path class="a33faeb8-4ee7-4357-9905-7debb88bc39e" d="M17.579,16.85v-.328l-.357.209c.011-.037.011-.088.036-.107q.468-.357.944-.7c.148-.106.3-.2.456-.3a3.966,3.966,0,0,1,.531-.343,5.362,5.362,0,0,1,1.267-.556l.009.012c-.049.1-.091.184-.231.179-.065,0-.132.063-.2.1-.09.046-.184.087-.272.138a.815.815,0,0,0-.125.111c-.179.133-.447.139-.548.386-.009.021-.073.015-.109.029-.052.021-.128.036-.147.077a.652.652,0,0,1-.326.283c-.164.088-.28.269-.452.38A3.691,3.691,0,0,0,17.579,16.85Z"/>
      <path class="b3f8baf7-d8a8-4091-a9e4-02211cf75163" d="M22.7,13.972c-.024.076-.19.153,0,.228-.05.04-.1.078-.152.12s-.134.091-.131.131c.023.275-.165.366-.364.456l-.412.117c.033-.09.169-.151.064-.279s-.2-.071-.315-.038-.225.055-.337.082l-.06-.236h0c.151.009.3.02.353-.174Z"/>
      <path class="a33faeb8-4ee7-4357-9905-7debb88bc39e" d="M20.456,14.722l.535-.229v.06h0c-.179.048-.309.243-.527.181Z"/>
      <path class="bb74997e-d202-4281-a1b5-523cced1471e" d="M15.28,19.141c0,.047,0,.132-.014.134-.16.03-.135.2-.226.281C15.047,19.375,15.029,19.18,15.28,19.141Z"/>
      <path class="ae9d714b-0a9e-444c-adb3-ec38ea507428" d="M20.992,14.553v-.06l.354-.114C21.3,14.573,21.143,14.562,20.992,14.553Z"/>
      <path class="b25d2f65-4bf5-4652-8a98-c9d089271bb4" d="M16.108,17.91l-.118.059Z"/>
      <path class="b25d2f65-4bf5-4652-8a98-c9d089271bb4" d="M16.163,17.848l-.055.062Z"/>
      <path d="M23.231,32.035c-.469-.138-.939-.274-1.406-.417a2.229,2.229,0,0,1-.292-.142c.176-.531.349-1.04.513-1.551a15.283,15.283,0,0,0,.7-2.849,1.568,1.568,0,0,0-.077-.924.629.629,0,0,0-.545.556,3.244,3.244,0,0,0-.038.757c.012.268-.048.392-.317.424a5.721,5.721,0,0,1-.682.006,2.253,2.253,0,0,1,.084.247c.039.173-.024.235-.181.165a4.42,4.42,0,0,1-.432-.248l-.325-.187v.462a1.2,1.2,0,0,1-.241-.142c-.362-.37-.725-.74-1.071-1.126a.857.857,0,0,1-.172-.394,4.712,4.712,0,0,1-.077-.7,1.328,1.328,0,0,1,.172-.672,4.9,4.9,0,0,0,.287-.827c.079-.263.138-.532.212-.8a2.25,2.25,0,0,1,.113-.272c.265.068.31.311.49.506l.172-.564.346.392a2.745,2.745,0,0,0,.128-1.082.206.206,0,0,0-.22-.2,1.758,1.758,0,0,0-.288.029l-.077-.369-.256.015c-.047-.139-.056-.3-.143-.376s-.244-.044-.37-.034c-.218.017-.168-.21-.3-.3a4.034,4.034,0,0,1-.179,1.167c-.3-.323-.407-.73-.676-1.057l-.2.362a1.643,1.643,0,0,1-.67-1.123c-.007-.137.011-.275,0-.412,0-.07-.02-.171-.067-.2a.353.353,0,0,1-.131-.418,4.006,4.006,0,0,1,.173-.591c.115-.3.239-.6.378-.89a2.237,2.237,0,0,1,.251-.346l.346-.184h0l.424,0h0l-.005.066c-.2-.007-.4-.028-.533.171l0,0-.057.052-.126.227-.058.17.07.054.071-.139.571-.363.063-.175.3.114c.546.258,1.095.508,1.636.777a.55.55,0,0,0,.57.006,1.937,1.937,0,0,1,1.082-.2.5.5,0,0,0,.355-.084.982.982,0,0,1,1.026-.107l.617.268.188.1a3.968,3.968,0,0,1,.924.61c.322.31.457.277.657-.121.162-.322.306-.653.462-.99a.756.756,0,0,1,.292.5c.115.393.2.8.3,1.193.012.046.022.093.044.184A2.082,2.082,0,0,0,28.333,19l.076.147.054.211.08-.018-.07-.372c-.008-.186-.026-.372-.019-.558a.8.8,0,0,1,.087-.233,1.258,1.258,0,0,1,.212.122c.3.262.592.536.9.791a3.471,3.471,0,0,0,.465.273l.1-.545c.528.184,1.042.356,1.552.543a1.365,1.365,0,0,1,.741.638c.019.034.041.066.06.1a1.1,1.1,0,0,0,.885.592,1.854,1.854,0,0,1,.485.114,1.429,1.429,0,0,1,.526.3A3.872,3.872,0,0,0,36.4,22.15c.11.033.22.063.316.09.007.053.017.075.011.089-.13.287-.124.333.17.416.338.1.688.149,1.031.231a4.109,4.109,0,0,1,.53.164,1.256,1.256,0,0,1,.755,1.012c.046.215-.118.335-.26.458a4.23,4.23,0,0,0-.435.387c-.086.1-.108.255-.189.361a5.673,5.673,0,0,1-.552.645,3.33,3.33,0,0,1-1.149.846,2.464,2.464,0,0,1-1.4.054l.56-.484a.368.368,0,0,0-.4-.124,3.3,3.3,0,0,1-1.341.042c-.267-.03-.3,0-.239.264a1.22,1.22,0,0,0,.092.308c.032.063.113.1.222.193l.067.74.581-.516a2.367,2.367,0,0,1,.009,1.362,1.207,1.207,0,0,1-.881.823,6.486,6.486,0,0,1-1.75.228A4.273,4.273,0,0,0,31.016,27.8c-.241.363-.463.682-.67,1.01a7.2,7.2,0,0,1-2.605,2.529,5.914,5.914,0,0,1-1.7.642c-.077.015-.152.038-.228.058a1.361,1.361,0,0,0-.2,0,7.035,7.035,0,0,1-2.124.006A2.252,2.252,0,0,0,23.231,32.035Zm-.645-11.6,0,0,.065.057h0l-.126.066h0l-.125-.052,0,0-.122-.061,0,0a.322.322,0,0,0-.346-.188h0l-.074-.052a2.742,2.742,0,0,1-.457-.435,1.752,1.752,0,0,0-1.651-.87.681.681,0,0,1-.627-.306.533.533,0,0,0-.108.081.46.46,0,0,1-.52.175c-.106-.02-.211-.044-.318-.058-.177-.022-.225.024-.253.2a.722.722,0,0,0,.8.911,4.453,4.453,0,0,1,.582.008,1.553,1.553,0,0,0-.132.194c-.025.057-.066.147-.043.175a.221.221,0,0,0,.182.053,1.154,1.154,0,0,0,.326-.121c.136-.075.259-.175.393-.255s.277-.114.371.068l.179.236c.067.046.122.145.222.052.129-.117.24-.032.343.039a1.837,1.837,0,0,1,.64.753,12.317,12.317,0,0,1,.815,2.568,1.59,1.59,0,0,1,0,.331l-.063.014-.3-.4a2.037,2.037,0,0,0-.019.329,1.546,1.546,0,0,1-.115.6,2.66,2.66,0,0,1-2,1.381c-.259.034-.521.042-.831.066.013.3.019.605.045.9.007.073.075.186.129.2s.148-.065.213-.117a1.952,1.952,0,0,0,.182-.2c.183.154.345.3.512.429.129.1.256.222.445.175.135-.089.058-.2.032-.3-.017-.072-.139-.14-.02-.225h0l.068.053a2.534,2.534,0,0,0,.308.223.382.382,0,0,0,.262.053c.044-.015.064-.149.07-.231a2.423,2.423,0,0,1,0-.351,1.5,1.5,0,0,1,.174-.421c.1-.166.251-.3.338-.475a1.247,1.247,0,0,1,.845-.67.773.773,0,0,0,.556-.552.969.969,0,0,1,.093-.275.445.445,0,0,1,.256-.156c.038-.006.126.13.144.211.076.34.156.386.476.238.039-.051.105-.1.113-.152a5.829,5.829,0,0,0,.112-.952,10.5,10.5,0,0,0-.121-1.1l.143.074a2.816,2.816,0,0,1,.756,1.829,1.534,1.534,0,0,0,.257-.277,1.246,1.246,0,0,0,.108-1.451A11.213,11.213,0,0,0,24.287,20.5l-.325-.363-.023-.059-.1-.14c-.02.019-.06.047-.056.055a1.323,1.323,0,0,0,.088.149c.066.146.131.293.2.438.04.086-.009.095-.074.1l-.648-.54a.279.279,0,0,1-.09-.365.668.668,0,0,0-.016-.45.818.818,0,0,0-.929-.271c-.366.208-.584.847-.079,1.089l.021,0h.021l.009.013a.239.239,0,0,0,.244.222h0Zm4.347,6.528,0,0-.11.063c-.239.153-.484.3-.715.461a6.113,6.113,0,0,0-.617.493c-.115.106-.083.173.069.222.044.013.09.017.13.025l.032.435a.624.624,0,0,1,.56-.1c.052.019.14-.037.2-.076a.828.828,0,0,0,.134-.15l.123.647a2.38,2.38,0,0,0,.88-1.087l.165,1.292.068.017a4.106,4.106,0,0,0,.224-.391A3.907,3.907,0,0,0,28.4,27.4a6.8,6.8,0,0,0-1.158-4.25l-.068-.113h0l-.107-.185L27,22.734l-.134-.163-.044.027.1.212.07.166.114.24a13.905,13.905,0,0,1,.368,2.807.866.866,0,0,1-.477.9Zm8.012-1.818-.12-.052a.041.041,0,0,0-.045-.013l-.132-.041a3.471,3.471,0,0,0-1.2-.032l0,.092,1.011.058.253.048.02.012.023,0,.254.105c.133.087.107.2.031.3-.123.171-.252.339-.386.52a.869.869,0,0,0,.775-.2l.918.483-.165.138-.156.076.021.065.375-.077a.653.653,0,0,0,.5-.455c-.092-.011-.148-.021-.206-.024a1.627,1.627,0,0,1-1.225-.586,2.638,2.638,0,0,0-.356-.3l-.183-.114ZM18.047,20.8c-.006.114-.012.229.112.294.1.228.121.51.415.661l.13-.762.093-.322a1.176,1.176,0,0,1-1.113-.449,1.231,1.231,0,0,0-.08.836c.037.115.077.235.234.278l.039-.42c.073-.015.028-.2.17-.117ZM28.7,20.264h0a.446.446,0,0,0-.2-.466l.083.525c-.012.3-.027.6-.034.9a1.326,1.326,0,0,0,.033.231c.16.141.318.286.484.42a.213.213,0,0,0,.169.052c.1-.044.049-.12.015-.2-.149-.328-.291-.66-.436-.99l-.058-.285Zm5.936,2.6c-.055-.063-.108-.129-.167-.189-.123-.123-.04-.159.074-.184a.042.042,0,0,1,.042.023l.058.046.286.148a.759.759,0,0,0,.586.055.448.448,0,0,0-.333-.545,5.29,5.29,0,0,1-.716-.322,2.415,2.415,0,0,0-1.48-.367,1.941,1.941,0,0,1-.806-.1,15.631,15.631,0,0,1-1.464-.6,1.809,1.809,0,0,1-.515-.377c-.26-.264-.493-.554-.738-.833a.584.584,0,0,0-.085-.1c-.012-.01-.047.009-.071.015l.044.084a2.322,2.322,0,0,0,.544.963c.278.247.593.452.891.676l-.217.266a6.973,6.973,0,0,1,1.7.433,4.128,4.128,0,0,0-1.288,2.35l-.465-.429a2.343,2.343,0,0,0-.7.79,2.426,2.426,0,0,0-.489,1.879,2.171,2.171,0,0,1-.205,1.514c-.136.248-.223.524-.364.769a.5.5,0,0,0,.064.595c.113.157.209.159.32,0a3.35,3.35,0,0,0,.275-.484c.238-.515.473-1.031.692-1.554a.6.6,0,0,0-.167-.745.515.515,0,0,1-.147-.563c.106-.394.194-.792.3-1.249a1.466,1.466,0,0,1,.055.209c.011.157.02.314.02.471a.8.8,0,0,0,.294.639c.338.3.652.622.971.94a4.108,4.108,0,0,1,1.081,1.793,1.269,1.269,0,0,0,.116.3c.027.046.118.1.158.087.254-.089.5-.2.806-.317l-.3-.264a2.187,2.187,0,0,1-.747-.85c-.142-.417-.285-.835-.4-1.26-.074-.272-.1-.558-.145-.837-.024-.144-.053-.287-.088-.467a3.248,3.248,0,0,1,2.314-.8l-.086-.342a1.825,1.825,0,0,1,1.192.688,5.136,5.136,0,0,0,.416.454.529.529,0,0,0,.359.148,2.536,2.536,0,0,0,1.06-.407.42.42,0,0,0,.189-.376,1.891,1.891,0,0,0-.264-.982.5.5,0,0,0-.293-.21,2.925,2.925,0,0,0-1.537-.027A2.028,2.028,0,0,1,34,23.385l-.03-.109.443-.242C34.517,23.016,34.654,23.041,34.64,22.864Zm3.128,1.285.174.116c-.093.036-.157.095-.106.2s.145.092.225.04c.145-.093.284-.2.437-.3a2.818,2.818,0,0,0-.847-.524l-.186-.115-.03.046.09.137Zm-17.429.357a2.686,2.686,0,0,1,.033.321.272.272,0,0,1-.245.255c-.058.012-.158-.084-.208-.154a1.839,1.839,0,0,1-.152-.312l-.181-.572-.057.01-.058.214c-.02.328-.061.657-.052.985,0,.237.1.3.333.321a1.483,1.483,0,0,0,.93-.176c.247-.152.488-.314.731-.472l.178-.172-.05-.062-.375.221c-.046.012-.093.027-.14.035-.294.049-.4-.01-.509-.287-.014-.036-.033-.07-.05-.1.012-.13-.057-.208-.2-.249ZM28.105,19.9l-1.863,1a1.827,1.827,0,0,0,1.527-.308l.049.046-.4,1.149C27.91,21.612,28.221,20.735,28.105,19.9ZM32.9,27.442l-.045.026a1.241,1.241,0,0,0,.116.311,1.617,1.617,0,0,0,.352.389,7.549,7.549,0,0,0,.81.51c.109.061.269.071.321-.09a3.481,3.481,0,0,0,.088-.493.277.277,0,0,0-.2.067,1.332,1.332,0,0,0-.117.157c-.337-.172-.337-.172-.242-.5a.553.553,0,0,0,.04-.17,1.2,1.2,0,0,0-.054-.216,1,1,0,0,0-.233.266c-.143.2-.235.214-.435.069C33.165,27.661,33.034,27.549,32.9,27.442Zm.7.064a1.313,1.313,0,0,1-.262-.878c.037-.316-.038-.415-.377-.527a.485.485,0,0,0-.018.11c.021.27.045.541.068.812S33.232,27.485,33.6,27.506Zm-2.348-7.651a.989.989,0,0,0,.995,1.037C32.054,20.4,31.613,20.173,31.247,19.855Zm6.758,5.24a.722.722,0,0,0-.637.432.255.255,0,0,0-.016.212.233.233,0,0,0,.208.044.434.434,0,0,0,.232-.161A4.4,4.4,0,0,0,38.005,25.1Z"/>
      <path d="M21.354,28.749a1.147,1.147,0,0,0,.215-.188c.14-.194.134-.2.441-.222a25.559,25.559,0,0,1-.917,2.928,8.778,8.778,0,0,1-1.928-1.5c.267-.648.245-.856-.144-1.22a4.279,4.279,0,0,0-1.173,1.965,5.036,5.036,0,0,1-1.969-.3,1.047,1.047,0,0,1-.616-.632,2.374,2.374,0,0,1-.02-1.47l.515.5.084.04a1.039,1.039,0,0,0,.034-.162.868.868,0,0,1,.229-.733l0-.028c.041-.2.153-.4.079-.618-.312.017-.6.045-.895.045a4.355,4.355,0,0,1-.61-.065.637.637,0,0,0-.494.095l.574.477a2,2,0,0,1-2.105-.484c-.233-.223-.483-.431-.7-.67-.154-.172-.251-.393-.393-.576a2.62,2.62,0,0,0-.45-.489c-.334-.258-.381-.363-.256-.771a1.276,1.276,0,0,1,1.017-.87c.342-.084.69-.143,1.035-.216a1.587,1.587,0,0,0,.253-.072c.213-.085.227-.131.125-.349a.761.761,0,0,1-.032-.108c.068-.029.133-.062.2-.086.387-.137.776-.267,1.161-.408a1.759,1.759,0,0,0,.74-.513,1.837,1.837,0,0,1,1.007-.554c.36-.1.619-.085.8.3a1.769,1.769,0,0,0,.369.4c-.043.04-.083.108-.131.113a1.742,1.742,0,0,1-.408.007,2.376,2.376,0,0,0-1.574.43,2.532,2.532,0,0,1-.558.246c-.322.108-.4.206-.389.55.027.024.052.066.08.068a.916.916,0,0,0,.62-.115l.051-.069,0,0,.068-.045.052-.027,0,.248,0,.005-.05.06.12.178.172.063c.141.223.372.054.546.13l-.248.153a2.027,2.027,0,0,1-1.017.032,3.177,3.177,0,0,0-1.13-.1c-.775.1-.894.182-1.063.947-.109.5-.009.691.468.894.082.035.16.078.243.105.741.231.64.205,1.116-.275.027-.028.05-.061.077-.089a6.105,6.105,0,0,1,.479-.473,1.333,1.333,0,0,1,.809-.319l-.088.319a.735.735,0,0,0,.105.021,3.519,3.519,0,0,1,2.16.718l.05.225a.02.02,0,0,0-.033.01c-.02.028-.062.058-.059.083a4.517,4.517,0,0,1-.171,1.207.047.047,0,0,0-.007.053l-.064.24,0,0-.063.18,0,0-.059.182,0,0-.229.593a.027.027,0,0,0-.009.039l-.065.133.006-.006-.059.067,0,0-.06.064,0,0-.063.06,0,0-.186.174.006,0-.23.189h0l-.067.055,0,0-.31.245.49.17.021.015.025,0,.13.059,0,0c.285.119.288.117.364-.177l0,0,.059-.181,0,0,.05-.12a.024.024,0,0,0,.014-.037l.281-.67a.026.026,0,0,0,.013-.038l.051-.081h0l.249-.346-.006.005.062-.065,0,0,.058-.066,0,0,.128-.174-.005,0,.059-.067,0,0,.065-.062,0,0,.065-.062,0,.005.064-.064,0,0,.057-.067,0,0,.063-.06,0,0h.108l.06.059,1.071.982.116.067h0l.114.122c.2.387.4.776.612,1.162a.684.684,0,0,0,.16.2.175.175,0,0,0,.155,0,.544.544,0,0,0,.169-.605c-.128-.278-.252-.558-.365-.811Zm-9.19-2.421.051.072a1.355,1.355,0,0,0,.253.168.194.194,0,0,0,.177-.049.206.206,0,0,0-.006-.184.7.7,0,0,0-.618-.444l.085.319.058.118Zm2.649-.234-.071.051a1.882,1.882,0,0,0-.24.213,1.616,1.616,0,0,1-1.211.574,1.113,1.113,0,0,0-.19.046c.211.4.466.532.808.428l-.254-.193.916-.491a.914.914,0,0,0,.783.217l-.437-.608.017-.177h0L15,26.106a.042.042,0,0,0,.044-.018l.122-.051h0l.177-.06,0,0,.368-.05a1.637,1.637,0,0,0,.844-.125h-.977l-.243.052a.052.052,0,0,0-.051.008l-.133.045a.041.041,0,0,0-.043.013l-.061.012-.071.039a.042.042,0,0,0-.045.025l-.051.042-.066.057Zm2.179.766-.117.063a.47.47,0,0,0-.2.558.3.3,0,0,1-.013.172c-.068.218-.144.434-.215.644a.508.508,0,0,0,.55-.541c.008-.221.036-.442.055-.663a.719.719,0,0,0,.052-.225c-.007-.068-.066-.083-.108-.007Zm-.887,1.357a.733.733,0,0,0-.1-.03c-.031.066-.082.141-.072.2.026.179.079.354.121.53l-.253.183-.278-.256-.068.041a3.468,3.468,0,0,0,.079.423c.06.2.129.232.327.161a2.419,2.419,0,0,0,.98-.676,2.268,2.268,0,0,0,.263-.384.61.61,0,0,0,.026-.209c-.188.15-.339.271-.491.39a.2.2,0,0,1-.309-.034C16.242,28.454,16.178,28.332,16.105,28.217Zm-4.652-3.261c.2.139.332.234.468.327.082.056.163.069.227-.028s0-.157-.086-.2l-.177-.1a.563.563,0,0,0,.6-.579Z"/>
      <path class="aef50a50-edf0-427e-82b5-522ded15ee11" d="M17.527,29.472a.024.024,0,0,1-.014.037l-.05.12,0,0-.059.181,0,0c-.1.112-.2.213-.364.177l0,0-.13-.059-.025,0-.021-.015-.309-.22.129-.2,0,0,.067-.055h0l.23-.189-.006,0c.131.015.189-.047.186-.174l0,0,.063-.06,0,0,.06-.064,0,0,.059-.067-.006.006.065-.133a.027.027,0,0,1,.009-.039.71.71,0,0,0,.229-.593l0,0,.059-.182,0,0,.063-.18,0,0,.064-.24a.047.047,0,0,1,.007-.053,1.226,1.226,0,0,0,.164-.346c.04-.313.047-.629.066-.944a.02.02,0,0,1,.033-.01c.121-.1.115-.13-.05-.225a3.519,3.519,0,0,0-2.16-.718.735.735,0,0,1-.105-.021l.088-.319a1.333,1.333,0,0,0-.809.319,6.105,6.105,0,0,0-.479.473c-.027.028-.05.061-.077.089-.476.48-.375.506-1.116.275-.083-.027-.161-.07-.243-.105-.477-.2-.577-.394-.468-.894.169-.765.288-.85,1.063-.947a3.177,3.177,0,0,1,1.13.1,2.027,2.027,0,0,0,1.017-.032.807.807,0,0,0,.826-.7l.552-.868c-.22,0-.424-.006-.627,0a.779.779,0,0,0-.578.227l-.061.046v0l-.526.358h0l-.069.053-.056.045-.052.027-.068.045,0,0a.053.053,0,0,0-.051.012,1.314,1.314,0,0,1-.7.1c-.012-.344.067-.442.389-.55a2.532,2.532,0,0,0,.558-.246,2.376,2.376,0,0,1,1.574-.43,1.742,1.742,0,0,0,.408-.007c.048,0,.088-.073.131-.113a2.555,2.555,0,0,1,.42.14c.072.037.11.14.164.213l-.35.158L18.721,24l.089-.15c0,.01.01.02.007.028a5.7,5.7,0,0,1-.419,1.259.9.9,0,0,0-.161.432,10.856,10.856,0,0,0,.071,1.313,1.461,1.461,0,0,0,.452.74l-.06.067,0,0-.063.06,0,0-.057.067,0,0-.064.064,0-.005-.065.062,0,0-.065.062,0,0-.059.067.005,0-.128.174,0,0-.058.066,0,0-.062.065.006-.005a.4.4,0,0,0-.249.346h0l-.051.081a.026.026,0,0,1-.013.038C17.573,28.966,17.564,29.225,17.527,29.472Z"/>
      <path class="a005c3a3-54de-4917-8856-f27abd03a1b9" d="M18.285,32.8l-.53-.118a.391.391,0,0,0-.066-.093,3.524,3.524,0,0,1-.68-.694c-.094-.131-.257-.208-.276-.4,0-.04-.1-.07-.155-.105l.312-.036-.228-.367.223-.014.107.009.292.06a2.714,2.714,0,0,0,.206.279c.186.194.342.439.64.476.268.032.539.051.81.063.582.025,1.166.024,1.747.071a.722.722,0,0,0,.434-.075,9.17,9.17,0,0,0,2.288.7l0,.069c-.032.019-.063.056-.094.055-.632-.018-1.264-.037-1.895-.062-.232-.01-.462-.045-.694-.054-.592-.024-1.185-.038-1.778-.057-.133,0-.131.085-.13.176-.086-.075-.167-.158-.26-.224a.228.228,0,0,0-.175-.048c-.046.02-.079.1-.091.16A1.175,1.175,0,0,0,18.285,32.8Z"/>
      <path class="a7536399-b2dc-4a68-9b07-d614a4784f18" d="M19,17.378a7.818,7.818,0,0,1,1.36.011c.658.017,1.313.108,1.97.148.393.025.788.009,1.181.02.506.015,1.013.029,1.518.061.366.024.731.077,1.1.118a1.058,1.058,0,0,0-.271.474,4.255,4.255,0,0,1-.286.639l-.627-.413-.181-.111-.166-.069-.186-.105c-.3-.124-.586-.269-.891-.368a1.4,1.4,0,0,0-1.107.122.91.91,0,0,1-.382.1,3.147,3.147,0,0,0-1.059.2.389.389,0,0,1-.274.014c-.557-.259-1.107-.533-1.659-.8C19.017,17.415,19.008,17.393,19,17.378Z"/>
      <path class="ed60e95a-3f0e-41ad-b9c4-8ebfb351e31c" d="M34.235,29.917l-.529.885h0l-.059.059-.293.295a3.045,3.045,0,0,0-.916-.123c-.4,0-.794-.037-1.191-.052-.16-.007-.322.023-.479,0a8.563,8.563,0,0,0-1.552-.067l.712-.7a1.035,1.035,0,0,1,.563,0,4.434,4.434,0,0,0,.746.06,3.293,3.293,0,0,0,.481-.06A6.785,6.785,0,0,0,34.235,29.917Z"/>
      <path class="a8bef1b3-61d9-43ac-98fe-f40339381192" d="M23.406,32.628l0-.069c.253.022.506.054.759.063a7.422,7.422,0,0,0,3.368-.646c.053-.023.11-.038.165-.056a1.634,1.634,0,0,0,.386.114c.65.03,1.3.041,1.952.065.31.012.619.038.927.061.482.036.964.076,1.445.114l-.294.3-.059.059a1.361,1.361,0,0,1-.377.112c-.75-.009-1.5-.034-2.248-.054l-.059,0c-.443-.037-.886-.079-1.33-.112-.328-.025-.658-.058-.987-.054A3.89,3.89,0,0,0,26,32.549a7.28,7.28,0,0,1-1.12.14l-1.119,0-.058-.054Z"/>
      <path class="a1c1cc3b-9cef-4df4-9c72-b32a695016c7" d="M32.411,32.274c-.481-.038-.963-.078-1.445-.114-.308-.023-.617-.049-.927-.061-.65-.024-1.3-.035-1.952-.065a1.634,1.634,0,0,1-.386-.114l.815-.474a1.868,1.868,0,0,1,.224-.006c.481.04.96.1,1.442.123.437.022.878-.008,1.316.012.481.021.962.072,1.443.111Z"/>
      <path class="ab531bc3-4629-49a1-9b1a-d2337ff27a3f" d="M21.121,31.857a.722.722,0,0,1-.434.075c-.581-.047-1.165-.046-1.747-.071-.271-.012-.542-.031-.81-.063-.3-.037-.454-.282-.64-.476a2.714,2.714,0,0,1-.206-.279c.282,0,.565,0,.847-.008.075,0,.191-.035.216-.087.086-.181.226-.153.37-.133a2.788,2.788,0,0,0,.284.044,1.377,1.377,0,0,1,.762.118Z"/>
      <path class="b4130271-2054-4093-ba70-c0194708b65d" d="M32.941,31.686c-.481-.039-.962-.09-1.443-.111-.438-.02-.879.01-1.316-.012-.482-.023-.961-.083-1.442-.123a1.868,1.868,0,0,0-.224.006l.7-.531a8.563,8.563,0,0,1,1.552.067c.157.022.319-.008.479,0,.4.015.794.053,1.191.052a3.045,3.045,0,0,1,.916.123Z"/>
      <path class="b52c225d-46fe-4401-9300-521c4bd031a5" d="M17.225,17.321l.058,0,.165.149c-.142.182-.366.3-.337.564l0,0a1.32,1.32,0,0,0-.182.176c-.259.369-.511.744-.766,1.116a3.3,3.3,0,0,0-.412.825l-.059.117-.059.118a2.564,2.564,0,0,0-.166.342A1.913,1.913,0,0,1,15,21.67c-.011.01-.007.038-.01.057l-.293.241c.041-.152.075-.3.124-.453a1.059,1.059,0,0,1,.112-.191l.061-.412c.105-.067.2-.123.134-.288-.023-.057.063-.16.1-.242.039-.041.1-.077.113-.126a.91.91,0,0,0,.005-.228c.08-.127.226-.227.177-.41l.234-.237h0c.115-.229.216-.466.35-.684a6.629,6.629,0,0,1,.415-.552l.06-.058h0l.059-.177c.015-.025.025-.063.046-.071.2-.073.261-.253.354-.412.013-.022.047-.031.071-.047Z"/>
      <path class="b8a675c3-1213-4d21-a5ab-4acc69c36a04" d="M31.718,30.207a3.293,3.293,0,0,1-.481.06,4.434,4.434,0,0,1-.746-.06,1.035,1.035,0,0,0-.563,0c.272-.377.547-.752.815-1.132.1-.147.192-.3.31-.494A2.886,2.886,0,0,1,31.718,30.207Z"/>
      <path class="ecc9f309-8c12-4cc1-889c-30d6962874c9" d="M17.111,18.032c-.029-.264.2-.382.337-.564l-.165-.149a.364.364,0,0,1,.178-.352l.118-.117h0a3.691,3.691,0,0,1,.477-.436c.172-.111.288-.292.452-.38a.652.652,0,0,0,.326-.283c.019-.041.095-.056.147-.077.036-.014.1-.008.109-.029.1-.247.369-.253.548-.386.04.094.182.168.06.295l-.471.354a2.166,2.166,0,0,0-.263.178,9.515,9.515,0,0,1-.758.68.474.474,0,0,0-.216.489A1.612,1.612,0,0,0,17.111,18.032Z"/>
      <path class="ef19b66b-1c2e-48de-b1b0-74bffd0aca30" d="M21.354,28.749l-.455.123c.113.253.237.533.365.811a.544.544,0,0,1-.169.605.175.175,0,0,1-.155,0,.684.684,0,0,1-.16-.2c-.208-.386-.409-.775-.612-1.162l-.02-.1.028-.03a1.417,1.417,0,0,1,.925-.017A.647.647,0,0,0,21.354,28.749Z"/>
      <path class="e96b35d0-9461-4b15-b2b5-a2cd43216cfc" d="M26.82,17.85a3.187,3.187,0,0,0,1.312,0,1.426,1.426,0,0,0-.155.582,1.08,1.08,0,0,1-.592.908A4.7,4.7,0,0,0,26.82,17.85Z"/>
      <path class="aa252ae5-2020-49c8-88c2-a932f6ca4685" d="M18.81,23.85l-.089.15-.961-1.286.35-.158c.067.082.133.164.2.245a.508.508,0,0,0,.861-.016c.13-.187.3-.046.431-.124.07.272.071.28-.141.3a.53.53,0,0,0-.484.364C18.913,23.5,18.866,23.674,18.81,23.85Z"/>
      <path class="b1435c1b-c226-42aa-9347-41e618075b40" d="M19.763,30.977A1.377,1.377,0,0,0,19,30.859a2.788,2.788,0,0,1-.284-.044c-.144-.02-.284-.048-.37.133-.025.052-.141.084-.216.087-.282.011-.565.006-.847.008l-.292-.06c.322,0,.643.008.965.006.388,0,.282.025.379-.326.068-.249.147-.5.232-.78Z"/>
      <path class="b5c6eaa6-759f-409c-ab17-1b32397183f5" d="M17.99,17.255a.474.474,0,0,1,.216-.489,9.515,9.515,0,0,0,.758-.68,2.166,2.166,0,0,1,.263-.178l.118.412-.812.73.221.206A1.029,1.029,0,0,0,17.99,17.255Z"/>
      <path class="bc4f5aa0-52eb-4848-97e4-a39986cd3094" d="M16.576,20.2c.038.056.1.109.108.17a1.358,1.358,0,0,1,.029.5c-.015.068-.2.109-.317.139-.148.038-.3.053-.455.078l-.069-.185.412-.942.175-.235C16.5,19.892,16.368,20.091,16.576,20.2Z"/>
      <path class="a263d62d-062f-4c0e-ab1b-ace71a445d5b" d="M16.459,19.735l-.175.235c0-.136,0-.272,0-.408,0-.1,0-.2-.118-.24.255-.372.507-.747.766-1.116a1.32,1.32,0,0,1,.182-.176c-.114.3-.229.595-.343.894-.066.172-.13.344-.2.517Z"/>
      <path class="b274f6e1-ce50-47e8-95fe-53b202dbc35b" d="M15.872,20.912l.069.185a2.67,2.67,0,0,0-.955.63c0-.019,0-.047.01-.057a1.913,1.913,0,0,0,.474-.946,2.564,2.564,0,0,1,.166-.342l.059-.118.059-.117Z"/>
      <path class="a61f4ba7-47fd-4286-9d71-ebd9c000cf0a" d="M16.885,30.974l-.223.014.228.367-.312.036a.388.388,0,0,1-.043-.073.851.851,0,0,0-.548-.5c-.023-.009-.036-.043-.053-.065Z"/>
      <path class="b1ea4cc5-f4f4-4013-baf5-1c60cff899cb" d="M23.231,32.035a2.252,2.252,0,0,1,.26.007,7.035,7.035,0,0,0,2.124-.006,1.361,1.361,0,0,1,.2,0,1.576,1.576,0,0,1-.348.11,7.958,7.958,0,0,1-2.2-.068C23.253,32.073,23.243,32.049,23.231,32.035Z"/>
      <path class="e0a73f6a-eb91-481e-af65-67f5375369a6" d="M16.1,27.732l0,.028a.868.868,0,0,0-.229.733,1.039,1.039,0,0,1-.034.162l-.084-.04c.022-.118.049-.236.065-.355.019-.145.028-.29.041-.433Z"/>
      <path class="b8b56c12-8e06-4817-bae3-ffa7c74b3c1f" d="M16.459,19.735l.117-.294V20.2C16.368,20.091,16.5,19.892,16.459,19.735Z"/>
      <path class="b619ffc8-43c7-4959-898f-fed896129e46" d="M28.473,18.967l.07.372-.08.018-.054-.211Z"/>
      <path class="fe02915f-d836-412c-9b6c-9827f38c8f77" d="M18.164,17.727l-.346.184Z"/>
      <path class="fe02915f-d836-412c-9b6c-9827f38c8f77" d="M18.586,17.726l-.424,0A.4.4,0,0,1,18.586,17.726Z"/>
      <path class="fe02915f-d836-412c-9b6c-9827f38c8f77" d="M18.882,17.905l-.3-.114h0l.005-.066Z"/>
      <path class="aadac545-99ec-4e39-be40-e42b040c81ab" d="M30.464,18.265l.236.184Z"/>
      <path class="a3b132b3-29f3-447c-af95-741cb7489c30" d="M24.356,18.668l-.188-.1Z"/>
      <path class="b32da538-e454-4648-97e3-fa3e687bc1a2" d="M24.756,18.325l.181.111Z"/>
      <path class="ade74853-1aec-4748-95db-9ef1d000fd54" d="M24.4,18.151l.186.105Z"/>
      <path class="ac1c2219-8ece-4f00-a1aa-6d6223d02ba4" d="M20.055,28.8l-.116-.067.108.016A.089.089,0,0,1,20.055,28.8Z"/>
      <path class="ef19b66b-1c2e-48de-b1b0-74bffd0aca30" d="M20.055,28.8a.089.089,0,0,0-.008-.051l.129.046-.028.03-.094-.025Z"/>
      <path class="be5aa488-b5c9-4bfe-9f9d-f3bc5b4d97a3" d="M18.7,27.689l.06-.067.048.068Z"/>
      <path class="aadac545-99ec-4e39-be40-e42b040c81ab" d="M30.7,18.445l.066.045Z"/>
      <path class="aadac545-99ec-4e39-be40-e42b040c81ab" d="M30.4,18.208l.065.059Z"/>
      <path class="be5aa488-b5c9-4bfe-9f9d-f3bc5b4d97a3" d="M18.868,27.748l-.06-.059Z"/>
      <path class="ef9dc699-c503-44b5-9270-a97a29beeda8" d="M34.689,20.624l.073.059Z"/>
      <path class="a972a628-5680-4df3-8045-5dba72a48907" d="M21.64,15.024l.412-.117a.821.821,0,0,0,.194.056c.6.024,1.209.042,1.814.061a2.3,2.3,0,0,1,.235,0,11.347,11.347,0,0,0,1.776.115c.059,0,.118,0,.176,0,.553.038,1.105.083,1.658.114.284.015.569,0,.853.01s.543.038.815.045c.042,0,.087-.073.131-.112.439.259.88.517,1.318.778a.483.483,0,0,1,.1.105l-1.685-.115-.058,0c-.545-.02-1.091-.032-1.635-.061-.562-.03-1.123-.076-1.685-.115-.029,0-.059,0-.088,0-.633-.02-1.266-.037-1.9-.06-.457-.016-.915-.032-1.371-.06-.542-.032-1.084-.075-1.626-.118-.124-.009-.248-.037-.372-.056Z"/>
      <path class="e47c0ae5-c55d-49ca-af4c-773be1f63be4" d="M21.64,15.024,20.7,15.5l-.293.118-.06.058h0c-.214-.1-.222-.128-.118-.412l.825-.471c.112-.027.226-.049.337-.082s.217-.083.315.038S21.673,14.934,21.64,15.024Z"/>
      <path class="a0608b88-6c25-4ff9-9320-4d6af3ab2c00" d="M20.227,15.26c-.1.284-.1.314.118.412l-.765.471-.059.059h0l-.059.059h0l-.059.058h-.058l-.118-.412.471-.354c.057-.028.116-.053.171-.084C19.989,15.4,20.108,15.33,20.227,15.26Z"/>
      <path class="b5c6eaa6-759f-409c-ab17-1b32397183f5" d="M19.4,16.319l.059-.058Z"/>
      <path class="b5c6eaa6-759f-409c-ab17-1b32397183f5" d="M19.462,16.261l.059-.059Z"/>
      <path class="b5c6eaa6-759f-409c-ab17-1b32397183f5" d="M19.521,16.2l.059-.059Z"/>
      <path class="a0608b88-6c25-4ff9-9320-4d6af3ab2c00" d="M20.345,15.672l.06-.058Z"/>
      <path class="ecc9f309-8c12-4cc1-889c-30d6962874c9" d="M30.469,33.687a1,1,0,0,1-.589.354,1.512,1.512,0,0,0-.253-.057c-.408-.024-.816-.036-1.223-.063a9.7,9.7,0,0,1-1.127-.043,9.558,9.558,0,0,0-1.367-.071c-.274-.009-.549.01-.822-.008-.4-.026-.789-.086-1.185-.109-.563-.031-1.128-.042-1.692-.062l-.088-.005c-.581-.037-1.161-.079-1.743-.107-.068,0-.141.073-.212.112h-.059l-.058-.057h-.059l-.059-.058-.177-.118-.059-.059-.294-.177c.021-.232.2-.176.333-.17.193.01.385.042.578.051.525.024,1.051.038,1.576.062.252.012.5.038.754.059.473.038.946.089,1.42.113.622.032,1.246.035,1.869.064.66.03,1.319.114,1.977.105s1.291.1,1.939.078a2.819,2.819,0,0,1,.547.06C30.426,33.583,30.445,33.65,30.469,33.687Z"/>
      <path class="b995a737-6024-4972-b80d-f369649a0c6d" d="M23.406,32.628l.3,0,.058.054,1.119,0c.062.038.121.1.186.111.29.03.581.05.872.062.625.024,1.249.039,1.874.061.487.017.974.039,1.462.059.029,0,.058,0,.087.007.328.036.654.081.982.107.2.016.412.005.618,0,.125,0,.212.035.216.177l-.412.294c.016-.2-.005-.227-.207-.234-.672-.023-1.345-.038-2.017-.06-.526-.017-1.052-.039-1.577-.059l-.059,0c-.646-.057-1.292-.145-1.94-.164-.769-.023-1.535-.053-2.3-.12-.582-.05-1.168-.043-1.752-.066-.37-.014-.738-.049-1.107-.053-.231,0-.462.035-.693.054H19.05l-.059-.059-.117-.059-.059-.059h0c0-.091,0-.18.13-.176.593.019,1.186.033,1.778.057.232.009.462.044.694.054.631.025,1.263.044,1.895.062C23.343,32.684,23.374,32.647,23.406,32.628Z"/>
      <path class="fbc37c49-0e9a-4708-8621-5f69c4678b37" d="M29.292,34.335l-.706.236c-.034-.039-.065-.108-.1-.112a8.181,8.181,0,0,0-.841-.062c-.715,0-1.425-.13-2.142-.067a3.211,3.211,0,0,1-.43-.052c-.525-.025-1.05-.041-1.575-.061-.019,0-.039,0-.058,0-.473-.038-.945-.086-1.419-.111-.322-.018-.645,0-.968,0l-.588-.3a4.717,4.717,0,0,1,.636-.053c.367.02.733.1,1.1.1.81.006,1.616.074,2.423.114.73.037,1.459.058,2.188.12.67.058,1.346.048,2.02.067a.442.442,0,0,1,.146,0C29.084,34.212,29.187,34.276,29.292,34.335Z"/>
      <path class="ecc9f309-8c12-4cc1-889c-30d6962874c9" d="M19.109,32.863c.231-.019.462-.057.693-.054.369,0,.737.039,1.107.053.584.023,1.17.016,1.752.066.767.067,1.533.1,2.3.12.648.019,1.294.107,1.94.164l.059,0c.525.02,1.051.042,1.577.059.672.022,1.345.037,2.017.06.2.007.223.039.207.234l-.294.118c-.024-.037-.043-.1-.073-.108a2.819,2.819,0,0,0-.547-.06c-.648.026-1.289-.088-1.939-.078s-1.317-.075-1.977-.105c-.623-.029-1.247-.032-1.869-.064-.474-.024-.947-.075-1.42-.113-.251-.021-.5-.047-.754-.059-.525-.024-1.051-.038-1.576-.062-.193-.009-.385-.041-.578-.051-.137-.006-.312-.062-.333.17l-.059-.058-.059-.059h0l-.058-.059h-.059l-.059-.059h0Z"/>
      <path class="a005c3a3-54de-4917-8856-f27abd03a1b9" d="M31.175,33.275c0-.142-.091-.179-.216-.177-.206,0-.413.014-.618,0-.328-.026-.654-.071-.982-.107-.029,0-.058-.006-.087-.007-.488-.02-.975-.042-1.462-.059-.625-.022-1.249-.037-1.874-.061-.291-.012-.582-.032-.872-.062-.065-.007-.124-.073-.186-.111a7.28,7.28,0,0,0,1.12-.14,3.89,3.89,0,0,1,1.059-.033c.329,0,.659.029.987.054.444.033.887.075,1.33.112l.059,0c.749.02,1.5.045,2.248.054a1.361,1.361,0,0,0,.377-.112,1.094,1.094,0,0,1-.183.2C31.647,32.988,31.409,33.129,31.175,33.275Z"/>
      <path class="ba0b6622-7a9c-414b-b473-3f03254ee15c" d="M21.051,34.1c.323,0,.646-.015.968,0,.474.025.946.073,1.419.111.019,0,.039,0,.058,0,.525.02,1.05.036,1.575.061a3.211,3.211,0,0,0,.43.052c.717-.063,1.427.069,2.142.067a8.181,8.181,0,0,1,.841.062c.037,0,.068.073.1.112v.058l-.647.177c-.042-.181-.2-.165-.324-.172-.5-.03-1.01-.044-1.516-.063-.534-.021-1.069-.04-1.6-.06h-.029c-.62-.039-1.24-.067-1.858-.122a4.917,4.917,0,0,0-.908,0h-.118l-.059-.059h-.059l-.059-.059h-.058l-.118-.059Z"/>
      <path class="ecc9f309-8c12-4cc1-889c-30d6962874c9" d="M20.168,33.628c.071-.039.144-.115.212-.112.582.028,1.162.07,1.743.107l.088.005c.564.02,1.129.031,1.692.062.4.023.789.083,1.185.109.273.018.548,0,.822.008a9.558,9.558,0,0,1,1.367.071,9.7,9.7,0,0,0,1.127.043c.407.027.815.039,1.223.063a1.512,1.512,0,0,1,.253.057L29.7,34.1l-1.2-.058c-.768-.039-1.536-.1-2.3-.113-.81-.016-1.616-.067-2.424-.113-.651-.037-1.3-.087-1.952-.112a6.33,6.33,0,0,0-1.6-.016Z"/>
      <path class="b995a737-6024-4972-b80d-f369649a0c6d" d="M20.228,33.687a6.33,6.33,0,0,1,1.6.016c.65.025,1.3.075,1.952.112.808.046,1.614.1,2.424.113.769.015,1.537.074,2.3.113l1.2.058-.412.236c-.105-.059-.208-.123-.317-.174a.442.442,0,0,0-.146,0c-.674-.019-1.35-.009-2.02-.067-.729-.062-1.458-.083-2.188-.12-.807-.04-1.613-.108-2.423-.114-.366,0-.732-.085-1.1-.1a4.717,4.717,0,0,0-.636.053h0l-.118-.059Z"/>
      <path class="ad0fe3b5-5705-44a1-93e2-ba774d909617" d="M27.938,34.806l.647-.177.118.294-.47.177c-.3.062-.6.126-.9.185-.112.022-.226.034-.339.051-.056-.222-.216-.26-.412-.236v-.058l.353-.059c.13-.016.262-.025.392-.049C27.533,34.9,27.735,34.849,27.938,34.806Z"/>
      <path class="fef6fd30-b293-4281-997c-32dd2e03148a" d="M29.7,15.2c-.044.039-.089.113-.131.112-.272-.007-.543-.036-.815-.045s-.569,0-.853-.01c-.553-.031-1.105-.076-1.658-.114-.058,0-.117,0-.176,0a11.347,11.347,0,0,1-1.776-.115,2.3,2.3,0,0,0-.235,0c-.605-.019-1.21-.037-1.814-.061a.821.821,0,0,1-.194-.056c.2-.09.387-.181.364-.456,0-.04.083-.089.131-.131s.1-.08.152-.12l.589-.117c-.06.134-.194.269-.023.387.511-.052,1-.1,1.489-.154A1.833,1.833,0,0,0,25,14.259h1.118l.53.059H26.7a.518.518,0,0,0,.122.057c.3.055.6.1.9.16.27.056.536.13.8.2Z"/>
      <path class="eabe6504-70f9-4323-a60d-14730674a9d6" d="M28.527,14.73c-.268-.065-.534-.139-.8-.2-.3-.061-.6-.105-.9-.16a.518.518,0,0,1-.122-.057.272.272,0,0,0,.177-.294l.823.118,1,.294C28.66,14.544,28.7,14.7,28.527,14.73Z"/>
      <path class="fd5aab44-d819-4606-88a0-8f92e1089c77" d="M26.879,14.024a.272.272,0,0,1-.177.294h-.059l-.53-.059H24.536c-.276,0-.287-.017-.247-.294h.117l.648-.059,1.472.059.294.058Z"/>
      <path class="fa84a518-bd10-4013-852b-a644ac2ce043" d="M24.289,13.965c-.04.277-.029.291.247.294H25a1.833,1.833,0,0,1-.241.057c-.489.053-.978.1-1.489.154-.171-.118-.037-.253.023-.387Z"/>
      <path class="fa84a518-bd10-4013-852b-a644ac2ce043" d="M25.054,13.906l-.648.059Z"/>
      <path class="eabe6504-70f9-4323-a60d-14730674a9d6" d="M26.82,14.023l-.294-.058Z"/>
      <path class="fd9f3889-95ae-483c-8eb2-943472ffee1e" d="M20.228,33.687l.117.059.118.059h0l.588.3.177.117.118.059H21.4l.059.059h.059l.059.059H21.7l.294.176v.412h-.059l-.176-.058h0l-.059-.059-.294-.059c-.294-.155-.588-.311-.883-.465-.117-.062-.236-.122-.354-.182l-.47-.3a2.927,2.927,0,0,1-.109-.291c-.023-.087-.022-.177.109-.18h.058l.177.118.059.058h.059l.058.057h.059Z"/>
      <path class="ed6f3c53-998e-4618-80a9-cdbfda7d3eae" d="M26,35.512c-.419,0-.841.03-1.257-.008-.525-.047-1.045-.149-1.568-.227-.108-.137-.1-.2.059-.353.171.021.342.035.511.065s.327.073.49.111l-.1.294c.335.021.633.048.931.057s.624,0,.935,0Z"/>
      <path class="fef6fd30-b293-4281-997c-32dd2e03148a" d="M23.229,34.924c-.156.151-.167.216-.059.353l-1.177-.3V34.57l.706.177h0l.059.059h.177l.118.059Z"/>
      <path class="f019c921-3e92-493d-b5eb-8ecd2d9b76c0" d="M26,35.512v-.058l.882-.06h0Z"/>
      <path class="ae9abc36-2143-476f-b0d2-1459d90d4f31" d="M21.758,34.924l.176.058Z"/>
      <path class="ae9abc36-2143-476f-b0d2-1459d90d4f31" d="M21.7,34.865l.059.059Z"/>
      <path class="a34ea87a-87c9-43d1-a099-64608de1d517" d="M33.647,30.861l.059-.059Z"/>
      <path class="aa3baa34-1ae4-40b9-9177-35e60f551609" d="M19.7,33.393c-.131,0-.132.093-.109.18a2.927,2.927,0,0,0,.109.291c-.073-.043-.144-.086-.217-.128s-.13-.072-.2-.108l-1-.824a1.175,1.175,0,0,1,0-.23c.012-.059.045-.14.091-.16a.228.228,0,0,1,.175.048c.093.066.174.149.26.224h0l.059.059.117.059.059.059h0l.059.059h0l.059.059h.059l.058.059h0l.059.059.059.058.294.177Z"/>
      <path class="b9fbe042-1d03-4e49-ab87-907cd72be207" d="M19.286,33.628c.065.036.131.071.2.108s.144.085.217.128l.47.3-.059.294a.9.9,0,0,0-.214-.114c-.128-.029-.254-.038-.263-.212,0-.025-.042-.063-.07-.07C19.277,33.99,19.217,33.9,19.286,33.628Z"/>
      <path class="a8d65c83-aa51-4aed-a0bf-85d5d0feb36e" d="M26.878,35.394l-.882.06c-.311,0-.623.007-.935,0s-.6-.036-.931-.057l.1-.294h.176l.531.059c.282,0,.565,0,.848,0A.9.9,0,0,0,26,35.1h.588c.2-.024.356.014.412.236Z"/>
      <path class="bb74997e-d202-4281-a1b5-523cced1471e" d="M15.753,19.381l-.234.237v-.312Z"/>
      <path class="f8576ee5-05da-460e-981d-02231c96e963" d="M15.342,20.028a.91.91,0,0,1-.005.228c-.014.049-.074.085-.113.126Z"/>
      <path class="a7fb61f0-2969-46d5-bf06-1d581f1dba02" d="M14.99,20.912l-.061.412Z"/>
      <path class="a33faeb8-4ee7-4357-9905-7debb88bc39e" d="M17.579,16.85l-.118.117Z"/>
      <path class="ef90124e-15be-460a-8262-137fbb79a7f7" d="M16.637,17.909l-.059.177Z"/>
      <path class="ecc9f309-8c12-4cc1-889c-30d6962874c9" d="M17.225,17.321l-.117.058Z"/>
      <path class="ef90124e-15be-460a-8262-137fbb79a7f7" d="M16.579,18.086l-.06.058Z"/>
      <path class="ae9d714b-0a9e-444c-adb3-ec38ea507428" d="M20.227,15.26c-.119.07-.238.142-.358.21-.055.031-.114.056-.171.084.122-.127-.02-.2-.06-.295a.815.815,0,0,1,.125-.111c.088-.051.182-.092.272-.138.067-.034.134-.1.2-.1.14,0,.182-.084.231-.179.218.062.348-.133.527-.181l.06.236Z"/>
      <path class="aef50a50-edf0-427e-82b5-522ded15ee11" d="M34,23.385a2.028,2.028,0,0,0,1.272.033,2.925,2.925,0,0,1,1.537.027.5.5,0,0,1,.293.21,1.891,1.891,0,0,1,.264.982.42.42,0,0,1-.189.376,2.536,2.536,0,0,1-1.06.407.529.529,0,0,1-.359-.148,5.136,5.136,0,0,1-.416-.454,1.825,1.825,0,0,0-1.192-.688l.086.342a3.248,3.248,0,0,0-2.314.8c.035.18.064.323.088.467.048.279.071.565.145.837.115.425.258.843.4,1.26a2.187,2.187,0,0,0,.747.85l.3.264c-.3.122-.552.228-.806.317-.04.013-.131-.041-.158-.087a1.269,1.269,0,0,1-.116-.3,4.108,4.108,0,0,0-1.081-1.793c-.319-.318-.633-.642-.971-.94a.8.8,0,0,1-.294-.639c0-.157-.009-.314-.02-.471a1.466,1.466,0,0,0-.055-.209c-.111.457-.2.855-.3,1.249a.515.515,0,0,0,.147.563.6.6,0,0,1,.167.745c-.219.523-.454,1.039-.692,1.554a3.35,3.35,0,0,1-.275.484c-.111.163-.207.161-.32,0a.5.5,0,0,1-.064-.595c.141-.245.228-.521.364-.769a2.171,2.171,0,0,0,.205-1.514,2.426,2.426,0,0,1,.489-1.879,2.343,2.343,0,0,1,.7-.79l.465.429a4.128,4.128,0,0,1,1.288-2.35,6.973,6.973,0,0,0-1.7-.433l.217-.266c-.3-.224-.613-.429-.891-.676a2.322,2.322,0,0,1-.544-.963h.112c.245.279.478.569.738.833a1.809,1.809,0,0,0,.515.377,15.631,15.631,0,0,0,1.464.6,1.941,1.941,0,0,0,.806.1,2.415,2.415,0,0,1,1.48.367,5.29,5.29,0,0,0,.716.322.448.448,0,0,1,.333.545.759.759,0,0,1-.586-.055l-.286-.148-.058-.046a.042.042,0,0,0-.042-.023l-.141-.107a.162.162,0,0,0,0-.044,1.02,1.02,0,0,0-.648-.424c-.3-.024-.591-.052-.887-.07-.113-.007-.15.04-.049.128l.243.29.046.067h0l.06.117h0l.06.118h0l.054.126.14.348.029.047A.622.622,0,0,0,34,23.385Z"/>
      <path class="aef50a50-edf0-427e-82b5-522ded15ee11" d="M23.346,20.138l.648.54.165.135.044-.041-.077-.3.161.033a11.213,11.213,0,0,1,1.487,1.978,1.246,1.246,0,0,1-.108,1.451,1.534,1.534,0,0,1-.257.277,2.816,2.816,0,0,0-.756-1.829l-.184-.24c-.034-.143-.108-.232-.32-.208l.132.161a3.122,3.122,0,0,1,.129.29,3.791,3.791,0,0,1,0,2.122c-.32.148-.4.1-.476-.238-.018-.081-.106-.217-.144-.211a.445.445,0,0,0-.256.156.969.969,0,0,0-.093.275.773.773,0,0,1-.556.552,1.247,1.247,0,0,0-.845.67c-.087.171-.238.309-.338.475a1.5,1.5,0,0,0-.174.421,2.423,2.423,0,0,0,0,.351c-.006.082-.026.216-.07.231a.382.382,0,0,1-.262-.053,2.534,2.534,0,0,1-.308-.223l-.068-.053h0c-.123-.04-.142-.027-.117.082.034.149.07.3.105.446-.189.047-.316-.072-.445-.175-.167-.134-.329-.275-.512-.429a1.952,1.952,0,0,1-.182.2c-.065.052-.15.128-.213.117s-.122-.123-.129-.2c-.026-.3-.032-.6-.045-.9.31-.024.572-.032.831-.066a2.66,2.66,0,0,0,2-1.381,1.546,1.546,0,0,0,.115-.6,2.037,2.037,0,0,1,.019-.329l.3.4.063-.014a1.59,1.59,0,0,0,0-.331,12.317,12.317,0,0,0-.815-2.568,1.837,1.837,0,0,0-.64-.753c-.1-.071-.214-.156-.343-.039-.1.093-.155-.006-.222-.052l-.179-.236c-.094-.182-.232-.152-.371-.068s-.257.18-.393.255a1.154,1.154,0,0,1-.326.121.221.221,0,0,1-.182-.053c-.023-.028.018-.118.043-.175a1.553,1.553,0,0,1,.132-.194,4.453,4.453,0,0,0-.582-.008.722.722,0,0,1-.8-.911c.028-.171.076-.217.253-.2.107.014.212.038.318.058a.46.46,0,0,0,.52-.175.533.533,0,0,1,.108-.081.681.681,0,0,0,.627.306,1.752,1.752,0,0,1,1.651.87,2.742,2.742,0,0,0,.457.435l.074.052h0l.346.188,0,0,.122.061,0,0,.125.052h0l.238.13.038-.057-.15-.139h0l-.065-.057,0,0-.061-.061h0l-.244-.222-.009-.013.3-.082.3.011Z"/>
      <path class="aef50a50-edf0-427e-82b5-522ded15ee11" d="M27.24,23.145A6.8,6.8,0,0,1,28.4,27.4a3.907,3.907,0,0,1-.326,1.422,4.106,4.106,0,0,1-.224.391l-.068-.017L27.615,27.9a2.38,2.38,0,0,1-.88,1.087l-.123-.647a.828.828,0,0,1-.134.15c-.06.039-.148.095-.2.076a.624.624,0,0,0-.56.1l-.032-.435c-.04-.008-.086-.012-.13-.025-.152-.049-.184-.116-.069-.222a6.113,6.113,0,0,1,.617-.493c.231-.164.476-.308.715-.461l.11-.063,0,0L27,26.919a.866.866,0,0,0,.477-.9,13.905,13.905,0,0,0-.368-2.807l.064-.184h0Z"/>
      <path class="b32c4a48-dbb2-49aa-a50b-b4045cdb8335" d="M21.413,24.926c-.243.158-.484.32-.731.472a1.483,1.483,0,0,1-.93.176c-.234-.019-.328-.084-.333-.321-.009-.328.032-.657.052-.985.081-.055.108,0,.14.063.047.1.1.19.156.285a1.839,1.839,0,0,0,.152.312c.05.07.15.166.208.154a.272.272,0,0,0,.245-.255,2.686,2.686,0,0,0-.033-.321l.128.051c.017.034.036.068.05.1.112.277.215.336.509.287.047-.008.094-.023.14-.035Z"/>
      <path class="e165f2db-8d13-4edd-97e7-efe4c490b14c" d="M28.105,19.9c.116.834-.2,1.711-.689,1.889l.4-1.149-.049-.046a1.827,1.827,0,0,1-1.527.308Z"/>
      <path class="bcfaf42f-28ee-4174-ac58-f0b9dc0cae38" d="M36.177,26.561l.165-.138-.918-.483a.869.869,0,0,1-.775.2c.134-.181.263-.349.386-.52.076-.106.1-.214-.031-.3a.118.118,0,0,0,0-.056l.127,0a2.638,2.638,0,0,1,.356.3,1.627,1.627,0,0,0,1.225.586c.058,0,.114.013.206.024a.653.653,0,0,1-.5.455Z"/>
      <path class="a0a29e5d-5c17-4dca-8e67-8d88a463ab59" d="M32.9,27.442c.135.107.266.219.4.321.2.145.292.129.435-.069a1,1,0,0,1,.233-.266,1.2,1.2,0,0,1,.054.216.553.553,0,0,1-.04.17c-.095.333-.095.333.242.5a1.332,1.332,0,0,1,.117-.157.277.277,0,0,1,.2-.067,3.481,3.481,0,0,1-.088.493c-.052.161-.212.151-.321.09a7.549,7.549,0,0,1-.81-.51,1.617,1.617,0,0,1-.352-.389,1.241,1.241,0,0,1-.116-.311Z"/>
      <path class="b5dd4485-77b3-43b2-9af2-fa63f0307f29" d="M23.346,20.138l-.473-.065c-.08-.113.035-.15.084-.211a.468.468,0,0,0,.07-.463.4.4,0,0,0-.393-.2.525.525,0,0,0-.467.342l-.119.1.12.1.175.274-.111.119c-.5-.242-.287-.881.079-1.089a.818.818,0,0,1,.929.271.668.668,0,0,1,.016.45A.279.279,0,0,0,23.346,20.138Z"/>
      <path class="aaa231ef-e56b-4665-beef-ad238557e895" d="M33.6,27.506c-.363-.021-.565-.2-.589-.483s-.047-.542-.068-.812a.485.485,0,0,1,.018-.11c.339.112.414.211.377.527A1.313,1.313,0,0,0,33.6,27.506Z"/>
      <path class="b35c19a6-a551-4c20-b07f-dfe22ac62a80" d="M28.814,20.736c.145.33.287.662.436.99.034.076.083.152-.015.2a.213.213,0,0,1-.169-.052c-.166-.134-.324-.279-.484-.42l.092-.882Z"/>
      <path class="ad01b7e7-b315-4837-ae73-a7d82e746b79" d="M18.7,20.99l-.13.762c-.294-.151-.312-.433-.415-.661l-.057-.283c.04-.041.082-.12.119-.117a4.294,4.294,0,0,1,.458.077Z"/>
      <path class="b631d51c-6d74-41a9-9659-0b28b4441c23" d="M31.247,19.855c.366.318.807.543.995,1.037A.989.989,0,0,1,31.247,19.855Z"/>
      <path class="f338d121-9447-4504-b50b-9a3551d52a37" d="M18.7,20.99l-.025-.222a4.294,4.294,0,0,0-.458-.077c-.037,0-.079.076-.119.117a.081.081,0,0,0-.055-.011h0l-.071-.105c-.032.027-.078.048-.092.082a.405.405,0,0,0-.007.14l-.039.42c-.157-.043-.2-.163-.234-.278a1.231,1.231,0,0,1,.08-.836,1.176,1.176,0,0,0,1.113.449Z"/>
      <path class="fbf66ba0-f60b-4a51-aa1e-2017c901dbb6" d="M37.651,23.678a2.818,2.818,0,0,1,.847.524c-.153.107-.292.209-.437.3-.08.052-.173.065-.225-.04s.013-.163.106-.2l.16-.069-.01-.047h-.324l-.243-.4Z"/>
      <path class="a5554ddd-709c-47af-b0fb-c8277a4f2a18" d="M34,23.385a.622.622,0,0,1-.547-.3l-.029-.047-.14-.348.007-.125.007-.072.052.009.057.062c.084.151.151.318.346.363l.322.042.338.064-.443.242Z"/>
      <path class="b56e15f9-c049-4c9d-b3b3-619a5a0754ae" d="M38.005,25.1a4.4,4.4,0,0,1-.213.527.434.434,0,0,1-.232.161.233.233,0,0,1-.208-.044.255.255,0,0,1,.016-.212A.722.722,0,0,1,38.005,25.1Z"/>
      <path class="bee00709-6a47-4f14-94a7-6fecd03d5ecc" d="M24.469,22.138l.184.24L24.51,22.3a10.5,10.5,0,0,1,.121,1.1,5.829,5.829,0,0,1-.112.952c-.008.055-.074.1-.113.152a3.791,3.791,0,0,0,0-2.122,3.122,3.122,0,0,0-.129-.29C24.378,21.971,24.4,22.162,24.469,22.138Z"/>
      <path class="b82648d6-8ca8-4d51-a11f-de15250fd726" d="M34.78,25.084a.041.041,0,0,1,.045.013l.12.052h0l0,.061-.192.009-.023,0-.02-.012-.253-.048L33.443,25.1l0-.092a3.471,3.471,0,0,1,1.2.032Z"/>
      <path class="b7537fe7-7c8f-46a7-8dca-23ee8186e12b" d="M17.861,18.244l.126-.227.057-.052,0,0c.107-.036.213-.076.322-.106.088-.025.15,0,.146.109l-.571.363Z"/>
      <path class="a59e6b8f-9d83-4840-86dd-2df1713ba10c" d="M34.413,23.034l-.338-.064-.026-.054.013-.014.043-.04.02-.075.039-.042.013-.076.119.006.028.006h.029l.287.183C34.654,23.041,34.517,23.016,34.413,23.034Z"/>
      <path class="af68b4d4-088e-4d91-905a-7eeea255fdeb" d="M28.814,20.736l-.14-.168-.092.882a1.326,1.326,0,0,1-.033-.231c.007-.3.022-.6.034-.9l.12-.059h0l.052.187Z"/>
      <path class="bbea5171-41fe-4f70-b71a-0b72b4bd6bda" d="M24.287,20.5l-.161-.033.077.3-.044.041-.165-.135c.065,0,.114-.011.074-.1-.069-.145-.134-.292-.2-.438a.054.054,0,0,0,.033.008l.061-.013Z"/>
      <path class="fbad9dca-a707-4ed7-a005-dbae8f9805f2" d="M28.7,20.264l-.12.059L28.5,19.8A.446.446,0,0,1,28.7,20.264Z"/>
      <path class="b8ed23b2-2542-40df-bf22-5d3c4bacaa1b" d="M34.64,22.864l-.287-.183a.777.777,0,0,1-.031-.194c0-.036.054-.068.084-.1l.141.107c-.114.025-.2.061-.074.184C34.532,22.735,34.585,22.8,34.64,22.864Z"/>
      <path class="e58ca44f-1b7f-41d5-883d-6540d32e977d" d="M19.767,24.616c-.053-.095-.109-.188-.156-.285-.032-.065-.059-.118-.14-.063l.058-.214.057-.01Z"/>
      <path class="fe02915f-d836-412c-9b6c-9827f38c8f77" d="M18.515,17.966c0-.108-.058-.134-.146-.109-.109.03-.215.07-.322.106.132-.2.335-.178.533-.171h0Z"/>
      <path class="fb54c549-9e2f-40e1-9fec-11e6064e031a" d="M20.806,27.383c-.035-.149-.071-.3-.105-.446-.025-.109-.006-.122.117-.082-.119.085,0,.153.02.225C20.864,27.187,20.941,27.294,20.806,27.383Z"/>
      <path class="f385510d-3a3c-45e6-b686-cfd28523bdfa" d="M21.413,24.926l-.247-.013.375-.221.05.062Z"/>
      <path class="be7b737f-db74-4d32-9a23-9d85245663d9" d="M27.172,23.032l-.064.184-.114-.24.071-.129Z"/>
      <path class="b5dd4485-77b3-43b2-9af2-fa63f0307f29" d="M22.281,20.452l-.346-.188A.322.322,0,0,1,22.281,20.452Z"/>
      <path class="b75ad845-a66a-427f-9fe1-5185c1026640" d="M20.467,24.557l-.128-.051-.071-.2C20.41,24.349,20.479,24.427,20.467,24.557Z"/>
      <path class="acfd345c-bcdc-4bb8-bdc2-e8cfef2009c9" d="M36.177,26.561l.24.064-.375.077-.021-.065Z"/>
      <path class="f1c41a48-8c58-40e8-8991-4cfffbf47d77" d="M23.868,20.143a1.323,1.323,0,0,1-.088-.149c0-.008.036-.036.056-.055l.1.14-.038.072A.054.054,0,0,1,23.868,20.143Z"/>
      <path class="f9aacdda-469e-43f4-bb20-f382e3a08d80" d="M37.768,24.149h.324l.01.047-.16.069Z"/>
      <path class="fec9f638-ea4b-45f5-acd3-07f76269f905" d="M17.877,20.913a.405.405,0,0,1,.007-.14c.014-.034.06-.055.092-.082l.071.105C17.905,20.712,17.95,20.9,17.877,20.913Z"/>
      <path class="b5dd4485-77b3-43b2-9af2-fa63f0307f29" d="M22.649,20.493l.15.139-.038.057-.238-.13Z"/>
      <path class="b5dd4485-77b3-43b2-9af2-fa63f0307f29" d="M22.283,20.157l.244.222A.239.239,0,0,1,22.283,20.157Z"/>
      <path class="a151871d-0877-4dc6-b684-f023f4777845" d="M22.232,20.141l.111-.119.229.04-.3.082h-.021Z"/>
      <path class="ae540ec3-3cfd-42fa-ab86-78fd7d1a3cad" d="M37.651,23.678l-.126.068-.09-.137.03-.046Z"/>
      <path class="fec9f638-ea4b-45f5-acd3-07f76269f905" d="M18.047,20.8a.081.081,0,0,1,.055.011l.057.283C18.035,21.026,18.041,20.911,18.047,20.8Z"/>
      <path class="edb29710-d05f-46d8-a961-f1c7fd7e10bd" d="M26.924,22.81l-.1-.212.044-.027.134.163Z"/>
      <path class="a41d27fe-c35f-4e82-b2a1-c607b8cc2113" d="M20.406,20.026l.179.236Z"/>
      <path class="a7d79570-f0bf-4dbe-b564-5f6540b010eb" d="M26.924,22.81,27,22.734l.065.113-.071.129Z"/>
      <path class="e17d15be-41d2-4d6f-bf94-2a50c59d33e3" d="M34.75,25.218l.192-.009h0l.062.063,0,0a.118.118,0,0,1,0,.056Z"/>
      <path class="fc734e26-1716-4de5-ae80-dd70ee076bc0" d="M29.467,19.619h-.112l-.044-.084c.024-.006.059-.025.071-.015A.584.584,0,0,1,29.467,19.619Z"/>
      <path class="e17d15be-41d2-4d6f-bf94-2a50c59d33e3" d="M34.942,25.209l0-.061.183.114-.127,0,0,0-.062-.063Z"/>
      <path class="b82bb085-4500-4f4b-8702-46331645c71d" d="M17.861,18.244l.083.085-.071.139-.07-.054Z"/>
      <path class="e17d15be-41d2-4d6f-bf94-2a50c59d33e3" d="M34.454,25.161l.253.048Z"/>
      <path class="fbad9dca-a707-4ed7-a005-dbae8f9805f2" d="M28.756,20.451l-.052-.187Z"/>
      <path class="be7b737f-db74-4d32-9a23-9d85245663d9" d="M27.24,23.145l-.068-.113Z"/>
      <path class="e17d15be-41d2-4d6f-bf94-2a50c59d33e3" d="M34.78,25.084l-.132-.041Z"/>
      <path class="e17d15be-41d2-4d6f-bf94-2a50c59d33e3" d="M34.945,25.149l-.12-.052Z"/>
      <path class="e659e906-5258-422c-8640-4eca02388d91" d="M26.929,26.97l-.11.063Z"/>
      <path class="b5dd4485-77b3-43b2-9af2-fa63f0307f29" d="M22.4,20.51l-.122-.061Z"/>
      <path class="b5dd4485-77b3-43b2-9af2-fa63f0307f29" d="M22.522,20.559l-.125-.052Z"/>
      <path class="fe02915f-d836-412c-9b6c-9827f38c8f77" d="M18.044,17.965l-.057.052Z"/>
      <path class="fb54c549-9e2f-40e1-9fec-11e6064e031a" d="M20.818,26.856l.068.053Z"/>
      <path class="e659e906-5258-422c-8640-4eca02388d91" d="M27,26.919l-.066.048Z"/>
      <path class="b8ed23b2-2542-40df-bf22-5d3c4bacaa1b" d="M34.589,22.514l.058.046Z"/>
      <path class="b5dd4485-77b3-43b2-9af2-fa63f0307f29" d="M22.584,20.437l.065.057Z"/>
      <path class="b5dd4485-77b3-43b2-9af2-fa63f0307f29" d="M22.525,20.378l.061.061Z"/>
      <path class="b5dd4485-77b3-43b2-9af2-fa63f0307f29" d="M21.934,20.263l-.074-.052Z"/>
      <path class="bc0eafbc-d0db-47e7-b97a-b2cb088e79d6" d="M23.9,20.151l.038-.072.023.059Z"/>
      <path class="a20d2751-b6f8-4fed-85f1-0f86f4fe62cb" d="M14.917,26.331l.437.608a.914.914,0,0,1-.783-.217l-.916.491.253.193c-.341.1-.6-.026-.807-.428a1.113,1.113,0,0,1,.19-.046,1.616,1.616,0,0,0,1.211-.574,1.882,1.882,0,0,1,.24-.213l.071-.051h.117l0,.062h0C14.811,26.2,14.794,26.259,14.917,26.331Z"/>
      <path class="a20d2751-b6f8-4fed-85f1-0f86f4fe62cb" d="M16.105,28.217c.073.115.137.237.221.344a.2.2,0,0,0,.309.034c.152-.119.3-.24.491-.39a.61.61,0,0,1-.026.209,2.268,2.268,0,0,1-.263.384,2.419,2.419,0,0,1-.98.676c-.2.071-.267.039-.327-.161a3.468,3.468,0,0,1-.079-.423l.068-.041.278.256.253-.183c.113-.143-.036-.26-.04-.393C16.007,28.411,15.93,28.279,16.105,28.217Z"/>
      <path class="b0202988-a71a-4e9a-af93-eaac1bccfe3c" d="M17.047,27.093c-.019.221-.047.442-.055.663a.508.508,0,0,1-.55.541c.071-.21.147-.426.215-.644a.3.3,0,0,0,.013-.172.47.47,0,0,1,.2-.558l.117-.063h0Z"/>
      <path class="fbf66ba0-f60b-4a51-aa1e-2017c901dbb6" d="M11.453,24.956l1.028-.579a.563.563,0,0,1-.6.579l.177.1c.081.045.159.092.086.2s-.145.084-.227.028C11.785,25.19,11.652,25.1,11.453,24.956Z"/>
      <path class="b0202988-a71a-4e9a-af93-eaac1bccfe3c" d="M12.106,26.21l-.085-.319a.7.7,0,0,1,.618.444.206.206,0,0,1,.006.184.194.194,0,0,1-.177.049,1.355,1.355,0,0,1-.253-.168l-.051-.072h0Z"/>
      <path class="e9239ff1-aa3d-4de0-a8e0-0faaa868556c" d="M16.7,23.5a.807.807,0,0,1-.826.7l.248-.153c-.174-.076-.4.093-.546-.13a2.192,2.192,0,0,1,.229.023.6.6,0,0,0,.714-.555l.114-.186Z"/>
      <path class="a5f0a41c-9687-446f-9bb1-5014b4f3ed91" d="M16.518,23.386a.6.6,0,0,1-.714.555,2.192,2.192,0,0,0-.229-.023l-.172-.063.291-.02c.139-.031.277-.06.415-.093a.4.4,0,0,0,.3-.278Z"/>
      <path class="a05ebf1a-822c-4e75-930a-c6184dab0085" d="M15.578,25.8h.977a1.637,1.637,0,0,1-.844.125l-.368.05,0,0-.179,0-.058-.057a.041.041,0,0,1,.043-.013l.133-.045a.052.052,0,0,1,.051-.008Z"/>
      <path class="be5aa488-b5c9-4bfe-9f9d-f3bc5b4d97a3" d="M18.049,26.215c-.019.315-.026.631-.066.944a1.226,1.226,0,0,1-.164.346A4.517,4.517,0,0,0,17.99,26.3C17.987,26.273,18.029,26.243,18.049,26.215Z"/>
      <path class="a50f5289-c9fc-42ff-bfcd-2b9cebc0289f" d="M15.694,23.835l-.291.02-.12-.178.05-.06,0-.005.12-.063.025,0h.026Z"/>
      <path class="e0a73f6a-eb91-481e-af65-67f5375369a6" d="M16.105,28.217c-.175.062-.1.194-.095.312,0,.133.153.25.04.393-.042-.176-.1-.351-.121-.53-.01-.064.041-.139.072-.2A.733.733,0,0,1,16.105,28.217Z"/>
      <path class="be5aa488-b5c9-4bfe-9f9d-f3bc5b4d97a3" d="M17.527,29.472c.037-.247.046-.506.281-.67Z"/>
      <path class="be5aa488-b5c9-4bfe-9f9d-f3bc5b4d97a3" d="M16.691,29.5l-.129.2.309.22-.49-.17Z"/>
      <path class="be5aa488-b5c9-4bfe-9f9d-f3bc5b4d97a3" d="M17.633,28.148a.71.71,0,0,1-.229.593Z"/>
      <path class="afb1ca31-4dde-46a9-a3b9-233213fd3761" d="M14.466,23.549a1.314,1.314,0,0,0,.7-.1V23.5a.916.916,0,0,1-.62.115C14.518,23.615,14.493,23.573,14.466,23.549Z"/>
      <path class="f26964cf-86b9-4ff8-a4e3-fcec00ba6ccd" d="M15.458,23.549l-.12.063,0-.248.056-.045.069-.053h0l.058.233h0Z"/>
      <path class="be5aa488-b5c9-4bfe-9f9d-f3bc5b4d97a3" d="M17.044,29.981c.168.036.269-.065.364-.177C17.332,30.1,17.329,30.1,17.044,29.981Z"/>
      <path class="be5aa488-b5c9-4bfe-9f9d-f3bc5b4d97a3" d="M17.872,28.682a.4.4,0,0,1,.249-.346Z"/>
      <path class="be5aa488-b5c9-4bfe-9f9d-f3bc5b4d97a3" d="M17.163,29.089c0,.127-.055.189-.186.174Z"/>
      <path class="bdbdfef5-3bcd-4f62-b169-38bdb22b3461" d="M15.108,25.919l.058.057,0,.062h0l-.122.051a.042.042,0,0,1-.044.018l-.028-.023-.037-.037-.009-.012a.254.254,0,0,0,0-.039.042.042,0,0,1,.045-.025l.071-.039Z"/>
      <path class="be5aa488-b5c9-4bfe-9f9d-f3bc5b4d97a3" d="M16.983,29.259l-.23.189Z"/>
      <path class="bba5aaed-ad23-48cf-b235-be6cb171d461" d="M17.047,27.093l-.056-.232c.042-.076.1-.061.108.007A.719.719,0,0,1,17.047,27.093Z"/>
      <path class="bdbdfef5-3bcd-4f62-b169-38bdb22b3461" d="M15.343,25.976l.368-.05Z"/>
      <path class="be5aa488-b5c9-4bfe-9f9d-f3bc5b4d97a3" d="M18.032,25.98c.165.095.171.121.05.225Z"/>
      <path class="be5aa488-b5c9-4bfe-9f9d-f3bc5b4d97a3" d="M18.228,28.216l.128-.174Z"/>
      <path class="be5aa488-b5c9-4bfe-9f9d-f3bc5b4d97a3" d="M17.812,27.558l-.064.24Z"/>
      <path class="be11148a-a219-435d-b935-e8b72a146de6" d="M14.917,26.331c-.123-.072-.106-.129.017-.177Z"/>
      <path class="bdbdfef5-3bcd-4f62-b169-38bdb22b3461" d="M15.578,25.8l-.243.052Z"/>
      <path class="be5aa488-b5c9-4bfe-9f9d-f3bc5b4d97a3" d="M17.75,27.794l-.063.18Z"/>
      <path class="be5aa488-b5c9-4bfe-9f9d-f3bc5b4d97a3" d="M17.69,27.969l-.059.182Z"/>
      <path class="ac1c2219-8ece-4f00-a1aa-6d6223d02ba4" d="M20.054,28.8l.094.025.02.1Z"/>
      <path class="b0a35bf3-ac4b-43ef-afd0-8ac89481939e" d="M15.168,26.038l0-.062.179,0Z"/>
      <path class="be5aa488-b5c9-4bfe-9f9d-f3bc5b4d97a3" d="M17.406,29.807l.059-.181Z"/>
      <path class="be5aa488-b5c9-4bfe-9f9d-f3bc5b4d97a3" d="M17.4,28.78l-.065.133Z"/>
      <path class="bdbdfef5-3bcd-4f62-b169-38bdb22b3461" d="M15.284,25.861l-.133.045Z"/>
      <path class="be11148a-a219-435d-b935-e8b72a146de6" d="M14.93,26.093h-.116l.066-.057a.213.213,0,0,0,.05,0l.009.012a.152.152,0,0,0-.01.047Z"/>
      <path class="b0a35bf3-ac4b-43ef-afd0-8ac89481939e" d="M15.048,26.088l.122-.051Z"/>
      <path class="be5aa488-b5c9-4bfe-9f9d-f3bc5b4d97a3" d="M17.463,29.629l.05-.12Z"/>
      <path class="b6d7d9f4-fa50-4b0a-804c-07d7761fd654" d="M12.106,26.21l.058.118Z"/>
      <path class="bba5aaed-ad23-48cf-b235-be6cb171d461" d="M16.992,26.86l-.117.063Z"/>
      <path class="be5aa488-b5c9-4bfe-9f9d-f3bc5b4d97a3" d="M16.917,29.924l.13.059Z"/>
      <path class="be5aa488-b5c9-4bfe-9f9d-f3bc5b4d97a3" d="M16.754,29.447l-.067.055Z"/>
      <path class="be11148a-a219-435d-b935-e8b72a146de6" d="M14.813,26.094l-.071.051Z"/>
      <path class="be11148a-a219-435d-b935-e8b72a146de6" d="M14.933,26.155l0-.062h0a.246.246,0,0,0,.047-.01l.028.023Z"/>
      <path class="b6d7d9f4-fa50-4b0a-804c-07d7761fd654" d="M12.164,26.328l.051.072Z"/>
      <path class="be5aa488-b5c9-4bfe-9f9d-f3bc5b4d97a3" d="M18.64,27.745l.063-.06Z"/>
      <path class="be5aa488-b5c9-4bfe-9f9d-f3bc5b4d97a3" d="M18.585,27.81l.057-.067Z"/>
      <path class="be5aa488-b5c9-4bfe-9f9d-f3bc5b4d97a3" d="M18.526,27.87l.064-.064Z"/>
      <path class="be5aa488-b5c9-4bfe-9f9d-f3bc5b4d97a3" d="M18.466,27.927l.065-.062Z"/>
      <path class="be5aa488-b5c9-4bfe-9f9d-f3bc5b4d97a3" d="M18.406,27.984l.065-.062Z"/>
      <path class="f26964cf-86b9-4ff8-a4e3-fcec00ba6ccd" d="M15.333,23.617l-.05.06Z"/>
      <path class="be5aa488-b5c9-4bfe-9f9d-f3bc5b4d97a3" d="M18.351,28.047l.059-.067Z"/>
      <path class="be5aa488-b5c9-4bfe-9f9d-f3bc5b4d97a3" d="M18.172,28.28l.058-.066Z"/>
      <path class="be5aa488-b5c9-4bfe-9f9d-f3bc5b4d97a3" d="M18.115,28.341l.062-.065Z"/>
      <path class="f26964cf-86b9-4ff8-a4e3-fcec00ba6ccd" d="M15.166,23.5v-.057a.053.053,0,0,1,.051-.012Z"/>
      <path class="be5aa488-b5c9-4bfe-9f9d-f3bc5b4d97a3" d="M17.821,28.764l.051-.081Z"/>
      <path class="b0a35bf3-ac4b-43ef-afd0-8ac89481939e" d="M15.047,25.931l-.071.039Z"/>
      <path class="b0a35bf3-ac4b-43ef-afd0-8ac89481939e" d="M14.93,26.034a.213.213,0,0,1-.05,0L14.931,26A.254.254,0,0,1,14.93,26.034Z"/>
      <path class="be5aa488-b5c9-4bfe-9f9d-f3bc5b4d97a3" d="M17.336,28.907l-.059.067Z"/>
      <path class="be5aa488-b5c9-4bfe-9f9d-f3bc5b4d97a3" d="M17.281,28.97l-.06.064Z"/>
      <path class="be5aa488-b5c9-4bfe-9f9d-f3bc5b4d97a3" d="M17.223,29.032l-.063.06Z"/>
      <path class="f26964cf-86b9-4ff8-a4e3-fcec00ba6ccd" d="M15.215,23.436l.068-.045Z"/>
      <path class="a10fe354-a5f3-4250-8c9c-a893252bcfe7" d="M16.7,23.5l-.067-.3c.065-.275.056-.284-.218-.229l-.058.011-.074.048h0l-.3-.12v0l.061-.046a.779.779,0,0,1,.578-.227c.2-.008.407,0,.627,0Z"/>
      <path class="bfd817a7-7026-447b-b02a-47f4d21c751f" d="M15.985,22.909l.3.12c0,.017-.005.033-.008.049l-.168.08-.422.28-.168.062-.058-.233Z"/>
      <path class="bfd817a7-7026-447b-b02a-47f4d21c751f" d="M15.46,23.266l-.069.053Z"/>
      <path class="bfd817a7-7026-447b-b02a-47f4d21c751f" d="M16.046,22.865l-.061.046Z"/>
      <path class="a005c3a3-54de-4917-8856-f27abd03a1b9" d="M23.759,32.686l-.058-.055Z"/>
      <path class="b8b56c12-8e06-4817-bae3-ffa7c74b3c1f" d="M15.872,20.912l-.118-.765a3.3,3.3,0,0,1,.412-.825c.113.044.121.138.118.24,0,.136,0,.272,0,.408Z"/>
      <path class="b8b56c12-8e06-4817-bae3-ffa7c74b3c1f" d="M15.7,20.264l-.059.118Z"/>
      <path class="ecc9f309-8c12-4cc1-889c-30d6962874c9" d="M19.933,33.511l-.177-.118Z"/>
      <path class="ecc9f309-8c12-4cc1-889c-30d6962874c9" d="M19.7,33.393v-.059l.059.059Z"/>
      <path class="ecc9f309-8c12-4cc1-889c-30d6962874c9" d="M19.992,33.569l-.059-.058Z"/>
      <path class="ecc9f309-8c12-4cc1-889c-30d6962874c9" d="M20.109,33.627l-.058-.057Z"/>
      <path class="a005c3a3-54de-4917-8856-f27abd03a1b9" d="M18.874,32.745l-.059-.059Z"/>
      <path class="a005c3a3-54de-4917-8856-f27abd03a1b9" d="M19.05,32.863l-.059-.059Z"/>
      <path class="a005c3a3-54de-4917-8856-f27abd03a1b9" d="M19.109,32.922l-.059-.059h.059Z"/>
      <path class="a005c3a3-54de-4917-8856-f27abd03a1b9" d="M19.168,32.981l-.059-.059Z"/>
      <path class="a005c3a3-54de-4917-8856-f27abd03a1b9" d="M19.285,33.04l-.058-.059Z"/>
      <path class="a005c3a3-54de-4917-8856-f27abd03a1b9" d="M19.344,33.1l-.059-.059Z"/>
      <path class="a387283b-c12b-4cf8-b359-ed5782983cdb" d="M22.7,34.747l-.706-.177-.294-.176a4.917,4.917,0,0,1,.908,0c.618.055,1.238.083,1.858.122h.029c.535.02,1.07.039,1.6.06.506.019,1.011.033,1.516.063.121.007.282-.009.324.172-.2.043-.4.09-.608.128-.13.024-.262.033-.392.049h0c-.044-.115-.139-.119-.242-.118s-.235,0-.352-.008c-.385-.028-.77-.068-1.155-.087-.369-.019-.74-.014-1.11-.027-.428-.014-.856-.036-1.284-.05C22.763,34.691,22.731,34.728,22.7,34.747Z"/>
      <path class="a387283b-c12b-4cf8-b359-ed5782983cdb" d="M21.346,34.276l-.118-.059Z"/>
      <path class="a387283b-c12b-4cf8-b359-ed5782983cdb" d="M21.463,34.335l-.059-.059Z"/>
      <path class="a387283b-c12b-4cf8-b359-ed5782983cdb" d="M21.581,34.394l-.059-.059Z"/>
      <path class="fbc37c49-0e9a-4708-8621-5f69c4678b37" d="M20.463,33.805l-.118-.059Z"/>
      <path class="a387283b-c12b-4cf8-b359-ed5782983cdb" d="M26.584,35.1h-.412l.412-.059h0Z"/>
      <path class="a387283b-c12b-4cf8-b359-ed5782983cdb" d="M26.938,34.983l-.353.059h0l.353-.059Z"/>
      <path class="eabe6504-70f9-4323-a60d-14730674a9d6" d="M26.113,14.259l.53.059Z"/>
      <path class="fe09e9ca-75b8-4f5f-b6f7-120ca412be6c" d="M26.937,34.982l-.353.059-.412.059H24.23c-.163-.038-.325-.082-.49-.111s-.34-.044-.511-.065l-.176-.059-.118-.059h-.177l-.059-.059h0c.032-.019.064-.056.095-.055.428.014.856.036,1.284.05.37.013.741.008,1.11.027.385.019.77.059,1.155.087.117.009.235.009.352.008S26.893,34.867,26.937,34.982Z"/>
      <path class="a387283b-c12b-4cf8-b359-ed5782983cdb" d="M22.935,34.806l.118.059Z"/>
      <path class="a387283b-c12b-4cf8-b359-ed5782983cdb" d="M22.7,34.747l.059.059Z"/>
      <path class="a387283b-c12b-4cf8-b359-ed5782983cdb" d="M24.936,35.1H26a.9.9,0,0,1-.211.055c-.283.007-.566,0-.848,0Z"/>
      <path class="ed6f3c53-998e-4618-80a9-cdbfda7d3eae" d="M24.936,35.1v.058l-.531-.059Z"/>
      <path class="b60f6868-7dab-4bd4-b55e-d71170b47fca" d="M33.3,22.494l-.007.072H33.23l-.06-.118h0l-.06-.117h0l-.046-.067-.243-.29a.7.7,0,0,1,.2-.058c.247.011.493.036.739.055h0l-.3.175-.069.013a.081.081,0,0,1-.048-.016c-.048-.067-.086-.064-.114.016l.006.155.046.072h0Z"/>
      <path class="e9af3387-1ad8-4e18-a8fb-0ab1e039af64" d="M34.406,22.384c-.03.035-.081.067-.084.1a.777.777,0,0,0,.031.194h-.029l-.028-.006-.172-.122-.249-.173-.284-.116h0l-.063-.039,0-.01v-.061l.423-.069.459.255A.162.162,0,0,1,34.406,22.384Z"/>
      <path class="ed48d417-bd43-4dc8-afb9-94b15ccc747d" d="M33.766,21.971c-.246-.019-.492-.044-.739-.055a.7.7,0,0,0-.2.058c-.1-.088-.064-.135.049-.128.3.018.592.046.887.07Z"/>
      <path class="b8f4f8ca-eef3-4a6a-980a-611aa693612c" d="M33.766,21.971l-.008-.055a1.02,1.02,0,0,1,.648.424l-.459-.255v0l-.061-.046-.12-.07Z"/>
      <path class="ffeb037e-d376-40c8-a4fc-bd636684c8ac" d="M33.111,22.33l.06.117Z"/>
      <path class="ffeb037e-d376-40c8-a4fc-bd636684c8ac" d="M33.17,22.447l.06.118Z"/>
      <path class="ffeb037e-d376-40c8-a4fc-bd636684c8ac" d="M33.23,22.565h.061l-.007.125Z"/>
      <path class="ade4be5a-e6a9-4baa-bfdf-ca2c9166cb45" d="M33.424,23.039l.029.047Z"/>
      <path class="ffeb037e-d376-40c8-a4fc-bd636684c8ac" d="M33.065,22.264l.046.067Z"/>
      <path class="a45a3c20-5cf5-48a6-84bc-7bc608fdaa12" d="M22.572,20.062l-.229-.04-.175-.274.006-.019.175.054,0,.013a.352.352,0,0,0,.529,0c.023-.051.078-.113.065-.151-.091-.258-.279-.286-.6-.1l-.172.017,0-.022a.525.525,0,0,1,.467-.342.4.4,0,0,1,.393.2.468.468,0,0,1-.07.463c-.049.061-.164.1-.084.211Z"/>
      <path class="bbeea538-057a-40cc-81e5-79c2bbba3e48" d="M24.469,22.138c-.072.024-.091-.167-.188-.047l-.132-.161C24.361,21.906,24.435,22,24.469,22.138Z"/>
      <path class="a403f51e-4365-43d2-ba3e-38340d6c5de0" d="M22.168,19.748l-.12-.1.119-.1,0,.022,0,.165Z"/>
      <path class="ade4be5a-e6a9-4baa-bfdf-ca2c9166cb45" d="M33.753,22.928c-.2-.045-.262-.212-.346-.363l.017-.019.163-.145a.552.552,0,0,0,.18.51Z"/>
      <path class="ade4be5a-e6a9-4baa-bfdf-ca2c9166cb45" d="M34.049,22.916l.026.054-.322-.042.014-.017Z"/>
      <path class="ffeb037e-d376-40c8-a4fc-bd636684c8ac" d="M33.3,22.494l-.006-.107.088.111-.03,0Z"/>
      <path class="ade4be5a-e6a9-4baa-bfdf-ca2c9166cb45" d="M33.407,22.565,33.35,22.5l.03,0,.044.048Z"/>
      <path class="e5887b26-f33a-4192-bcfb-c9860ac91b18" d="M34.049,22.916l-.282,0a.552.552,0,0,1-.18-.51l.021-.015.267-.006.249.173.053.116-.013.076-.039.042-.02.075-.043.04Z"/>
      <path class="ade4be5a-e6a9-4baa-bfdf-ca2c9166cb45" d="M34.177,22.669l-.053-.116.172.122Z"/>
      <path class="ade4be5a-e6a9-4baa-bfdf-ca2c9166cb45" d="M34.062,22.9l.043-.04Z"/>
      <path class="ade4be5a-e6a9-4baa-bfdf-ca2c9166cb45" d="M34.125,22.787l.039-.042Z"/>
      <path class="bcfaf42f-28ee-4174-ac58-f0b9dc0cae38" d="M34.941,25.208l.062.063Z"/>
      <path class="a51076f8-37b0-403c-bd5d-86bb4850ccee" d="M16.275,23.078c0-.016.006-.032.008-.049h0l.074-.048.058-.011c.274-.055.283-.046.218.229l-.114.186-.109.078Z"/>
      <path class="fa0df80d-f487-41b1-81cb-22e166e24e84" d="M16.275,23.078l.134.386a.4.4,0,0,1-.3.278c-.138.033-.276.062-.415.093l-.185-.282a.152.152,0,0,0,.007-.052h0l.168-.062c.036.043.07.088.108.13.134.148.221.128.353-.018s-.03-.262-.039-.392Z"/>
      <path class="bfd817a7-7026-447b-b02a-47f4d21c751f" d="M15.516,23.5a.152.152,0,0,1-.007.052h-.026l-.025,0Z"/>
      <path class="bad3a943-d0b6-4d95-8149-f603d342bb09" d="M14.976,26.083a.246.246,0,0,1-.047.01.152.152,0,0,1,.01-.047Z"/>
      <path class="bfd817a7-7026-447b-b02a-47f4d21c751f" d="M16.356,22.982l-.074.048Z"/>
      <path class="b16197f1-5331-4c80-ae2e-14016715c5ab" d="M16.107,23.158c.009.13.185.232.039.392s-.219.166-.353.018c-.038-.042-.072-.087-.108-.13Z"/>
      <path class="a5994f22-0ed0-46aa-8bf7-a9bbecddb981" d="M33.424,22.546,33.38,22.5l-.088-.111h0l-.046-.072-.006-.155.114-.016a.081.081,0,0,0,.048.016l.122.056,0,.01.063.039h0l.017.122-.021.015Z"/>
      <path class="ed48d417-bd43-4dc8-afb9-94b15ccc747d" d="M33.766,21.971l.12.07.061.046v0l-.423.069-.054-.008Z"/>
      <path class="ed48d417-bd43-4dc8-afb9-94b15ccc747d" d="M33.353,22.143l-.114.016C33.267,22.079,33.305,22.076,33.353,22.143Z"/>
      <path class="ffeb037e-d376-40c8-a4fc-bd636684c8ac" d="M33.47,22.146l.054.008v.061l-.122-.056Z"/>
      <path class="ffeb037e-d376-40c8-a4fc-bd636684c8ac" d="M33.245,22.314l.046.072Z"/>
      <path class="ade4be5a-e6a9-4baa-bfdf-ca2c9166cb45" d="M33.608,22.386l-.017-.122.284.116Z"/>
      <path class="ade4be5a-e6a9-4baa-bfdf-ca2c9166cb45" d="M33.59,22.264l-.063-.039Z"/>
      <path class="e9af3387-1ad8-4e18-a8fb-0ab1e039af64" d="M33.947,22.087l-.061-.046Z"/>
      <path class="a580b42a-3658-4cff-b86e-0789651ef68d" d="M22.343,19.547c.318-.186.506-.158.6.1.013.038-.042.1-.065.151l-.529,0,0-.013Z"/>
      <path class="a151871d-0877-4dc6-b684-f023f4777845" d="M22.346,19.8l.529,0A.352.352,0,0,1,22.346,19.8Z"/>
      <path class="bc4ac621-1ec7-4d55-95b7-1f09e89271a4" d="M22.343,19.547l.006.236-.175-.054,0-.165Z"/>
      <polygon class="bf061658-7862-4f55-bb79-f9ecaaf01cab" points="18.808 27.69 18.808 27.69 18.808 27.689 18.808 27.69"/>
    </g>
  </g>
</svg>
