<svg id="e4178ef1-162c-41b8-9e38-b796889c289b" data-name="Ebene 1" xmlns="http://www.w3.org/2000/svg" viewBox="0 0 50 50"><defs><style>.addc6425-b950-4a67-930a-d1a045b25f04{fill:#fff;}.bea6d495-bf12-4e72-ae48-e99642b19fc9{fill:#002e33;}.a0f3ea21-db6c-4f50-9329-e4970ab50b23{fill:#ccf7ec;}</style></defs><circle class="addc6425-b950-4a67-930a-d1a045b25f04" cx="25" cy="25" r="18.6"/><path class="bea6d495-bf12-4e72-ae48-e99642b19fc9" d="M35.61,14.39A15,15,0,1,0,25,40,15,15,0,0,0,35.61,14.39Z"/><path class="a0f3ea21-db6c-4f50-9329-e4970ab50b23" d="M25.11,20.51a4.23,4.23,0,0,0-4.21,3.38H19.07v1.44h1.72a4.3,4.3,0,0,0,4.32,3.94,4.09,4.09,0,0,0,3.77-1.83l-1.55-1a2.54,2.54,0,0,1-2.22,1,2.42,2.42,0,0,1-2.49-2.16h7.76l.49-1.44H29.1A4,4,0,0,0,25.11,20.51Zm-2.38,3.38A2.25,2.25,0,0,1,25,22.12a2,2,0,0,1,2.11,1.77Z"/><path class="a0f3ea21-db6c-4f50-9329-e4970ab50b23" d="M25,34.64v2A11.64,11.64,0,0,1,13.36,25h2A9.65,9.65,0,0,0,25,34.64Zm0-21.28v2A9.65,9.65,0,0,1,34.64,25h2A11.64,11.64,0,0,0,25,13.36Z"/></svg>