<svg id="f9935f2e-9a22-4911-925e-bd54c3cccccd" data-name="Ebene 1" xmlns="http://www.w3.org/2000/svg" viewBox="0 0 50 50"><defs><style>.add3da1b-6d06-4714-a823-fcae38958e16{fill:#fff;}.bd379ab6-690d-4e60-ba08-74360fece17d{fill:#515151;}</style></defs><circle class="add3da1b-6d06-4714-a823-fcae38958e16" cx="25" cy="25" r="18.6"/><path class="bd379ab6-690d-4e60-ba08-74360fece17d" d="M24.88,16.43h0a3,3,0,0,1-3-3v0a3,3,0,0,1,3-3h0a3,3,0,0,1,3,3v0A3,3,0,0,1,24.88,16.43Z"/><path class="bd379ab6-690d-4e60-ba08-74360fece17d" d="M24.88,28.28h0a3,3,0,0,1-3-3v-.05a3,3,0,0,1,3-3h0a3,3,0,0,1,3,3v.05A3,3,0,0,1,24.88,28.28Z"/><path class="bd379ab6-690d-4e60-ba08-74360fece17d" d="M16,25.24v.05a3,3,0,0,1-3,3h0a3,3,0,0,1-3-3v-.05a3,3,0,0,1,3-3h0A3,3,0,0,1,16,25.24Z"/><path class="bd379ab6-690d-4e60-ba08-74360fece17d" d="M24.84,33.57h0a3,3,0,0,1,3,3v0a3,3,0,0,1-3,3h0a3,3,0,0,1-3-3v0A3,3,0,0,1,24.84,33.57Z"/><path class="bd379ab6-690d-4e60-ba08-74360fece17d" d="M34,25.29v-.05a3,3,0,0,1,3-3h0a3,3,0,0,1,3,3v.05a3,3,0,0,1-3,3h0A3,3,0,0,1,34,25.29Z"/><path class="bd379ab6-690d-4e60-ba08-74360fece17d" d="M16.84,35a1.9,1.9,0,1,0-1.9-1.9A1.9,1.9,0,0,0,16.84,35Z"/><path class="bd379ab6-690d-4e60-ba08-74360fece17d" d="M16.84,18a1.9,1.9,0,1,0-1.9-1.9A1.9,1.9,0,0,0,16.84,18Z"/><path class="bd379ab6-690d-4e60-ba08-74360fece17d" d="M32.64,18a1.9,1.9,0,1,0-1.91-1.9A1.9,1.9,0,0,0,32.64,18Z"/><path class="bd379ab6-690d-4e60-ba08-74360fece17d" d="M32.64,35a1.9,1.9,0,1,0-1.9-1.9A1.9,1.9,0,0,0,32.64,35Z"/></svg>