<?xml version="1.0" encoding="UTF-8"?>
<svg id="Ebene_1" data-name="Ebene 1" xmlns="http://www.w3.org/2000/svg" width="50" height="50" xmlns:xlink="http://www.w3.org/1999/xlink" viewBox="0 0 50 50">
  <defs>
    <style>
      .cls-1 {
        fill: url(#linear-gradient);
      }

      .cls-1, .cls-2, .cls-3 {
        stroke-width: 0px;
      }

      .cls-4 {
        fill: #000;
      }

      .cls-2 {
        fill: #302e2d;
      }

      .cls-3 {
        fill: #fff;
      }
    </style>
    <linearGradient id="linear-gradient" x1="31.77" y1="-286.08" x2="15.3" y2="-296.56" gradientTransform="translate(0 -266.26) scale(1 -1)" gradientUnits="userSpaceOnUse">
      <stop offset=".37" stop-color="#ff97d6"/>
      <stop offset=".8" stop-color="#f8b994"/>
    </linearGradient>
  </defs>
  <path class="cls-4" d="M-259.05-47.57c-2.83-2.84-6.6-4.4-10.61-4.4-8.27,0-15,6.74-15,15.01s6.73,15.01,15,15.01c4.01,0,7.77-1.56,10.61-4.4,2.83-2.84,4.39-6.61,4.39-10.61,0-4.01-1.56-7.78-4.39-10.61Z"/>
  <circle class="cls-3" cx="25" cy="25" r="18.6"/>
  <g>
    <path class="cls-2" d="M25,10c8.29,0,15,6.72,15,15s-6.72,15-15,15-15-6.72-15-15,6.71-15,15-15Z"/>
    <path class="cls-1" d="M27.05,21.54l-2.05-2.06-2.05,2.06,2.05,2.06,2.05-2.06ZM32.43,21.45l-5.59,5.48c-1.02,1-2.67,1-3.69,0l-5.59-5.48-1.98,2.03,5.59,5.48c1.06,1.03,2.44,1.55,3.83,1.55s2.77-.52,3.83-1.55l5.59-5.48-1.99-2.03Z"/>
  </g>
</svg>