<?xml version="1.0" encoding="UTF-8"?>
<svg id="Ebene_1" data-name="Ebene 1" xmlns="http://www.w3.org/2000/svg" width="50" height="50" xmlns:xlink="http://www.w3.org/1999/xlink" viewBox="0 0 50 50">
  <defs>
    <style>
      .cls-1 {
        fill: #0c0c0c;
      }

      .cls-2, .cls-3 {
        fill: #fff;
      }

      .cls-3 {
        fill-rule: evenodd;
      }

      .cls-4 {
        fill: none;
      }

      .cls-5 {
        clip-path: url(#clippath-1);
      }
    </style>
    <clipPath id="clippath-1">
      <path class="cls-4" d="M35.61,14.39c-2.83-2.84-6.6-4.4-10.61-4.4-8.27,0-15,6.74-15,15.01s6.73,15.01,15,15.01c4.01,0,7.77-1.56,10.61-4.4,2.83-2.84,4.39-6.61,4.39-10.61,0-4.01-1.56-7.78-4.39-10.61Z"/>
    </clipPath>
  </defs>
  <circle class="cls-2" cx="25" cy="25" r="18.6"/>
  <g class="cls-5">
    <rect class="cls-1" x="5" y="5.51" width="40" height="40"/>
    <path class="cls-3" d="M33.24,16.73h-15.3l4.36,5.16c.72-.64,1.67-1.02,2.71-1.02,2.27,0,4.12,1.85,4.12,4.14,0,1.03-.38,1.97-1,2.7l5.11,4.42v-15.39ZM31.22,33.27l-4.05-4.76c-.63.39-1.37.62-2.17.62-2.27,0-4.12-1.85-4.12-4.14,0-.79.22-1.53.61-2.16l-4.72-4.13v14.57h14.46Z"/>
  </g>
  <path d="M-141.95,15.07c-2.83-2.84-6.6-4.4-10.61-4.4-8.27,0-15,6.74-15,15.01s6.73,15.01,15,15.01c4.01,0,7.77-1.56,10.61-4.4,2.83-2.84,4.39-6.61,4.39-10.61,0-4.01-1.56-7.78-4.39-10.61Z"/>
</svg>