<svg id="ad577c1b-debc-4294-8022-4b120443021c" data-name="Ebene 1" xmlns="http://www.w3.org/2000/svg" xmlns:xlink="http://www.w3.org/1999/xlink" viewBox="0 0 50 50">
  <defs>
    <style>
      .aea9d8c4-05e4-4e83-971f-ce8b9ec4737a {
        fill: none;
      }

      .e853d577-0b26-4c90-817c-191f8f899732 {
        fill: #fff;
      }

      .e4025a48-3377-4dd7-b21a-ffc088d7cff8 {
        clip-path: url(#e6443fc5-5036-4bfe-af7f-8734b3dfc430);
      }

      .b1d55738-a471-4946-ad1e-14b4b60acbdd {
        fill: #e21075;
        stroke: #000;
        stroke-miterlimit: 10;
        stroke-width: 1.224px;
      }
    </style>
    <clipPath id="e6443fc5-5036-4bfe-af7f-8734b3dfc430">
      <path class="aea9d8c4-05e4-4e83-971f-ce8b9ec4737a" d="M35.607,14.385A15.021,15.021,0,1,0,40,25,14.893,14.893,0,0,0,35.607,14.385Z"/>
    </clipPath>
  </defs>
  <circle class="e853d577-0b26-4c90-817c-191f8f899732" cx="25" cy="25" r="18.6"/>
  <g class="e4025a48-3377-4dd7-b21a-ffc088d7cff8">
    <rect class="b1d55738-a471-4946-ad1e-14b4b60acbdd" x="4.112" y="5.604" width="41.777" height="38.791"/>
  </g>
  <path class="e853d577-0b26-4c90-817c-191f8f899732" d="M25.412,34.038a9.584,9.584,0,0,1-5.485-1.449,5.88,5.88,0,0,1-2.5-3.709.458.458,0,0,1,.34-.54l3.087-.8a.509.509,0,0,1,.608.365,3.908,3.908,0,0,0,.676,1.405,3.405,3.405,0,0,0,1.414,1,6.111,6.111,0,0,0,1.863.275,3.888,3.888,0,0,0,2.242-.517,1.643,1.643,0,0,0,.725-1.345,1.327,1.327,0,0,0-.69-1.208,6.3,6.3,0,0,0-2.208-.724l-.966-.173a18.314,18.314,0,0,1-3.277-.931A6.116,6.116,0,0,1,18.857,24a4.144,4.144,0,0,1-.9-2.759,4.509,4.509,0,0,1,1.862-3.9,8.032,8.032,0,0,1,4.9-1.38,8.341,8.341,0,0,1,4.76,1.276,5.916,5.916,0,0,1,2.339,2.9.451.451,0,0,1-.3.583l-3.086.95a.526.526,0,0,1-.64-.352,2.508,2.508,0,0,0-1-1.357,3.653,3.653,0,0,0-2.07-.552,3.348,3.348,0,0,0-1.9.449,1.312,1.312,0,0,0-.656,1.173,1.355,1.355,0,0,0,.69,1.242,6.134,6.134,0,0,0,1.863.586l.966.173a19.635,19.635,0,0,1,3.484.931,5.524,5.524,0,0,1,2.484,1.621,4.074,4.074,0,0,1,.931,2.829,4.924,4.924,0,0,1-1.966,4.174,8.485,8.485,0,0,1-5.209,1.449Z"/>
</svg>
