<?xml version="1.0" encoding="UTF-8"?>
<svg id="Ebene_1" data-name="Ebene 1" xmlns="http://www.w3.org/2000/svg" width="50" height="50" xmlns:xlink="http://www.w3.org/1999/xlink" viewBox="0 0 50 50">
  <defs>
    <style>
      .cls-1 {
        fill: #00ec97;
      }

      .cls-2 {
        fill: #fff;
      }

      .cls-3 {
        fill: none;
      }

      .cls-4 {
        clip-path: url(#clippath);
      }
    </style>
    <clipPath id="clippath">
      <circle class="cls-3" cx="25" cy="25" r="15"/>
    </clipPath>
  </defs>
  <circle class="cls-2" cx="25" cy="25" r="18.6"/>
  <g class="cls-4">
    <g>
      <rect class="cls-1" x="8.98" y="8.98" width="32.04" height="32.04"/>
      <path d="M31.93,16.2c-.65,0-1.26.34-1.6.89l-3.68,5.46c-.12.18-.07.42.11.54.15.1.34.09.47-.03l3.62-3.14c.06-.05.15-.05.21.01.02.03.04.06.04.1v9.83c0,.08-.07.15-.15.15-.04,0-.08-.02-.11-.05l-10.95-13.1c-.36-.42-.88-.66-1.43-.66h-.38c-1.04,0-1.87.84-1.87,1.87v13.85c0,1.04.84,1.87,1.87,1.87.65,0,1.26-.34,1.6-.89l3.68-5.46c.12-.18.07-.42-.11-.54-.15-.1-.34-.09-.47.03l-3.62,3.14c-.06.05-.15.05-.21-.01-.02-.03-.04-.06-.04-.1v-9.84c0-.08.07-.15.15-.15.04,0,.08.02.11.05l10.95,13.11c.36.42.88.66,1.43.66h.38c1.04,0,1.88-.84,1.88-1.87v-13.85c0-1.04-.84-1.87-1.87-1.87h0Z"/>
    </g>
  </g>
</svg>