<svg id="f4e2761d-c834-4392-aa6c-dc4d70a0f005" data-name="Ebene 1" xmlns="http://www.w3.org/2000/svg" xmlns:xlink="http://www.w3.org/1999/xlink" viewBox="0 0 50 50"><defs><style>.acb57fff-b0d1-4c1c-934f-98ad72c2b6f3,.b0e6a1ad-b259-44fe-80e8-9666ef161434,.b15a160a-517e-41a7-8809-b59e5c1f1a3b{fill:#fff;}.b07c79f0-5555-46df-8d32-ac141421b55e{fill:#5e12a0;}.aa9fada0-e8b0-4105-8b46-7b830f048ca9{fill:url(#ebb522fe-60e1-4cec-81a7-c485c2eea577);}.fa6913db-1726-4018-9f5f-ad2f870c07fa{fill:url(#a6b46f30-3583-44b1-857a-0692bd4f7c35);}.a7a547d0-9cd5-4862-9031-5da1844a6d15{fill:#a98698;}.a4c23bbf-f5c7-487e-b87f-707929c249a2,.a72114d4-6c20-4efa-a26a-ab5f5f7743f5,.a7a547d0-9cd5-4862-9031-5da1844a6d15,.aa3ed89a-d8ed-4c98-9d33-ea2914fe68fe,.abd3b3fa-262d-4fb4-a3fd-77fe5236f2bf,.acec74cc-fbbd-4ea2-90cc-b4a575c43839,.b57b5ccd-d19f-48a6-89af-096ee9c60eee,.bc6e3710-4f4e-44bd-8dee-7d741b451a8f,.bc914b48-3d5a-4015-b0f8-2400ea4d9309,.e3fcccbe-b93b-4aa9-bb64-45efa6a3c816,.e82c9ae6-796e-4f42-8cdd-7ba0a98ff7e2,.e8fa1c8b-f613-488b-9665-5bbb346ee9e2{opacity:0.6;}.a419e7f0-c80f-44be-95d6-1cc8851de22c,.a4c23bbf-f5c7-487e-b87f-707929c249a2,.a72114d4-6c20-4efa-a26a-ab5f5f7743f5,.a7a547d0-9cd5-4862-9031-5da1844a6d15,.aa3ed89a-d8ed-4c98-9d33-ea2914fe68fe,.abd3b3fa-262d-4fb4-a3fd-77fe5236f2bf,.acb57fff-b0d1-4c1c-934f-98ad72c2b6f3,.acec74cc-fbbd-4ea2-90cc-b4a575c43839,.b0e6a1ad-b259-44fe-80e8-9666ef161434,.b57b5ccd-d19f-48a6-89af-096ee9c60eee,.bc6e3710-4f4e-44bd-8dee-7d741b451a8f,.bc914b48-3d5a-4015-b0f8-2400ea4d9309,.e82c9ae6-796e-4f42-8cdd-7ba0a98ff7e2,.e8fa1c8b-f613-488b-9665-5bbb346ee9e2{isolation:isolate;}.e82c9ae6-796e-4f42-8cdd-7ba0a98ff7e2{fill:url(#af0c2707-5288-4b5a-9eb2-4a92b90dbe0d);}.abd3b3fa-262d-4fb4-a3fd-77fe5236f2bf{fill:url(#ad009b4c-1f5c-4eb8-8815-56753761a028);}.b38c2a3b-1e49-4633-a186-ee8d03298257{fill:url(#e4cb971c-1e88-4da0-9e93-da84cce43bb7);}.acec74cc-fbbd-4ea2-90cc-b4a575c43839{fill:url(#a30eac65-d716-4abc-8dd7-223ce11be765);}.a419e7f0-c80f-44be-95d6-1cc8851de22c,.f52943f3-f492-437b-b355-7690f1f78ca6{opacity:0.7;}.a419e7f0-c80f-44be-95d6-1cc8851de22c{fill:url(#a060bb8c-26ff-4aa5-9e76-3aa89009c0e4);}.e91fa971-4f61-4057-a5ad-229809e49134{fill:url(#a2fb57f4-c9d2-4aba-97e8-aacd5b266582);}.bc6e3710-4f4e-44bd-8dee-7d741b451a8f{fill:url(#fd4125bb-53b5-4aad-9f22-c27f06d50165);}.acb57fff-b0d1-4c1c-934f-98ad72c2b6f3{opacity:0.2;}.e9865010-81a3-4afa-8d47-09387c78b5bd{opacity:0.4;}.a4c23bbf-f5c7-487e-b87f-707929c249a2{fill:url(#e10faf0a-34a1-4019-a3bf-b2e46a052098);}.b0e6a1ad-b259-44fe-80e8-9666ef161434{opacity:0.3;}.e8fa1c8b-f613-488b-9665-5bbb346ee9e2{fill:url(#f27b55ec-705a-462a-9492-74174affca0e);}.bc914b48-3d5a-4015-b0f8-2400ea4d9309{fill:url(#b7afbf1b-ac41-42e0-88c5-ac14833b899b);}.b57b5ccd-d19f-48a6-89af-096ee9c60eee{fill:url(#e1dfecce-684b-4252-a1f0-df2a086ce308);}.aa3ed89a-d8ed-4c98-9d33-ea2914fe68fe{fill:url(#a1df25c0-537d-4498-a0a3-fee883010971);}.a72114d4-6c20-4efa-a26a-ab5f5f7743f5{fill:url(#b9f114e2-eb08-44ec-80ad-958b79d7aa63);}</style><radialGradient id="ebb522fe-60e1-4cec-81a7-c485c2eea577" cx="-1136.84" cy="506.52" r="0.6" gradientTransform="matrix(15.6, -0.01, -0.02, -15.87, 17778.64, 8034.95)" gradientUnits="userSpaceOnUse"><stop offset="0" stop-color="#ffeaff" stop-opacity="0.6"/><stop offset="0.68" stop-color="#a087c9"/><stop offset="1" stop-color="#10002f"/></radialGradient><radialGradient id="a6b46f30-3583-44b1-857a-0692bd4f7c35" cx="-1182.59" cy="526.98" r="0.6" gradientTransform="matrix(38.17, -0.04, -0.04, -38.82, 45185.69, 20434.33)" xlink:href="#ebb522fe-60e1-4cec-81a7-c485c2eea577"/><linearGradient id="af0c2707-5288-4b5a-9eb2-4a92b90dbe0d" x1="22.23" y1="-36.7" x2="26.11" y2="-13.2" gradientTransform="matrix(1, 0, 0, -1, 0, 1.86)" gradientUnits="userSpaceOnUse"><stop offset="0" stop-color="#81ffff"/><stop offset="0.62" stop-color="#fff" stop-opacity="0"/></linearGradient><linearGradient id="ad009b4c-1f5c-4eb8-8815-56753761a028" x1="32.53" y1="-16.97" x2="22.69" y2="-25.84" gradientTransform="matrix(1, 0, 0, -1, 0, 1.86)" gradientUnits="userSpaceOnUse"><stop offset="0.29" stop-color="#fff"/><stop offset="0.78" stop-color="#fff" stop-opacity="0"/></linearGradient><linearGradient id="e4cb971c-1e88-4da0-9e93-da84cce43bb7" x1="13.02" y1="-30.5" x2="35.3" y2="-30.5" gradientTransform="matrix(1, 0, 0, -1, 0, 1.86)" gradientUnits="userSpaceOnUse"><stop offset="0" stop-color="#0002e9"/><stop offset="1" stop-color="#ff00c7"/></linearGradient><linearGradient id="a30eac65-d716-4abc-8dd7-223ce11be765" x1="36.41" y1="-25.9" x2="24.1" y2="-37.34" xlink:href="#ad009b4c-1f5c-4eb8-8815-56753761a028"/><linearGradient id="a060bb8c-26ff-4aa5-9e76-3aa89009c0e4" x1="13.02" y1="-30.5" x2="24.93" y2="-30.5" gradientTransform="matrix(1, 0, 0, -1, 0, 1.86)" gradientUnits="userSpaceOnUse"><stop offset="0" stop-color="#000292"/><stop offset="1" stop-color="#7d00c7"/></linearGradient><linearGradient id="a2fb57f4-c9d2-4aba-97e8-aacd5b266582" x1="13.05" y1="-25.88" x2="35.28" y2="-25.88" gradientTransform="matrix(1, 0, 0, -1, 0, 1.86)" gradientUnits="userSpaceOnUse"><stop offset="0" stop-color="#000292"/><stop offset="1" stop-color="#be00c7"/></linearGradient><linearGradient id="fd4125bb-53b5-4aad-9f22-c27f06d50165" x1="34.94" y1="-13.78" x2="33.31" y2="-16.39" xlink:href="#ad009b4c-1f5c-4eb8-8815-56753761a028"/><linearGradient id="e10faf0a-34a1-4019-a3bf-b2e46a052098" x1="22.81" y1="-33.25" x2="23.69" y2="-33.25" xlink:href="#ad009b4c-1f5c-4eb8-8815-56753761a028"/><linearGradient id="f27b55ec-705a-462a-9492-74174affca0e" x1="25.86" y1="-32.95" x2="26.75" y2="-32.95" xlink:href="#ad009b4c-1f5c-4eb8-8815-56753761a028"/><linearGradient id="b7afbf1b-ac41-42e0-88c5-ac14833b899b" x1="24.51" y1="-34.49" x2="25.17" y2="-34.49" xlink:href="#ad009b4c-1f5c-4eb8-8815-56753761a028"/><linearGradient id="e1dfecce-684b-4252-a1f0-df2a086ce308" x1="27.2" y1="-34.17" x2="27.87" y2="-34.17" xlink:href="#ad009b4c-1f5c-4eb8-8815-56753761a028"/><linearGradient id="a1df25c0-537d-4498-a0a3-fee883010971" x1="19.94" y1="-32.67" x2="21.39" y2="-32.67" xlink:href="#ad009b4c-1f5c-4eb8-8815-56753761a028"/><linearGradient id="b9f114e2-eb08-44ec-80ad-958b79d7aa63" x1="28.54" y1="-30.26" x2="29.99" y2="-30.26" xlink:href="#ad009b4c-1f5c-4eb8-8815-56753761a028"/></defs><circle class="b15a160a-517e-41a7-8809-b59e5c1f1a3b" cx="25" cy="25" r="18.6"/><path class="b07c79f0-5555-46df-8d32-ac141421b55e" d="M38.12,15.67c-.29-1.13-1.23-2.26-2.93-3.51a7.24,7.24,0,0,0-4-1.58,3.41,3.41,0,0,0-.65.07,1.89,1.89,0,0,0-1.27,1.06,2.83,2.83,0,0,0-.21,2.16,5.48,5.48,0,0,0,.31.57,7.45,7.45,0,0,1-1.82.9A12.43,12.43,0,0,1,34.4,21l0-.26A10.17,10.17,0,0,1,35,18.42a3,3,0,0,0,.88.13,2.24,2.24,0,0,0,1.87-.9A2.33,2.33,0,0,0,38.12,15.67Z"/><path class="aa9fada0-e8b0-4105-8b46-7b830f048ca9" d="M35.11,17.81c1.91.53,2.68-1,2.43-2a6.66,6.66,0,0,0-2.71-3.17,5.71,5.71,0,0,0-4.13-1.4c-1,.21-1.3,1.77-1,2.36a4.24,4.24,0,0,0,.65,1c-.4.28-.78.49-1.09.69a12.41,12.41,0,0,1,4.86,3.93,11.25,11.25,0,0,1,.55-1.53A2,2,0,0,1,35.11,17.81Z"/><path class="fa6913db-1726-4018-9f5f-ad2f870c07fa" d="M24.21,38.71A11.92,11.92,0,1,0,12.48,26.8,11.82,11.82,0,0,0,24.21,38.71Z"/><path class="a7a547d0-9cd5-4862-9031-5da1844a6d15" d="M36.57,14.86A7.74,7.74,0,0,0,32,12.35c-1.26-.3-.92-1,.61-.87a3.69,3.69,0,0,0-1.93-.21c-1,.21-1.3,1.77-1,2.36a4.24,4.24,0,0,0,.65,1,16.62,16.62,0,0,1-1.45.88,7.12,7.12,0,0,1,.69.34,10.37,10.37,0,0,1,1.49,1c-1.17-1-.92-1.49.69-2.64a2.31,2.31,0,0,1,2.29.12,8.82,8.82,0,0,1,1.86,1.58l-1,1.87.19.07a2.25,2.25,0,0,0,1.47,0C37,17.53,38.17,16.59,36.57,14.86Z"/><path class="b07c79f0-5555-46df-8d32-ac141421b55e" d="M32,13.38a9.33,9.33,0,0,1,1.64.91,11.76,11.76,0,0,1,1.93,1.6,11.3,11.3,0,0,0-1.51,3.26c.15.21.32.43.46.64a19.34,19.34,0,0,1,.73-2.11,1.42,1.42,0,0,0,.3,0,1.14,1.14,0,0,0,.77-.24.86.86,0,0,0,.34-.79c0-.4-.32-.91-1-1.53A14.19,14.19,0,0,0,34,13.76c-1.8-1.22-3.06-1.56-3.62-1A1.07,1.07,0,0,0,30.14,14c-.67.45-1.24.77-1.61,1,.25.08.48.19.73.29A18.94,18.94,0,0,0,32,13.38Zm4,3a.6.6,0,0,1,.08.28.39.39,0,0,1-.1.3.82.82,0,0,1-.4.1A4.58,4.58,0,0,1,36,16.42Zm-5.18-3.17c.06-.07.23-.11.5-.07-.21.17-.42.32-.63.47A.41.41,0,0,1,30.79,13.25Z"/><path class="b07c79f0-5555-46df-8d32-ac141421b55e" d="M24.19,14.17A12.62,12.62,0,1,0,36.6,26.78,12.52,12.52,0,0,0,24.19,14.17Zm0,24.54a11.92,11.92,0,1,1,11.7-11.93A11.82,11.82,0,0,1,24.21,38.71Z"/><path class="e82c9ae6-796e-4f42-8cdd-7ba0a98ff7e2" d="M24.21,38.71A11.92,11.92,0,1,0,12.48,26.8,11.82,11.82,0,0,0,24.21,38.71Z"/><path class="a7a547d0-9cd5-4862-9031-5da1844a6d15" d="M24.12,37.26a12,12,0,0,1-5.8-20.76,12,12,0,0,0,4,22.06,11.57,11.57,0,0,0,9.54-2.76A11.59,11.59,0,0,1,24.12,37.26Z"/><path class="abd3b3fa-262d-4fb4-a3fd-77fe5236f2bf" d="M26.05,15a11.55,11.55,0,0,0-8.17,1.72l-.08.08a15.49,15.49,0,0,1,2.22-1,11.05,11.05,0,0,0-4.44,4.28c1.32-2.6,5.19-4.43,8.23-4.57s5,.79,7.46,2.77,3.91,6.09,3.76,9.33a13.11,13.11,0,0,1-1.79,5.87,15.77,15.77,0,0,0,2.28-3.76c.08-.34.16-.68.21-1A11.85,11.85,0,0,0,26.05,15Z"/><path class="b38c2a3b-1e49-4633-a186-ee8d03298257" d="M35.33,26.67a11.14,11.14,0,1,1-22.28,0Z"/><g class="e3fcccbe-b93b-4aa9-bb64-45efa6a3c816"><path class="acec74cc-fbbd-4ea2-90cc-b4a575c43839" d="M34.45,26.68A11.26,11.26,0,0,1,23.77,38h.44A11.23,11.23,0,0,0,35.33,26.67Z"/></g><g class="f52943f3-f492-437b-b355-7690f1f78ca6"><path class="a419e7f0-c80f-44be-95d6-1cc8851de22c" d="M14.62,26.69H13.05A11.23,11.23,0,0,0,24.19,38c.27,0,.52,0,.77,0A11.28,11.28,0,0,1,14.62,26.69Z"/></g><path class="e91fa971-4f61-4057-a5ad-229809e49134" d="M35.31,26.78c0-1.3-2.23-2-5.18-2.3a17.67,17.67,0,0,0-6.77.82,13.2,13.2,0,0,1-5.47.37c-3.12-.36-4.84-.4-4.84,1.13,0,2.22,4.45,5,11.11,4,3.37-.49,5.11-1.5,7.1-2.18C33.42,27.91,35.31,27.93,35.31,26.78Z"/><path class="b15a160a-517e-41a7-8809-b59e5c1f1a3b" d="M27.84,21.42A1.92,1.92,0,1,0,26,19.5,1.89,1.89,0,0,0,27.84,21.42Z"/><path class="b15a160a-517e-41a7-8809-b59e5c1f1a3b" d="M30.92,22.84a.81.81,0,1,0-.8-.81A.8.8,0,0,0,30.92,22.84Z"/><g class="e3fcccbe-b93b-4aa9-bb64-45efa6a3c816"><path class="bc6e3710-4f4e-44bd-8dee-7d741b451a8f" d="M33.77,18h0a.25.25,0,0,1-.19-.3,4.83,4.83,0,0,1,1-2,.24.24,0,0,1,.34,0,.26.26,0,0,1,0,.35A4.49,4.49,0,0,0,34,17.76.23.23,0,0,1,33.77,18Z"/></g><path class="acb57fff-b0d1-4c1c-934f-98ad72c2b6f3" d="M23.43,35.68a.59.59,0,0,0,.59-.6.58.58,0,0,0-.59-.59.59.59,0,0,0-.58.6A.58.58,0,0,0,23.43,35.68Z"/><g class="e9865010-81a3-4afa-8d47-09387c78b5bd"><path class="a4c23bbf-f5c7-487e-b87f-707929c249a2" d="M23.1,35.47a.6.6,0,0,1,0-.85,1.2,1.2,0,0,1,.12-.11.39.39,0,0,0-.21.13.6.6,0,0,0,.71,1A.58.58,0,0,1,23.1,35.47Z"/></g><path class="b0e6a1ad-b259-44fe-80e8-9666ef161434" d="M23.64,34.91a.12.12,0,0,0,.13-.12.13.13,0,0,0-.26,0A.12.12,0,0,0,23.64,34.91Z"/><path class="acb57fff-b0d1-4c1c-934f-98ad72c2b6f3" d="M26.49,35.38a.59.59,0,0,0,.59-.6.58.58,0,0,0-.59-.59.59.59,0,0,0-.59.59A.61.61,0,0,0,26.49,35.38Z"/><g class="e9865010-81a3-4afa-8d47-09387c78b5bd"><path class="e8fa1c8b-f613-488b-9665-5bbb346ee9e2" d="M26.16,35.17a.6.6,0,0,1,0-.85l.13-.11a.39.39,0,0,0-.21.13.6.6,0,0,0,.71,1A.57.57,0,0,1,26.16,35.17Z"/></g><path class="b0e6a1ad-b259-44fe-80e8-9666ef161434" d="M26.7,34.61a.13.13,0,0,0,.13-.13.12.12,0,0,0-.13-.12.13.13,0,0,0-.13.13A.12.12,0,0,0,26.7,34.61Z"/><path class="acb57fff-b0d1-4c1c-934f-98ad72c2b6f3" d="M25,36.77a.45.45,0,0,0,0-.9.45.45,0,0,0,0,.9Z"/><g class="e9865010-81a3-4afa-8d47-09387c78b5bd"><path class="bc914b48-3d5a-4015-b0f8-2400ea4d9309" d="M24.73,36.6a.47.47,0,0,1,0-.64.5.5,0,0,0,.08-.07.53.53,0,0,0-.14.11.47.47,0,0,0,0,.64.43.43,0,0,0,.54.06A.43.43,0,0,1,24.73,36.6Z"/></g><path class="b0e6a1ad-b259-44fe-80e8-9666ef161434" d="M25.13,36.17a.08.08,0,0,0,.08-.09.08.08,0,0,0-.08-.08.08.08,0,0,0-.08.09A.08.08,0,0,0,25.13,36.17Z"/><path class="acb57fff-b0d1-4c1c-934f-98ad72c2b6f3" d="M27.69,36.45a.46.46,0,0,0,.44-.45.45.45,0,0,0-.44-.45.44.44,0,0,0-.44.45A.45.45,0,0,0,27.69,36.45Z"/><g class="e9865010-81a3-4afa-8d47-09387c78b5bd"><path class="b57b5ccd-d19f-48a6-89af-096ee9c60eee" d="M27.43,36.28a.49.49,0,0,1,0-.64l.09-.07a.42.42,0,0,0-.15.11.47.47,0,0,0,0,.64.44.44,0,0,0,.55.06A.47.47,0,0,1,27.43,36.28Z"/></g><path class="b0e6a1ad-b259-44fe-80e8-9666ef161434" d="M27.83,35.85a.09.09,0,0,0,.09-.09.09.09,0,0,0-.09-.08.09.09,0,0,0-.08.08A.09.09,0,0,0,27.83,35.85Z"/><path class="acb57fff-b0d1-4c1c-934f-98ad72c2b6f3" d="M20.94,35.47a1,1,0,1,0-1-1A1,1,0,0,0,20.94,35.47Z"/><g class="e9865010-81a3-4afa-8d47-09387c78b5bd"><path class="aa3ed89a-d8ed-4c98-9d33-ea2914fe68fe" d="M20.39,35.11a1,1,0,0,1,0-1.39,1.13,1.13,0,0,1,.21-.15,1.06,1.06,0,0,0-.33.22,1,1,0,0,0,0,1.38.93.93,0,0,0,1.17.15A.92.92,0,0,1,20.39,35.11Z"/></g><path class="b0e6a1ad-b259-44fe-80e8-9666ef161434" d="M21.27,34.19a.21.21,0,0,0,0-.42.21.21,0,1,0,0,.42Z"/><path class="acb57fff-b0d1-4c1c-934f-98ad72c2b6f3" d="M29.55,33.05a1,1,0,1,0-1-1A1,1,0,0,0,29.55,33.05Z"/><g class="e9865010-81a3-4afa-8d47-09387c78b5bd"><path class="a72114d4-6c20-4efa-a26a-ab5f5f7743f5" d="M29,32.69a1,1,0,0,1,0-1.38.62.62,0,0,1,.21-.15.89.89,0,0,0-.33.21,1,1,0,0,0,0,1.39A.93.93,0,0,0,30,32.9.93.93,0,0,1,29,32.69Z"/></g><path class="b0e6a1ad-b259-44fe-80e8-9666ef161434" d="M29.88,31.77a.21.21,0,1,0,0-.42.21.21,0,1,0,0,.42Z"/></svg>