<svg id="e456b81a-02d1-4a52-82ad-2eca0dcf7134" data-name="Ebene 1" xmlns="http://www.w3.org/2000/svg" viewBox="0 0 50 50"><defs><style>.a067bd08-cc93-43bb-a5bd-aef83680c986,.acc31bf3-9c45-4155-baeb-d7f4fcc068f3{fill:#fff;}.ad93d5d4-3a2d-4bcd-9e4e-9de2ee82cc0e{fill:#f0827d;}.a067bd08-cc93-43bb-a5bd-aef83680c986{fill-rule:evenodd;}</style></defs><circle class="acc31bf3-9c45-4155-baeb-d7f4fcc068f3" cx="25" cy="25" r="18.6"/><g id="b90d0d76-c1a9-4066-b15d-6aac3efe62f0" data-name="layer1"><ellipse id="b07f2704-0efa-41b8-a970-2344df3c914a" data-name="path1248" class="ad93d5d4-3a2d-4bcd-9e4e-9de2ee82cc0e" cx="25" cy="25" rx="15" ry="14.82"/><ellipse id="a495d7c1-e85c-4963-8aaa-93a38bff7a39" data-name="path1202" class="acc31bf3-9c45-4155-baeb-d7f4fcc068f3" cx="25.05" cy="24.99" rx="12.74" ry="12.43"/><ellipse id="a73eef98-3c3f-4040-8182-62ff7d5f42a8" data-name="path1206" class="ad93d5d4-3a2d-4bcd-9e4e-9de2ee82cc0e" cx="25.08" cy="25.06" rx="12.02" ry="11.76"/><g id="b21ff64d-a328-4b43-b1d9-9ede0e48fbb1" data-name="g1246"><g id="a1d024e9-fe40-4877-8274-c474287e770c" data-name="g1210"><path id="a5a9ec7d-f4b9-4c82-9d25-289154eabec9" data-name="path1208" class="a067bd08-cc93-43bb-a5bd-aef83680c986" d="M25.74,20.62a.4.4,0,0,0-.37-.42h0a.4.4,0,0,0-.38.42v9.74a.41.41,0,0,0,.38.43h0a.4.4,0,0,0,.37-.43V20.62Z"/></g><g id="a23b851a-5703-4407-b840-3134fc727899" data-name="g1214"><path id="f5a7f32f-c921-41a1-93f1-079c1b4b2fac" data-name="path1212" class="a067bd08-cc93-43bb-a5bd-aef83680c986" d="M24.22,28.65a.4.4,0,0,0-.37.42h0a.4.4,0,0,0,.37.42h2.26a.4.4,0,0,0,.37-.42h0a.4.4,0,0,0-.37-.42Z"/></g><g id="bea311ec-e065-44df-a898-001c1c3b4f82" data-name="g1218"><path id="a41598c7-e00a-4844-9c42-2470a4f2168f" data-name="path1216" class="a067bd08-cc93-43bb-a5bd-aef83680c986" d="M22.37,23.13a.4.4,0,0,0-.38.42h0a.41.41,0,0,0,.38.43h6a.4.4,0,0,0,.38-.42h0a.4.4,0,0,0-.38-.42Z"/></g><g id="a56fe050-db4d-4cde-95e5-eb25396b8946" data-name="g1222"><path id="b138ff66-3b44-4b07-a776-9a21cc2889f2" data-name="path1220" class="a067bd08-cc93-43bb-a5bd-aef83680c986" d="M23.61,21a.35.35,0,0,0-.54,0h0a.48.48,0,0,0,0,.6l4.05,4.53a.35.35,0,0,0,.53,0h0a.47.47,0,0,0,0-.6Z"/></g><g id="e3b89a30-322b-4b0e-95f0-538fe8004911" data-name="g1226"><path id="b3ea0b41-23db-44ad-8d25-c6126b013579" data-name="path1224" class="a067bd08-cc93-43bb-a5bd-aef83680c986" d="M23.08,25.54a.44.44,0,0,0,0,.59h0a.34.34,0,0,0,.53,0l4-4.54a.46.46,0,0,0,0-.6h0a.35.35,0,0,0-.53,0Z"/></g></g></g></svg>