<?xml version="1.0" encoding="UTF-8"?>
<svg id="uuid-129c13be-bd3a-4e05-97f8-e2c2afed7a7a" data-name="Ebene 1" xmlns="http://www.w3.org/2000/svg" xmlns:xlink="http://www.w3.org/1999/xlink" viewBox="0 0 50 50">
  <defs>
    <style>
      .uuid-7550a147-7ea3-47bb-b60a-e034646b2e56 {
        clip-path: url(#uuid-a2c5871a-32ac-4ea2-b41e-f6eeb47d979a);
      }

      .uuid-a7787599-309c-47cc-9ee7-f28228437ffb {
        fill: #fdfdfe;
      }

      .uuid-a7787599-309c-47cc-9ee7-f28228437ffb, .uuid-006a675b-e7f9-45a0-9de9-0495cd568e86, .uuid-c7dcb93d-0653-4232-b360-f92ccfb50d7d, .uuid-c42f82e4-3edd-47ec-81a5-9fb30c7e03fa {
        stroke-width: 0px;
      }

      .uuid-006a675b-e7f9-45a0-9de9-0495cd568e86 {
        fill: #7b2bf8;
      }

      .uuid-c7dcb93d-0653-4232-b360-f92ccfb50d7d {
        fill: none;
      }

      .uuid-c42f82e4-3edd-47ec-81a5-9fb30c7e03fa {
        fill: #fff;
      }
    </style>
    <clipPath id="uuid-a2c5871a-32ac-4ea2-b41e-f6eeb47d979a">
      <path class="uuid-c7dcb93d-0653-4232-b360-f92ccfb50d7d" d="m35.61,14.39c-2.83-2.84-6.6-4.4-10.61-4.4-8.27,0-15,6.74-15,15.01s6.73,15.01,15,15.01c4.01,0,7.77-1.56,10.61-4.4,2.83-2.84,4.39-6.61,4.39-10.61,0-4.01-1.56-7.78-4.39-10.61Z"/>
    </clipPath>
  </defs>
  <circle class="uuid-c42f82e4-3edd-47ec-81a5-9fb30c7e03fa" cx="25" cy="25" r="18.6"/>
  <g class="uuid-7550a147-7ea3-47bb-b60a-e034646b2e56">
    <g>
      <path class="uuid-006a675b-e7f9-45a0-9de9-0495cd568e86" d="m24.29,9.67h1.38c8.24.24,15.14,7.78,14.64,16.02-.61,13.13-16.58,19.5-26.01,10.31-9.6-9.31-3.35-25.71,9.99-26.33Zm11.97,15.35c-.31-14.85-22.18-14.76-22.54-.16.11,14.95,22.29,14.98,22.54.16Z"/>
      <path class="uuid-a7787599-309c-47cc-9ee7-f28228437ffb" d="m36.27,25.02c-.26,14.82-22.44,14.79-22.54-.16.36-14.6,22.23-14.69,22.54.16Zm-4.01-.44c-.04-2.46-.4-5.32-1.67-7.53-1.38-2.4-3.19-1.99-4.42.27-.11.19-.06.34.15.42,1.7.66,3.28,1.54,4.74,2.64.46.32.47.9.55,1.4.06.37-.15.69-.52.78-.53.13-1.05.28-1.56.46-1.51.5-2.96,1.15-4.37,1.88-.17.09-.3,0-.29-.19.05-.28-.09-.68.22-.83,1.9-.95,3.86-1.77,5.93-2.26-2.84-2.56-7.3-4.37-11.33-3.96-2.09.19-4.19,1.61-3.89,3.94.28,2.26,1.84,4.09,3.48,5.55.19.17.46.16.66,0,1.02-.8,2.1-1.53,3.22-2.2.24-.14.36-.36.37-.63.08-1.85.37-3.7.96-5.46.1-.35.46-.16.7-.09.19.06.26.2.19.39-.14.43-.27.87-.38,1.31-.52,2.17-.65,4.42-.49,6.64.07,1.02.23,2.02.46,3.02.12.5-.49.59-.83.74-.68.32-2.71-1.11-3.42-1.49-2.42-1.57-4.68-3.69-5.61-6.49-.39-.74-.47,2.26-.44,2.44.03,1.08.23,2.13.59,3.15.13.32,1.11,2.92,1.52,2.18.34-.73.86-1.34,1.4-1.93.28-.31.45-.35.79-.06.18.16.21.39.04.56-.33.34-.65.7-.93,1.09-.4.56-1.08,1.66-.13,2.03,3.95.95,11.07-3.06,14.17-5.5.05-.04.07-.08.08-.15.05-.65.08-1.29.08-2.12Zm-7.28,10.75c.29-.03,1.37.04,1.48-.2.06-.2-.49-.51-.6-.73-.51-.61-.87-1.29-1.17-2.02-.07-.16-.17-.2-.32-.14-1.58.59-3.19,1.08-4.89,1.2-.19.03-.13.26.02.31,1.67,1.05,3.5,1.57,5.48,1.58Zm-.07-20.66c-2.07,0-4.18.67-5.88,1.89-.15.08-.08.28.09.22,1.86-.32,3.77-.08,5.57.41.28.08.47,0,.62-.26.39-.69.84-1.32,1.46-1.82.48-.48-1.56-.4-1.86-.44Zm3.3,20.06c1.22-.08,1.95-1.25,2.47-2.22.04-.07.04-.14,0-.2-.05-.07-.11-.09-.19-.08-.72.05-1.43.03-2.15-.05-.84-.09-1.67-.26-2.48-.48-.67-.04-.03.82.08,1.1.48.87,1.18,1.9,2.28,1.93Zm-4.25-4.68c-.15-.91-.34-1.83-.39-2.76-.04-.46-.06-.91-.07-1.37,0-.07-.01-.08-.08-.04-1.04.63-2.05,1.32-3,2.08-.05.04-.06.06,0,.1,1.1.79,2.3,1.44,3.54,1.99Zm5.8,1.28c.25-.06,1.46.11,1.58-.39.28-.84.48-1.69.63-2.56.03-.11-.11-.2-.19-.12-1.37,1-2.83,1.86-4.33,2.63-.06.03-.09.07-.08.13,0,.07.06.09.12.1.69.12,1.38.2,2.28.21Zm5.03-3.5c-.03-.45-.05-2.06-.65-1.56-.35.45-1.02.71-1.12,1.31-.07.58-.16,1.16-.28,1.73,0,.3-.43,1.26-.21,1.39.12.11.26.01.38-.05,1.2-.63,1.85-1.6,1.87-2.83Zm-.39-6.47c.85.04-2.02-4-2.42-3.87-.08.05-.06.14-.02.21.42,1.02.7,2.08.9,3.16.16.69,1.05.32,1.54.5Zm-.72.85c-.21-.04-.49.09-.29.31.38.45.75.91,1.06,1.41.35.37.54-.37.62-.62.29-.89-.73-1.09-1.39-1.11Zm-.5,2.68h0c.05.15-.15,1.09.18.83.18-.27.74-.52.55-.88-.53-.88-.8-1.4-.73.05Zm-.61,7.08c-.05-.25-.38,0-.54,0-.21.09-.21.39-.33.57-.03.06-.03.11.03.15.06.04.11.02.16-.02.22-.23.52-.43.68-.7Zm2.76-6.81h0c.05-.3-.19-.14-.17.03.02.06.02.15.1.15.1,0,.05-.12.06-.18Z"/>
      <path class="uuid-006a675b-e7f9-45a0-9de9-0495cd568e86" d="m32.25,24.58c0,.82-.03,1.47-.08,2.12,0,.06-.03.11-.08.15-3.09,2.44-10.21,6.45-14.17,5.5-.95-.36-.26-1.47.13-2.03.28-.39.6-.74.93-1.09.17-.17.15-.4-.04-.56-.33-.29-.51-.25-.79.06-.54.59-1.06,1.2-1.4,1.93-.09.19-.31.18-.43,0-1.5-2.25-2.03-5.11-1.47-7.76.01-.17.2-.18.23-.01.93,2.8,3.2,4.92,5.61,6.49.71.38,2.73,1.81,3.42,1.49.34-.15.94-.24.83-.74-.23-.99-.39-2-.46-3.02-.16-2.22-.03-4.47.49-6.64.11-.44.23-.88.38-1.31.06-.19,0-.32-.19-.39-.24-.07-.6-.26-.7.09-.59,1.76-.87,3.61-.96,5.46-.01.27-.14.49-.37.63-1.12.66-2.19,1.39-3.22,2.2-.2.16-.47.16-.66,0-1.64-1.46-3.21-3.3-3.48-5.55-.31-2.31,1.81-3.76,3.89-3.94,4.03-.41,8.49,1.4,11.33,3.96-2.07.49-4.03,1.31-5.93,2.26-.13.06-.19.16-.19.3.03.23-.18.9.27.71,1.41-.74,2.86-1.38,4.37-1.88.52-.17,1.04-.33,1.56-.46.37-.09.58-.41.52-.78-.08-.5-.09-1.08-.55-1.4-1.46-1.1-3.04-1.98-4.74-2.64-.21-.08-.26-.23-.15-.42,1.22-2.24,3.04-2.68,4.42-.27,1.27,2.21,1.63,5.07,1.67,7.53Z"/>
      <path class="uuid-006a675b-e7f9-45a0-9de9-0495cd568e86" d="m24.97,35.33c-1.97-.01-3.8-.53-5.48-1.58-.15-.05-.22-.27-.02-.31,7.09-.88,3.78-2.69,6.38.96.11.22.66.53.6.73-.1.24-1.2.17-1.48.2Z"/>
      <path class="uuid-006a675b-e7f9-45a0-9de9-0495cd568e86" d="m24.9,14.68c.31.03,2.34-.05,1.86.44-.62.5-1.08,1.13-1.46,1.82-.14.25-.34.34-.62.26-1.81-.49-3.72-.74-5.57-.41-.16.06-.25-.14-.09-.22,1.7-1.21,3.81-1.88,5.88-1.89Z"/>
      <path class="uuid-006a675b-e7f9-45a0-9de9-0495cd568e86" d="m28.2,34.73c-1.1-.04-1.8-1.06-2.28-1.93-.11-.29-.75-1.15-.08-1.1.82.23,1.64.39,2.48.48.71.08,1.43.1,2.15.05.08,0,.15.01.19.08.05.06.04.13,0,.2-.52.97-1.25,2.14-2.47,2.22Z"/>
      <path class="uuid-006a675b-e7f9-45a0-9de9-0495cd568e86" d="m23.95,30.05c-1.24-.55-2.43-1.19-3.54-1.99-.06-.04-.06-.06,0-.1.95-.76,1.96-1.45,3-2.08.07-.04.08-.02.08.04.01.46.03.91.07,1.37.06.93.24,1.85.39,2.76Z"/>
      <path class="uuid-006a675b-e7f9-45a0-9de9-0495cd568e86" d="m29.75,31.33c-.9-.01-1.6-.09-2.28-.21-.06-.01-.11-.04-.12-.1,0-.07.03-.1.08-.13,1.51-.77,2.96-1.63,4.33-2.63.09-.08.23,0,.19.12-.15.87-.34,1.72-.63,2.56-.12.5-1.33.34-1.58.39Z"/>
      <path class="uuid-006a675b-e7f9-45a0-9de9-0495cd568e86" d="m34.78,27.83c-.02,1.27-.77,2.3-2.01,2.9-.09.04-.17.04-.24-.02-.22-.12.21-1.1.21-1.39.12-.57.21-1.15.28-1.73.09-.6.76-.87,1.12-1.31.6-.51.62,1.11.65,1.56Z"/>
      <path class="uuid-006a675b-e7f9-45a0-9de9-0495cd568e86" d="m34.39,21.36c-.49-.17-1.39.19-1.54-.5-.2-1.08-.48-2.14-.9-3.16-.03-.07-.06-.17.02-.21.38-.15,3.28,3.9,2.42,3.87Z"/>
      <path class="uuid-006a675b-e7f9-45a0-9de9-0495cd568e86" d="m33.68,22.22c.66.02,1.69.22,1.39,1.11-.08.25-.28.99-.62.62-.31-.5-.68-.97-1.06-1.41-.2-.23.08-.36.29-.31Z"/>
      <path class="uuid-006a675b-e7f9-45a0-9de9-0495cd568e86" d="m33.17,24.9c-.07-1.45.21-.93.73-.05.2.36-.37.62-.55.88-.33.26-.13-.68-.18-.83h0Z"/>
      <path class="uuid-006a675b-e7f9-45a0-9de9-0495cd568e86" d="m32.56,31.99c-.15.27-.46.47-.68.7-.05.04-.1.06-.16.02-.06-.04-.06-.09-.03-.15.12-.18.12-.48.33-.57.16,0,.49-.25.54,0Z"/>
      <path class="uuid-006a675b-e7f9-45a0-9de9-0495cd568e86" d="m35.32,25.18c-.01.06.04.18-.06.18-.08,0-.09-.09-.1-.15-.02-.18.22-.33.17-.03h0Z"/>
    </g>
  </g>
</svg>