<svg id="bfec1826-49b6-4b44-9543-73319c200b04" data-name="Ebene 1" xmlns="http://www.w3.org/2000/svg" xmlns:xlink="http://www.w3.org/1999/xlink" viewBox="0 0 50 50"><defs><style>.e5e5da59-2928-4ae9-9c0c-af64f99491c5{fill:none;}.ae692aea-ee82-4d89-b269-b55b22f85fbb{fill:#fff;}.e585a695-d218-4311-8b2d-46bc8dd2880b{clip-path:url(#ff340764-6958-467f-9249-e8bedfd1c66b);}.a5ff1afd-efae-4804-bf09-9706807c0b52{fill:#283137;}.f359d0c8-f2dc-4e44-8897-08049db84897{fill:#607d8a;}.ebed521e-0b58-4a78-88af-944c32f87029{fill:#e03a36;}.ac953757-9e0c-4a49-ba91-9aaf20085be8{fill:#556e78;}.ae101f0c-f541-44c2-b9fb-6695ce2f85db{fill:#0e161a;}.f60e0991-1f3e-4d68-9143-7c674815c86a{fill:#f8fafa;}</style><clipPath id="ff340764-6958-467f-9249-e8bedfd1c66b"><path class="e5e5da59-2928-4ae9-9c0c-af64f99491c5" d="M35.607,14.385A15.021,15.021,0,1,0,40,25,14.893,14.893,0,0,0,35.607,14.385Z"/></clipPath></defs><circle class="ae692aea-ee82-4d89-b269-b55b22f85fbb" cx="25" cy="25" r="18.6"/><g class="e585a695-d218-4311-8b2d-46bc8dd2880b"><path class="a5ff1afd-efae-4804-bf09-9706807c0b52" d="M39.887,25.037q0,7.277.007,14.553c0,.255-.05.3-.3.3q-14.591-.012-29.18,0c-.255,0-.3-.049-.3-.3q.012-14.591,0-29.18c0-.255.049-.3.3-.3q14.591.012,29.18,0c.254,0,.3.049.3.3Q39.881,17.724,39.887,25.037ZM23.077,37.125l-.025-.013.032.014a3.4,3.4,0,0,0,.76.612c.681.527.686.522,1.151-.16a13.45,13.45,0,0,0,1.828.075.8.8,0,0,1,.466.119,4.706,4.706,0,0,1,.263,1.064c.034.186.083.317.323.313.843-.014,1.686.012,2.528-.014a1.973,1.973,0,0,0,1.934-1.492,4,4,0,0,0,.122-1.287q.007-4.033-.005-8.067c0-.349.087-.474.456-.469,1.375.021,2.751,0,4.126.015.259,0,.343-.066.342-.327q-.015-4.035-.005-8.068c0-.284-.1-.364-.366-.362-.78.009-1.561,0-2.342,0,.026-.282.048-.566.077-.848a1.155,1.155,0,0,0-.525-1.147c-.324-.224-.63-.476-.944-.715.1,0,.2-.014.3-.014,1.625,0,3.25-.01,4.875,0,.33,0,.44-.1.416-.426-.028-.358-.008-.719-.01-1.079,0-.539,0-.539-.549-.539q-2.7,0-5.4,0c-.2,0-.389,0-.457-.263q-.366-1.454-.856-2.871c-.105-.3-.227-.318-.477-.265-.423.091-.847.178-1.275.236-.449.06-.469.094-.309.532.276.753.533,1.513.8,2.271.087.25.013.359-.271.36-.329,0-.657.014-.989.008-1.649-.027-3.3-.007-4.948-.013-.287,0-.419.1-.391.394.011.111.016.222.024.334a1.239,1.239,0,0,1-.911.294,5.974,5.974,0,0,0-1.431-.22,8.792,8.792,0,0,0,.064-1.3c.023-.324-.087-.429-.418-.425-1.414.016-2.828.006-4.242.006-.371,0-.4-.053-.247-.406.165-.384.318-.775.482-1.16.094-.22.056-.323-.2-.388-.429-.107-.846-.263-1.265-.41-.293-.1-.45-.019-.542.288a17.04,17.04,0,0,1-1.6,3.608,15.29,15.29,0,0,1-2.372,3.108c-.1.1-.227.2-.187.379.111.506.205,1.016.329,1.519.1.423.179.437.507.127a3.944,3.944,0,0,1,.777-.672v.421q0,4.3,0,8.595c0,.818,0,1.637,0,2.456,0,.177.015.321.248.321q1.711,0,3.423,0c.218,0,.26-.106.177-.286a15.511,15.511,0,0,1-.562-1.57l.8-.011.76,1.783a1.077,1.077,0,0,1-.47.079c-.357.018-.394.087-.24.4a10.717,10.717,0,0,0,1.316,2.007c.042.051.073.141.195.066a7.587,7.587,0,0,0-.207-.768.343.343,0,0,1,.225-.518c.388.388.683.86,1.1,1.224a5.254,5.254,0,0,1,.687.7c-.078.405.16.779.115,1.18a10.182,10.182,0,0,1-1.772-1.484,6.181,6.181,0,0,0,.148,1.077c.119.845.209,1.7.281,2.545.025.294.134.354.4.3a4.845,4.845,0,0,1,.846-.1c.286,0,.355-.115.333-.387-.05-.616-.1-1.233-.192-1.845a9.494,9.494,0,0,0,2.4,1.3c.433.161.519.117.719-.291a.774.774,0,0,0,.141-.337l2.023.532a3.8,3.8,0,0,1-.395.735C24.336,37.453,23.721,37.221,23.077,37.125ZM39.1,36.509c-.029-.061-.057-.116-.081-.174a56.761,56.761,0,0,0-3.252-6.3c-.143-.248-.277-.257-.491-.114-.184.122-.384.222-.575.333-.717.417-.714.416-.343,1.174a4.579,4.579,0,0,0,.212.427c.545.88,1.012,1.8,1.476,2.729s.921,1.856,1.315,2.816c.086.207.175.334.424.139.359-.281.748-.522,1.125-.78C39,36.694,39.1,36.633,39.1,36.509ZM13.991,33.283c.011-.161.016-.323.036-.483.017-.134-.028-.222-.163-.242-.415-.06-.831-.117-1.247-.168-.171-.021-.258.075-.255.24a9.718,9.718,0,0,1-.147,1.329,16.033,16.033,0,0,1-.971,3.947c-.114.3-.021.382.212.455q.513.161,1.03.314c.233.069.373.034.467-.245A23.62,23.62,0,0,0,13.991,33.283Zm1.169-.064a29.4,29.4,0,0,1,.189,3.136c.014.582.052,1.163.071,1.745.007.216.087.319.317.286.379-.055.759-.1,1.139-.146.162-.019.159-.136.155-.247-.016-.406-.05-.813-.056-1.22-.021-1.351-.173-2.691-.316-4.032-.023-.213-.1-.318-.329-.282-.329.053-.66.1-.99.14-.144.018-.18.111-.18.234S15.16,33.08,15.16,33.219Z"/><path class="f359d0c8-f2dc-4e44-8897-08049db84897" d="M22.841,15.327a1.239,1.239,0,0,0,.911-.294c.258.057.477-.094.712-.13a20.079,20.079,0,0,1,2.67-.332,13.841,13.841,0,0,1,1.656.147,9.906,9.906,0,0,1,2.234.557,18.638,18.638,0,0,1,2.249,1.089c.314.239.62.491.944.715a1.155,1.155,0,0,1,.525,1.147c-.029.282-.051.566-.077.848-.1.356-.188.712-.289,1.066a5.805,5.805,0,0,0-.3.906l-1.035,1.175-.115.1-.026,0-.008.025a9.042,9.042,0,0,1-2.267,1.24c-1.032.372-2.072.726-3.108,1.087a9.032,9.032,0,0,0-1.934.786,8.161,8.161,0,0,0-2.907,2.212,1.585,1.585,0,0,0-.344.408,4.922,4.922,0,0,0-.763,1.383c-.178.044-.248-.157-.377-.2a3.647,3.647,0,0,0-.286,1.01c-.086-.424-.383-.445-.7-.444-.3,0-.593-.022-.886,0a1.3,1.3,0,0,1-1.108-.373.871.871,0,0,1-.043-.178,14.976,14.976,0,0,1,.58-5.278.8.8,0,0,0-.288-.952c-.161-.153-.216-.08-.273.079a12.757,12.757,0,0,0-.4,1.311,12.817,12.817,0,0,0-.239,3.169,2.586,2.586,0,0,1-.873-.116c-.2-.1-.336-.153-.525-.051A15.946,15.946,0,0,1,16,25.668l.123-1.579c.105-.458.189-.922.322-1.371.1-.325-.031-.355-.293-.312a11.221,11.221,0,0,0-1.725.423c-.635.043-.719-.053-.592-.68.027-.132.059-.264.088-.4l.524-.825.8-.684a6.548,6.548,0,0,1,2.69-.749c.206,0,.36-.051.375-.3a.386.386,0,0,1,.246-.341c.323-.133.388-.428.481-.711l.629-.662a14.784,14.784,0,0,1,2.115-1.528C22.13,15.743,22.565,15.666,22.841,15.327Zm-2.312,4.29,1.391.236a.475.475,0,0,0,.286-.057,11.535,11.535,0,0,1,5.3-.85c1.067.031,2.121.185,3.183.269a2.929,2.929,0,0,0,1.691-.326A8.9,8.9,0,0,0,20.529,19.617Zm-1.58-.138a.929.929,0,0,0,1.039-.274,9.753,9.753,0,0,1,12.575-.963c.434.312.434.312.824-.081.416-.42.416-.42-.071-.776a10.354,10.354,0,0,0-12.341.055A9.138,9.138,0,0,0,18.949,19.479Zm-2.07,6.737a11.52,11.52,0,0,1,.75-3.493.13.13,0,0,0-.087-.2.158.158,0,0,0-.218.053c-.135.17-.11.374-.16.559A8.909,8.909,0,0,0,16.879,26.216Z"/><path class="ebed521e-0b58-4a78-88af-944c32f87029" d="M34.073,21.046a5.805,5.805,0,0,1,.3-.906c.1-.354.193-.71.289-1.066.781,0,1.562.013,2.342,0,.266,0,.366.078.366.362q-.012,4.034.005,8.068c0,.261-.083.329-.342.327-1.375-.013-2.751.006-4.126-.015-.369,0-.458.12-.456.469q.018,4.034.005,8.067a4,4,0,0,1-.122,1.287A1.973,1.973,0,0,1,30.4,39.135c-.842.026-1.685,0-2.528.014-.24,0-.289-.127-.323-.313a4.706,4.706,0,0,0-.263-1.064c.079-.181.252-.164.4-.2a3.216,3.216,0,0,0,1.469-.374.893.893,0,0,0,.963-.32,1.523,1.523,0,0,0,.2-.82q0-3.963.009-7.926c0-.219-.055-.323-.289-.307-.185.013-.372,0-.558,0-1.253,0-2.506-.006-3.758,0-.272,0-.376-.081-.356-.366a9.893,9.893,0,0,0,0-1.116.467.467,0,0,1,.366-.523c.458-.152.913-.313,1.363-.488.26-.1.382-.052.348.24-.028.246.081.318.318.317q3.609-.01,7.219,0c.23,0,.3-.084.3-.3q-.011-2.1,0-4.2c0-.233-.106-.292-.318-.3A3.617,3.617,0,0,1,34.073,21.046Z"/><path class="ebed521e-0b58-4a78-88af-944c32f87029" d="M17.931,19.5a6.548,6.548,0,0,0-2.69.749c-.911,0-.852-.146-.8.684q-.262.412-.524.825a1.691,1.691,0,0,0-.676,1.206c-.132.566.007.687.562.574.121-.024.241-.054.362-.08.105-.023.243-.018.234.1-.029.415.254.333.49.338.149,0,.3.012.446.006.242-.01.386.048.318.34-.055.241-.071.491-.117.734-.126.664-.129.668-.828.714-.191.012-.3.059-.3.279q.014,1.525,0,3.051c0,.223.077.316.3.309.347-.011.694-.007,1.041-.009l.017.01A15.581,15.581,0,0,0,16.34,30.9c.083.18.041.286-.177.286q-1.712,0-3.423,0c-.233,0-.248-.144-.248-.321,0-.819,0-1.638,0-2.456q0-4.3,0-8.595v-.421a3.944,3.944,0,0,0-.777.672c-.328.31-.4.3-.507-.127-.124-.5-.218-1.013-.329-1.519-.04-.181.086-.277.187-.379a15.29,15.29,0,0,0,2.372-3.108,17.04,17.04,0,0,0,1.6-3.608c.092-.307.249-.39.542-.288.419.147.836.3,1.265.41.259.065.3.168.2.388-.164.385-.317.776-.482,1.16-.152.353-.124.406.247.406,1.414,0,2.828.01,4.242-.006.331,0,.441.1.418.425a8.792,8.792,0,0,1-.064,1.3L19.4,15.2c-1.026-.071-2.055.02-3.079-.043a1.122,1.122,0,0,0-1.226.659,12.668,12.668,0,0,1-1.646,2.337c-.237.273-.061.283.168.282,1.138,0,2.277-.012,3.416,0a.531.531,0,0,0,.6-.42l.093-.039a2.9,2.9,0,0,1,1.208.155,10.4,10.4,0,0,0-.783,1.073.156.156,0,0,0-.121.137Z"/><path class="f359d0c8-f2dc-4e44-8897-08049db84897" d="M16.156,27.454c.189-.1.324-.051.525.051a2.586,2.586,0,0,0,.873.116,8.461,8.461,0,0,0,.659,2.549v-.7a1.3,1.3,0,0,0,1.108.373c.293-.027.59,0,.886,0,.313,0,.61.02.7.444a3.647,3.647,0,0,1,.286-1.01c.129.038.2.239.377.2a4.287,4.287,0,0,0-.128,1.716,1.591,1.591,0,0,0,.275.883,2.05,2.05,0,0,0,1.013,1.3c.033.036.064.074.1.107.281.249.322.233.419-.139.058-.224.131-.443.2-.665a4.3,4.3,0,0,1,1.437-1.515c.145-.1.329-.253.5-.119s.037.32-.006.483c-.079.306-.242.6-.081.93a1.279,1.279,0,0,0,.093.426,3.64,3.64,0,0,1,.384,1.181c.019.622.033.626.666.6l.148-.009a2.322,2.322,0,0,1,1.406.591,3.368,3.368,0,0,0,1.1.672c.234.084.6.055.6.436s-.368.334-.6.44a14.92,14.92,0,0,1-3.464.031l-.095-.031-.144,0-2.023-.532-.741-.3a2.3,2.3,0,0,0-.712-.342c-.681-.4-1.318-.865-1.96-1.324a5.254,5.254,0,0,0-.687-.7c-.415-.364-.71-.836-1.1-1.224L17.34,31.1l-.76-1.783A10.869,10.869,0,0,1,16.156,27.454Z"/><path class="ebed521e-0b58-4a78-88af-944c32f87029" d="M33.273,16.364a18.638,18.638,0,0,0-2.249-1.089,9.906,9.906,0,0,0-2.234-.557,13.841,13.841,0,0,0-1.656-.147,20.079,20.079,0,0,0-2.67.332c-.235.036-.454.187-.712.13-.008-.112-.013-.223-.024-.334-.028-.29.1-.395.391-.394,1.649.006,3.3-.014,4.948.013.332.006.66-.007.989-.008.284,0,.358-.11.271-.36-.262-.758-.519-1.518-.8-2.271-.16-.438-.14-.472.309-.532.428-.058.852-.145,1.275-.236.25-.053.372-.039.477.265q.489,1.419.856,2.871c.068.268.252.263.457.263q2.7,0,5.4,0c.546,0,.546,0,.549.539,0,.36-.018.721.01,1.079.024.327-.086.429-.416.426-1.625-.014-3.25,0-4.875,0C33.47,16.35,33.371,16.359,33.273,16.364Z"/><path class="ebed521e-0b58-4a78-88af-944c32f87029" d="M39.1,36.509c0,.124-.1.185-.19.248-.377.258-.766.5-1.125.78-.249.2-.338.068-.424-.139-.394-.96-.85-1.89-1.315-2.816s-.931-1.849-1.476-2.729a4.579,4.579,0,0,1-.212-.427c-.371-.758-.374-.757.343-1.174.191-.111.391-.211.575-.333.214-.143.348-.134.491.114a56.761,56.761,0,0,1,3.252,6.3C39.045,36.393,39.073,36.448,39.1,36.509Z"/><path class="ebed521e-0b58-4a78-88af-944c32f87029" d="M13.991,33.283a23.62,23.62,0,0,1-1.038,5.147c-.094.279-.234.314-.467.245q-.516-.154-1.03-.314c-.233-.073-.326-.159-.212-.455a16.033,16.033,0,0,0,.971-3.947,9.718,9.718,0,0,0,.147-1.329c0-.165.084-.261.255-.24.416.051.832.108,1.247.168.135.02.18.108.163.242C14.007,32.96,14,33.122,13.991,33.283Z"/><path class="ebed521e-0b58-4a78-88af-944c32f87029" d="M15.16,33.219c0-.139,0-.263,0-.386s.036-.216.18-.234c.33-.043.661-.087.99-.14.229-.036.306.069.329.282.143,1.341.3,2.681.316,4.032.006.407.04.814.056,1.22,0,.111.007.228-.155.247-.38.044-.76.091-1.139.146-.23.033-.31-.07-.317-.286-.019-.582-.057-1.163-.071-1.745A29.4,29.4,0,0,0,15.16,33.219Z"/><path class="ac953757-9e0c-4a49-ba91-9aaf20085be8" d="M19.4,15.2l2.008-.094a5.974,5.974,0,0,1,1.431.22c-.276.339-.711.416-1.064.63a14.784,14.784,0,0,0-2.115,1.528,2.447,2.447,0,0,0-1.515-.218c-.242.023-.484.054-.726.07-.51.032-.567-.02-.609-.525a1.875,1.875,0,0,1,1.291-1.18C18.525,15.462,18.968,15.343,19.4,15.2Z"/><path class="ebed521e-0b58-4a78-88af-944c32f87029" d="M20.1,35.58c.093.612.142,1.229.192,1.845.022.272-.047.383-.333.387a4.845,4.845,0,0,0-.846.1c-.264.05-.373-.01-.4-.3-.072-.85-.162-1.7-.281-2.545a6.181,6.181,0,0,1-.148-1.077,10.182,10.182,0,0,0,1.772,1.484Z"/><path class="ae101f0c-f541-44c2-b9fb-6695ce2f85db" d="M20.1,35.58l-.042-.111c.045-.4-.193-.775-.115-1.18.642.459,1.279.924,1.96,1.324a.426.426,0,0,0,.2.5c.2.1.368-.025.516-.157l.741.3a.774.774,0,0,1-.141.337c-.2.408-.286.452-.719.291A9.494,9.494,0,0,1,20.1,35.58Z"/><path class="ae101f0c-f541-44c2-b9fb-6695ce2f85db" d="M25.38,36.783l.144,0,.095.031a14.92,14.92,0,0,0,3.464-.031l.079.417a3.216,3.216,0,0,1-1.469.374c-.152.031-.325.014-.4.2a.8.8,0,0,0-.466-.119A13.45,13.45,0,0,1,25,37.578a.1.1,0,0,1-.01-.06A3.8,3.8,0,0,0,25.38,36.783Z"/><path class="ae101f0c-f541-44c2-b9fb-6695ce2f85db" d="M16.156,27.454a10.869,10.869,0,0,0,.424,1.86l-.8.012-.017-.01a11.907,11.907,0,0,1-.362-3c.01-.57.005-.57.6-.646A15.946,15.946,0,0,0,16.156,27.454Z"/><path class="ae101f0c-f541-44c2-b9fb-6695ce2f85db" d="M17.34,31.1l.819,1.264a.343.343,0,0,0-.225.518,7.587,7.587,0,0,1,.207.768c-.122.075-.153-.015-.195-.066a10.717,10.717,0,0,1-1.316-2.007c-.154-.311-.117-.38.24-.4A1.077,1.077,0,0,0,17.34,31.1Z"/><path class="ebed521e-0b58-4a78-88af-944c32f87029" d="M24.985,37.518a.1.1,0,0,0,.01.06c-.465.682-.47.687-1.151.16a3.4,3.4,0,0,1-.76-.612l-.006,0C23.721,37.221,24.336,37.453,24.985,37.518Z"/><path class="ebed521e-0b58-4a78-88af-944c32f87029" d="M23.084,37.126l-.032-.014.025.012Z"/><path class="a5ff1afd-efae-4804-bf09-9706807c0b52" d="M29.162,37.2l-.079-.417c.233-.106.6-.067.6-.44s-.362-.352-.6-.436a3.368,3.368,0,0,1-1.1-.672,2.322,2.322,0,0,0-1.406-.591,1.206,1.206,0,0,1,.122-.417c.47-1.018.861-2.069,1.247-3.121a.4.4,0,0,0-.254-.582c-.387-.16-.762-.349-1.134-.542-.2-.106-.3-.078-.379.152-.283.775-.593,1.54-.893,2.309-.161-.327,0-.624.081-.93.043-.163.165-.359.006-.483s-.356.016-.5.119a4.3,4.3,0,0,0-1.437,1.515.779.779,0,0,0-.361.29c-.095.149-.138.343-.343.4-.135-.342-.285-.678-.4-1.027s-.3-.447-.625-.262a1.591,1.591,0,0,1-.275-.883c.3,0,.591-.01.887-.007.21,0,.313-.067.31-.3q-.015-1.331,0-2.663c0-.328-.137-.243-.3-.128a1.585,1.585,0,0,1,.344-.408.64.64,0,0,0,.35-.189,7.3,7.3,0,0,1,1.292-.928,2.152,2.152,0,0,0,1.265-1.1,9.032,9.032,0,0,1,1.934-.786c.026.5.045.514.525.362.236-.074.475-.14.71-.22A12.575,12.575,0,0,0,31.6,23.579a2.887,2.887,0,0,0,1.289-1.228l.008-.025.026,0,.115-.1,1.035-1.175a3.617,3.617,0,0,0,.888.043c.212.006.319.065.318.3q-.008,2.1,0,4.2c0,.22-.071.3-.3.3q-3.609-.009-7.219,0c-.237,0-.346-.071-.318-.317.034-.292-.088-.342-.348-.24-.45.175-.9.336-1.363.488a.467.467,0,0,0-.366.523,9.893,9.893,0,0,1,0,1.116c-.02.285.084.368.356.366,1.252-.009,2.505,0,3.758,0,.186,0,.373.013.558,0,.234-.016.29.088.289.307q-.01,3.963-.009,7.926a1.523,1.523,0,0,1-.2.82A.893.893,0,0,1,29.162,37.2Z"/><path class="f60e0991-1f3e-4d68-9143-7c674815c86a" d="M20.529,19.617a8.9,8.9,0,0,1,11.853-.728,2.929,2.929,0,0,1-1.691.326c-1.062-.084-2.116-.238-3.183-.269a11.535,11.535,0,0,0-5.3.85.475.475,0,0,1-.286.057Z"/><path class="f60e0991-1f3e-4d68-9143-7c674815c86a" d="M18.949,19.479a9.138,9.138,0,0,1,2.026-2.039,10.354,10.354,0,0,1,12.341-.055c.487.356.487.356.071.776-.39.393-.39.393-.824.081a9.753,9.753,0,0,0-12.575.963A.929.929,0,0,1,18.949,19.479Z"/><path class="a5ff1afd-efae-4804-bf09-9706807c0b52" d="M16,25.668c-.592.076-.587.076-.6.646a11.907,11.907,0,0,0,.362,3c-.347,0-.694,0-1.041.009-.225.007-.3-.086-.3-.309q.011-1.526,0-3.051c0-.22.105-.267.3-.279.7-.046.7-.05.828-.714.046-.243.062-.493.117-.734.068-.292-.076-.35-.318-.34-.149.006-.3,0-.446-.006-.236,0-.519.077-.49-.338.009-.119-.129-.124-.234-.1-.121.026-.241.056-.362.08-.555.113-.694-.008-.562-.574a1.691,1.691,0,0,1,.676-1.206c-.029.132-.061.264-.088.4-.127.627-.043.723.592.68.006.559.005.556.534.44.205-.045.413-.08.62-.11.14-.019.3.042.243.187-.129.358.092.54.3.743Z"/><path class="f60e0991-1f3e-4d68-9143-7c674815c86a" d="M18.213,29.47v.7a8.461,8.461,0,0,1-.659-2.549,12.817,12.817,0,0,1,.239-3.169,12.757,12.757,0,0,1,.4-1.311c.057-.159.112-.232.273-.079a.8.8,0,0,1,.288.952,14.976,14.976,0,0,0-.58,5.278A.871.871,0,0,0,18.213,29.47Z"/><path class="ebed521e-0b58-4a78-88af-944c32f87029" d="M22.329,28.084c.167-.115.307-.2.3.128q-.012,1.331,0,2.663c0,.234-.1.3-.31.3-.3,0-.592,0-.887.007a4.287,4.287,0,0,1,.128-1.716A4.922,4.922,0,0,1,22.329,28.084Z"/><path class="ae101f0c-f541-44c2-b9fb-6695ce2f85db" d="M32.889,22.351A2.887,2.887,0,0,1,31.6,23.579a12.575,12.575,0,0,1-2.851,1.241c-.235.08-.474.146-.71.22-.48.152-.5.139-.525-.362,1.036-.361,2.076-.715,3.108-1.087A9.042,9.042,0,0,0,32.889,22.351Z"/><path class="ae101f0c-f541-44c2-b9fb-6695ce2f85db" d="M16.119,24.089c-.207-.2-.428-.385-.3-.743.053-.145-.1-.206-.243-.187-.207.03-.415.065-.62.11-.529.116-.528.119-.534-.44a11.221,11.221,0,0,1,1.725-.423c.262-.043.39-.013.293.312C16.308,23.167,16.224,23.631,16.119,24.089Z"/><path class="a5ff1afd-efae-4804-bf09-9706807c0b52" d="M18.147,17.267a2.447,2.447,0,0,1,1.515.218q-.315.331-.629.662l-.1-.01a2.9,2.9,0,0,0-1.208-.155Q17.935,17.624,18.147,17.267Z"/><path class="f60e0991-1f3e-4d68-9143-7c674815c86a" d="M16.879,26.216a8.909,8.909,0,0,1,.285-3.08c.05-.185.025-.389.16-.559a.158.158,0,0,1,.218-.053.13.13,0,0,1,.087.2A11.52,11.52,0,0,0,16.879,26.216Z"/><path class="ae101f0c-f541-44c2-b9fb-6695ce2f85db" d="M25.58,25.464a2.152,2.152,0,0,1-1.265,1.1,7.3,7.3,0,0,0-1.292.928.64.64,0,0,1-.35.189A8.161,8.161,0,0,1,25.58,25.464Z"/><path class="ac953757-9e0c-4a49-ba91-9aaf20085be8" d="M18.933,18.137l.1.01c-.093.283-.158.578-.481.711a.386.386,0,0,0-.246.341c-.015.245-.169.3-.375.3l.1-.147c.091,0,.1-.077.121-.138A10.4,10.4,0,0,1,18.933,18.137Z"/><path class="a5ff1afd-efae-4804-bf09-9706807c0b52" d="M14.443,20.928c-.054-.83-.113-.687.8-.684Z"/><path class="ae101f0c-f541-44c2-b9fb-6695ce2f85db" d="M33.038,22.221l-.115.1Z"/><path class="a5ff1afd-efae-4804-bf09-9706807c0b52" d="M19.4,15.2c-.434.142-.877.261-1.3.431a1.875,1.875,0,0,0-1.291,1.18.89.89,0,0,0-.58.751c-.058.342.1.517.443.513.319,0,.638-.035.957-.055a.531.531,0,0,1-.6.42c-1.139-.017-2.278-.008-3.416,0-.229,0-.4-.009-.168-.282A12.668,12.668,0,0,0,15.1,15.817a1.122,1.122,0,0,1,1.226-.659C17.347,15.221,18.376,15.13,19.4,15.2Z"/><path class="ae101f0c-f541-44c2-b9fb-6695ce2f85db" d="M17.632,18.021c-.319.02-.638.052-.957.055-.347,0-.5-.171-.443-.513a.89.89,0,0,1,.58-.751c.042.5.1.557.609.525.242-.016.484-.047.726-.07q-.211.357-.422.715Z"/><path class="f359d0c8-f2dc-4e44-8897-08049db84897" d="M18.15,19.21c-.024.061-.03.137-.121.138A.156.156,0,0,1,18.15,19.21Z"/><path class="ebed521e-0b58-4a78-88af-944c32f87029" d="M25.293,32.446c.3-.769.61-1.534.893-2.309.084-.23.175-.258.379-.152.372.193.747.382,1.134.542a.4.4,0,0,1,.254.582c-.386,1.052-.777,2.1-1.247,3.121a1.206,1.206,0,0,0-.122.417l-.148.009c-.633.023-.647.019-.666-.6a3.64,3.64,0,0,0-.384-1.181A1.279,1.279,0,0,1,25.293,32.446Z"/><path class="ebed521e-0b58-4a78-88af-944c32f87029" d="M21.713,32.066c.323-.185.511-.085.625.262s.265.685.4,1.027l-.013.009A2.05,2.05,0,0,1,21.713,32.066Z"/><path class="ae101f0c-f541-44c2-b9fb-6695ce2f85db" d="M22.726,33.364l.013-.009c.2-.055.247-.249.342-.4a.779.779,0,0,1,.361-.29c-.066.222-.139.441-.2.665-.1.372-.138.388-.419.139C22.79,33.438,22.759,33.4,22.726,33.364Z"/><path class="a5ff1afd-efae-4804-bf09-9706807c0b52" d="M22.616,35.955c-.148.132-.312.26-.516.157a.426.426,0,0,1-.2-.5A2.3,2.3,0,0,1,22.616,35.955Z"/><path class="a5ff1afd-efae-4804-bf09-9706807c0b52" d="M25.619,36.817l-.095-.031Z"/></g></svg>