<?xml version="1.0" encoding="UTF-8"?>
<svg id="Ebene_1" data-name="Ebene 1" xmlns="http://www.w3.org/2000/svg" width="50" height="50" viewBox="0 0 50 50">
  <defs>
    <style>
      .cls-1 {
        fill: #fff;
      }

      .cls-2 {
        fill: #202020;
      }

      .cls-3, .cls-4 {
        fill: #f5f5f5;
      }

      .cls-4 {
        fill-rule: evenodd;
      }
    </style>
  </defs>
  <circle class="cls-1" cx="25" cy="25" r="18.6"/>
  <circle class="cls-2" cx="25" cy="25" r="15"/>
  <g>
    <path class="cls-3" d="M29.04,14c.43,1.15,1.33,2.05,2.48,2.48-1.15.43-2.05,1.33-2.48,2.48-.43-1.15-1.33-2.05-2.48-2.48,1.15-.43,2.05-1.33,2.48-2.48Z"/>
    <path class="cls-4" d="M25.37,17.12l-4.51,6.06c-1.45,1.94-1.44,4.54-.08,6.46-1.45.11-2.5-.17-2.83-.86-.25-.53-.04-1.23.53-1.99-.03-.57.02-1.14.14-1.7-3.11,2.16-4.87,4.41-4.25,5.76.67,1.44,3.87,1.45,7.87.23,2.18,1.44,5.15,1.21,7.07-.69.37-.37.68-.77.92-1.2l-3.62.2c1.59-.74,3.05-1.56,4.31-2.4,0,0,0,0,0,0,3.38-2.25,5.33-4.64,4.67-6.05-.66-1.41-3.75-1.44-7.64-.3l-2.61-3.5ZM28.5,21.33l1.38,1.85c.45.61.76,1.28.93,1.97,1.28-1.18,1.9-2.31,1.54-3.09-.4-.85-1.88-1.08-3.85-.73Z"/>
  </g>
</svg>