<?xml version="1.0" encoding="UTF-8"?>
<svg id="Ebene_1" data-name="Ebene 1" xmlns="http://www.w3.org/2000/svg" width="50" height="50" xmlns:xlink="http://www.w3.org/1999/xlink" viewBox="0 0 50 50">
  <defs>
    <style>
      .cls-1 {
        fill: #fff;
      }

      .cls-2 {
        fill: #06111e;
      }

      .cls-3 {
        fill: url(#linear-gradient);
        fill-rule: evenodd;
      }
    </style>
    <linearGradient id="linear-gradient" x1="32.61" y1="-303.08" x2="16.99" y2="-291.32" gradientTransform="translate(0 -272.45) scale(1 -1)" gradientUnits="userSpaceOnUse">
      <stop offset="0" stop-color="#4d49c4"/>
      <stop offset=".8" stop-color="#1dafba"/>
      <stop offset=".9" stop-color="#1dba9b"/>
    </linearGradient>
  </defs>
  <circle class="cls-1" cx="25" cy="25" r="18.6"/>
  <circle class="cls-2" cx="25" cy="25" r="15"/>
  <path class="cls-3" d="M33.7,21.15c.93,0,1.68.75,1.68,1.68v3.54c.03.93-.71,1.71-1.64,1.73-.93.03-1.7-.71-1.72-1.64v-3.63c0-.93.75-1.68,1.68-1.68h0ZM29.35,23.46c.93,0,1.68.75,1.68,1.68v6.04c-.03.93-.8,1.67-1.74,1.64-.9-.03-1.61-.74-1.64-1.64v-6.04c.02-.93.77-1.68,1.7-1.68ZM25,16.54c.93,0,1.68.75,1.68,1.68v15.1c-.06.93-.87,1.64-1.8,1.57-.84-.06-1.52-.73-1.57-1.57v-15.1c.02-.93.75-1.68,1.68-1.68h0ZM20.65,15.11c.93,0,1.68.75,1.7,1.68v8.35c-.03.93-.8,1.67-1.74,1.64-.9-.03-1.61-.74-1.64-1.64v-8.35c0-.93.75-1.68,1.68-1.68h0ZM16.3,20.98c.93,0,1.68.75,1.68,1.68v4.25c.03.93-.71,1.71-1.64,1.73-.93.03-1.7-.7-1.73-1.63v-4.36c0-.93.75-1.68,1.68-1.68s0,0,0,0h0Z"/>
</svg>