<svg viewBox="0 0 140 44" xmlns="http://www.w3.org/2000/svg">
  <path d="M21.9 43c-11.6 0-21-9.4-21-21h3.6c0 9.6 7.8 17.4 17.4 17.4V43zm117.2-21h-3.6c0-9.6-7.8-17.4-17.4-17.4V1c11.6 0 21 9.4 21 21zM35.2 7.7h4.4L46.8 24l7.4-16.3H58v21.7h-3.6V14.8l-6.5 14.6h-2.7l-6.4-14.6v14.6h-3.6V7.7zm40.9 14.1c0 4.5-3.4 7.9-7.9 7.9-4.4 0-7.8-3.4-7.8-7.9s3.4-7.9 7.8-7.9c4.5 0 7.9 3.4 7.9 7.9zm-12.3 0c0 2.6 1.9 4.5 4.4 4.5 2.5 0 4.5-2 4.5-4.5 0-2.6-2-4.6-4.5-4.6-2.5.1-4.4 2-4.4 4.6zm29-1v8.6h-3.5v-8.1c0-2.4-1.4-3.9-3.6-3.9-1.6 0-3 .8-3.8 2.1v9.9h-3.4V14.3H82v2c.9-1.5 2.7-2.4 4.6-2.4 3.8 0 6.2 2.7 6.2 6.9zm17.3 1.8H98.5c.4 2.4 2 3.9 4.5 3.9 1.7 0 3.3-.7 4-1.9l2.8 1.8c-1.1 2-3.7 3.3-6.8 3.3-4.4 0-7.9-3.4-7.9-8 0-4.4 3.4-7.8 7.8-7.8 4.1 0 7.3 3.2 7.3 7.2 0 .5 0 1.1-.1 1.5zm-3.5-2.6c-.2-1.9-1.8-3.2-3.8-3.2-2.1 0-3.5 1.2-4.1 3.2h7.9zm19.3-5.7l-8.5 20.5h-3.7l2.7-6.1-6-14.3h3.7l4.1 10.3 4.1-10.3 3.6-.1zM29.2 20c-.5-3.5-3.5-6.1-7.2-6.1-3.8 0-6.8 2.5-7.6 6.1h-3.3v2.6h3.1c.4 4.1 3.7 7 7.8 7 3.1 0 5.7-1.2 6.8-3.3L26 24.5c-.7 1.2-2.2 1.9-4 1.9-2.4 0-4.1-1.5-4.5-3.9h14l.9-2.6h-3.2zm-7.4-3.2c2.1 0 3.7 1.3 3.8 3.2h-7.9c.6-2 2.1-3.2 4.1-3.2z" fill="#fff"></path>
</svg>
