<svg id="bc4d5fa2-9372-4e13-b38a-25aaaf50dc7b" data-name="Ebene 1" xmlns="http://www.w3.org/2000/svg" xmlns:xlink="http://www.w3.org/1999/xlink" viewBox="0 0 50 50">
  <defs>
    <style>
      .a008a487-815c-4c35-817e-9ce1e2c74fc1, .a4acb2ec-ba3f-4294-a343-a302e378c359, .e276b019-d233-484f-91b1-b5c0de0e077b, .e2e61d06-d387-4f31-a084-a952aa362342 {
        fill: none;
      }

      .b0cf73a4-b616-4597-b7e3-d35cccc3c992 {
        fill: #fff;
      }

      .b9bb65ce-445a-4293-8646-a4751763f7ba {
        clip-path: url(#a62bd9e7-1644-47ff-8a77-d94598df894f);
      }

      .f6e6f811-d72a-44ec-b014-494d81de7d20 {
        fill: url(#f54adeef-41a2-4952-a6c2-071defdbcc5a);
      }

      .a4acb2ec-ba3f-4294-a343-a302e378c359, .e276b019-d233-484f-91b1-b5c0de0e077b, .e2e61d06-d387-4f31-a084-a952aa362342 {
        stroke: #fff;
      }

      .e276b019-d233-484f-91b1-b5c0de0e077b, .e2e61d06-d387-4f31-a084-a952aa362342 {
        stroke-miterlimit: 10;
      }

      .e2e61d06-d387-4f31-a084-a952aa362342 {
        stroke-width: 0.497px;
      }

      .e276b019-d233-484f-91b1-b5c0de0e077b {
        stroke-width: 0.175px;
      }

      .a4acb2ec-ba3f-4294-a343-a302e378c359 {
        stroke-width: 0.062px;
        opacity: 0.4;
        isolation: isolate;
      }

      .e31e6a29-6a3c-471c-abe8-6f9e1afe8285 {
        opacity: 0;
      }
    </style>
    <clipPath id="a62bd9e7-1644-47ff-8a77-d94598df894f">
      <path class="a008a487-815c-4c35-817e-9ce1e2c74fc1" d="M35.607,14.385A15.021,15.021,0,1,0,40,25,14.893,14.893,0,0,0,35.607,14.385Z"/>
    </clipPath>
    <linearGradient id="f54adeef-41a2-4952-a6c2-071defdbcc5a" data-name="Neues Verlaufsfeld 2" x1="25" y1="10.286" x2="25" y2="39.404" gradientUnits="userSpaceOnUse">
      <stop offset="0" stop-color="#f55d2c"/>
      <stop offset="1" stop-color="#ad3f51"/>
    </linearGradient>
  </defs>
  <circle class="b0cf73a4-b616-4597-b7e3-d35cccc3c992" cx="25" cy="25" r="18.6"/>
  <g class="b9bb65ce-445a-4293-8646-a4751763f7ba">
    <rect class="b0cf73a4-b616-4597-b7e3-d35cccc3c992" x="4.112" y="5.604" width="41.777" height="38.791"/>
  </g>
  <g>
    <path class="f6e6f811-d72a-44ec-b014-494d81de7d20" d="M36.777,16.287l-3.221-3.22L29.5,11,25,10.286,20.5,11l-4.058,2.067-3.221,3.22-2.067,4.059-.713,4.5.713,4.5L13.221,33.4l3.221,3.22L20.5,38.691,25,39.4l4.5-.713,4.058-2.069,3.221-3.22,2.069-4.059.713-4.5-.713-4.5Z"/>
    <path class="e2e61d06-d387-4f31-a084-a952aa362342" d="M36.777,16.287l-3.221-3.22L29.5,11,25,10.286,20.5,11l-4.058,2.067-3.221,3.22-2.067,4.059-.713,4.5.713,4.5L13.221,33.4l3.221,3.22L20.5,38.691,25,39.4l4.5-.713,4.058-2.069,3.221-3.22,2.069-4.059.713-4.5-.713-4.5Z"/>
    <g>
      <path class="e276b019-d233-484f-91b1-b5c0de0e077b" d="M33.556,13.067,25,24.844"/>
      <path class="e276b019-d233-484f-91b1-b5c0de0e077b" d="M16.442,13.067,25,24.844"/>
      <path class="e276b019-d233-484f-91b1-b5c0de0e077b" d="M11.154,29.343,25,24.844"/>
      <path class="e276b019-d233-484f-91b1-b5c0de0e077b" d="M25,39.4V24.844"/>
      <path class="e276b019-d233-484f-91b1-b5c0de0e077b" d="M38.846,29.343,25,24.844"/>
      <path class="e276b019-d233-484f-91b1-b5c0de0e077b" d="M25,28.907,28.861,26.1,27.387,21.56H22.611L21.137,26.1Z"/>
      <path class="e276b019-d233-484f-91b1-b5c0de0e077b" d="M20.5,11,25,17.318,29.5,11"/>
      <path class="e276b019-d233-484f-91b1-b5c0de0e077b" d="M25,10.286v1.667L22.652,14.02h4.7L25,11.953H21.181Z"/>
      <path class="e276b019-d233-484f-91b1-b5c0de0e077b" d="M25,10.286l3.82,1.667H25"/>
      <path class="e276b019-d233-484f-91b1-b5c0de0e077b" d="M22.611,21.56,25,17.318l2.388,4.242"/>
      <path class="e276b019-d233-484f-91b1-b5c0de0e077b" d="M25,17.318l-5.122.475,2.775-3.773-4.824.956,3.353-3.023-4.739,1.114"/>
      <path class="e276b019-d233-484f-91b1-b5c0de0e077b" d="M25,17.318l5.124.475L27.347,14.02l4.823.956-3.351-3.023,4.737,1.114"/>
      <path class="e276b019-d233-484f-91b1-b5c0de0e077b" d="M10.441,24.844l7.4-2.325-4.62-6.232"/>
      <path class="e276b019-d233-484f-91b1-b5c0de0e077b" d="M11.153,20.346l1.584.515,1.242,2.872,1.45-4.466-2.692,1.594-1.179,3.631Z"/>
      <path class="e276b019-d233-484f-91b1-b5c0de0e077b" d="M11.153,20.346l2.765-3.118-1.181,3.633"/>
      <path class="e276b019-d233-484f-91b1-b5c0de0e077b" d="M21.137,26.1l-3.3-3.582,4.77-.959"/>
      <path class="e276b019-d233-484f-91b1-b5c0de0e077b" d="M17.841,22.519l-1.132,5.02-2.73-3.806L13.4,28.615l-1.839-4.123-.4,4.851"/>
      <path class="e276b019-d233-484f-91b1-b5c0de0e077b" d="M17.839,22.519l2.036-4.726-4.446,1.474,2.4-4.293-3.91,2.254,2.524-4.161"/>
      <path class="e276b019-d233-484f-91b1-b5c0de0e077b" d="M20.5,38.691l.076-7.758L13.219,33.4"/>
      <path class="e276b019-d233-484f-91b1-b5c0de0e077b" d="M16.442,36.622l.977-1.348,3.116-.293-3.8-2.758.682,3.051,3.092,2.245Z"/>
      <path class="e276b019-d233-484f-91b1-b5c0de0e077b" d="M16.442,36.622l-2.113-3.593,3.09,2.245"/>
      <path class="e276b019-d233-484f-91b1-b5c0de0e077b" d="M25,28.907l-4.425,2.026.563-4.832"/>
      <path class="e276b019-d233-484f-91b1-b5c0de0e077b" d="M20.574,30.933,25,33.561l-4.464,1.42L25,37.044l-4.488.475L25,39.4"/>
      <path class="e276b019-d233-484f-91b1-b5c0de0e077b" d="M20.574,30.935l-3.865-3.4.028,4.684L13.4,28.615l.935,4.414-3.178-3.686"/>
      <path class="e276b019-d233-484f-91b1-b5c0de0e077b" d="M36.775,33.4l-7.352-2.469.075,7.756"/>
      <path class="e276b019-d233-484f-91b1-b5c0de0e077b" d="M33.555,36.624l-.98-1.348.684-3.053-3.8,2.76,3.114.293,3.09-2.245Z"/>
      <path class="e276b019-d233-484f-91b1-b5c0de0e077b" d="M33.555,36.624l-4.07.9,3.09-2.245"/>
      <path class="e276b019-d233-484f-91b1-b5c0de0e077b" d="M28.861,26.1l.562,4.834L25,28.907"/>
      <path class="e276b019-d233-484f-91b1-b5c0de0e077b" d="M29.423,30.935l3.866-3.4-.03,4.684L36.6,28.615l-.936,4.416,3.179-3.686"/>
      <path class="e276b019-d233-484f-91b1-b5c0de0e077b" d="M29.423,30.935,25,33.561l4.462,1.422L25,37.046l4.488.475L25,39.4"/>
      <path class="e276b019-d233-484f-91b1-b5c0de0e077b" d="M36.777,16.289l-4.62,6.232,7.4,2.325"/>
      <path class="e276b019-d233-484f-91b1-b5c0de0e077b" d="M38.846,20.348l-1.585.515-2.692-1.6,1.45,4.466,1.242-2.87L36.08,17.23Z"/>
      <path class="e276b019-d233-484f-91b1-b5c0de0e077b" d="M38.846,20.348l-.406,4.146-1.179-3.631"/>
      <path class="e276b019-d233-484f-91b1-b5c0de0e077b" d="M27.387,21.56l4.77.961-3.3,3.58"/>
      <path class="e276b019-d233-484f-91b1-b5c0de0e077b" d="M32.157,22.521,30.123,17.8l4.446,1.472-2.4-4.291,3.91,2.254-2.524-4.162"/>
      <path class="e276b019-d233-484f-91b1-b5c0de0e077b" d="M32.157,22.519l1.132,5.02,2.73-3.806.584,4.882,1.837-4.121.4,4.851"/>
    </g>
    <circle class="a4acb2ec-ba3f-4294-a343-a302e378c359" cx="25" cy="25" r="15.404"/>
    <g id="b66633f7-a364-48c5-a7f4-f4ad63ddbf66" data-name="planetMarsArea1" class="e31e6a29-6a3c-471c-abe8-6f9e1afe8285">
      <path class="b0cf73a4-b616-4597-b7e3-d35cccc3c992" d="M30.137,17.774l-2.753,3.81,4.768.958Z"/>
    </g>
    <g id="ab44b917-46f3-4546-a832-065a16fd3d65" data-name="planetMarsArea2" class="e31e6a29-6a3c-471c-abe8-6f9e1afe8285">
      <path class="b0cf73a4-b616-4597-b7e3-d35cccc3c992" d="M17.864,14.925,15.43,19.3,19.9,17.8Z"/>
    </g>
    <g id="a6f7f374-916b-4736-9e44-3d638bd12f38" data-name="planetMarsArea3" class="e31e6a29-6a3c-471c-abe8-6f9e1afe8285">
      <path class="b0cf73a4-b616-4597-b7e3-d35cccc3c992" d="M28.821,26.111l.586,4.847,3.828-3.427Z"/>
    </g>
  </g>
</svg>
