<svg id="e0d3c744-09bf-44f0-a2c9-118b2f63ad80" data-name="Ebene 1" xmlns="http://www.w3.org/2000/svg" viewBox="0 0 50 50"><defs><style>.a3af4c94-b93c-424f-bc63-9510a6b0f21b{fill:#fff;}.b101b8f6-4ff7-4352-84bb-c280f18df572{fill:#191535;}.a773a0d1-17f4-4311-bb59-5588ff992589{fill:#a97309;}.e1966920-7253-42ec-91fa-797e70f1a0b5{fill:#fefefe;}.f970ffd3-8355-48fc-a899-2a8a6815b28c{fill:#f3ce5a;}.abc957fa-5efb-4101-8461-a3eee6e0f1ec{fill:#18152f;}.f4598338-46ee-4396-8210-06a5a30f328b{fill:#d09c02;}.b0773b93-06e9-4bad-83a7-736991dfdae8{fill:#e5e0d0;}.eef46eed-4f85-4d1d-9400-ec501f9c6497{fill:#c18d05;}.be5d082c-df90-4d20-b205-2a8a6f795607{fill:#b07b08;}.b20f66e2-0352-477d-845d-a26dba73f09a{fill:#a39259;}.a7daf996-730c-4691-ac0f-b8e3a3e344f6{fill:#c3b893;}.ba0b902d-3b91-4476-bc44-d38650d6d783{fill:#e4c059;}.a8dc6592-a16a-42bd-9ad4-1521f40aa68a{fill:#deb745;}.ff53b40d-9483-4a1f-b6b9-b3cdc603f511{fill:#ba8507;}.a6281895-f7bc-40bf-b301-13f4f157d8c3{fill:#deb539;}.f4865abb-66cd-4d68-bbaf-19efe4011440{fill:#ddae17;}</style></defs><circle class="a3af4c94-b93c-424f-bc63-9510a6b0f21b" cx="25" cy="25" r="18.6"/><path class="b101b8f6-4ff7-4352-84bb-c280f18df572" d="M35.61,14.39A15,15,0,1,0,40,25,14.93,14.93,0,0,0,35.61,14.39Z"/><path class="a773a0d1-17f4-4311-bb59-5588ff992589" d="M26.79,24a4.73,4.73,0,0,0,.95-.84c.23-.22.45-.46.69-.68a.45.45,0,0,1,.69,0,.67.67,0,0,0,.25.63l2.69,2.68.17.15a2.27,2.27,0,0,0,.26.28,3.29,3.29,0,0,1,1,1.72,5.46,5.46,0,0,1,.22,2.13.11.11,0,0,1-.09-.06,5.23,5.23,0,0,0-.68-.65c-.54-.51-1.11-1-1.68-1.5-.33-.3-.65-.59-1-.87-.08-.07-.15-.19-.29-.17a10.71,10.71,0,0,1-.84-.81c-.05-.19-.19-.1-.3-.11a.42.42,0,0,0-.11-.17l-1.23-1.11a.35.35,0,0,0-.26-.1c.1-.13.26-.21.35-.36a1.64,1.64,0,0,0,.41-.38l0-.06,0,0,0,0,0,.05a.42.42,0,0,0-.24.07c-.26.12-.51.28-.79.38C26.92,24.13,26.81,24.11,26.79,24Z"/><path class="e1966920-7253-42ec-91fa-797e70f1a0b5" d="M16.36,16.28a1.06,1.06,0,0,1,1.36,0l6.86,6.87.06.07a.93.93,0,0,0-.18.26l-.34.41L24,24a1.29,1.29,0,0,1-.17-.16q-1.71-1.7-3.41-3.41-2-2-3.94-3.94A.3.3,0,0,1,16.36,16.28Z"/><path class="f970ffd3-8355-48fc-a899-2a8a6815b28c" d="M33.69,30.11A5.46,5.46,0,0,0,33.47,28a3.29,3.29,0,0,0-1-1.72,2.27,2.27,0,0,1-.26-.28c.1,0,.16,0,.23.1s.16.12.25,0a3.18,3.18,0,0,1,1,1.68A9.8,9.8,0,0,1,34,31.19a2.9,2.9,0,0,1-2.31,2.69,5.83,5.83,0,0,1-.84,0,8.16,8.16,0,0,1-3.47-.42,2.85,2.85,0,0,1-1.13-.71l-3.58-3.58-.09-.11a.63.63,0,0,1,.62.23c.27.3.56.56.85.84.52.58,1.1,1.11,1.64,1.68.28.3.58.58.88.86a2.3,2.3,0,0,0,.47.35,5.6,5.6,0,0,0,1.25.43,6.92,6.92,0,0,0,1.81.19h.82a1.55,1.55,0,0,1,.21,0,2.68,2.68,0,0,0,2.13-1.15.16.16,0,0,0,0-.24,6.91,6.91,0,0,0-.6-.5c-.05,0-.09-.06-.09-.11a2,2,0,0,0,.6-.35A1.54,1.54,0,0,0,33.69,30.11Z"/><path class="abc957fa-5efb-4101-8461-a3eee6e0f1ec" d="M24.2,26.48a3.3,3.3,0,0,0-.7-.84c-.26-.22-.47-.5-.72-.74-2.17-2.11-4.29-4.26-6.43-6.39a.91.91,0,0,1-.27-1.09.64.64,0,0,0,.22.27c1.76,1.77,3.53,3.53,5.3,5.3l1.63,1.62.32.33a6.17,6.17,0,0,1,.43.46A1.07,1.07,0,0,1,24.2,26.48Z"/><path class="f4598338-46ee-4396-8210-06a5a30f328b" d="M24,30.18c-.29-.28-.58-.54-.85-.84a.63.63,0,0,0-.62-.23.46.46,0,0,1,0-.72l.81-.8a4.5,4.5,0,0,0,.73-.84.29.29,0,0,1,.25.15l-.07.14c-.18.25-.33.52-.51.76s-.26.22-.3.39l-.23.25a.81.81,0,0,0-.18.19c-.22.11-.09.21,0,.33s.17.14.26,0a.31.31,0,0,0,.15-.17.64.64,0,0,0,.23-.26l.31-.32a2.36,2.36,0,0,0,.61-1,.56.56,0,0,0,.1-.33.3.3,0,0,1,.18.08c.11.1.2.2.31.29A5.43,5.43,0,0,1,26,28a.36.36,0,0,1-.08.2c-.09.15-.2.3-.3.45a3.45,3.45,0,0,0-.52.56c-.28.18-.47.46-.73.66Z"/><path class="b0773b93-06e9-4bad-83a7-736991dfdae8" d="M16.36,16.28a.3.3,0,0,0,.14.19q2,2,3.94,3.94,1.69,1.71,3.41,3.41A1.29,1.29,0,0,0,24,24a1.15,1.15,0,0,1-.22.22l-.15.11-.18-.16-7.23-7.24c-.06-.05-.1-.13-.19-.14A.85.85,0,0,1,16.36,16.28Z"/><path class="eef46eed-4f85-4d1d-9400-ec501f9c6497" d="M23.65,24.31l.15-.11c.05,0,.07,0,.1.07.49.56,1,1.12,1.48,1.69a3.46,3.46,0,0,1,.65.82A1.25,1.25,0,0,1,26,28a5.43,5.43,0,0,0-.81-.78c-.11-.09-.2-.19-.31-.29a.3.3,0,0,0-.18-.08c-.15-.23-.25,0-.37,0a.29.29,0,0,0-.25-.15l.14-.27A1.07,1.07,0,0,0,24,25.4a6.17,6.17,0,0,0-.43-.46l-.32-.33a.94.94,0,0,0,.23-.16A.52.52,0,0,0,23.65,24.31Z"/><path class="be5d082c-df90-4d20-b205-2a8a6f795607" d="M24.46,23.49a.93.93,0,0,1,.18-.26l.63.62a1.82,1.82,0,0,0,.47.31A.93.93,0,0,0,26.79,24c0,.09.13.11.18.18s-.14.05-.15.14h-.07a.13.13,0,0,0-.15.1c-.08,0-.24,0-.14.19s.07.25.28.16.32-.16.48-.24a.35.35,0,0,1,.26.1l1.23,1.11a.42.42,0,0,1,.11.17c-.27.22-.5.48-.78.7-.41-.44-.87-.82-1.32-1.22-.65-.61-1.33-1.19-2-1.79A.42.42,0,0,0,24.46,23.49Z"/><path class="b20f66e2-0352-477d-845d-a26dba73f09a" d="M23.46,24.45a.94.94,0,0,1-.23.16L21.6,23c-1.77-1.77-3.54-3.53-5.3-5.3a.64.64,0,0,1-.22-.27.89.89,0,0,1-.07-.36c.09,0,.14.1.2.16q3.54,3.54,7.09,7.09Z"/><path class="a7daf996-730c-4691-ac0f-b8e3a3e344f6" d="M23.46,24.45l-.16-.14q-3.56-3.54-7.09-7.09c-.06-.06-.11-.14-.2-.16a.57.57,0,0,1,0-.29c.09,0,.13.09.19.14l7.23,7.24.18.16A.52.52,0,0,1,23.46,24.45Z"/><path class="ba0b902d-3b91-4476-bc44-d38650d6d783" d="M32.71,26.1c-.09.1-.17.06-.25,0s-.13-.13-.23-.1l-.17-.15-2.69-2.68a.67.67,0,0,1-.25-.63l.1.08L32.66,26Z"/><path class="abc957fa-5efb-4101-8461-a3eee6e0f1ec" d="M29.12,26.05a10.71,10.71,0,0,0,.84.81l.19.2a5.36,5.36,0,0,1,1.08,1.24c0,.16.09.32.12.48a2.77,2.77,0,0,1,.1.81c-.08,0-.08-.07-.09-.12a1.81,1.81,0,0,0-.56-1c-.5-.48-1-1-1.47-1.46-.21-.21-.33-.22-.55,0l-.72.74c-.51.53-1,1-1.59,1.56a.2.2,0,0,1-.14.08,1.34,1.34,0,0,1-.26-.27.88.88,0,0,1,.25-.41l.55-.54c.38-.34.74-.7,1.09-1.08l.79-.79A.75.75,0,0,1,29.12,26.05Z"/><path class="be5d082c-df90-4d20-b205-2a8a6f795607" d="M31.23,28.3a5.36,5.36,0,0,0-1.08-1.24l-.19-.2c.14,0,.21.1.29.17.34.28.66.57,1,.87.57.5,1.14,1,1.68,1.5a5.23,5.23,0,0,1,.68.65.11.11,0,0,0,.09.06,1.54,1.54,0,0,1-.58,1.19.28.28,0,0,0-.11-.24c-.31-.28-.6-.58-.92-.84-.12-.1-.22-.3-.43-.19a3.38,3.38,0,0,0,0-.55,3.73,3.73,0,0,0-.15-.81c0-.11-.09-.21-.13-.32S31.29,28.25,31.23,28.3Z"/><path class="f4598338-46ee-4396-8210-06a5a30f328b" d="M29.12,26.05a.75.75,0,0,0-.37.23l-.79.79c-.16-.08-.18-.16-.05-.27s.12-.08.13-.16c.28-.22.51-.48.78-.7C28.93,26,29.07,25.86,29.12,26.05Z"/><path class="f970ffd3-8355-48fc-a899-2a8a6815b28c" d="M27.22,24.56c-.16.08-.31.17-.48.24s-.23.07-.28-.16a5.13,5.13,0,0,0,.83-.37.53.53,0,0,1,.28-.07C27.48,24.35,27.32,24.43,27.22,24.56Z"/><path class="a8dc6592-a16a-42bd-9ad4-1521f40aa68a" d="M27.57,24.2a.53.53,0,0,0-.28.07,5.13,5.13,0,0,1-.83.37c-.1-.17.06-.16.14-.19s.13,0,.15-.1h.07a4.39,4.39,0,0,0,.62-.29,2.58,2.58,0,0,1,.54-.23A1.64,1.64,0,0,1,27.57,24.2Z"/><path class="ff53b40d-9483-4a1f-b6b9-b3cdc603f511" d="M28,23.82a2.58,2.58,0,0,0-.54.23,4.39,4.39,0,0,1-.62.29c0-.09.11-.08.15-.14.28-.1.53-.26.79-.38a.42.42,0,0,1,.24-.07h0Z"/><path class="ff53b40d-9483-4a1f-b6b9-b3cdc603f511" d="M28,23.75l0-.05,0,0,0,0Z"/><path class="ff53b40d-9483-4a1f-b6b9-b3cdc603f511" d="M28,26.64c0,.08-.07.11-.13.16s-.11.19.05.27c-.35.38-.71.74-1.09,1.08-.09,0-.11-.08-.17-.12a7,7,0,0,1,.65-.68c.11-.1.1-.16,0-.26-.44-.41-.87-.83-1.3-1.25S25,24.76,24.42,24.21c-.1-.1-.25-.16-.3-.31l.34-.41a.42.42,0,0,1,.27.14c.66.6,1.34,1.18,2,1.79C27.17,25.82,27.63,26.2,28,26.64Z"/><path class="ba0b902d-3b91-4476-bc44-d38650d6d783" d="M24.12,23.9c.05.15.2.21.3.31.54.55,1.08,1.09,1.63,1.63s.86.84,1.3,1.25c.1.1.11.16,0,.26a7,7,0,0,0-.65.68l-.54.54A.56.56,0,0,0,26,29a1,1,0,0,1-.37-.34c.1-.15.21-.3.3-.45A.36.36,0,0,0,26,28,1.25,1.25,0,0,0,26,26.78a3.46,3.46,0,0,0-.65-.82c-.49-.57-1-1.13-1.48-1.69,0,0,0-.07-.1-.07A1.15,1.15,0,0,0,24,24Z"/><path class="a6281895-f7bc-40bf-b301-13f4f157d8c3" d="M24.35,29.88c.26-.2.45-.48.73-.66a.31.31,0,0,1,.19.09l.7.63L27.18,31l1.65,1.47c.3.27.62.53.91.82.12.11.31.17.33.37a6.92,6.92,0,0,1-1.81-.19.16.16,0,0,0-.07-.16,4.07,4.07,0,0,1-.43-.4l-1.64-1.45-.88-.78Z"/><path class="ba0b902d-3b91-4476-bc44-d38650d6d783" d="M32.51,31.65c0,.05,0,.08.09.11a6.91,6.91,0,0,1,.6.5.16.16,0,0,1,0,.24,2.68,2.68,0,0,1-2.13,1.15,1.55,1.55,0,0,0-.21,0c0-.15-.12-.18-.2-.25l-1.83-1.65a.41.41,0,0,1-.15-.24s.05,0,.07,0a5.4,5.4,0,0,0,1.6.11l.15,0c.24,0,.41-.21.63-.28a.8.8,0,0,0,.69.36A3,3,0,0,0,32.51,31.65Z"/><path class="a8dc6592-a16a-42bd-9ad4-1521f40aa68a" d="M28.71,31.55a.41.41,0,0,0,.15.24l1.83,1.65c.08.07.21.1.2.25h-.82c0-.2-.21-.26-.33-.37-.29-.29-.61-.55-.91-.82L27.18,31,26,29.94l-.7-.63a.31.31,0,0,0-.19-.09,3.45,3.45,0,0,1,.52-.56A1,1,0,0,0,26,29l.1.1a1.34,1.34,0,0,0,.26.27l.14.15L28,31l0,0h0l0,.08,0,0h0a.07.07,0,0,0,.07.07h0C28.29,31.43,28.53,31.44,28.71,31.55Z"/><path class="f4865abb-66cd-4d68-bbaf-19efe4011440" d="M24.35,29.88l.89.83.88.78,1.64,1.45a4.07,4.07,0,0,0,.43.4.16.16,0,0,1,.07.16A5.6,5.6,0,0,1,27,33.07a2.3,2.3,0,0,1-.47-.35c-.3-.28-.6-.56-.88-.86-.54-.57-1.12-1.1-1.64-1.68Z"/><path class="ff53b40d-9483-4a1f-b6b9-b3cdc603f511" d="M32.51,31.65a3,3,0,0,1-.66.07.8.8,0,0,1-.69-.36c.1-.18.26-.32.36-.51a2.87,2.87,0,0,0,.13-.82c.21-.11.31.09.43.19.32.26.61.56.92.84a.28.28,0,0,1,.11.24A2,2,0,0,1,32.51,31.65Z"/><path class="f970ffd3-8355-48fc-a899-2a8a6815b28c" d="M24.58,27.19a2.36,2.36,0,0,1-.61,1l-.31.32-.23-.34c0-.17.2-.26.3-.39s.33-.51.51-.76C24.33,27.14,24.47,27.13,24.58,27.19Z"/><path class="ba0b902d-3b91-4476-bc44-d38650d6d783" d="M23.43,28.19l.23.34a.64.64,0,0,1-.23.26c-.06-.13-.19-.21-.23-.35Z"/><path class="a8dc6592-a16a-42bd-9ad4-1521f40aa68a" d="M24.58,27.19c-.11-.06-.25-.05-.34-.15l.07-.14c.12-.07.22-.27.37,0A.56.56,0,0,1,24.58,27.19Z"/><path class="a6281895-f7bc-40bf-b301-13f4f157d8c3" d="M23.2,28.44c0,.14.17.22.23.35a.31.31,0,0,1-.15.17c-.07-.12-.22-.19-.26-.33A.81.81,0,0,1,23.2,28.44Z"/><path class="f4865abb-66cd-4d68-bbaf-19efe4011440" d="M23,28.63c0,.14.19.21.26.33-.09.14-.17.13-.26,0S22.8,28.74,23,28.63Z"/><path class="ff53b40d-9483-4a1f-b6b9-b3cdc603f511" d="M26.75,24.35c0,.07-.08.09-.15.1A.13.13,0,0,1,26.75,24.35Z"/><path class="b101b8f6-4ff7-4352-84bb-c280f18df572" d="M28,31l-1.5-1.51-.14-.15a.2.2,0,0,0,.14-.08c.54-.52,1.08-1,1.59-1.56l.72-.74c.22-.23.34-.22.55,0,.49.49,1,1,1.47,1.46a1.81,1.81,0,0,1,.56,1c0,.05,0,.11.09.12,0,.19,0,.38,0,.57a1.25,1.25,0,0,1-1.19,1.22l-.56,0A3.32,3.32,0,0,1,28,31.06h0Z"/><path class="f4865abb-66cd-4d68-bbaf-19efe4011440" d="M28,31.06a3.32,3.32,0,0,0,1.67.34l.56,0a1.25,1.25,0,0,0,1.19-1.22c0-.19,0-.38,0-.57a2.77,2.77,0,0,0-.1-.81c0-.16-.08-.32-.12-.48s.09,0,.11.05.08.21.13.32a4.4,4.4,0,0,0,.12.81c0,.24,0,.49,0,.73a1.4,1.4,0,0,1-1.07,1.32,4.35,4.35,0,0,1-1.44,0,7.45,7.45,0,0,1-.92-.27h0c0-.05,0-.07-.07-.07h0l0,0Z"/><path class="be5d082c-df90-4d20-b205-2a8a6f795607" d="M26.07,29.1,26,29a.56.56,0,0,1,.19-.43L26.7,28c.06,0,.08.12.17.12l-.55.54A.88.88,0,0,0,26.07,29.1Z"/><path class="f970ffd3-8355-48fc-a899-2a8a6815b28c" d="M28.15,31.25a7.45,7.45,0,0,0,.92.27,4.35,4.35,0,0,0,1.44,0,1.4,1.4,0,0,0,1.07-1.32c0-.24,0-.49,0-.73h0a3.38,3.38,0,0,1,0,.55,2.87,2.87,0,0,1-.13.82c-.1.19-.26.33-.36.51s-.39.26-.63.28l-.15,0a5.4,5.4,0,0,1-1.6-.11s-.05,0-.07,0C28.53,31.44,28.29,31.43,28.15,31.25Z"/><path class="ba0b902d-3b91-4476-bc44-d38650d6d783" d="M31.62,29.48h0a4.4,4.4,0,0,1-.12-.81A3.73,3.73,0,0,1,31.62,29.48Z"/><path class="f970ffd3-8355-48fc-a899-2a8a6815b28c" d="M28.08,31.18c.05,0,.08,0,.07.07A.07.07,0,0,1,28.08,31.18Z"/><path class="f4865abb-66cd-4d68-bbaf-19efe4011440" d="M28,31l0,0Z"/><path class="f970ffd3-8355-48fc-a899-2a8a6815b28c" d="M28,31.14l0,0Z"/></svg>