<svg id="b408ac24-6936-4d33-a851-df638d324e3c" data-name="Ebene 1" xmlns="http://www.w3.org/2000/svg" viewBox="0 0 50 50"><defs><style>.a228f5c9-9322-4d12-bb09-7a05f8df88ce{fill:#fff;}.ffd3e8c6-0f05-495f-9e2a-036d0689e775{fill:#f0a741;}.afc75572-1aee-404a-b881-5db5db4bba62{fill:#fdd72d;}.f9f7fba4-42ab-4158-b42b-5e07c87c37de{fill:#efb43b;}.fc8b76df-2f1d-4c87-b713-9e18d4ae8396{fill:#363836;}.e858fde3-30c8-49a7-adb6-a5827e270921{fill:#ffd533;}.aaef76b8-fe58-4192-b52b-ea15a1d28a10{fill:#fed62c;}.b61c3e67-89a0-4597-9693-e492c84ac504{fill:#fe7e5e;}.e2f7fa62-55d9-4fd2-b750-4f7f787d1c3f{fill:#393637;}.f65a385d-25c6-4f53-a6fb-80389d32ae55{fill:#f4d82a;}.a8d6aa3f-7a24-4c37-ac09-06c26060f3cf{fill:#35373e;}.b42967a8-12e2-4dfd-8a3b-cd00b652d8ca{fill:#fffedc;}.b6c114bc-e3ec-4f05-bad2-0f6d865a1e20{fill:#fffbe7;}.b349c5a9-a39f-4a8a-b907-09da93bb8bf1{fill:#f6e02a;}.abfd141b-ecac-4461-afc4-08853a35fb07{fill:#3c362d;}.af3decf6-0fd4-4770-accb-99d78950eac4{fill:#fffedf;}.bde45a58-51a4-4a87-a63f-714362a8b082{fill:#ffffdb;}</style></defs><circle class="a228f5c9-9322-4d12-bb09-7a05f8df88ce" cx="25" cy="25" r="18.6"/><path class="ffd3e8c6-0f05-495f-9e2a-036d0689e775" d="M35.61,14.39A15,15,0,1,0,40,25,14.93,14.93,0,0,0,35.61,14.39Z"/><ellipse class="afc75572-1aee-404a-b881-5db5db4bba62" cx="25.2" cy="25.32" rx="10.8" ry="10.79"/><circle class="f9f7fba4-42ab-4158-b42b-5e07c87c37de" cx="25.33" cy="25.36" r="7.47"/><path class="fc8b76df-2f1d-4c87-b713-9e18d4ae8396" d="M28.06,19.24a10.3,10.3,0,0,1,2.09-2.08,10.11,10.11,0,0,1,4.75-1.28c.29,0,.51.29.47.71a17,17,0,0,0,.28,2,7.52,7.52,0,0,1-.79,4,8.07,8.07,0,0,1-2.43,3.16Z"/><path class="e858fde3-30c8-49a7-adb6-a5827e270921" d="M29.23,19.81a9.78,9.78,0,0,1,5.43-2.58c.13,0-.16,5.92-2.1,7.39Z"/><path class="a228f5c9-9322-4d12-bb09-7a05f8df88ce" d="M29.47,20l.06-.11s2.43-1.77,4.38-1.7v.05c0,.42.17,3.84-1.42,5.87Z"/><path class="fc8b76df-2f1d-4c87-b713-9e18d4ae8396" d="M21.74,19.46a9.92,9.92,0,0,0-2.08-2.08,10,10,0,0,0-4.75-1.28c-.29,0-.51.29-.48.71a14.62,14.62,0,0,1-.27,2,7.47,7.47,0,0,0,.78,4,10.81,10.81,0,0,0,2.73,3.55Z"/><path class="aaef76b8-fe58-4192-b52b-ea15a1d28a10" d="M21.08,20a8.5,8.5,0,0,0-5.39-2.63,1.05,1.05,0,0,0,0,.31c0,1,.39,5.82,2.12,7.13Z"/><path class="a228f5c9-9322-4d12-bb09-7a05f8df88ce" d="M20.92,20.19l-.06-.11s-2.43-1.77-4.38-1.7c0,0-.28,3.75,1.42,5.92Z"/><path class="b61c3e67-89a0-4597-9693-e492c84ac504" d="M27.54,33.18a1.45,1.45,0,0,1-1.42,1.19A1.79,1.79,0,0,1,24.58,33c0-.53.8-.51,1.54-.51S27.54,32.65,27.54,33.18Z"/><ellipse class="e2f7fa62-55d9-4fd2-b750-4f7f787d1c3f" cx="25.1" cy="25.69" rx="7.63" ry="7.27"/><path class="a228f5c9-9322-4d12-bb09-7a05f8df88ce" d="M25,33.55a3,3,0,0,1-2.28-2A2.63,2.63,0,0,1,24,28.71a2,2,0,0,0,1-1.76,30.65,30.65,0,0,1,0-3.16c.11-.36.29-.87.7-.91s.86.53.87,1.11a26.88,26.88,0,0,0,.33,3.57c.28.76.59.86,1.14,1.29a2.87,2.87,0,0,1,1.11,3.09C28.58,33.49,26.2,33.77,25,33.55Z"/><circle class="f65a385d-25c6-4f53-a6fb-80389d32ae55" cx="30.54" cy="26.95" r="2.7"/><circle class="a8d6aa3f-7a24-4c37-ac09-06c26060f3cf" cx="30.61" cy="26.72" r="2.16"/><circle class="b42967a8-12e2-4dfd-8a3b-cd00b652d8ca" cx="31.18" cy="25.73" r="0.66"/><circle class="b6c114bc-e3ec-4f05-bad2-0f6d865a1e20" cx="29.3" cy="28.34" r="0.39"/><circle class="b349c5a9-a39f-4a8a-b907-09da93bb8bf1" cx="20.95" cy="27.09" r="2.7"/><circle class="abfd141b-ecac-4461-afc4-08853a35fb07" cx="21.02" cy="26.86" r="2.16"/><circle class="af3decf6-0fd4-4770-accb-99d78950eac4" cx="21.59" cy="25.87" r="0.66"/><circle class="bde45a58-51a4-4a87-a63f-714362a8b082" cx="19.99" cy="28.52" r="0.39"/><path class="e2f7fa62-55d9-4fd2-b750-4f7f787d1c3f" d="M27.59,30.34c-.14-.25-.6-.33-1.09-.35-1.15,0-1.52.15-1.61.29s0,.81,1.24,1.12C26.84,31.58,27.72,30.56,27.59,30.34Z"/></svg>