<?xml version="1.0" encoding="UTF-8"?>
<svg id="Ebene_1" data-name="Ebene 1" xmlns="http://www.w3.org/2000/svg" width="50" height="50" viewBox="0 0 50 50">
  <defs>
    <style>
      .cls-1 {
        fill: #ff8500;
      }

      .cls-1, .cls-2, .cls-3 {
        stroke-width: 0px;
      }

      .cls-2 {
        fill: #120901;
      }

      .cls-3 {
        fill: #fff;
      }
    </style>
  </defs>
  <circle class="cls-3" cx="25" cy="25" r="18.6"/>
  <g>
    <path class="cls-2" d="M25,10h0c8.28,0,15,6.72,15,15h0c0,8.28-6.72,15-15,15h0c-8.28,0-15-6.72-15-15h0c0-8.28,6.72-15,15-15Z"/>
    <path class="cls-1" d="M33.81,24.52c-.25,0-.51.03-.73.16-.28.19-.51.63-.51,1.04,0,.35.32.79.66.98.98.51,2.02-.63,1.52-1.58-.16-.35-.57-.57-.95-.6Z"/>
    <path class="cls-3" d="M25.9,17.76c.35.06.85,1.26.95,2.27.03.22,0,.69,0,1.04-.03.54-.09.69-.28.95-.41.6-1.17.98-2.15,1.04-.28.03-.76.06-1.01.06-.41-.03-.44-.03-.38-.19.03-.06.13-.28.19-.47.41-1.26,1.33-3.28,1.8-3.92.32-.47.69-.82.88-.79ZM25.58,15.01c-.16,0-.35.03-.63.13-.41.13-.79.35-1.14.63-.51.38-.57.41-.6.25-.03-.25-.44-.6-.82-.63-.38-.06-.85.13-1.04.41-.09.13-.35.54-.6.95-.44.76-.6,1.29-.44,1.61.09.19.06.41-.22,1.77-.51,2.46-1.33,7.55-1.33,8.53-.03,2.21,0,4.29.03,4.71.09.63.32,1.07.73,1.36.41.28.63.35,1.07.22.44-.09.66-.25.92-.6.28-.41.35-.85.35-2.78-.03-2.34.28-6.03.47-6.25.06-.03.47-.06.95,0,1.77.16,3.22-.16,4.33-.98,1.2-.88,1.71-1.89,1.8-3.6.09-2.24-.63-4.23-1.93-5.24-.41-.28-.54-.32-1.17-.41-.32-.06-.54-.09-.73-.06Z"/>
  </g>
</svg>