<?xml version="1.0" encoding="UTF-8"?>
<svg id="Ebene_1" data-name="Ebene 1" xmlns="http://www.w3.org/2000/svg" version="1.1" viewBox="0 0 50 50">
  <circle cx="25" cy="25" r="18.6" fill="#fff" stroke-width="0"/>
  <g>
    <circle cx="25" cy="25" r="15" fill="#000" stroke-width="0"/>
    <path d="M23.27,26.21c-1.3-1.54-1.86-2.9-1.86-4.26,0-.8.08-1.3.19-1.76-.64,1.37-.86,2.39-.86,3.35,0,5.11,4.63,5.76,4.63,9.38,0,.87-.46,2.06-2,4.28,4.65-6.28,5.84-8.54,5.84-10.11,0-4.39-4.61-5.13-4.61-10.06,0-1.13.64-2.48,1.83-4.25,0,0-1.13,1.61-1.74,2.47-2.18,3.07-3.02,7.05-1.42,10.97h0Z" fill="#fff" stroke-width="0"/>
  </g>
  <metadata>
    <sfw xmlns="http://ns.adobe.com/SaveForWeb/1.0/">
      <slices/>
      <sliceSourceBounds x="86.66" y="-312.77" width="1755.13" height="531.43" bottomLeftOrigin="true"/>
    </sfw>
  </metadata>
</svg>