<?xml version="1.0" encoding="UTF-8"?>
<svg id="Ebene_1" data-name="Ebene 1" xmlns="http://www.w3.org/2000/svg" width="50" height="50" xmlns:xlink="http://www.w3.org/1999/xlink" viewBox="0 0 50 50">
  <defs>
    <style>
      .cls-1 {
        fill: #fff;
      }

      .cls-2 {
        fill: none;
      }

      .cls-3 {
        clip-path: url(#clippath);
      }
    </style>
    <clipPath id="clippath">
      <rect class="cls-2" x="10" y="10" width="30" height="30"/>
    </clipPath>
  </defs>
  <circle class="cls-1" cx="25" cy="25" r="18.6"/>
  <g class="cls-3">
    <g>
      <path d="M22.42,22.81l.95,2.81h-2.14l1.01-2.81h.19ZM27.55,27.12h-1.57v.55h3.87v-.55h-1.55v-4.42h1.55v-.55h-3.87v.55h1.57v4.42ZM20.49,27.67l.53-1.48h2.55l.5,1.48h.82l-1.99-5.53h-1.13l-2.02,5.53h.74ZM32.94,32.94h-15.87v-15.87h15.87v15.87Z"/>
      <path d="M26.55,40c7.09-.73,12.72-6.37,13.45-13.45h-1.87c-.66,6.15-5.32,11.04-11.58,11.74v1.71Z"/>
      <path d="M10,26.55c.73,7.09,6.37,12.72,13.45,13.45v-1.71c-6.27-.7-10.91-5.6-11.58-11.74h-1.87Z"/>
      <path d="M40,23.45c-.73-7.09-6.37-12.72-13.45-13.45v1.71c6.27.7,10.91,5.6,11.58,11.74h1.87Z"/>
      <path d="M23.45,10c-7.09.73-12.72,6.37-13.45,13.45h1.87c.66-6.15,5.32-11.04,11.58-11.74v-1.71Z"/>
    </g>
  </g>
</svg>