<svg id="f6b8514f-86d9-45d0-a654-c83817915713" data-name="Ebene 1" xmlns="http://www.w3.org/2000/svg" viewBox="0 0 50 50"><defs><style>.b25810d5-ab63-4066-9daf-5f54b5945adc{fill:#fff;}.b0064f73-ea94-46f6-865b-7e12d5542ef2{fill:#fe4350;}</style></defs><circle class="b25810d5-ab63-4066-9daf-5f54b5945adc" cx="25" cy="25" r="18.6"/><path d="M35.61,14.39A15,15,0,1,0,25,40,15,15,0,0,0,35.61,14.39Z"/><path class="b0064f73-ea94-46f6-865b-7e12d5542ef2" d="M32.45,28.07H22V22.42H20.42v6.43a.8.8,0,0,0,.81.78h9.13l-1.89,1.65H18.35V21.93H28.77a.83.83,0,0,0,.54-.2L33,18.52a.77.77,0,0,0,.22-.85.83.83,0,0,0-.76-.51H21.23a.8.8,0,0,0-.81.78v1.94H22V18.72h8.33l-1.89,1.65H17.55a.8.8,0,0,0-.81.78V32.06a.8.8,0,0,0,.81.78H28.77a.83.83,0,0,0,.54-.2L33,29.43a.77.77,0,0,0,.22-.85A.83.83,0,0,0,32.45,28.07Z"/></svg>