<svg id="a0013c73-b180-4c34-979d-079cc7f6bc0b" data-name="Ebene 1" xmlns="http://www.w3.org/2000/svg" viewBox="0 0 50 50"><defs><style>.a40d6cf8-c746-4448-afe1-553b1eec9605{fill:#fff;}.b2079781-6d6f-4130-ad27-dbfee82a1712{fill:#164363;}.e0b8d95a-1c7b-4731-aad1-023cd619b19b{fill:#3dce92;}</style></defs><circle class="a40d6cf8-c746-4448-afe1-553b1eec9605" cx="25" cy="25" r="18.6"/><circle class="b2079781-6d6f-4130-ad27-dbfee82a1712" cx="25" cy="25" r="15"/><path class="e0b8d95a-1c7b-4731-aad1-023cd619b19b" d="M23,28.72c-.87-1.21-1.63-2.29-2.43-3.33a1.81,1.81,0,0,0-.91-.68,11.33,11.33,0,0,0-2.1,0,.5.5,0,0,0-.39.25c-.33.82.08,1.44,1,1.34a1.73,1.73,0,0,1,1.82.93c.71,1.09,1.51,2.11,2.29,3.15s1.34,1,1.89-.24c1.3-3,2.61-5.94,3.89-8.92a.92.92,0,0,1,1-.68c1.08,0,2.15,0,3.22,0,.74,0,.6-.48.63-.91s-.08-.75-.65-.73c-1.37,0-2.75,0-4.12,0a1.07,1.07,0,0,0-1.1.73c-.44,1-.88,2-1.33,3Z"/></svg>