<svg id="a6cf5731-ba1c-4e0f-942c-da613349216f" data-name="Ebene 1" xmlns="http://www.w3.org/2000/svg" xmlns:xlink="http://www.w3.org/1999/xlink" viewBox="0 0 50 50"><defs><style>.b2971943-ab3e-4d22-b82b-49ec101f72ca{fill:#fff;}.ef02ba52-fbb3-4563-a6a1-d54362eba5da{fill:url(#f404c425-a2a5-471a-9e0a-65e3b0211302);}</style><linearGradient id="f404c425-a2a5-471a-9e0a-65e3b0211302" x1="25" y1="40" x2="25" y2="10" gradientUnits="userSpaceOnUse"><stop offset="0" stop-color="#fe015d"/><stop offset="1" stop-color="#9c589c"/></linearGradient></defs><circle class="b2971943-ab3e-4d22-b82b-49ec101f72ca" cx="25" cy="25" r="18.6"/><path class="ef02ba52-fbb3-4563-a6a1-d54362eba5da" d="M25,10a15.17,15.17,0,0,0-3.46.4V29.09a.49.49,0,0,1-.49.49H19.47a.49.49,0,0,1-.48-.49V11.25A15,15,0,1,0,25,10Zm-.35,21.23a.49.49,0,0,1-.48.49H22.59a.49.49,0,0,1-.49-.49V21.68a.49.49,0,0,1,.49-.48h1.58a.49.49,0,0,1,.48.48Zm3.09.8a.49.49,0,0,1-.48.48H25.68a.49.49,0,0,1-.49-.48V20.73a.49.49,0,0,1,.49-.48h1.58a.49.49,0,0,1,.48.48Zm3.09-1.67a.49.49,0,0,1-.48.49H28.77a.49.49,0,0,1-.49-.49V22.48a.49.49,0,0,1,.49-.49h1.58a.49.49,0,0,1,.48.49Z"/></svg>