<?xml version="1.0" encoding="UTF-8"?>
<svg id="Ebene_1" data-name="Ebene 1" xmlns="http://www.w3.org/2000/svg" version="1.1" viewBox="0 0 50 50">
  <circle cx="25" cy="25" r="18.6" fill="#fff" stroke-width="0"/>
  <g>
    <circle cx="25" cy="25" r="15" fill="#00f58c" stroke-width="0"/>
    <g>
      <path d="M29.16,17.68l-7.12,7.12c-.18.18-.42.28-.67.28h0c-.36,0-.7-.21-.85-.54l-2.76-5.83c-.23-.48.12-1.02.65-1.02h10.75Z" fill="#000" stroke-width="0"/>
      <path d="M17.68,33.95v-6.93c0-.37.3-.67.67-.67h6.93l-7.6,7.6Z" fill="#000" stroke-width="0"/>
      <path d="M25.85,25.08h-2.29l6.9-6.9c.32-.32.75-.49,1.19-.49h2.29l-6.9,6.9c-.32.32-.75.49-1.19.49Z" fill="#000" stroke-width="0"/>
    </g>
  </g>
  <metadata>
    <sfw xmlns="http://ns.adobe.com/SaveForWeb/1.0/">
      <slices/>
      <sliceSourceBounds x="86.66" y="-312.77" width="1755.13" height="531.43" bottomLeftOrigin="true"/>
    </sfw>
  </metadata>
</svg>