<svg id="b8107f1f-2af0-4768-a3c0-504a4c02bd08" data-name="Ebene 1" xmlns="http://www.w3.org/2000/svg" xmlns:xlink="http://www.w3.org/1999/xlink" viewBox="0 0 50 50"><defs><style>.bc6227d7-0bb1-4b6b-9144-ea42ca0c2d49{fill:#fff;}.f5be96dd-5443-4d26-9bca-ce15e65889cc{fill:#24110b;}.ac939348-8661-4839-a16d-8459cc75158a{fill:#ffc780;}.ac939348-8661-4839-a16d-8459cc75158a,.b89d4297-26d2-4a3c-a0ea-ca1f8eb933b4{fill-rule:evenodd;}.b89d4297-26d2-4a3c-a0ea-ca1f8eb933b4{fill:url(#b3ad9d5a-48d9-48f4-bb38-0e3c646a068d);}</style><linearGradient id="b3ad9d5a-48d9-48f4-bb38-0e3c646a068d" x1="28.6" y1="-30.64" x2="28.6" y2="-15.38" gradientTransform="matrix(1, 0, 0, -1, 0, 2)" gradientUnits="userSpaceOnUse"><stop offset="0" stop-color="#ffc780"/><stop offset="1" stop-color="#964b48"/></linearGradient></defs><circle class="bc6227d7-0bb1-4b6b-9144-ea42ca0c2d49" cx="25" cy="25" r="18.6"/><path class="f5be96dd-5443-4d26-9bca-ce15e65889cc" d="M35.61,14.39A15,15,0,1,0,25,40,15,15,0,0,0,35.61,14.39Z"/><path class="ac939348-8661-4839-a16d-8459cc75158a" d="M25.79,14.22A10.79,10.79,0,0,1,35,19.39a5.57,5.57,0,0,0-2.17.4A5.7,5.7,0,0,0,31,21a5.81,5.81,0,0,0-1.24,1.83,5.69,5.69,0,0,0,0,4.34A5.81,5.81,0,0,0,31,29a5.7,5.7,0,0,0,1.85,1.21,5.76,5.76,0,0,0,2.17.4,10.79,10.79,0,0,1-4,3.84,10.9,10.9,0,0,1-5.39,1.33,10.78,10.78,0,0,1,.19-21.56Z"/><path class="b89d4297-26d2-4a3c-a0ea-ca1f8eb933b4" d="M35,19.38a5.58,5.58,0,0,0-2.17.41A5.7,5.7,0,0,0,31,21a5.63,5.63,0,0,0-1.68,4,5.53,5.53,0,0,0,.44,2.16A5.65,5.65,0,0,0,35,30.61l0,.05a7.65,7.65,0,0,1-11.54-1.5A7.7,7.7,0,0,1,22.2,25a7.68,7.68,0,0,1,4.58-7A7.61,7.61,0,0,1,35,19.39Z"/></svg>