<?xml version="1.0" encoding="UTF-8"?>
<svg id="Ebene_1" data-name="Ebene 1" xmlns="http://www.w3.org/2000/svg" version="1.1" xmlns:xlink="http://www.w3.org/1999/xlink" viewBox="0 0 50 50">
  <defs>
    <radialGradient id="radial-gradient" cx="-1505.42" cy="391.9" fx="-1505.42" fy="391.9" r=".28" gradientTransform="translate(59320.58 15460.93) scale(39.39 -39.39)" gradientUnits="userSpaceOnUse">
      <stop offset=".13" stop-color="#563c70"/>
      <stop offset=".32" stop-color="#e1813b"/>
      <stop offset=".74" stop-color="#ff902f"/>
      <stop offset=".76" stop-color="#f99336"/>
      <stop offset=".8" stop-color="#ea9e4c"/>
      <stop offset=".84" stop-color="#d2b070"/>
      <stop offset=".89" stop-color="#b1c8a0"/>
      <stop offset=".94" stop-color="#8be4d9"/>
    </radialGradient>
  </defs>
  <circle cx="25" cy="25" r="18.6" fill="#fff" stroke-width="0"/>
  <g>
    <circle cx="25" cy="25" r="15" fill="#000" stroke-width="0"/>
    <path d="M35.1,26.88c-.57-.65-1.16-1.32-1.4-2.08-.54-1.66-.4-2.62-.21-4.07.11-.83.26-1.87.29-3.29.04-1.65-.31-2.76-1.05-3.3-.63-.46-1.54-.48-2.68-.07-.84.3-1.66.68-2.45,1.05-1.47.68-2.86,1.32-3.98,1.25-.39-.02-.86-.08-1.4-.15-2.02-.25-4.79-.6-6.21.56-.44.36-.66.98-.68,1.9-.02.82.12,1.79.25,2.73.21,1.51.43,3.07.01,4.02-.94,2.11-1.31,3.79-1.13,5.12.18,1.37.95,2.39,2.34,3.11.85.44,1.66.56,2.53.68,1.18.17,2.51.36,4.26,1.4.85.5,1.59.74,2.33.74.25,0,.5-.03.75-.08,1.15-.24,2.37-1.04,3.86-2.51.76-.75,1.68-1.19,2.57-1.62,1.02-.49,2.08-1,2.88-1.99,1.01-1.25.1-2.3-.87-3.4h0ZM16.11,23.5c-.03-.68-.04-1.35.02-1.98.1-1.02.36-1.77.81-2.28.6-.68,1.5-1.18,2.75-1.53,1.08-.3,2.21-.43,3.21-.55l.16-.02c.76-.09,1.57-.29,2.43-.49.94-.23,1.92-.47,2.9-.57.17-.02.35-.03.51-.03.78,0,1.43.21,1.94.64.53.44.91,1.09,1.12,1.95.25,1.01.41,1.79.56,2.54.1.49.19.96.3,1.46-.07-.28-.14-.55-.21-.82-.24-.94-.47-1.83-.85-3.02-.28-.88-.75-1.54-1.37-1.96-.61-.41-1.37-.59-2.25-.53-1.09.07-2.18.3-3.23.52-.68.14-1.32.28-1.94.37-1.05.15-2.17.34-3.22.68-1.23.41-2.12.95-2.73,1.68-.48.57-.76,1.38-.87,2.48-.05.47-.06.96-.05,1.46h0ZM16.06,23.37c-.05-.79-.08-1.59-.02-2.31.08-.98.34-1.69.78-2.16.58-.63,1.46-1.08,2.67-1.38,1.04-.25,2.15-.35,3.13-.43.19-.02.37-.03.54-.05.86-.08,1.79-.34,2.79-.61.88-.24,1.79-.49,2.7-.63.24-.04.47-.06.69-.06.76,0,1.4.23,1.89.67.5.46.84,1.15,1.02,2.06.19.97.3,1.74.39,2.43.1.7.18,1.33.34,2.04-.15-.62-.26-1.18-.38-1.76-.15-.75-.3-1.53-.56-2.54-.24-.96-.69-1.67-1.32-2.11-.61-.43-1.39-.59-2.32-.49-.98.11-1.96.35-2.91.57-.86.21-1.67.4-2.42.49l-.16.02c-1.95.23-4.62.54-6,2.1-.46.52-.73,1.27-.82,2.31-.06.59-.05,1.22-.03,1.85h0ZM33.65,28.31c-.53,1.34-1.44,2.32-2.4,3.35-.09.1-.19.2-.28.3-1.49,1.62-3.01,2.39-4.77,2.42-.23,0-.42,0-.6,0,.28-.02.57-.04.87-.07.43-.04.86-.13,1.26-.25.4-.12.8-.29,1.18-.5.38-.21.75-.46,1.11-.75.36-.29.71-.63,1.05-1,.45-.5.97-1.09,1.41-1.73.45-.65.78-1.29,1.01-1.96.35-1.02.19-2.04-.09-3.09.37,1.11.69,2.17.25,3.26h0ZM33.53,25.2s.01.04.02.05c.43,1.11.84,2.15.34,3.25-.53,1.17-1.35,2-2.21,2.88-.24.25-.5.5-.75.77-.78.83-1.53,1.42-2.29,1.81-.75.38-1.52.56-2.35.56-.11,0-.22,0-.34,0-.33-.02-.65-.03-.96-.05-.04,0-.08,0-.12,0,.11,0,.22,0,.33,0,.34,0,.68,0,1.01-.01,1.78-.03,3.32-.81,4.82-2.44.09-.1.19-.21.28-.3.49-.53.96-1.04,1.37-1.58.46-.61.8-1.18,1.04-1.8.42-1.05.15-2.07-.19-3.13h0ZM33.42,28.11c-.52,1.49-1.47,2.63-2.4,3.66-.69.76-1.39,1.33-2.14,1.74-.76.41-1.55.66-2.42.74-.04,0-.08,0-.11.01.13-.02.26-.04.38-.06.43-.08.84-.19,1.24-.34.39-.15.78-.33,1.15-.54.36-.21.72-.46,1.05-.74.33-.28.65-.59.96-.93.52-.59.94-1.15,1.29-1.73.19-.31.35-.63.49-.95.15-.33.27-.67.37-1.02.18-.63.23-1.3.16-2.05-.03-.31-.08-.63-.15-.99.3,1.1.5,2.15.14,3.21h0ZM33.19,27.92c-.19.67-.47,1.31-.85,1.94-.34.57-.76,1.13-1.28,1.72-1.12,1.26-2.43,2.08-3.91,2.44,4.06-1.18,6.58-5.17,6.01-9.27.23,1.04.32,2.12.02,3.17ZM32.79,20.77c-.06-.69-.12-1.48-.27-2.47-.17-1.16-.59-1.98-1.25-2.45-.61-.44-1.43-.56-2.41-.37-.87.17-1.74.44-2.58.7-1.1.34-2.14.66-3.06.72-.25.02-.52.03-.8.04-.97.05-2.07.1-3.1.32-1.2.25-2.08.66-2.66,1.27-.98,1.01-.83,2.96-.68,4.86-.01-.14-.02-.28-.04-.42-.17-1.87-.35-3.81.61-4.76.58-.57,1.45-.95,2.65-1.15,1.04-.17,2.14-.19,3.1-.2.36,0,.7,0,1-.02.98-.04,2.11-.43,3.31-.83.81-.28,1.65-.56,2.5-.76.35-.08.68-.12.99-.12.75,0,1.36.25,1.81.74.46.51.74,1.28.84,2.28.11,1.06.13,1.87.16,2.59.04,1.09.06,1.93.34,3.04-.29-1.1-.36-1.95-.44-2.98h0ZM16.68,18.55c.58-.6,1.44-1.01,2.64-1.25,1.03-.21,2.13-.27,3.1-.32.29-.01.55-.03.81-.04.93-.06,1.97-.38,3.07-.72.84-.26,1.7-.53,2.58-.7.3-.06.58-.09.85-.09.76,0,1.38.24,1.84.71.48.48.79,1.21.93,2.17.14,1,.21,1.78.27,2.47.07.88.14,1.63.33,2.51-.2-.85-.31-1.58-.42-2.39-.1-.68-.2-1.46-.39-2.43-.2-1.05-.63-1.81-1.26-2.27-.62-.44-1.42-.59-2.39-.44-.91.14-1.82.39-2.7.63-.99.27-1.93.53-2.78.61-.17.02-.35.03-.54.05-.98.08-2.09.18-3.13.43-1.22.3-2.1.75-2.69,1.39-.45.48-.7,1.2-.79,2.19-.06.7-.03,1.48.02,2.25-.15-1.86-.28-3.77.67-4.76h0ZM30.76,19.49c-.45-.54-.99-.99-1.6-1.34-.6-.34-1.26-.58-1.96-.71-.56-.11-1.16-.16-1.76-.16-.16,0-.32,0-.49.01-.75.03-1.51.15-2.28.33-.52.13-1.03.3-1.52.5-.49.21-.96.45-1.39.73-.44.28-.85.6-1.21.95-.38.36-.71.75-.99,1.16-.31.46-.57.98-.77,1.55-.19.54-.32,1.12-.4,1.73,0,.05-.01.1-.02.16,0-.15.02-.29.03-.44.13-1.36.49-2.48,1.09-3.31.56-.78,1.33-1.44,2.31-1.98.87-.48,1.86-.84,2.96-1.08,1.31-.29,2.45-.42,3.5-.42.4,0,.8.02,1.17.06,1.5.17,2.72.91,3.52,2.13.54.83.97,1.6,1.32,2.44-.05-.11-.11-.22-.17-.33-.36-.69-.8-1.34-1.35-1.98h0ZM32.09,21.63c-1.51-2.59-4.3-4.19-7.3-4.19-.45,0-.91.04-1.37.11.68-.12,1.35-.19,2.01-.19.6,0,1.19.05,1.75.16,1.41.26,2.62.96,3.52,2.03.56.67,1.02,1.35,1.39,2.08h0ZM22.56,17.74c-3.33.91-5.65,3.68-6.14,6.88.01-.12.02-.25.04-.37.16-1.26.55-2.35,1.16-3.25.55-.81,1.29-1.51,2.18-2.08.83-.53,1.75-.93,2.76-1.19h0ZM16.35,29.27c.12.68.32,1.29.59,1.84.28.55.64,1.04,1.07,1.46.44.42.97.78,1.58,1.07.74.35,1.49.54,2.27.67-.91-.13-1.76-.31-2.6-.71-.61-.3-1.14-.66-1.57-1.09-.42-.42-.76-.92-1.01-1.48-.25-.55-.41-1.18-.49-1.88-.08-.68-.08-1.44,0-2.27.02-.18.03-.37.03-.57,0,.27,0,.52,0,.77-.03.8.02,1.54.13,2.2h0ZM19.63,33.59c-.6-.29-1.13-.64-1.57-1.06-.43-.41-.79-.9-1.06-1.44-.27-.54-.47-1.15-.59-1.82-.12-.66-.16-1.4-.13-2.19,0-.09,0-.18,0-.27,0,.16.01.32.01.47.01.76.1,1.47.26,2.12.16.65.39,1.25.69,1.78.3.53.68,1.01,1.13,1.42.45.41.98.76,1.58,1.05.67.31,1.35.5,2.06.63-.83-.12-1.61-.31-2.38-.68h0ZM31.01,19.32c-.81-1.24-2.05-1.99-3.58-2.16-1.34-.15-2.88-.03-4.69.36-.53.12-1.05.26-1.53.44-.52.19-1.01.41-1.45.65-.98.54-1.77,1.22-2.33,2-.32.44-.57.97-.76,1.56-.17.53-.29,1.14-.35,1.79,0,.05,0,.1-.01.15,0-.18.01-.35.03-.53.1-1.43.43-2.5,1.02-3.28.57-.75,1.39-1.38,2.44-1.87.86-.4,1.89-.72,3.05-.95,1.33-.26,2.85-.55,4.32-.55.17,0,.35,0,.51.01,1.6.08,2.82.85,3.53,2.23.54,1.04.92,1.92,1.24,2.83-.38-.93-.83-1.78-1.43-2.69h0ZM32.32,21.49c-.29-.77-.63-1.51-1.06-2.34-.73-1.41-1.97-2.19-3.59-2.27-1.64-.08-3.35.25-4.85.54-1.17.23-2.2.55-3.06.95-1.06.5-1.89,1.14-2.47,1.89-.6.79-.94,1.87-1.04,3.32,0,.11-.01.21-.02.32,0-.41.02-.82.05-1.22.11-1.2.41-2.09.92-2.72.3-.38.69-.73,1.15-1.03.41-.27.89-.52,1.42-.73.86-.34,1.85-.6,3.13-.81.39-.07.79-.14,1.22-.22,1.24-.24,2.52-.48,3.78-.49h.05c1.66,0,2.87.81,3.5,2.34.5,1.21.81,2.14,1.12,3.17-.08-.24-.17-.47-.25-.69h0ZM31.52,18.98c-.33-.79-.81-1.4-1.43-1.8-.59-.38-1.31-.58-2.13-.58h-.05c-1.27.01-2.56.26-3.8.49-.42.08-.82.16-1.21.22-1.28.21-2.28.47-3.14.82-.54.21-1.02.46-1.44.74-.46.31-.85.66-1.16,1.05-.52.65-.82,1.55-.94,2.76-.03.33-.05.66-.05,1-.01-.55,0-1.1.05-1.62.11-1.08.39-1.88.86-2.45.6-.72,1.48-1.26,2.7-1.66,1.04-.34,2.15-.53,3.21-.68.62-.09,1.26-.22,1.94-.37,1.05-.22,2.14-.45,3.22-.52.1,0,.2,0,.3,0,.79,0,1.47.2,2.02.61.56.42.98,1.04,1.24,1.85.39,1.19.61,2.08.85,3.02.05.18.09.36.14.55-.33-1.13-.65-2.11-1.19-3.41ZM16.17,25.77c0,.39,0,.76-.03,1.1-.08.83-.07,1.6,0,2.28.08.7.25,1.34.5,1.89.25.57.6,1.07,1.02,1.5.43.43.97.8,1.58,1.1.92.44,1.83.62,2.83.74-1.14-.14-2.14-.29-3.16-.78-2.43-1.19-3.33-3.39-2.82-6.94.04-.28.06-.58.06-.9h0ZM19.98,33.58c-.59-.28-1.12-.63-1.57-1.03-.44-.4-.82-.88-1.12-1.4-.59-1.04-.9-2.33-.93-3.84h0c0,.06,0,.12.01.18.11,1.46.5,2.72,1.16,3.76.66,1.04,1.59,1.85,2.77,2.4.43.2.88.36,1.36.48.16.04.33.08.51.11-.76-.12-1.48-.32-2.19-.65h0ZM20.33,33.58c-1.16-.54-2.08-1.34-2.74-2.37-.58-.92-.95-2.02-1.1-3.28.21,1.29.66,2.43,1.33,3.39.35.5.77.95,1.24,1.34.47.39,1.01.72,1.59.99.54.25,1.1.43,1.71.56-.75-.13-1.42-.33-2.03-.62h0ZM20.69,33.57c-1.15-.53-2.09-1.3-2.8-2.3-.56-.79-.96-1.7-1.19-2.72.12.43.27.84.45,1.23.26.58.59,1.12.97,1.61.38.48.82.92,1.3,1.3.48.38,1.02.7,1.59.96.43.19.88.35,1.34.47.07.02.14.03.21.05-.67-.13-1.29-.32-1.86-.59h0ZM21.04,33.56c-1.14-.51-2.1-1.26-2.86-2.23-.51-.65-.91-1.37-1.2-2.17,1.05,2.53,3.24,4.33,5.79,4.96-.61-.12-1.18-.31-1.73-.56ZM22.1,33.83c-.85-.29-1.65-.71-2.37-1.25-.73-.55-1.35-1.21-1.86-1.95-.53-.77-.92-1.63-1.17-2.54-.29-1.09-.37-2.21-.21-3.32.15-1.07.5-2.09,1.04-3.04.54-.94,1.25-1.76,2.1-2.43.88-.69,1.88-1.19,2.98-1.48.72-.19,1.45-.29,2.18-.29.91,0,1.81.15,2.68.44.85.29,1.65.71,2.37,1.25.73.55,1.35,1.21,1.86,1.95.53.77.92,1.63,1.17,2.54.29,1.09.37,2.21.21,3.32-.15,1.07-.5,2.09-1.04,3.04-.54.94-1.25,1.76-2.1,2.43-.88.69-1.88,1.19-2.98,1.48-.72.19-1.45.29-2.18.29-.91,0-1.81-.15-2.68-.44h0ZM24.98,34.53c.31.01.63.03.96.05.11,0,.23.01.34.01.78,0,1.52-.16,2.22-.49.83-.39,1.64-1.01,2.47-1.9.25-.27.5-.52.75-.77.87-.88,1.69-1.72,2.23-2.9.49-1.08.12-2.1-.29-3.18.02.06.05.11.07.17.48,1.08.93,2.09.39,3.18-.54,1.08-1.33,1.82-2.16,2.6-.35.33-.72.67-1.07,1.05-.78.83-1.53,1.42-2.27,1.8-.72.37-1.45.55-2.23.55-.23,0-.46-.02-.69-.05-.56-.07-1.08-.12-1.59-.17.29.02.58.03.88.05ZM33.59,24.63c-.51-1.59-.45-2.58-.37-3.95.05-.79.1-1.69.06-2.9-.05-1.46-.43-2.45-1.14-2.96-.62-.45-1.49-.51-2.57-.19-.84.25-1.66.58-2.45.9-1.33.54-2.58,1.04-3.64,1.04h-.03c-.36,0-.8-.03-1.26-.06-1.93-.11-4.58-.27-5.94.95-.97.87-.74,2.81-.52,4.68.17,1.42.32,2.76,0,3.68-.7,2.01-.91,3.6-.65,4.86.27,1.31,1.06,2.27,2.4,2.96.89.45,1.76.58,2.68.71,1.1.16,2.36.34,3.92,1.11.72.36,1.39.53,2.04.53.31,0,.62-.04.93-.12,1.07-.28,2.23-1.05,3.55-2.37.69-.69,1.49-1.14,2.26-1.57.98-.55,1.91-1.07,2.64-2.05.89-1.21.1-2.23-.75-3.32-.07-.09-.14-.18-.21-.28.12.15.24.3.36.44.9,1.09,1.75,2.12.81,3.33-.76.98-1.77,1.51-2.75,2.01-.83.43-1.69.87-2.42,1.6-1.41,1.4-2.58,2.17-3.69,2.43-.98.23-1.91.07-3.01-.53-1.66-.91-2.96-1.09-4.11-1.26-.89-.13-1.73-.25-2.59-.69-1.36-.7-2.13-1.69-2.36-3.02-.22-1.29.07-2.92.88-4.98.37-.94.18-2.43,0-3.87-.24-1.87-.49-3.81.47-4.63.83-.71,2.15-.9,3.49-.9.88,0,1.78.08,2.56.15.49.05.96.09,1.34.1.03,0,.07,0,.1,0,1.08,0,2.37-.56,3.74-1.15.79-.34,1.61-.7,2.44-.97,1.11-.37,1.98-.32,2.61.13.72.52,1.08,1.57,1.09,3.11,0,1.31-.09,2.26-.18,3.09-.14,1.44-.24,2.4.29,4.02.03.08.06.17.09.25-.05-.11-.09-.23-.13-.34h0ZM34.76,26.59c.43.55.83,1.07,1.02,1.61.1.29.13.56.1.82-.04.29-.16.58-.38.86-.72.97-1.65,1.49-2.63,2.04-.77.43-1.58.88-2.26,1.57-.88.88-1.68,1.51-2.42,1.92-.71.39-1.38.57-2.05.57s-1.29-.17-2.02-.53c-1.57-.77-2.82-.96-3.93-1.12-.92-.13-1.79-.26-2.68-.71-1.34-.68-2.12-1.64-2.39-2.94-.26-1.25-.05-2.84.65-4.85.32-.92.16-2.27,0-3.69-.22-1.87-.44-3.8.51-4.66.43-.39,1.01-.65,1.76-.82.61-.13,1.32-.2,2.19-.2.68,0,1.37.04,1.97.07.46.03.89.05,1.26.06h.03c1.06,0,2.31-.51,3.65-1.05.79-.32,1.62-.65,2.45-.9.45-.13.86-.2,1.24-.2.75,0,1.34.28,1.75.82.42.56.65,1.41.69,2.51.03,1.22-.02,2.11-.06,2.9-.08,1.37-.14,2.37.37,3.96.02.06.04.12.06.18-.04-.09-.07-.18-.1-.27-.49-1.54-.47-2.51-.45-3.85.01-.75.02-1.61-.05-2.74-.08-1.36-.48-2.3-1.18-2.79-.62-.45-1.47-.53-2.52-.25-.84.22-1.67.53-2.47.83-1.27.47-2.47.92-3.49.94-.34,0-.73,0-1.15-.01-1.9-.04-4.5-.1-5.84,1.15-.97.91-.77,2.85-.57,4.73.14,1.34.27,2.6,0,3.5-.58,1.96-.72,3.5-.41,4.72.32,1.27,1.12,2.22,2.44,2.88.92.46,1.83.59,2.79.73,1.06.15,2.26.32,3.72.97.66.29,1.27.43,1.86.43.35,0,.7-.05,1.04-.15,1.03-.29,2.14-1.05,3.4-2.31.65-.66,1.38-1.1,2.1-1.54.94-.57,1.84-1.11,2.52-2.09.84-1.18.1-2.2-.69-3.28-.08-.11-.16-.22-.24-.33.13.17.26.34.38.5ZM34.59,26.44c.4.55.77,1.06.95,1.59.2.6.12,1.12-.26,1.65-.69.97-1.57,1.51-2.52,2.08-.72.43-1.46.88-2.1,1.54-.86.87-1.64,1.48-2.38,1.88-.7.38-1.37.56-2.04.56-.58,0-1.19-.14-1.85-.43-1.47-.64-2.67-.82-3.73-.97-1-.14-1.87-.27-2.78-.73-1.31-.66-2.11-1.6-2.42-2.86-.3-1.22-.17-2.76.41-4.71.27-.9.14-2.17,0-3.51-.19-1.87-.4-3.8.56-4.7.49-.46,1.17-.77,2.09-.96.91-.18,1.89-.2,2.56-.2.41,0,.8,0,1.17.02.33,0,.64.01.92.01.08,0,.15,0,.22,0,1.03-.02,2.23-.46,3.5-.94.8-.3,1.63-.61,2.47-.83.4-.11.78-.16,1.12-.16.75,0,1.35.26,1.78.78.44.54.69,1.34.76,2.39.07,1.13.06,1.99.05,2.74-.02,1.33-.03,2.29.44,3.81,0-.01,0-.03-.01-.04-.47-1.49-.5-2.44-.54-3.75-.02-.72-.05-1.53-.16-2.59-.13-1.25-.53-2.14-1.21-2.62-.62-.44-1.45-.55-2.47-.31-.85.2-1.69.48-2.5.76-1.19.41-2.32.79-3.3.83-.3.01-.64.02-1,.02-.97.01-2.07.03-3.11.2-1.21.2-2.08.58-2.67,1.16-.97.96-.79,2.9-.62,4.79.11,1.25.22,2.42,0,3.29-.47,1.9-.53,3.4-.18,4.59.37,1.24,1.17,2.16,2.48,2.81.96.48,1.88.61,2.94.76,1.01.14,2.14.3,3.49.82.59.23,1.15.34,1.68.34.39,0,.78-.06,1.17-.18,1-.31,2.06-1.04,3.24-2.24.6-.61,1.28-1.06,1.92-1.49.91-.6,1.77-1.17,2.42-2.15.78-1.16.1-2.17-.63-3.25-.06-.08-.11-.17-.17-.25.1.15.21.29.31.43h0ZM34.42,26.28c.36.54.71,1.05.87,1.58.18.59.1,1.11-.25,1.63-.65.97-1.51,1.54-2.41,2.14-.65.43-1.33.88-1.93,1.49-.84.86-1.61,1.46-2.34,1.86-.7.37-1.36.56-2.05.56-.53,0-1.08-.11-1.67-.34-1.35-.52-2.5-.68-3.5-.82-1.06-.15-1.97-.28-2.92-.75-1.29-.64-2.1-1.56-2.46-2.79-.35-1.19-.29-2.68.18-4.57.12-.51.14-1.11.11-1.78.04.73.04,1.41-.07,1.97-.36,1.83-.34,3.29.05,4.45.41,1.21,1.24,2.11,2.52,2.74,1.01.5,1.99.63,3.12.78.94.13,2,.27,3.22.66.52.17,1.01.25,1.48.25.44,0,.87-.07,1.31-.22.97-.33,1.98-1.04,3.09-2.18.55-.57,1.16-1,1.74-1.42.88-.63,1.71-1.23,2.33-2.22.72-1.14.1-2.15-.56-3.22-.04-.07-.08-.13-.12-.2.08.13.17.26.26.39h0ZM34.25,26.11c.33.54.65,1.05.8,1.57.16.58.09,1.1-.23,1.61-.62.98-1.44,1.58-2.32,2.21-.59.42-1.19.86-1.75,1.43-.82.84-1.58,1.44-2.31,1.83-.69.37-1.37.55-2.06.55-.47,0-.95-.08-1.47-.25-1.22-.39-2.29-.54-3.23-.66-1.13-.15-2.1-.28-3.11-.78-1.27-.63-2.09-1.51-2.5-2.72-.39-1.16-.41-2.61-.05-4.43.07-.38.1-.81.09-1.27.02.53,0,1.03-.05,1.47-.51,3.57.39,5.79,2.84,6.98,1.08.53,2.14.66,3.37.81.89.11,1.81.23,2.88.51.44.12.86.17,1.26.17.5,0,.99-.09,1.47-.27.93-.34,1.89-1.03,2.93-2.11.5-.52,1.03-.94,1.55-1.34.85-.67,1.66-1.3,2.25-2.31.66-1.13.1-2.14-.5-3.21-.03-.05-.05-.09-.08-.14.07.11.14.23.21.34h0ZM34.08,25.93c.3.54.59,1.05.72,1.57.15.58.08,1.09-.22,1.59-.59,1-1.39,1.63-2.24,2.3-.52.41-1.05.83-1.55,1.34-.81.84-1.55,1.43-2.28,1.81-.7.37-1.38.55-2.09.55-.4,0-.81-.06-1.25-.17-1.07-.28-2.04-.4-2.89-.51-.05,0-.09-.01-.14-.02.27.03.54.06.83.1.77.08,1.56.17,2.45.35.34.07.67.1,1,.1.58,0,1.13-.11,1.68-.32.9-.36,1.81-1.02,2.78-2.04.44-.45.89-.84,1.33-1.22.84-.72,1.63-1.4,2.19-2.43.61-1.12.1-2.13-.45-3.21-.01-.03-.03-.05-.04-.08.05.1.11.2.17.3ZM33.9,25.74c.54,1.06,1.04,2.07.45,3.16-.56,1.03-1.35,1.7-2.18,2.42-.44.38-.89.77-1.33,1.22-.79.83-1.54,1.42-2.27,1.8-.7.37-1.41.55-2.14.55-.32,0-.65-.03-.99-.1-.77-.15-1.47-.24-2.14-.31.18.02.36.03.54.05.59.05,1.2.1,1.85.19.24.03.47.05.7.05.67,0,1.3-.13,1.92-.4.86-.37,1.72-1.02,2.63-1.97.36-.38.72-.72,1.07-1.05.84-.79,1.63-1.53,2.18-2.62.56-1.11.1-2.14-.39-3.23.04.08.08.16.12.24h0ZM35.96,30.27c-.8.99-1.85,1.49-2.88,1.98-.89.42-1.81.86-2.57,1.62-1.48,1.46-2.7,2.26-3.84,2.5-1,.21-1.95,0-3.07-.66-1.75-1.04-3.09-1.23-4.26-1.4-.86-.12-1.68-.24-2.52-.68-1.38-.72-2.14-1.73-2.33-3.1-.18-1.33.19-3,1.13-5.11.42-.96.2-2.52-.01-4.03-.13-.94-.27-1.91-.25-2.73.02-.91.24-1.53.67-1.88.76-.62,1.91-.81,3.13-.81,1.04,0,2.13.14,3.07.25.55.07,1.02.13,1.4.15.05,0,.11,0,.17,0,1.09,0,2.42-.61,3.83-1.26.79-.37,1.61-.75,2.45-1.04,1.14-.41,2.03-.38,2.66.07.73.53,1.08,1.63,1.04,3.28-.04,1.42-.18,2.46-.29,3.29-.2,1.46-.33,2.42.21,4.08.02.05.03.1.05.15-.03-.08-.06-.16-.09-.24-.52-1.62-.43-2.57-.29-4.01.08-.83.18-1.78.18-3.09,0-1.55-.37-2.61-1.1-3.13-.63-.45-1.51-.5-2.62-.13-.83.27-1.65.63-2.45.97-1.36.59-2.66,1.15-3.73,1.15-.03,0-.07,0-.1,0-.38-.01-.84-.06-1.34-.1-1.97-.18-4.68-.43-6.07.75-.97.83-.72,2.77-.47,4.65.19,1.44.38,2.92,0,3.85-.82,2.06-1.11,3.7-.89,4.99.23,1.34,1,2.33,2.37,3.03.87.44,1.71.57,2.6.69,1.14.17,2.44.35,4.1,1.26.79.43,1.49.64,2.18.64.28,0,.56-.03.84-.1,1.12-.26,2.29-1.04,3.7-2.44.73-.72,1.58-1.17,2.41-1.59.98-.51,2-1.03,2.76-2.02.95-1.23.1-2.26-.81-3.36-.02-.02-.03-.04-.05-.06.06.07.13.15.19.22.96,1.1,1.87,2.14.87,3.38h0Z" fill="url(#radial-gradient)" stroke-width="0"/>
  </g>
  <metadata>
    <sfw xmlns="http://ns.adobe.com/SaveForWeb/1.0/">
      <slices/>
      <sliceSourceBounds x="86.66" y="-312.77" width="1755.13" height="531.43" bottomLeftOrigin="true"/>
    </sfw>
  </metadata>
</svg>