<svg id="a629cbd2-bbbc-45ff-a3e0-97ff98489645" data-name="Ebene 1" xmlns="http://www.w3.org/2000/svg" xmlns:xlink="http://www.w3.org/1999/xlink" viewBox="0 0 50 50"><defs><style>.f6d3f5fb-f180-4fa6-b1e9-05681351d48a{fill:#fff;}.b0a4b60a-8f71-4460-8ed1-32aa1fe7b183{fill:#060322;}.f66915dc-12c2-461a-afd1-921613677727{fill:#8e3315;}.ab9adac1-f425-46ed-9e3d-c36d71f86551{fill:#473ade;}.a6028c76-bea5-4f03-917e-bdb4afa9da90{fill:url(#b3b8f6d7-d225-475a-9c75-1eb82dbe2b98);}.e4f5f02b-a7ae-4a11-8da5-9cc782d4fdc1{fill:#251e73;}.fa40ad37-9000-472e-bf98-82b109a07de0{fill:#d71d6a;}.eeecb917-1883-452e-ab02-3ca800eb7b6a{fill:url(#e0e2e074-66c9-4221-a697-3f7868ec27a2);}.b5e6e951-ce94-46cb-b989-c7fb45f3445a{fill:#741039;}.f6ddc369-a7ac-41ba-8491-bc024b1dc17c{fill:#ff5b25;}.af4f3091-1742-4541-8820-ad7c9dd7493c,.e0c898ef-0d09-4a60-8e2e-0df2e786f086{fill:url(#b52ba179-c4ad-482d-bffa-19ca63c569fe);}.af4f3091-1742-4541-8820-ad7c9dd7493c{fill-opacity:0.3;}</style><linearGradient id="b3b8f6d7-d225-475a-9c75-1eb82dbe2b98" x1="34.8" y1="-19.83" x2="15.88" y2="-38.5" gradientTransform="matrix(1, 0, 0, -1, 0, 2)" gradientUnits="userSpaceOnUse"><stop offset="0" stop-opacity="0.6"/><stop offset="0.66" stop-opacity="0"/></linearGradient><linearGradient id="e0e2e074-66c9-4221-a697-3f7868ec27a2" x1="16.78" y1="-16.82" x2="42.85" y2="-21.6" gradientTransform="matrix(1, 0, 0, -1, 0, 2)" gradientUnits="userSpaceOnUse"><stop offset="0" stop-opacity="0.6"/><stop offset="0.65" stop-opacity="0"/></linearGradient><linearGradient id="b52ba179-c4ad-482d-bffa-19ca63c569fe" x1="23.5" y1="-32.89" x2="15.76" y2="-9.07" gradientTransform="matrix(1, 0, 0, -1, 0, 2)" gradientUnits="userSpaceOnUse"><stop offset="0" stop-opacity="0.6"/><stop offset="0.68" stop-opacity="0"/></linearGradient></defs><circle class="f6d3f5fb-f180-4fa6-b1e9-05681351d48a" cx="25" cy="25" r="18.6"/><path class="b0a4b60a-8f71-4460-8ed1-32aa1fe7b183" d="M35.61,14.39A15,15,0,1,0,25,40,15,15,0,0,0,35.61,14.39Z"/><path class="f66915dc-12c2-461a-afd1-921613677727" d="M20.85,31.42l-.29.16v-.33s0,.17.07.22S20.85,31.42,20.85,31.42Z"/><path class="ab9adac1-f425-46ed-9e3d-c36d71f86551" d="M13.51,31.08a13,13,0,1,0,23-12.16c1.45,4.58-3.61,6.19-3.61,6.19l-6.12,3.2-6.37,3.32S16.05,34.43,13.51,31.08Z"/><path class="a6028c76-bea5-4f03-917e-bdb4afa9da90" d="M13.49,31.1A13,13,0,0,0,36.47,19c1.45,4.58-3.61,6.19-3.61,6.19l-6.13,3.2-6.36,3.32S16,34.45,13.49,31.1Z"/><path class="e4f5f02b-a7ae-4a11-8da5-9cc782d4fdc1" d="M32.72,24.8l.47.23-.5.2s.22-.11.24-.2S32.72,24.8,32.72,24.8Z"/><path class="fa40ad37-9000-472e-bf98-82b109a07de0" d="M36.57,30.94A13,13,0,0,0,13.43,19.07c2.92-3.81,7.14-.58,7.14-.58l6.14,3.18L33.08,25S37.85,26.94,36.57,30.94Z"/><path class="eeecb917-1883-452e-ab02-3ca800eb7b6a" d="M36.54,30.93A13,13,0,0,0,13.47,19.1c2.91-3.81,7.12-.59,7.12-.59l6.12,3.18L33.05,25S37.81,26.94,36.54,30.93Z"/><path class="b5e6e951-ce94-46cb-b989-c7fb45f3445a" d="M20.56,18.8v-.35l.3.17s-.15-.09-.23,0S20.56,18.8,20.56,18.8Z"/><path class="f6ddc369-a7ac-41ba-8491-bc024b1dc17c" d="M25,12a13,13,0,1,0,0,26c-4.43-.74-4.43-6.47-4.43-6.47V18.37S20.57,12.8,25,12Z"/><path class="e0c898ef-0d09-4a60-8e2e-0df2e786f086" d="M25,12a13,13,0,0,0,0,26c-4.43-1.41-4.43-6.46-4.43-6.46v-13S20.41,12.82,25,12Z"/><path class="af4f3091-1742-4541-8820-ad7c9dd7493c" d="M25,12a13,13,0,0,0,0,26c-4.43-1.41-4.43-6.46-4.43-6.46v-13S20.41,12.82,25,12Z"/><path class="ab9adac1-f425-46ed-9e3d-c36d71f86551" d="M25,38a7.51,7.51,0,0,1-4.42-6.46s-5.44,3.07-7.27-.86A12.83,12.83,0,0,0,25,38Z"/></svg>