<svg id="a9fd2750-f74d-4b37-a543-9f74d6a63b5a" data-name="Ebene 1" xmlns="http://www.w3.org/2000/svg" viewBox="0 0 50 50"><defs><style>.a1ca9f0a-7f47-4b14-bde2-f673ae1f3846{fill:#fff;}.fa217d5f-1e29-4790-a497-7d39f0048654{fill:#0b0a09;}.e9901a71-42ac-42d3-8f8d-81ba21eb0e60{fill:#f2f2f2;}</style></defs><circle class="a1ca9f0a-7f47-4b14-bde2-f673ae1f3846" cx="25" cy="25" r="18.6"/><path class="fa217d5f-1e29-4790-a497-7d39f0048654" d="M35.61,14.39A15,15,0,1,0,25,40,15,15,0,0,0,35.61,14.39Z"/><path class="e9901a71-42ac-42d3-8f8d-81ba21eb0e60" d="M20.7,24.64l.62-.27a59.94,59.94,0,0,1,9.41-3.29,17.7,17.7,0,0,1,3.55-.61c.32,0,.64,0,1,.05a.87.87,0,0,1,.31.1.4.4,0,0,1,.22.59,2.8,2.8,0,0,1-.37.53,7.43,7.43,0,0,1-1.5,1.18c-.61.38-1.24.73-1.86,1.09-.23.13-.36.06-.43-.2s-.19-.75-.3-1.12-.14-.25-.36-.19A49,49,0,0,0,26.21,24c-1.75.63-3.47,1.32-5.16,2.1l-.16.08c.13.3.23.61.38.89a5.32,5.32,0,0,0,9.45.06.25.25,0,0,0,0-.07.32.32,0,0,1,.4-.16.32.32,0,0,1,.17.41l-.19.46a6.69,6.69,0,0,1-6.21,4A7.79,7.79,0,0,1,22,31c-.64-.29-1.28-.59-1.91-.91a5.87,5.87,0,0,0-3.05-.63c-.54,0-1.08.07-1.62.08a5.23,5.23,0,0,1-.68,0,1,1,0,0,1-.28-.08.47.47,0,0,1-.25-.66,1.55,1.55,0,0,1,.36-.48c.33-.3.68-.58,1-.86a11,11,0,0,0,1.46-1.36,6.67,6.67,0,0,0,1-1.91,20.12,20.12,0,0,1,1-2.33,6.45,6.45,0,0,1,4.3-3.35,6.64,6.64,0,0,1,4.71.58.34.34,0,0,1,.2.44c-.08.17-.24.22-.46.14A5.32,5.32,0,0,0,21,22.79a5.26,5.26,0,0,0-.32,1.66v.13A.18.18,0,0,0,20.7,24.64Z"/></svg>