<?xml version="1.0" encoding="UTF-8"?>
<svg id="uuid-2f3a4167-2bf1-4fc9-b1e9-113527570c75" data-name="Ebene 1" xmlns="http://www.w3.org/2000/svg" xmlns:xlink="http://www.w3.org/1999/xlink" viewBox="0 0 50 50">
  <defs>
    <style>
      .uuid-b678218f-2aba-4baf-8eca-7d013dd53186 {
        fill: #d63252;
        fill-rule: evenodd;
      }

      .uuid-b678218f-2aba-4baf-8eca-7d013dd53186, .uuid-8045370b-5b81-430f-a162-536b8158eab0, .uuid-dedb1a24-b695-42cb-91f4-a7b787b41cd9 {
        stroke-width: 0px;
      }

      .uuid-8045370b-5b81-430f-a162-536b8158eab0 {
        fill: none;
      }

      .uuid-dedb1a24-b695-42cb-91f4-a7b787b41cd9 {
        fill: #fff;
      }

      .uuid-4af7cf4d-7195-4514-af3e-fcfd4fa21c06 {
        clip-path: url(#uuid-e3b693a1-f675-4e3b-9897-476bd8e55c37);
      }
    </style>
    <clipPath id="uuid-e3b693a1-f675-4e3b-9897-476bd8e55c37">
      <path class="uuid-8045370b-5b81-430f-a162-536b8158eab0" d="M35.61,14.39c-2.83-2.84-6.6-4.4-10.61-4.4-8.27,0-15,6.74-15,15.01s6.73,15.01,15,15.01c4.01,0,7.77-1.56,10.61-4.4,2.83-2.84,4.39-6.61,4.39-10.61,0-4.01-1.56-7.78-4.39-10.61Z"/>
    </clipPath>
  </defs>
  <circle class="uuid-dedb1a24-b695-42cb-91f4-a7b787b41cd9" cx="25" cy="25" r="18.6"/>
  <g class="uuid-4af7cf4d-7195-4514-af3e-fcfd4fa21c06">
    <rect class="uuid-dedb1a24-b695-42cb-91f4-a7b787b41cd9" x="4.11" y="5.6" width="41.78" height="38.79"/>
  </g>
  <path class="uuid-b678218f-2aba-4baf-8eca-7d013dd53186" d="M21.32,33.04h16.08v-16.08h-16.08v16.08ZM26.68,27.68h5.36v-5.36h-5.36v5.36h0ZM10.6,27.68h5.36v-5.36h-5.36v5.36Z"/>
</svg>