<svg id="b5ca52b1-9ee5-49ed-baf2-5bacd1455526" data-name="Ebene 1" xmlns="http://www.w3.org/2000/svg" viewBox="0 0 50 50"><defs><style>.a9bbcc85-3098-4be8-9e46-cc8f10047e6a{fill:#fff;}.fdaf703b-a1f5-486e-9615-debe87435d24{fill:#012fa7;}</style></defs><circle class="a9bbcc85-3098-4be8-9e46-cc8f10047e6a" cx="25" cy="25" r="18.6"/><path class="a9bbcc85-3098-4be8-9e46-cc8f10047e6a" d="M25,40A15,15,0,1,0,10,25,15,15,0,0,0,25,40Z"/><path class="fdaf703b-a1f5-486e-9615-debe87435d24" d="M10,27.09a2.34,2.34,0,0,1,0-.26,2.93,2.93,0,0,1,.55-1.2,6.88,6.88,0,0,1,1.35-1.29,14.2,14.2,0,0,1,1.7-1.06l1.17-.61a24.27,24.27,0,0,1,2.3-1c.75-.28,1.51-.52,2.28-.74,1-.28,1.94-.52,2.92-.71.72-.14,1.44-.28,2.16-.4s1.16-.17,1.73-.25l1.44-.16c.36,0,.73-.06,1.1-.09l.81,0,1.89,0c.33,0,.65,0,1,0,.66.05,1.32.11,2,.18a19.38,19.38,0,0,1,2.15.4,8.23,8.23,0,0,1,1.87.69,3.24,3.24,0,0,1,1.22,1,2.08,2.08,0,0,1,.36,1,2.37,2.37,0,0,1-.4,1.55,5,5,0,0,1-1.08,1.18,11.67,11.67,0,0,1-1.95,1.31c-.41.22-.82.44-1.23.64a22,22,0,0,1-2.56,1.08q-1.11.41-2.25.72c-1,.29-2,.53-3.08.74L26.08,30l-1.47.23-1.37.19-1.06.1c-.41,0-.81.07-1.22.09l-1,0-1,0-1,0-1.16-.07a21.83,21.83,0,0,1-2.9-.44,9.13,9.13,0,0,1-2.21-.74,3.7,3.7,0,0,1-1.15-.85A2.07,2.07,0,0,1,10,27.34s0,0,0,0Zm22.46,1.18-.09-.05-.69-.35a.28.28,0,0,0-.22,0c-.72.21-1.44.43-2.16.63-1,.26-2,.47-2.95.65-.54.1-1.09.2-1.64.28s-1.09.14-1.64.2l-1.56.13c-.29,0-.58,0-.87.06l-.75,0a.34.34,0,0,0-.28.11c-.17.2-.36.38-.54.57a.1.1,0,0,0,0,.05h.79l.83,0,.93-.06c.43,0,.85-.07,1.28-.12s.9-.09,1.34-.16q1-.14,1.92-.3c.7-.13,1.4-.26,2.1-.41a36,36,0,0,0,3.79-1Zm-1.13-.54v0l-.94-.43a.17.17,0,0,0-.14,0c-.78.26-1.57.48-2.37.67s-1.54.36-2.32.49-1.32.19-2,.27c-.51.06-1,.1-1.54.14l-1.29.05a.18.18,0,0,0-.13.06l-.68.65a.68.68,0,0,0-.05.07A42.66,42.66,0,0,0,31.33,27.73Zm-10.49.95v0a33,33,0,0,0,9.23-1.59c-.22-.11-.44-.2-.65-.33a.47.47,0,0,0-.46,0h0a18.49,18.49,0,0,1-1.94.52l-1.54.3-1.22.19-.83.1-1,.09-.76,0a.36.36,0,0,0-.3.14c-.06.07-.14.14-.21.21Zm-8-3.17-.59,0-1.44.11a.13.13,0,0,0-.07,0,3.44,3.44,0,0,0-.44.74,1.91,1.91,0,0,0,0,1.5c0,.05,0,.07.1.05l1.69-.43.46-.13a2.23,2.23,0,0,1-.08-1A2.56,2.56,0,0,1,12.85,25.51Zm24.66-2.28.27,0,1.23-.1.76-.08s0,0,0-.05v-.26a2,2,0,0,0-.19-.73,2.66,2.66,0,0,0-.94-1,.11.11,0,0,0-.11,0l-1.72.46-.21.06A2.25,2.25,0,0,1,37.51,23.23Zm-22.94,6a3.18,3.18,0,0,1-1.93-1.6l-2.18.57v0l0,.05a2.86,2.86,0,0,0,.9.83,6.81,6.81,0,0,0,1.76.75.17.17,0,0,0,.1,0l.88-.4Zm21.68-3.68.46,0,.81.08a.38.38,0,0,0,.24,0,7,7,0,0,0,1.3-1.13,3.27,3.27,0,0,0,.6-.91c.05-.12.09-.25.14-.39h-.13l-.49.06-1,.08-.58,0s-.08,0-.08.07a1.81,1.81,0,0,1,0,.23,3,3,0,0,1-.8,1.41C36.54,25.25,36.39,25.38,36.25,25.53ZM20.79,20.79v0l.58.52a.08.08,0,0,0,.07,0c.82-.2,1.64-.38,2.46-.51.61-.11,1.21-.2,1.82-.28l1.43-.18s.06,0,.08-.05l.18-.33.2-.36A50.33,50.33,0,0,0,20.79,20.79Zm-8,6.75,0,.1a2.22,2.22,0,0,0,.59.74,4,4,0,0,0,1.26.69.2.2,0,0,0,.17,0l.28-.14,1.19-.56.1-.05-.4-.21a2.07,2.07,0,0,1-1-1.08s0,0-.07,0Zm8.36-6.13-.59-.55h-.05l-.32.08a31.18,31.18,0,0,0-3.73,1.21c-.45.18-.9.39-1.35.58l-.36.17.05,0,1.06.17a.39.39,0,0,0,.26,0,18.75,18.75,0,0,1,1.8-.72c1-.35,2-.64,3-.9Zm12.76-1.76h0l-.39-.05-1-.08c-.39,0-.79,0-1.18,0l-1.7,0-.71,0-1.05.07a.13.13,0,0,0-.1.07c-.08.15-.16.29-.23.44l-.13.24L28,20.3l1.19-.08c.23,0,.45,0,.68,0h1.23l1,0,.59,0a.4.4,0,0,0,.26,0c.2-.12.41-.22.62-.33Zm3.4,3.77h-.19l-1.25.1-.82.08s-.06,0-.06.06a1.09,1.09,0,0,1,0,.18A2.24,2.24,0,0,1,34.44,25l-.28.29.61.06,1.17.13a.11.11,0,0,0,.11,0l.3-.26a3.27,3.27,0,0,0,.82-1.09A2,2,0,0,0,37.34,23.42Zm-6.71,3.72.91.45a.18.18,0,0,0,.16,0c.7-.24,1.39-.5,2.07-.8a12.2,12.2,0,0,0,1.87-1l.16-.12L35,25.55l-1-.09a.2.2,0,0,0-.11,0c-.24.16-.48.34-.72.49a13.63,13.63,0,0,1-2.12,1Zm2.49-6.85.11,0a11.09,11.09,0,0,1,1.7.33,5.21,5.21,0,0,1,1.5.68.16.16,0,0,0,.09,0l1.56-.4.36-.1,0,0L38,20.61a10.63,10.63,0,0,0-2.47-.73l-1.22-.19a.23.23,0,0,0-.14,0L33.6,20ZM15,29.17l.08,0c.32.07.64.16,1,.22a11.86,11.86,0,0,0,1.56.19l.74.05h1.2a.11.11,0,0,0,.07,0c.19-.2.39-.39.59-.59l.13-.15h-.07c-.31,0-.63,0-.94,0s-.67-.05-1-.09a7,7,0,0,1-1.56-.35.26.26,0,0,0-.21,0l-1.33.62Zm-4.09-3.68H11l.68,0,1.15-.11c.06,0,.13,0,.18-.06a3.5,3.5,0,0,1,.64-.69,8.7,8.7,0,0,1,1.69-1.12l.42-.21,0,0L14.57,23a.2.2,0,0,0-.13,0,17.86,17.86,0,0,0-1.65.93,9.23,9.23,0,0,0-1.73,1.37Zm2.55,4.42h0l.07,0a19.42,19.42,0,0,0,2.71.46c.47.05.95.09,1.42.12l1,0a.22.22,0,0,0,.14-.05l.4-.42c.08-.07.15-.15.23-.23h-.63l-1.12,0c-.31,0-.63-.05-.94-.09a10.27,10.27,0,0,1-1.91-.39.16.16,0,0,0-.12,0l-.76.36Zm23.86-6.67a2.8,2.8,0,0,0-.09-.58,2.21,2.21,0,0,0-.79-1.09.09.09,0,0,0-.09,0q-.81.2-1.62.42l-.52.15A1.83,1.83,0,0,1,35,23.44Zm.13,2.6h-.09a2.48,2.48,0,0,1-.27,0l-1-.12a.2.2,0,0,0-.11,0c-.16.11-.3.22-.46.32A10.66,10.66,0,0,1,34,26.9a19.12,19.12,0,0,1-1.89.76l-.23.08,0,0,.81.4a.17.17,0,0,0,.1,0,25.39,25.39,0,0,0,2.52-1.07,18.32,18.32,0,0,0,1.84-1Zm-22.15-.53H15.2c-.27,0-.54,0-.81.06l-1.26.11a.12.12,0,0,0-.07.05,2.12,2.12,0,0,0-.39,1.38,1.86,1.86,0,0,0,.09.47L15,26.8A1.9,1.9,0,0,1,15.33,25.31Zm16.1-4.09v0h0c.29.05.58.08.87.14A5,5,0,0,1,34,22h.08l2-.55.08,0-.07,0a5.46,5.46,0,0,0-1.22-.52,10.74,10.74,0,0,0-2-.38.45.45,0,0,0-.16,0l-.73.4ZM17.62,23.56l0,0-1.42-.24a.23.23,0,0,0-.12,0c-.38.2-.77.39-1.15.61A6.63,6.63,0,0,0,13.45,25l-.22.26h.08c.22,0,.44-.05.66-.06l1.44-.1a.13.13,0,0,0,.07,0l.26-.28a5.42,5.42,0,0,1,1-.75Zm9.29-2.28.34,0,1.09-.07c.34,0,.69,0,1,0l1.18,0,.4,0a.43.43,0,0,0,.2,0c.41-.22.81-.45,1.22-.69l.11-.06v0c-.35,0-.69-.05-1-.05-.5,0-1,0-1.52,0-.25,0-.49,0-.74,0l-.92.05-.91.08a.08.08,0,0,0-.06,0l-.21.39C27,21.06,27,21.16,26.91,21.28ZM22,22.1l-.56-.51a.11.11,0,0,0-.13,0l-.91.23A31.25,31.25,0,0,0,16.71,23l-.29.13s0,0,0,0l1.35.25a.28.28,0,0,0,.18,0l.54-.23a25,25,0,0,1,3-1Zm-1.42,4.39.31-.25a.11.11,0,0,0,.06-.12,4.18,4.18,0,0,1,0-1,.08.08,0,0,0,0-.08,5.81,5.81,0,0,0-1.21-.81.12.12,0,0,0-.1,0l-.21.1a7.42,7.42,0,0,0-1.12.73L18,25.3A7.09,7.09,0,0,1,20.54,26.49Zm1-5v0l.55.51a.08.08,0,0,0,.08,0l1.34-.28.8-.17c.3-.05.6-.08.91-.12l1.38-.16c.05,0,.08,0,.1-.06s.17-.34.26-.51l.09-.18A38.12,38.12,0,0,0,21.57,21.5ZM31.67,23l-.41-.17a7.58,7.58,0,0,0-1.43-.31.15.15,0,0,0-.14.06,8.29,8.29,0,0,0-.81,1.13.14.14,0,0,0,0,.09,4.42,4.42,0,0,1,.35.94.17.17,0,0,0,.06.06l.32.11a.06.06,0,0,0,.08,0l.19-.24a6.45,6.45,0,0,1,1.39-1.37A4.62,4.62,0,0,1,31.67,23Zm2.18-.93a4.72,4.72,0,0,0-1.11-.43,9.34,9.34,0,0,0-1.48-.25.16.16,0,0,0-.1,0,8.92,8.92,0,0,0-1.05.78l-.19.17.58.1a4.26,4.26,0,0,1,1.21.38.3.3,0,0,0,.29,0,11,11,0,0,1,1.51-.64ZM15.23,26.94s0,0,0,0a1.52,1.52,0,0,0,.37.57,2.87,2.87,0,0,0,1,.62.18.18,0,0,0,.16,0,9.74,9.74,0,0,1,1.5-.49l.39-.09-.19-.09a1.86,1.86,0,0,1-.83-.81.07.07,0,0,0-.08-.05c-.22,0-.44,0-.66,0-.37,0-.73.09-1.1.15C15.61,26.86,15.43,26.91,15.23,26.94Zm4.21-2.83-.08,0a8.43,8.43,0,0,0-1.4-.44.14.14,0,0,0-.09,0c-.36.19-.72.37-1.07.57a4.69,4.69,0,0,0-1.05.83l-.06.07v0c.31,0,.62,0,.94,0s.67.06,1,.1a.29.29,0,0,0,.28-.09A4.26,4.26,0,0,1,19,24.36Zm7.22-2.31,0,0a4.1,4.1,0,0,1,.75.39h.05l1.26,0,.9.06.09,0a7.79,7.79,0,0,1,1.1-.89l.06,0-.17,0-1.08,0c-.34,0-.68,0-1,0l-1.12.07-.63.05s0,0-.05,0S26.71,21.69,26.66,21.8Zm-4.27.71-.25-.23a.09.09,0,0,0-.1,0l-1.3.35a21.29,21.29,0,0,0-2.33.79l-.21.09,0,0a8.46,8.46,0,0,1,1.39.48.11.11,0,0,0,.08,0,16.31,16.31,0,0,1,1.79-.72.72.72,0,0,0,.45-.3l0,0Zm9.46,2.84.41-.05.58,0h.88c.08,0,.15,0,.22,0a3.17,3.17,0,0,0,.64-.73,1.83,1.83,0,0,0,.28-.78c0-.08,0-.1-.07-.09-.29.05-.59.08-.87.14-.44.09-.88.21-1.32.31,0,0-.06,0-.06.06a1.74,1.74,0,0,1-.41.89C32,25.15,31.94,25.24,31.85,25.35ZM17.54,26.48a1.15,1.15,0,0,1,.17-1.06h-.05c-.37,0-.75-.09-1.12-.11s-.63,0-.95,0a.11.11,0,0,0-.08,0,1.79,1.79,0,0,0-.37,1.2c0,.08,0,.16,0,.24A12.48,12.48,0,0,1,17.54,26.48ZM32,23a1.21,1.21,0,0,1,.38.4,1.09,1.09,0,0,1,.14.54,14.12,14.12,0,0,1,2.31-.47,2.72,2.72,0,0,0-.07-.33,1.85,1.85,0,0,0-.68-.92.15.15,0,0,0-.13,0,15.87,15.87,0,0,0-1.66.65ZM21.29,28h-.53c-.28,0-.56,0-.84-.07s-.46-.08-.68-.13a1.15,1.15,0,0,0-.49,0,8.87,8.87,0,0,0-1.43.38l-.38.15.07,0c.27.06.55.14.82.19a11.94,11.94,0,0,0,1.79.19h.9a.16.16,0,0,0,.11,0l.51-.51Zm8.18-1.41.05,0,.79.39a.17.17,0,0,0,.1,0c.45-.17.89-.33,1.33-.51a9.35,9.35,0,0,0,1.71-.91l.2-.14h-.76a5.54,5.54,0,0,0-1.07.1,1.1,1.1,0,0,0-.46.16,6.78,6.78,0,0,1-1.28.67Zm-9,0a9.19,9.19,0,0,0-1.36-.78A4.88,4.88,0,0,0,18,25.47a.07.07,0,0,0-.08,0,1,1,0,0,0-.2.88c0,.1,0,.11.15.11l.44,0a5.76,5.76,0,0,1,1.61.49l.32.15A.92.92,0,0,1,20.43,26.61Zm9.84-1.22,0,0c.16-.15.32-.31.49-.45A4.66,4.66,0,0,1,32.33,24s.05,0,.05-.06a2.51,2.51,0,0,0,0-.27,1,1,0,0,0-.41-.53.12.12,0,0,0-.17,0,5.92,5.92,0,0,0-1.47,1.26l-.47.58a1.64,1.64,0,0,1,.25.19C30.14,25.23,30.2,25.32,30.27,25.39Zm0,.6h0a4.38,4.38,0,0,1,1.07-.51l.11-.05a2.63,2.63,0,0,0,.71-.74,1.27,1.27,0,0,0,.19-.5H32.3c-.19.09-.39.16-.57.26a6,6,0,0,0-1.4,1.11s0,0,0,.06Zm-9.89,1.66a1.36,1.36,0,0,1-.13-.24l-.05,0L19.47,27a5.21,5.21,0,0,0-1.41-.35l-.28,0,.06.11a1.85,1.85,0,0,0,.77.64,1.15,1.15,0,0,0,.61.14,3.43,3.43,0,0,1,.64,0C20,27.58,20.21,27.63,20.38,27.65Zm1.19-4.22a13.35,13.35,0,0,0-1.7.67l1.11.75A4.51,4.51,0,0,1,21.57,23.43Zm8-.95a15.86,15.86,0,0,0-1.84-.09,4.41,4.41,0,0,1,1,1.16Zm-9,4.23a.62.62,0,0,0-.22.41c0,.06,0,.12.05.16l.9.54a.68.68,0,0,0,.13,0l0-.06c-.1-.21-.19-.43-.29-.64,0,0,0-.05,0-.06Zm8.73-.26v0a.73.73,0,0,0,.09-.08c.23-.26.44-.52.67-.79a.11.11,0,0,0,0-.13.79.79,0,0,0-.38-.34l-.33.49a.4.4,0,0,0,0,.13c0,.15,0,.31,0,.46A1.94,1.94,0,0,1,29.31,26.45ZM25.8,21.56h0l.69.17.13-.28Zm-3.5.64.19.2s0,0,.05,0l.32-.21.23-.15c-.24,0-.48.1-.71.15Zm-1.37,4.18-.25.21.35.25ZM29.29,25l.05.38h0l.2-.3Zm.83.88h0l-.38.46C30,26.25,30,26,30.12,25.85Zm-9.59,1.7a.62.62,0,0,0,.47.28Z"/></svg>