<?xml version="1.0" encoding="UTF-8"?>
<svg id="Ebene_1" data-name="Ebene 1" xmlns="http://www.w3.org/2000/svg" width="50" height="50" viewBox="0 0 50 50">
  <defs>
    <style>
      .cls-1 {
        fill: #141414;
      }

      .cls-2 {
        fill: #fff;
      }
    </style>
  </defs>
  <circle class="cls-2" cx="25" cy="25" r="18.6"/>
  <g>
    <circle class="cls-1" cx="25" cy="25" r="15"/>
    <path class="cls-2" d="M26.26,21.75c.02-1.3.94-2.39,2.19-2.63v-2.54c-1.28.13-2.47.74-3.35,1.7l-.1.11-.1-.11c-.88-.97-2.06-1.57-3.35-1.7v2.54c1.25.25,2.17,1.34,2.19,2.63v6.51c-.02,1.3-.94,2.39-2.19,2.63v2.54c1.28-.13,2.47-.74,3.35-1.7l.1-.11.1.11c.88.97,2.06,1.57,3.35,1.7v-2.54c-1.25-.25-2.17-1.34-2.19-2.63v-6.51Z"/>
  </g>
</svg>