<?xml version="1.0" encoding="UTF-8"?>
<svg id="Ebene_1" data-name="Ebene 1" xmlns="http://www.w3.org/2000/svg" width="50" height="50" viewBox="0 0 50 50">
  <defs>
    <style>
      .cls-1 {
        fill: #e4e5e0;
        fill-rule: evenodd;
      }

      .cls-2 {
        fill: #cf6533;
      }

      .cls-3 {
        fill: #fff;
      }
    </style>
  </defs>
  <circle class="cls-3" cx="25" cy="25" r="18.6"/>
  <circle class="cls-2" cx="25" cy="25" r="15"/>
  <g>
    <path class="cls-1" d="M15.46,19.24c-.09-.25-.03-.54.16-.73l2.6-2.6c.19-.19.48-.25.73-.16l5.54,2.04c.14.05.23.18.23.32v1.21c0,.09-.04.18-.1.24l-1.35,1.35c-.1.1-.24.13-.36.08l-1.49-.55-1.64-.6c-.14-.05-.27.08-.22.22l1.15,3.12c.05.13.02.27-.08.36l-1.2,1.2c-.13.14-.13.35,0,.49l1.21,1.21c.1.1.13.24.08.36l-1.15,3.12c-.05.14.08.27.22.22l3.12-1.15c.13-.05.27-.02.36.08l1.34,1.34c.06.06.1.15.1.24v1.21c0,.14-.09.27-.23.32l-5.53,2.04c-.25.09-.54.03-.73-.16l-2.6-2.6c-.19-.19-.25-.48-.16-.73l2.03-5.51c.06-.15.06-.32,0-.48l-2.04-5.53h0Z"/>
    <path class="cls-1" d="M34.54,30.76c.09.25.03.54-.16.73l-2.6,2.6c-.19.19-.48.25-.73.16l-5.54-2.04c-.14-.05-.23-.18-.23-.32v-1.21c0-.09.04-.18.1-.24l1.35-1.35c.1-.1.24-.13.36-.08l1.49.55,1.64.6c.14.05.27-.08.22-.22l-1.15-3.12c-.05-.13-.02-.27.08-.36l1.2-1.2c.13-.14.13-.35,0-.49l-1.21-1.21c-.1-.1-.13-.24-.08-.36l1.15-3.12c.05-.14-.08-.27-.22-.22l-3.12,1.15c-.13.05-.27.02-.36-.08l-1.34-1.34c-.06-.06-.1-.15-.1-.24v-1.21c0-.14.09-.27.23-.32l5.53-2.04c.25-.09.54-.03.73.16l2.6,2.6c.19.19.25.48.16.73l-2.03,5.51c-.06.15-.06.32,0,.48l2.04,5.53Z"/>
  </g>
</svg>