<svg id="a7fbfb69-57f5-4e55-ae09-85e7e9585eaa" data-name="Ebene 1" xmlns="http://www.w3.org/2000/svg" viewBox="0 0 50 50"><defs><style>.e7465c13-ce15-4e51-aab0-0fca82869cf8{fill:#fff;}.b202f452-2e15-4e24-8c99-58c710993b27{fill:#2f2f2f;}.f859cf87-6c37-423c-8370-55cba8d60132{fill:#7129fd;}.fbb61063-3f85-4b53-9944-a766434f8332{fill:#f8f9fa;}</style></defs><circle class="e7465c13-ce15-4e51-aab0-0fca82869cf8" cx="25" cy="25" r="18.6"/><path class="b202f452-2e15-4e24-8c99-58c710993b27" d="M25,40A15,15,0,1,1,40,25,15,15,0,0,1,25,40Zm-10-7.4c.1.39.39.56.6.79a11.8,11.8,0,0,0,6.14,3.79,12.55,12.55,0,0,0,12.73-3.9A12.69,12.69,0,0,0,37,28.91a8.3,8.3,0,0,0-.41-7,5.58,5.58,0,0,0-8-1.59,6.08,6.08,0,0,0-2.33,4.13,12.82,12.82,0,0,1-1.51,4.87,7.69,7.69,0,0,1-3.39,3.12,8.8,8.8,0,0,1-5.29.49C15.76,32.84,15.46,32.55,15,32.61Zm20-15.2c0-.12,0-.19-.06-.23a12.55,12.55,0,0,0-8.56-4.74,12.28,12.28,0,0,0-9.55,3,11.7,11.7,0,0,0-3.58,5.06c-.69,1.93-1.22,3.89-.49,6s2,3.76,4.36,4.16a5.19,5.19,0,0,0,4.83-1.47,7.38,7.38,0,0,0,1.89-4.44,9.73,9.73,0,0,1,1.82-4.8,7.34,7.34,0,0,1,6.36-3A10.65,10.65,0,0,1,35,17.41Z"/><path class="f859cf87-6c37-423c-8370-55cba8d60132" d="M15,32.61c.44-.06.74.23,1.1.29a8.8,8.8,0,0,0,5.29-.49,7.69,7.69,0,0,0,3.39-3.12,12.82,12.82,0,0,0,1.51-4.87,6.08,6.08,0,0,1,2.33-4.13,5.58,5.58,0,0,1,8,1.59,8.3,8.3,0,0,1,.41,7,12.69,12.69,0,0,1-2.51,4.38,12.55,12.55,0,0,1-12.73,3.9,11.8,11.8,0,0,1-6.14-3.79C15.41,33.17,15.12,33,15,32.61Z"/><path class="fbb61063-3f85-4b53-9944-a766434f8332" d="M35,17.41a10.65,10.65,0,0,0-3-.51,7.34,7.34,0,0,0-6.36,3,9.73,9.73,0,0,0-1.82,4.8,7.38,7.38,0,0,1-1.89,4.44,5.19,5.19,0,0,1-4.83,1.47c-2.36-.4-3.61-2-4.36-4.16s-.2-4.07.49-6a11.7,11.7,0,0,1,3.58-5.06,12.28,12.28,0,0,1,9.55-3,12.55,12.55,0,0,1,8.56,4.74S34.94,17.29,35,17.41Z"/></svg>