<?xml version="1.0" encoding="utf-8"?>
<!-- Generator: Adobe Illustrator 25.2.1, SVG Export Plug-In . SVG Version: 6.00 Build 0)  -->
<svg version="1.0" id="Ebene_1" xmlns="http://www.w3.org/2000/svg" xmlns:xlink="http://www.w3.org/1999/xlink" x="0px" y="0px"
	 viewBox="0 0 50 50" style="enable-background:new 0 0 50 50;" xml:space="preserve">
<style type="text/css">
	.st0{fill:#FFFFFF;}
	.st1{fill:#164363;}
	.st2{fill:#3DCC90;}
	.st3{fill:#1B1E36;}
	.st4{fill:none;stroke:#FFFFFF;stroke-width:0.3995;stroke-miterlimit:10;}
	.st5{fill:none;stroke:#FFFFFF;stroke-width:0.3995;stroke-miterlimit:9.9998;}
	.st6{fill-rule:evenodd;clip-rule:evenodd;fill:#0E3CA3;}
	.st7{fill-rule:evenodd;clip-rule:evenodd;fill:#5491F5;}
	.st8{fill:#5E129E;}
	.st9{fill:url(#SVGID_1_);}
	.st10{fill:url(#SVGID_2_);}
	.st11{opacity:0.6;fill:#A78496;enable-background:new    ;}
	.st12{opacity:0.6;fill:url(#SVGID_3_);enable-background:new    ;}
	.st13{opacity:0.6;fill:url(#SVGID_4_);enable-background:new    ;}
	.st14{fill:url(#SVGID_5_);}
	.st15{opacity:0.6;}
	.st16{opacity:0.6;fill:url(#SVGID_6_);enable-background:new    ;}
	.st17{opacity:0.7;}
	.st18{opacity:0.7;fill:url(#SVGID_7_);enable-background:new    ;}
	.st19{fill:url(#SVGID_8_);}
	.st20{opacity:0.6;fill:url(#SVGID_9_);enable-background:new    ;}
	.st21{opacity:0.2;fill:#FFFFFF;enable-background:new    ;}
	.st22{opacity:0.4;}
	.st23{opacity:0.6;fill:url(#SVGID_10_);enable-background:new    ;}
	.st24{opacity:0.3;fill:#FFFFFF;enable-background:new    ;}
	.st25{opacity:0.6;fill:url(#SVGID_11_);enable-background:new    ;}
	.st26{opacity:0.6;fill:url(#SVGID_12_);enable-background:new    ;}
	.st27{opacity:0.6;fill:url(#SVGID_13_);enable-background:new    ;}
	.st28{opacity:0.6;fill:url(#SVGID_14_);enable-background:new    ;}
	.st29{opacity:0.6;fill:url(#SVGID_15_);enable-background:new    ;}
	.st30{fill:#EE807D;}
	.st31{fill-rule:evenodd;clip-rule:evenodd;fill:#FFFFFF;}
	.st32{fill:url(#SVGID_16_);}
	.st33{fill:#515151;}
	.st34{fill:#151A20;}
	.st35{fill:#4520E4;}
	.st36{fill:#802927;}
	.st37{fill:url(#SVGID_17_);}
	.st38{fill:url(#SVGID_18_);}
	.st39{fill:url(#SVGID_19_);}
	.st40{fill-rule:evenodd;clip-rule:evenodd;fill:#E2FF00;}
	.st41{fill:#002E33;}
	.st42{fill:#CAF5EA;}
	.st43{fill:#07B607;stroke:#128912;stroke-width:0.25;stroke-miterlimit:10;}
	.st44{fill:url(#SVGID_20_);}
	.st45{clip-path:url(#SVGID_22_);}
	.st46{clip-path:url(#SVGID_24_);}
	.st47{clip-path:url(#SVGID_28_);}
	.st48{clip-path:url(#SVGID_30_);}
	.st49{clip-path:url(#SVGID_34_);}
	.st50{clip-path:url(#SVGID_36_);}
	.st51{clip-path:url(#SVGID_40_);}
	.st52{clip-path:url(#SVGID_42_);}
	.st53{fill:#EEA541;}
	.st54{fill:#FBD52D;}
	.st55{fill:#EDB23B;}
	.st56{fill:#363836;}
	.st57{fill:#FFD333;}
	.st58{fill:#FCD42C;}
	.st59{fill:#FC7E5E;}
	.st60{fill:#393637;}
	.st61{fill:#F2D62A;}
	.st62{fill:#35373E;}
	.st63{fill:#FFFCDA;}
	.st64{fill:#FFF9E5;}
	.st65{fill:#F4DE2A;}
	.st66{fill:#3C362D;}
	.st67{fill:#FFFCDD;}
	.st68{fill:#FFFFD9;}
	.st69{fill:#3054BA;}
	.st70{fill:#191535;}
	.st71{fill:#A77309;}
	.st72{fill:#FCFCFC;}
	.st73{fill:#F1CC5A;}
	.st74{fill:#18152F;}
	.st75{fill:#CE9A02;}
	.st76{fill:#E3DECE;}
	.st77{fill:#BF8B05;}
	.st78{fill:#AE7B08;}
	.st79{fill:#A19059;}
	.st80{fill:#C1B691;}
	.st81{fill:#E2BE59;}
	.st82{fill:#DCB545;}
	.st83{fill:#B88307;}
	.st84{fill:#DCB339;}
	.st85{fill:#DBAC17;}
	.st86{fill:#FC4350;}
	.st87{fill:url(#SVGID_45_);}
	.st88{fill:#012FA5;}
	.st89{fill:#172852;}
	.st90{fill:#FFD63D;}
	.st91{fill:#FF6F03;}
	.st92{fill:#2F4580;}
	.st93{fill:#2F2F2F;}
	.st94{fill:#7129FB;}
	.st95{fill:#F6F7F8;}
	.st96{clip-path:url(#SVGID_49_);}
	.st97{fill:#1F1F2D;}
	.st98{fill:#EE5F56;}
	.st99{fill:#E4E4E4;}
	.st100{fill:#060322;}
	.st101{fill:#0B0A09;}
	.st102{fill:#F2F2F2;}
	.st103{fill:#F0B820;}
	.st104{fill:#F1B01F;}
	.st105{fill:#F4B71C;}
	.st106{fill:#F4B61C;}
	.st107{fill:#E5AB23;}
	.st108{fill:#F1CE24;}
	.st109{fill:#F5CF3C;}
	.st110{fill:#F0AF20;}
	.st111{fill:#EEAE21;}
	.st112{fill:#F1C123;}
	.st113{fill:#F0B621;}
	.st114{fill:#F3C230;}
	.st115{fill:#F2C122;}
	.st116{fill:#DBA32C;}
	.st117{fill:#F2B22C;}
	.st118{fill:#F4C334;}
	.st119{fill:#F2C92C;}
	.st120{fill:#F3C960;}
	.st121{fill:#E96022;}
	.st122{fill:#EC6921;}
	.st123{fill:#ED7F20;}
	.st124{fill:#D1A12A;}
	.st125{fill:#D49C29;}
	.st126{fill:#D89627;}
	.st127{fill:#F1C723;}
	.st128{fill:#EFBA21;}
	.st129{fill:#DF5826;}
	.st130{fill:#A3A8B4;}
	.st131{fill:#F0B620;}
	.st132{fill:#F3B61F;}
	.st133{fill:#F1CC23;}
	.st134{fill:#F0BA21;}
	.st135{fill:#F1C122;}
	.st136{fill:#F1BF21;}
	.st137{fill:#F1C522;}
	.st138{fill:#F2D325;}
	.st139{fill:#F0B020;}
	.st140{fill:#A1A6B2;}
	.st141{fill:#F4B720;}
	.st142{fill:#060505;}
	.st143{fill:#F1C726;}
	.st144{fill:#F1C022;}
	.st145{fill:#F4B41F;}
	.st146{fill:#F1B327;}
	.st147{fill:#F3C432;}
	.st148{fill:#F1C029;}
	.st149{fill:#B5B3B4;}
	.st150{fill:#3A3939;}
	.st151{fill:#F2BB2A;}
	.st152{fill:#5D5C5C;}
	.st153{fill:#252525;}
	.st154{fill:#565655;}
	.st155{fill:#F6CB69;}
	.st156{fill:#FAE2AF;}
	.st157{fill:#403F40;}
	.st158{fill:#A3A8B3;}
	.st159{fill:#F2D324;}
	.st160{fill:#F1CB23;}
	.st161{fill:#F0B420;}
	.st162{fill:#F1B726;}
	.st163{fill:#F2BC2A;}
	.st164{fill:#F3B11E;}
	.st165{fill:#F1C222;}
	.st166{fill:#F3B01E;}
	.st167{fill:#F1A920;}
	.st168{fill:#F1B321;}
	.st169{fill:#F2D024;}
	.st170{fill:#F1B522;}
	.st171{fill:#F1C221;}
	.st172{fill:#F2BB29;}
	.st173{fill:#F1AA1F;}
	.st174{fill:#E49423;}
	.st175{fill:#ED9820;}
	.st176{fill:#EA9221;}
	.st177{fill:#F9F9F9;}
	.st178{fill:#A1A5B1;}
	.st179{fill:#F5F4F4;}
	.st180{fill:#F6F6F6;}
	.st181{fill:#170404;}
	.st182{fill:#9A9EA9;}
	.st183{fill:#F4F4F3;}
	.st184{fill:#F6F5F6;}
	.st185{fill:#9EA3AE;}
	.st186{fill:#ECECEC;}
	.st187{fill:#999DA8;}
	.st188{fill:#1E0A0B;}
	.st189{fill:#9B9FAA;}
	.st190{fill:#282A2C;}
	.st191{fill:#CAC9C9;}
	.st192{fill:#8A8E97;}
	.st193{fill:#A7888F;}
	.st194{fill:#D4D3D3;}
	.st195{fill:#868991;}
	.st196{fill:#292828;}
	.st197{fill:#2B1214;}
	.st198{fill:#D6D5D5;}
	.st199{fill:#303134;}
	.st200{fill:#B4B3B4;}
	.st201{fill:#7A7D82;}
	.st202{fill:#6D6A6A;}
	.st203{fill:#A7A5A5;}
	.st204{fill:#212123;}
	.st205{fill:#323235;}
	.st206{fill:#484747;}
	.st207{fill:#800404;}
	.st208{fill:#73757B;}
	.st209{fill:#4C4D51;}
	.st210{fill:#393B3D;}
	.st211{fill:#5F6066;}
	.st212{fill:#A8A7A7;}
	.st213{fill:#303133;}
	.st214{fill:#7B7C81;}
	.st215{fill:#333436;}
	.st216{fill:#8B8E93;}
	.st217{fill:#F6F5F5;}
	.st218{fill:#9A9FAA;}
	.st219{fill:#180808;}
	.st220{fill:#3D0505;}
	.st221{fill:#EBEBEB;}
	.st222{fill:#A55A5E;}
	.st223{fill:#3A3B3F;}
	.st224{fill:#20090A;}
	.st225{fill:#BAB8B8;}
	.st226{fill:#262729;}
	.st227{fill:#BDBBBB;}
	.st228{fill:#AEADAD;}
	.st229{fill:#808189;}
	.st230{fill:#0C0A0B;}
	.st231{fill:#5F090A;}
	.st232{fill:#F2C02E;}
	.st233{fill:#F3C632;}
	.st234{fill:#090809;}
	.st235{fill:#4F090A;}
	.st236{fill:#1C1010;}
	.st237{fill:#A2929C;}
	.st238{fill:#433436;}
	.st239{fill:#A63A3C;}
	.st240{fill:#790404;}
	.st241{fill:#82858D;}
	.st242{fill:#90484D;}
	.st243{fill:#DD2E31;}
	.st244{fill:#A1666D;}
	.st245{fill:#CF3D40;}
	.st246{fill:#F0EEEE;}
	.st247{fill:#E22527;}
	.st248{fill:#B2989F;}
	.st249{fill:#DE2628;}
	.st250{fill:#C73E41;}
	.st251{fill:#A21115;}
	.st252{fill:#8C3315;}
	.st253{fill:#473ADC;}
	.st254{fill:url(#SVGID_50_);}
	.st255{fill:#251E73;}
	.st256{fill:#D51D6A;}
	.st257{fill:url(#SVGID_51_);}
	.st258{fill:#741039;}
	.st259{fill:#FF5B25;}
	.st260{fill:url(#SVGID_52_);}
	.st261{fill:url(#SVGID_53_);fill-opacity:0.3;}
	.st262{fill:#24110B;}
	.st263{fill-rule:evenodd;clip-rule:evenodd;fill:#FFC580;}
	.st264{fill-rule:evenodd;clip-rule:evenodd;fill:url(#SVGID_54_);}
	.st265{fill:#F0E173;}
	.st266{fill:url(#SVGID_55_);}
	.st267{fill:url(#SVGID_56_);}
	.st268{fill:#E70810;}
	.st269{clip-path:url(#SVGID_58_);fill:#FAFAFA;}
	.st270{clip-path:url(#SVGID_58_);}
	.st271{clip-path:url(#SVGID_60_);}
	.st272{opacity:0.25;}
	.st273{fill:url(#SVGID_61_);}
	.st274{fill:url(#SVGID_62_);}
	.st275{fill:url(#SVGID_63_);}
	.st276{fill:url(#SVGID_64_);}
	.st277{fill:url(#SVGID_65_);}
	.st278{fill:url(#SVGID_66_);}
	.st279{fill:url(#SVGID_67_);}
	.st280{fill:url(#SVGID_68_);}
	.st281{fill:url(#SVGID_69_);}
	.st282{fill:url(#SVGID_70_);}
	.st283{fill:url(#SVGID_71_);}
	.st284{fill:url(#SVGID_72_);}
	.st285{clip-path:url(#SVGID_74_);}
	.st286{fill:#283137;}
	.st287{fill:#607D88;}
	.st288{fill:#DE3A36;}
	.st289{fill:#556E78;}
	.st290{fill:#0E161A;}
	.st291{fill:#F6F8F8;}
</style>
<g>
	<circle class="st0" cx="25" cy="25" r="18.6"/>
</g>
<g>
	<defs>
		<path id="SVGID_59_" d="M35.61,14.39c-2.83-2.84-6.6-4.4-10.61-4.4c-8.27,0-15,6.74-15,15.01s6.73,15.01,15,15.01
			c4.01,0,7.77-1.56,10.61-4.4C38.44,32.78,40,29.01,40,25S38.44,17.22,35.61,14.39z"/>
	</defs>
	<clipPath id="SVGID_1_">
		<use xlink:href="#SVGID_59_"  style="overflow:visible;"/>
	</clipPath>
	<rect x="4.11" y="5.6" style="clip-path:url(#SVGID_1_);" width="41.78" height="38.79"/>
	<g style="clip-path:url(#SVGID_1_);">
		<g class="st272">
			<path d="M21.39,35.4c-0.1-0.09-0.17-0.21-0.18-0.35L20.2,24.32h3.59v12.02c0,0.46-0.54,0.7-0.88,0.4L21.39,35.4z"/>
			<path d="M23.79,24.11v-1.5l-3.78-0.33l0.17,1.83H23.79z"/>
			<path d="M23.79,22.4l-3.8-0.33l-0.59-6.32c-0.03-0.31,0.22-0.58,0.53-0.58h3.33c0.29,0,0.53,0.24,0.53,0.53V22.4z"/>
			<path d="M30.81,24.11h2.74c0.15,0,0.27-0.12,0.27-0.27v-1.57c0-0.16-0.14-0.28-0.29-0.26l-2.54,0.25L30.81,24.11z"/>
			<path d="M30.76,22.28l-3.79,0.37v1.46h3.62L30.76,22.28z"/>
			<path d="M26.76,22.67v1.44H16.68c-0.15,0-0.27-0.12-0.27-0.27v-1.57c0-0.16,0.13-0.28,0.29-0.27l8.96,0.77c0.02,0,0.03,0,0.05,0
				L26.76,22.67z"/>
			<path d="M27.89,36.71c-0.33,0.34-0.91,0.1-0.91-0.37V19.82h4.02l-1.4,14.99c-0.01,0.12-0.06,0.24-0.15,0.32L27.89,36.71z"/>
			<path d="M31.01,19.61h-4.04v-2.3l4.28-0.27L31.01,19.61z"/>
			<path d="M26.98,15.7v1.4l4.3-0.27l0.1-1.08c0.03-0.31-0.22-0.58-0.53-0.58h-3.33C27.21,15.16,26.98,15.4,26.98,15.7z"/>
			<path d="M23.79,19.61v-2.29l-4.27-0.21l0.23,2.5H23.79z"/>
			<path d="M24,19.61h10.77c0.12,0,0.21-0.1,0.21-0.21v-2.37c0-0.12-0.1-0.22-0.23-0.21l-9.25,0.59L24,17.33V19.61z"/>
			<path d="M19.29,17.09l0.26,2.51h-4.31c-0.12,0-0.21-0.1-0.21-0.21v-2.28c0-0.12,0.1-0.22,0.22-0.21L19.29,17.09z"/>
		</g>
		
			<linearGradient id="SVGID_2_" gradientUnits="userSpaceOnUse" x1="15.0165" y1="-28.557" x2="34.9835" y2="-28.557" gradientTransform="matrix(1 0 0 -1 0 2)">
			<stop  offset="0" style="stop-color:#5433FF"/>
			<stop  offset="0.5" style="stop-color:#20BDFF"/>
			<stop  offset="1" style="stop-color:#A5FECB"/>
		</linearGradient>
		<path class="st10" d="M21.39,35.36c-0.1-0.09-0.17-0.21-0.18-0.35L20.2,24.28h3.59V36.3c0,0.46-0.54,0.7-0.88,0.4L21.39,35.36z"/>
		
			<linearGradient id="SVGID_3_" gradientUnits="userSpaceOnUse" x1="15.0165" y1="-21.1525" x2="34.9835" y2="-21.1525" gradientTransform="matrix(1 0 0 -1 0 2)">
			<stop  offset="0" style="stop-color:#5433FF"/>
			<stop  offset="0.5" style="stop-color:#20BDFF"/>
			<stop  offset="1" style="stop-color:#A5FECB"/>
		</linearGradient>
		<path style="fill:url(#SVGID_3_);" d="M23.79,24.07v-1.5l-3.78-0.33l0.17,1.83H23.79z"/>
		
			<linearGradient id="SVGID_4_" gradientUnits="userSpaceOnUse" x1="15.0165" y1="-16.7364" x2="34.9835" y2="-16.7364" gradientTransform="matrix(1 0 0 -1 0 2)">
			<stop  offset="0" style="stop-color:#5433FF"/>
			<stop  offset="0.5" style="stop-color:#20BDFF"/>
			<stop  offset="1" style="stop-color:#A5FECB"/>
		</linearGradient>
		<path style="fill:url(#SVGID_4_);" d="M23.79,22.35l-3.8-0.33l-0.59-6.32c-0.03-0.31,0.22-0.58,0.53-0.58h3.33
			c0.29,0,0.53,0.24,0.53,0.53V22.35z"/>
		
			<linearGradient id="SVGID_5_" gradientUnits="userSpaceOnUse" x1="15.0165" y1="-21.0137" x2="34.9835" y2="-21.0137" gradientTransform="matrix(1 0 0 -1 0 2)">
			<stop  offset="0" style="stop-color:#5433FF"/>
			<stop  offset="0.5" style="stop-color:#20BDFF"/>
			<stop  offset="1" style="stop-color:#A5FECB"/>
		</linearGradient>
		<path class="st14" d="M30.81,24.06h2.74c0.15,0,0.27-0.12,0.27-0.27v-1.57c0-0.16-0.14-0.28-0.29-0.26l-2.54,0.25L30.81,24.06z"/>
		
			<linearGradient id="SVGID_6_" gradientUnits="userSpaceOnUse" x1="15.0165" y1="-21.149" x2="34.9835" y2="-21.149" gradientTransform="matrix(1 0 0 -1 0 2)">
			<stop  offset="0" style="stop-color:#5433FF"/>
			<stop  offset="0.5" style="stop-color:#20BDFF"/>
			<stop  offset="1" style="stop-color:#A5FECB"/>
		</linearGradient>
		<path style="fill:url(#SVGID_6_);" d="M30.76,22.23l-3.79,0.37v1.46h3.62L30.76,22.23z"/>
		
			<linearGradient id="SVGID_7_" gradientUnits="userSpaceOnUse" x1="15.0165" y1="-21.012" x2="34.9835" y2="-21.012" gradientTransform="matrix(1 0 0 -1 0 2)">
			<stop  offset="0" style="stop-color:#5433FF"/>
			<stop  offset="0.5" style="stop-color:#20BDFF"/>
			<stop  offset="1" style="stop-color:#A5FECB"/>
		</linearGradient>
		<path style="fill:url(#SVGID_7_);" d="M26.76,22.62v1.44H16.68c-0.15,0-0.27-0.12-0.27-0.27v-1.57c0-0.16,0.13-0.28,0.29-0.27
			l8.96,0.77c0.02,0,0.03,0,0.05,0L26.76,22.62z"/>
		
			<linearGradient id="SVGID_8_" gradientUnits="userSpaceOnUse" x1="15.0165" y1="-26.2992" x2="34.9835" y2="-26.2992" gradientTransform="matrix(1 0 0 -1 0 2)">
			<stop  offset="0" style="stop-color:#5433FF"/>
			<stop  offset="0.5" style="stop-color:#20BDFF"/>
			<stop  offset="1" style="stop-color:#A5FECB"/>
		</linearGradient>
		<path class="st19" d="M27.89,36.67c-0.33,0.34-0.91,0.1-0.91-0.37V19.77h4.02l-1.4,14.99c-0.01,0.12-0.06,0.24-0.15,0.32
			L27.89,36.67z"/>
		
			<linearGradient id="SVGID_9_" gradientUnits="userSpaceOnUse" x1="15.0165" y1="-16.2793" x2="34.9835" y2="-16.2793" gradientTransform="matrix(1 0 0 -1 0 2)">
			<stop  offset="0" style="stop-color:#5433FF"/>
			<stop  offset="0.5" style="stop-color:#20BDFF"/>
			<stop  offset="1" style="stop-color:#A5FECB"/>
		</linearGradient>
		<path style="fill:url(#SVGID_9_);" d="M31.01,19.56h-4.04v-2.3L31.25,17L31.01,19.56z"/>
		
			<linearGradient id="SVGID_10_" gradientUnits="userSpaceOnUse" x1="15.0165" y1="-14.0856" x2="34.9835" y2="-14.0856" gradientTransform="matrix(1 0 0 -1 0 2)">
			<stop  offset="0" style="stop-color:#5433FF"/>
			<stop  offset="0.5" style="stop-color:#20BDFF"/>
			<stop  offset="1" style="stop-color:#A5FECB"/>
		</linearGradient>
		<path style="fill:url(#SVGID_10_);" d="M26.98,15.65v1.4l4.3-0.27l0.1-1.08c0.03-0.31-0.22-0.58-0.53-0.58h-3.33
			C27.21,15.12,26.98,15.36,26.98,15.65z"/>
		
			<linearGradient id="SVGID_11_" gradientUnits="userSpaceOnUse" x1="15.0165" y1="-16.3109" x2="34.9835" y2="-16.3109" gradientTransform="matrix(1 0 0 -1 0 2)">
			<stop  offset="0" style="stop-color:#5433FF"/>
			<stop  offset="0.5" style="stop-color:#20BDFF"/>
			<stop  offset="1" style="stop-color:#A5FECB"/>
		</linearGradient>
		<path style="fill:url(#SVGID_11_);" d="M23.79,19.56v-2.29l-4.27-0.21l0.23,2.5H23.79z"/>
		
			<linearGradient id="SVGID_12_" gradientUnits="userSpaceOnUse" x1="15.0165" y1="-16.1645" x2="34.9835" y2="-16.1645" gradientTransform="matrix(1 0 0 -1 0 2)">
			<stop  offset="0" style="stop-color:#5433FF"/>
			<stop  offset="0.5" style="stop-color:#20BDFF"/>
			<stop  offset="1" style="stop-color:#A5FECB"/>
		</linearGradient>
		<path style="fill:url(#SVGID_12_);" d="M24,19.56h10.77c0.12,0,0.21-0.1,0.21-0.21v-2.37c0-0.12-0.1-0.22-0.23-0.21l-9.25,0.59
			L24,17.28V19.56z"/>
		
			<linearGradient id="SVGID_13_" gradientUnits="userSpaceOnUse" x1="15.0165" y1="-16.2055" x2="34.9835" y2="-16.2055" gradientTransform="matrix(1 0 0 -1 0 2)">
			<stop  offset="0" style="stop-color:#5433FF"/>
			<stop  offset="0.5" style="stop-color:#20BDFF"/>
			<stop  offset="1" style="stop-color:#A5FECB"/>
		</linearGradient>
		<path style="fill:url(#SVGID_13_);" d="M19.29,17.05l0.26,2.51h-4.31c-0.12,0-0.21-0.1-0.21-0.21v-2.28c0-0.12,0.1-0.22,0.22-0.21
			L19.29,17.05z"/>
		<path class="st0" d="M20.19,22.04l-0.2-0.02l-0.23-2.46h0l-0.23-2.5l0,0l-0.13-1.36c-0.03-0.31,0.22-0.58,0.53-0.58h3.33
			c0.2,0,0.38,0.12,0.47,0.28c-0.07-0.04-0.16-0.06-0.25-0.06h-3.33c-0.31,0-0.56,0.27-0.53,0.58l0.13,1.36l0,0l0.23,2.5h0
			L20.19,22.04z"/>
		<path class="st0" d="M24.01,19.56l0.21,0V17.5l1.51,0.07l9.25-0.59l0,0v-0.01c0-0.12-0.1-0.22-0.23-0.21l-3.26,0.21h0l-4.3,0.27
			l-1.69,0.11l-1.5-0.07V19.56z"/>
		<path class="st0" d="M31.31,15.4c-0.07-0.04-0.16-0.06-0.25-0.06h-3.33c-0.29,0-0.53,0.24-0.53,0.53v1.16l-0.22,0.01v-1.4
			c0-0.29,0.24-0.53,0.53-0.53h3.33C31.05,15.12,31.22,15.24,31.31,15.4z"/>
		<path class="st0" d="M26.98,19.78h4.02L30.97,20H27.2v16.52c0,0.09,0.02,0.18,0.06,0.25c-0.16-0.09-0.28-0.25-0.28-0.47v-12h0.01
			v-1.44l-0.01,0V19.78z"/>
		<path class="st0" d="M26.76,22.87v-0.24l-1.05,0.1c-0.02,0-0.03,0-0.05,0l-5.65-0.49l0,0l-3.31-0.28
			c-0.16-0.01-0.29,0.11-0.29,0.27v1.57c0,0.13,0.1,0.24,0.23,0.26c0-0.01,0-0.03,0-0.04v-1.57c0-0.16,0.13-0.28,0.29-0.27
			l3.31,0.28l0,0l5.65,0.49c0.02,0,0.03,0,0.05,0L26.76,22.87z"/>
		<path class="st0" d="M20.2,24.29l1.01,10.72c0.01,0.13,0.08,0.26,0.18,0.35l0.13,0.11c-0.05-0.07-0.08-0.15-0.08-0.24L20.42,24.5
			h3.37v-0.21L20.2,24.29z"/>
		<path class="st0" d="M30.84,24.06h0.21l0.15-1.63l2.54-0.25c0.02,0,0.05,0,0.07,0c-0.02-0.14-0.15-0.24-0.29-0.22l-2.51,0.25
			l-0.07,0.71L30.84,24.06z"/>
		<path class="st0" d="M19.31,17.26l-0.02-0.21l-4.05-0.2c-0.12-0.01-0.22,0.09-0.22,0.21v2.28c0,0.12,0.1,0.21,0.21,0.21h0.01
			v-2.27c0-0.12,0.1-0.22,0.22-0.21L19.31,17.26z"/>
	</g>
</g>
</svg>
