<?xml version="1.0" encoding="UTF-8"?>
<svg id="Ebene_1" data-name="Ebene 1" xmlns="http://www.w3.org/2000/svg" version="1.1" viewBox="0 0 50 50">
  <path d="M-316.24-45.87c-2.83-2.84-6.6-4.4-10.61-4.4-8.27,0-15,6.74-15,15.01s6.73,15.01,15,15.01c4.01,0,7.77-1.56,10.61-4.4,2.83-2.84,4.39-6.61,4.39-10.61,0-4.01-1.56-7.78-4.39-10.61Z" fill="#000"/>
  <circle cx="25" cy="25" r="18.6" fill="#fff" stroke-width="0"/>
  <g>
    <path d="M25,10c8.29,0,15,6.72,15,15s-6.72,15-15,15-15-6.72-15-15,6.71-15,15-15Z" fill="#ff0" stroke-width="0"/>
    <g>
      <path d="M29.85,25h-4.67v4.67h4.67v-4.67ZM20.5,20.32c2.58,0,4.67,2.09,4.67,4.67h-4.67v-4.67ZM20.5,25l-2.7,4.67h5.4s-2.7-4.67-2.7-4.67ZM29.87,25c1.29,0,2.34-1.05,2.34-2.34s-1.05-2.34-2.34-2.34-2.34,1.05-2.34,2.34,1.05,2.34,2.34,2.34Z" fill="#000" stroke-width="0"/>
      <path d="M25,37.5c-3.34,0-6.48-1.3-8.84-3.66-2.36-2.36-3.66-5.5-3.66-8.84s1.3-6.48,3.66-8.84c2.36-2.36,5.5-3.66,8.84-3.66s6.48,1.3,8.84,3.66c2.36,2.36,3.66,5.5,3.66,8.84s-1.3,6.48-3.66,8.84c-2.36,2.36-5.5,3.66-8.84,3.66h0ZM25,14.05c-2.93,0-5.68,1.14-7.74,3.21s-3.21,4.82-3.21,7.74,1.14,5.68,3.21,7.74c2.07,2.07,4.82,3.21,7.74,3.21s5.68-1.14,7.74-3.21,3.21-4.82,3.21-7.74-1.14-5.68-3.21-7.74c-2.07-2.07-4.82-3.21-7.74-3.21Z" fill="#000" stroke-width="0"/>
    </g>
  </g>
  <metadata>
    <sfw xmlns="http://ns.adobe.com/SaveForWeb/1.0/">
      <slices/>
      <sliceSourceBounds x="86.66" y="-312.77" width="1755.13" height="531.43" bottomLeftOrigin="true"/>
    </sfw>
  </metadata>
</svg>