<svg width="141" height="41" viewBox="0 0 141 41" fill="none" xmlns="http://www.w3.org/2000/svg">
<path fill-rule="evenodd" clip-rule="evenodd" d="M26.7343 13.2149H15.097L6.78895 4.90679C10.2756 1.85584 14.8405 0 19.8578 0C30.8 0 39.7157 8.91564 39.7157 19.8579C39.7157 24.8511 37.8548 29.419 34.796 32.9139L26.7343 24.8521V13.2149ZM93.9118 6.61937V33.0962L97.6939 38.7701H78.7821L82.5646 33.0962V6.61937L78.7821 0.94544H97.6939L93.9118 6.61937ZM136.43 6.61937V40.6612L112.79 20.1954V33.0962L116.572 38.7701H99.551L103.333 33.0962V6.61937L99.551 0.94544H108.534L126.974 17.9665V6.61937L123.191 0.94544H140.212L136.43 6.61937ZM58.8432 10.4018C63.031 10.4018 66.4082 14.657 66.4082 19.8579C66.4082 25.0588 63.031 29.314 58.8432 29.314H55.939V10.4018H58.8432ZM58.7758 38.7701C69.245 38.7701 77.688 30.3271 77.688 19.8579C77.688 9.38866 69.245 0.945711 58.7758 0.945711H40.809L44.5915 6.6193V33.0961L40.809 38.7701H58.7758ZM24.8176 26.7686H13.1804V15.1317L4.87533 6.82633C1.83862 10.3181 6.10352e-05 14.8762 6.10352e-05 19.8579C6.10352e-05 30.7998 8.84827 39.7154 19.8576 39.7154C24.8339 39.7154 29.3869 37.8677 32.877 34.828L24.8176 26.7686Z" fill="white"/>
</svg>
