<svg id="ac0d1989-1d48-4f16-9381-3e148338ac32" data-name="Ebene 1" xmlns="http://www.w3.org/2000/svg" xmlns:xlink="http://www.w3.org/1999/xlink" viewBox="0 0 50 50"><defs><style>.b99cbdde-bb5a-44a5-b904-56bea94eed0d{fill:none;}.e905624a-39ac-40f9-bda9-b2ca65d7496f{fill:#fff;}.e3c1b997-c1e8-4ea6-97d8-fb3610b0c4df{clip-path:url(#b8a40f7c-764f-4936-9568-a421c7e841a9);}.e4f81d64-a62d-4782-b2d2-7ea94c5d4091{fill:url(#a4932a3c-d874-43dd-ae79-6adbcbcf5dd2);}</style><clipPath id="b8a40f7c-764f-4936-9568-a421c7e841a9"><path class="b99cbdde-bb5a-44a5-b904-56bea94eed0d" d="M35.607,14.385A15.021,15.021,0,1,0,40,25,14.893,14.893,0,0,0,35.607,14.385Z"/></clipPath><linearGradient id="a4932a3c-d874-43dd-ae79-6adbcbcf5dd2" x1="13.47" y1="25" x2="36.53" y2="25" gradientUnits="userSpaceOnUse"><stop offset="0" stop-color="#008bfa"/><stop offset="1" stop-color="#00effe"/></linearGradient></defs><circle class="e905624a-39ac-40f9-bda9-b2ca65d7496f" cx="25" cy="25" r="18.6"/><g class="e3c1b997-c1e8-4ea6-97d8-fb3610b0c4df"><path d="M43.277,43.277H6.723V6.723H43.277ZM32.685,16.389a8.275,8.275,0,0,1,2.187,4.672,13.386,13.386,0,0,1-2.841,9.4,2.884,2.884,0,0,1-1.146.865,1.77,1.77,0,0,1-2.592-1.674,4.757,4.757,0,0,1,.659-1.859c.878-1.7,1.982-3.3,2.685-5.067,1.362-3.417.534-5.894-2.422-8.1a4.963,4.963,0,0,0-.467-.322,7.753,7.753,0,0,0-5.312-.656,4.941,4.941,0,0,0,.906.38,8.968,8.968,0,0,1,4.015,2.792,4.2,4.2,0,0,1,.976,4.01,15.421,15.421,0,0,1-1.289,3.039c-.641,1.154-1.5,2.187-2.156,3.336a4.763,4.763,0,0,0,1.409,6.47,4.657,4.657,0,0,0,6.388-1.027,11.4,11.4,0,0,0,2.353-11.159A10.3,10.3,0,0,0,32.685,16.389Zm-16.216,16.3a8.64,8.64,0,0,1-1.486-5.632,14.976,14.976,0,0,1,2.734-7.279A3.686,3.686,0,0,1,19,18.7a1.806,1.806,0,0,1,2.718,1.735,4.69,4.69,0,0,1-.644,1.782c-.805,1.527-1.749,2.985-2.481,4.544a6.536,6.536,0,0,0-.658,4.65,7.114,7.114,0,0,0,8.723,4.949,21.508,21.508,0,0,1-2.318-.982c-1.781-1.005-3.332-2.245-3.759-4.415a5.981,5.981,0,0,1,1.007-4.243c.681-1.166,1.459-2.276,2.221-3.393a4.888,4.888,0,0,0-.82-6.771c-2.133-1.666-4.8-1.312-6.7.9a11.246,11.246,0,0,0-2.768,7.44A10.971,10.971,0,0,0,16.469,32.691Z"/><path class="e4f81d64-a62d-4782-b2d2-7ea94c5d4091" d="M32.634,16.371a10.285,10.285,0,0,1,3.353,5.1,11.406,11.406,0,0,1-2.352,11.16,4.658,4.658,0,0,1-6.389,1.026,4.761,4.761,0,0,1-1.408-6.469c.653-1.15,1.514-2.182,2.156-3.337a15.472,15.472,0,0,0,1.289-3.038,4.2,4.2,0,0,0-.977-4.011,8.973,8.973,0,0,0-4.015-2.791,4.878,4.878,0,0,1-.906-.381,7.764,7.764,0,0,1,5.312.656,5.111,5.111,0,0,1,.468.322c2.955,2.2,3.783,4.681,2.422,8.1-.7,1.765-1.808,3.368-2.686,5.068a4.783,4.783,0,0,0-.659,1.859A1.771,1.771,0,0,0,30.835,31.3a2.91,2.91,0,0,0,1.146-.865,13.4,13.4,0,0,0,2.841-9.4A8.274,8.274,0,0,0,32.634,16.371ZM14.932,27.04a14.977,14.977,0,0,1,2.735-7.279,3.661,3.661,0,0,1,1.279-1.083,1.805,1.805,0,0,1,2.718,1.735A4.679,4.679,0,0,1,21.02,22.2c-.8,1.526-1.749,2.984-2.48,4.543a6.538,6.538,0,0,0-.659,4.65,7.115,7.115,0,0,0,8.723,4.95,21.607,21.607,0,0,1-2.317-.982c-1.781-1.005-3.332-2.245-3.76-4.415A5.984,5.984,0,0,1,21.535,26.7c.68-1.165,1.458-2.276,2.22-3.392a4.888,4.888,0,0,0-.819-6.771c-2.134-1.667-4.8-1.312-6.7.895a11.244,11.244,0,0,0-2.769,7.44,10.968,10.968,0,0,0,2.948,7.8A8.639,8.639,0,0,1,14.932,27.04Z"/></g></svg>