<svg id="bda60fba-330f-4c48-be67-60620f857b1e" data-name="Ebene 1" xmlns="http://www.w3.org/2000/svg" xmlns:xlink="http://www.w3.org/1999/xlink" viewBox="0 0 50 50"><defs><style>.ac09ca46-2853-426a-ab0a-cb974c31515c{fill:none;}.bd0bef79-27e8-41ff-bcf1-e6e9f0043ca0{fill:#fff;}.be03eb6b-80c2-41c7-9bb5-9de4e7a12ac1{clip-path:url(#e550f772-83a6-4504-a874-4ddf155f9979);}.fe2c6e74-6ab6-457d-99e7-bd92f0c29616{fill:#1f1f2d;}.bcf0cbe1-9caa-4117-9325-a8c2dfd60500{fill:#f05f56;}</style><clipPath id="e550f772-83a6-4504-a874-4ddf155f9979"><path class="ac09ca46-2853-426a-ab0a-cb974c31515c" d="M35.61,14.39A15,15,0,1,0,25,40,15,15,0,0,0,35.61,14.39Z"/></clipPath></defs><circle class="bd0bef79-27e8-41ff-bcf1-e6e9f0043ca0" cx="25" cy="25" r="18.6"/><g class="be03eb6b-80c2-41c7-9bb5-9de4e7a12ac1"><path class="fe2c6e74-6ab6-457d-99e7-bd92f0c29616" d="M40.78,25q0,7.72,0,15.46c0,.27-.06.33-.33.33H9.54c-.27,0-.33-.06-.33-.33q0-15.47,0-30.92c0-.27.06-.33.33-.33H40.46c.27,0,.33.06.33.33Q40.78,17.27,40.78,25Zm-19.53-.09a3.75,3.75,0,1,0,3.86-3.65A3.75,3.75,0,0,0,21.25,24.91ZM25,16c-1.12,0-2.24,0-3.35,0-.35,0-.41.1-.38.42a3.75,3.75,0,0,0,7.46,0c0-.3,0-.39-.34-.38C27.26,16,26.13,16,25,16Zm-9,9c0,1.13,0,2.26,0,3.39,0,.32.1.36.38.34a3.75,3.75,0,0,0,0-7.46c-.29,0-.39,0-.38.34C16,22.74,16,23.87,16,25Zm18,0c0-1.14,0-2.29,0-3.43,0-.31-.09-.36-.38-.34a3.75,3.75,0,0,0,0,7.46c.34,0,.38-.09.38-.38C34,27.25,34,26.14,34,25Zm-9,9h3.43c.28,0,.34-.08.32-.36a3.75,3.75,0,0,0-7.46,0c0,.33.07.37.36.37ZM17.9,16c-.53,0-1.06,0-1.58,0-.23,0-.32.05-.32.3,0,1.05,0,2.11,0,3.16,0,.26.09.29.32.28a3.76,3.76,0,0,0,3.42-3.44c0-.22,0-.3-.27-.3C19,16,18.42,16,17.9,16ZM34,17.9c0-.53,0-1,0-1.58,0-.22,0-.32-.3-.32q-1.58,0-3.15,0c-.26,0-.3.08-.29.32a3.77,3.77,0,0,0,3.44,3.42c.26,0,.3-.08.3-.3C34,18.92,34,18.41,34,17.9ZM17.87,34h1.61c.21,0,.27-.06.26-.27a3.75,3.75,0,0,0-3.47-3.47c-.21,0-.27,0-.27.26,0,1.06,0,2.12,0,3.19,0,.22.07.29.29.29C16.82,34,17.34,34,17.87,34ZM34,32.14c0-.52,0-1.05,0-1.57,0-.28-.09-.33-.34-.31a3.76,3.76,0,0,0-3.4,3.42c0,.23,0,.32.28.32H33.7c.25,0,.3-.09.3-.32C34,33.17,34,32.66,34,32.14Z"/><path class="bcf0cbe1-9caa-4117-9325-a8c2dfd60500" d="M21.25,24.91a3.75,3.75,0,1,1,3.64,3.83A3.75,3.75,0,0,1,21.25,24.91Z"/><path class="bcf0cbe1-9caa-4117-9325-a8c2dfd60500" d="M25,16c1.13,0,2.26,0,3.39,0,.31,0,.36.08.34.38a3.75,3.75,0,0,1-7.46,0c0-.32,0-.43.38-.42C22.76,16,23.88,16,25,16Z"/><path class="bcf0cbe1-9caa-4117-9325-a8c2dfd60500" d="M16,25c0-1.13,0-2.26,0-3.39,0-.31.09-.36.38-.34a3.75,3.75,0,0,1,0,7.46c-.28,0-.39,0-.38-.34C16,27.26,16,26.13,16,25Z"/><path class="bcf0cbe1-9caa-4117-9325-a8c2dfd60500" d="M34,25c0,1.1,0,2.21,0,3.31,0,.29,0,.41-.38.38a3.75,3.75,0,0,1,0-7.46c.29,0,.39,0,.38.34C34,22.75,34,23.9,34,25Z"/><path class="bcf0cbe1-9caa-4117-9325-a8c2dfd60500" d="M25,34H21.63c-.29,0-.39,0-.36-.37a3.75,3.75,0,0,1,7.46,0c0,.28,0,.36-.32.36Z"/><path class="bcf0cbe1-9caa-4117-9325-a8c2dfd60500" d="M17.9,16c.52,0,1.05,0,1.57,0,.24,0,.28.08.27.3a3.76,3.76,0,0,1-3.42,3.44c-.23,0-.32,0-.32-.28,0-1.05,0-2.11,0-3.16,0-.25.09-.3.32-.3C16.84,16,17.37,16,17.9,16Z"/><path class="bcf0cbe1-9caa-4117-9325-a8c2dfd60500" d="M34,17.9c0,.51,0,1,0,1.54,0,.22,0,.32-.3.3a3.77,3.77,0,0,1-3.44-3.42c0-.24,0-.32.29-.32q1.57,0,3.15,0c.26,0,.3.1.3.32C34,16.85,34,17.37,34,17.9Z"/><path class="bcf0cbe1-9caa-4117-9325-a8c2dfd60500" d="M17.87,34c-.53,0-1.05,0-1.58,0-.22,0-.29-.07-.29-.29,0-1.07,0-2.13,0-3.19,0-.21.06-.27.27-.26a3.75,3.75,0,0,1,3.47,3.47c0,.21,0,.27-.26.27Z"/><path class="bcf0cbe1-9caa-4117-9325-a8c2dfd60500" d="M34,32.14c0,.52,0,1,0,1.54,0,.23,0,.32-.3.32H30.54c-.25,0-.29-.09-.28-.32a3.76,3.76,0,0,1,3.4-3.42c.25,0,.35,0,.34.31C34,31.09,34,31.62,34,32.14Z"/></g></svg>