<?xml version="1.0" encoding="utf-8"?>
<!-- Generator: Adobe Illustrator 28.2.0, SVG Export Plug-In . SVG Version: 6.00 Build 0)  -->
<svg version="1.0" id="Ebene_1" xmlns="http://www.w3.org/2000/svg" xmlns:xlink="http://www.w3.org/1999/xlink" x="0px" y="0px"
	 viewBox="0 0 50 50" style="enable-background:new 0 0 50 50;" xml:space="preserve">
<style type="text/css">
	.st0{fill:#FFFFFF;}
	.st1{fill:#164363;}
	.st2{fill:#3DCB8F;}
	.st3{fill:#1B1E36;}
	.st4{fill:none;stroke:#FFFFFF;stroke-width:0.3995;stroke-miterlimit:10;}
	.st5{fill:none;stroke:#FFFFFF;stroke-width:0.3995;stroke-miterlimit:9.9998;}
	.st6{fill-rule:evenodd;clip-rule:evenodd;fill:#0E3CA2;}
	.st7{fill-rule:evenodd;clip-rule:evenodd;fill:#5490F4;}
	.st8{fill:#5E129D;}
	.st9{fill:url(#SVGID_1_);}
	.st10{fill:url(#SVGID_00000018951198447265914980000013966851996227881366_);}
	.st11{opacity:0.6;fill:#A68395;enable-background:new    ;}
	.st12{opacity:0.6;fill:url(#SVGID_00000013911492209492448850000017108728126212636808_);enable-background:new    ;}
	.st13{opacity:0.6;fill:url(#SVGID_00000112626741720492189910000006835248884377992838_);enable-background:new    ;}
	.st14{fill:url(#SVGID_00000055700351061093955100000008997847910809427077_);}
	.st15{opacity:0.6;}
	.st16{opacity:0.6;fill:url(#SVGID_00000042710609461947702160000010936042741166489495_);enable-background:new    ;}
	.st17{opacity:0.7;}
	.st18{opacity:0.7;fill:url(#SVGID_00000023999440903605816960000010151503864889177004_);enable-background:new    ;}
	.st19{fill:url(#SVGID_00000060753414792388786810000008736519302179361978_);}
	.st20{opacity:0.6;fill:url(#SVGID_00000008146561250491936360000008903676712990305952_);enable-background:new    ;}
	.st21{opacity:0.2;fill:#FFFFFF;enable-background:new    ;}
	.st22{opacity:0.4;}
	.st23{opacity:0.6;fill:url(#SVGID_00000182518857992358665430000003063327534550301333_);enable-background:new    ;}
	.st24{opacity:0.3;fill:#FFFFFF;enable-background:new    ;}
	.st25{opacity:0.6;fill:url(#SVGID_00000032642934369649686630000012950277199711997620_);enable-background:new    ;}
	.st26{opacity:0.6;fill:url(#SVGID_00000075847614779931002940000015444205744798828699_);enable-background:new    ;}
	.st27{opacity:0.6;fill:url(#SVGID_00000038405493595169134490000012255615147712460945_);enable-background:new    ;}
	.st28{opacity:0.6;fill:url(#SVGID_00000139277994941358407550000016556460322659328693_);enable-background:new    ;}
	.st29{opacity:0.6;fill:url(#SVGID_00000060024399184529236390000006631120469225828506_);enable-background:new    ;}
	.st30{fill:#ED807D;}
	.st31{fill-rule:evenodd;clip-rule:evenodd;fill:#FFFFFF;}
	.st32{fill:url(#SVGID_00000005950033091911750940000017070355687637157302_);}
	.st33{fill:#515151;}
	.st34{fill:#151A20;}
	.st35{fill:#4520E3;}
	.st36{fill:#802927;}
	.st37{fill:url(#SVGID_00000116957447695488920510000000016351575347095464_);}
	.st38{fill:url(#SVGID_00000046337878426157702610000002537765591082827671_);}
	.st39{fill:url(#SVGID_00000099636157242438783870000004973595904351112345_);}
	.st40{fill-rule:evenodd;clip-rule:evenodd;fill:#E1FF00;}
	.st41{fill:#002E33;}
	.st42{fill:#C9F4E9;}
	.st43{fill:#07B507;stroke:#128812;stroke-width:0.25;stroke-miterlimit:10;}
	.st44{fill:url(#SVGID_00000007425948582972894640000012817864166200182202_);}
	.st45{clip-path:url(#SVGID_00000017496191786205966390000008787700478795056287_);}
	.st46{clip-path:url(#SVGID_00000138548062723146545770000013723161595367465406_);}
	.st47{clip-path:url(#SVGID_00000080177967723859251610000003664924679699864227_);}
	.st48{clip-path:url(#SVGID_00000153677665128098389650000016028774882854308781_);}
	.st49{clip-path:url(#SVGID_00000167392167516597650440000010941793467458450340_);}
	.st50{clip-path:url(#SVGID_00000135683998269494590100000012640291883894769809_);}
	.st51{clip-path:url(#SVGID_00000156584550286690535880000017164864537295334055_);}
	.st52{clip-path:url(#SVGID_00000168818075145238433530000016081071650082653315_);}
	.st53{fill:#EDA441;}
	.st54{fill:#FAD42D;}
	.st55{fill:#ECB13B;}
	.st56{fill:#363836;}
	.st57{fill:#FFD233;}
	.st58{fill:#FBD32C;}
	.st59{fill:#FB7E5E;}
	.st60{fill:#393637;}
	.st61{fill:#F1D52A;}
	.st62{fill:#35373E;}
	.st63{fill:#FFFBD9;}
	.st64{fill:#FFF8E4;}
	.st65{fill:#F3DD2A;}
	.st66{fill:#3C362D;}
	.st67{fill:#FFFBDC;}
	.st68{fill:#FFFFD8;}
	.st69{fill:#3054B9;}
	.st70{fill:#191535;}
	.st71{fill:#A67309;}
	.st72{fill:#FBFBFB;}
	.st73{fill:#F0CB5A;}
	.st74{fill:#18152F;}
	.st75{fill:#CD9902;}
	.st76{fill:#E2DDCD;}
	.st77{fill:#BE8A05;}
	.st78{fill:#AD7B08;}
	.st79{fill:#A08F59;}
	.st80{fill:#C0B590;}
	.st81{fill:#E1BD59;}
	.st82{fill:#DBB445;}
	.st83{fill:#B78207;}
	.st84{fill:#DBB239;}
	.st85{fill:#DAAB17;}
	.st86{fill:#FB4350;}
	.st87{fill:url(#SVGID_00000050632515428457201570000011444616928714850724_);}
	.st88{fill:#012FA4;}
	.st89{fill:#172852;}
	.st90{fill:#FFD53D;}
	.st91{fill:#FF6F03;}
	.st92{fill:#2F4580;}
	.st93{fill:#2F2F2F;}
	.st94{fill:#7129FA;}
	.st95{fill:#F5F6F7;}
	.st96{clip-path:url(#SVGID_00000164504704158163928450000015048899484638476686_);}
	.st97{fill:#1F1F2D;}
	.st98{fill:#ED5F56;}
	.st99{fill:#E3E3E3;}
	.st100{fill:#060322;}
	.st101{fill:#0B0A09;}
	.st102{fill:#F2F2F2;}
	.st103{fill:#EFB720;}
	.st104{fill:#F0AF1F;}
	.st105{fill:#F3B61C;}
	.st106{fill:#F3B51C;}
	.st107{fill:#E4AA23;}
	.st108{fill:#F0CD24;}
	.st109{fill:#F4CE3C;}
	.st110{fill:#EFAE20;}
	.st111{fill:#EDAD21;}
	.st112{fill:#F0C023;}
	.st113{fill:#EFB521;}
	.st114{fill:#F2C130;}
	.st115{fill:#F1C022;}
	.st116{fill:#DAA22C;}
	.st117{fill:#F1B12C;}
	.st118{fill:#F3C234;}
	.st119{fill:#F1C82C;}
	.st120{fill:#F2C860;}
	.st121{fill:#E86022;}
	.st122{fill:#EB6921;}
	.st123{fill:#EC7F20;}
	.st124{fill:#D0A02A;}
	.st125{fill:#D39B29;}
	.st126{fill:#D79527;}
	.st127{fill:#F0C623;}
	.st128{fill:#EEB921;}
	.st129{fill:#DE5826;}
	.st130{fill:#A2A7B3;}
	.st131{fill:#EFB520;}
	.st132{fill:#F2B51F;}
	.st133{fill:#F0CB23;}
	.st134{fill:#EFB921;}
	.st135{fill:#F0C022;}
	.st136{fill:#F0BE21;}
	.st137{fill:#F0C422;}
	.st138{fill:#F1D225;}
	.st139{fill:#EFAF20;}
	.st140{fill:#A0A5B1;}
	.st141{fill:#F3B620;}
	.st142{fill:#060505;}
	.st143{fill:#F0C626;}
	.st144{fill:#F0BF22;}
	.st145{fill:#F3B31F;}
	.st146{fill:#F0B227;}
	.st147{fill:#F2C332;}
	.st148{fill:#F0BF29;}
	.st149{fill:#B4B2B3;}
	.st150{fill:#3A3939;}
	.st151{fill:#F1BA2A;}
	.st152{fill:#5D5C5C;}
	.st153{fill:#252525;}
	.st154{fill:#565655;}
	.st155{fill:#F5CA69;}
	.st156{fill:#F9E1AE;}
	.st157{fill:#403F40;}
	.st158{fill:#A2A7B2;}
	.st159{fill:#F1D224;}
	.st160{fill:#F0CA23;}
	.st161{fill:#EFB320;}
	.st162{fill:#F0B626;}
	.st163{fill:#F1BB2A;}
	.st164{fill:#F2B01E;}
	.st165{fill:#F0C122;}
	.st166{fill:#F2AF1E;}
	.st167{fill:#F0A820;}
	.st168{fill:#F0B221;}
	.st169{fill:#F1CF24;}
	.st170{fill:#F0B422;}
	.st171{fill:#F0C121;}
	.st172{fill:#F1BA29;}
	.st173{fill:#F0A91F;}
	.st174{fill:#E39323;}
	.st175{fill:#EC9720;}
	.st176{fill:#E99121;}
	.st177{fill:#F8F8F8;}
	.st178{fill:#A0A4B0;}
	.st179{fill:#F4F3F3;}
	.st180{fill:#F5F5F5;}
	.st181{fill:#170404;}
	.st182{fill:#999DA8;}
	.st183{fill:#F3F3F2;}
	.st184{fill:#F5F4F5;}
	.st185{fill:#9DA2AD;}
	.st186{fill:#EBEBEB;}
	.st187{fill:#989CA7;}
	.st188{fill:#1E0A0B;}
	.st189{fill:#9A9EA9;}
	.st190{fill:#282A2C;}
	.st191{fill:#C9C8C8;}
	.st192{fill:#898D96;}
	.st193{fill:#A6878E;}
	.st194{fill:#D3D2D2;}
	.st195{fill:#858890;}
	.st196{fill:#292828;}
	.st197{fill:#2B1214;}
	.st198{fill:#D5D4D4;}
	.st199{fill:#303134;}
	.st200{fill:#B3B2B3;}
	.st201{fill:#7A7D81;}
	.st202{fill:#6D6A6A;}
	.st203{fill:#A6A4A4;}
	.st204{fill:#212123;}
	.st205{fill:#323235;}
	.st206{fill:#484747;}
	.st207{fill:#800404;}
	.st208{fill:#73757B;}
	.st209{fill:#4C4D51;}
	.st210{fill:#393B3D;}
	.st211{fill:#5F6066;}
	.st212{fill:#A7A6A6;}
	.st213{fill:#303133;}
	.st214{fill:#7B7C80;}
	.st215{fill:#333436;}
	.st216{fill:#8A8D92;}
	.st217{fill:#F5F4F4;}
	.st218{fill:#999EA9;}
	.st219{fill:#180808;}
	.st220{fill:#3D0505;}
	.st221{fill:#EAEAEA;}
	.st222{fill:#A45A5E;}
	.st223{fill:#3A3B3F;}
	.st224{fill:#20090A;}
	.st225{fill:#B9B7B7;}
	.st226{fill:#262729;}
	.st227{fill:#BCBABA;}
	.st228{fill:#ADACAC;}
	.st229{fill:#808088;}
	.st230{fill:#0C0A0B;}
	.st231{fill:#5F090A;}
	.st232{fill:#F1BF2E;}
	.st233{fill:#F2C532;}
	.st234{fill:#090809;}
	.st235{fill:#4F090A;}
	.st236{fill:#1C1010;}
	.st237{fill:#A1919B;}
	.st238{fill:#433436;}
	.st239{fill:#A53A3C;}
	.st240{fill:#790404;}
	.st241{fill:#81848C;}
	.st242{fill:#8F484D;}
	.st243{fill:#DC2E31;}
	.st244{fill:#A0666D;}
	.st245{fill:#CE3D40;}
	.st246{fill:#EFEDED;}
	.st247{fill:#E12527;}
	.st248{fill:#B1979E;}
	.st249{fill:#DD2628;}
	.st250{fill:#C63E41;}
	.st251{fill:#A11115;}
	.st252{fill:#8B3315;}
	.st253{fill:#473ADB;}
	.st254{fill:url(#SVGID_00000096022987965867005900000015993642448126787242_);}
	.st255{fill:#251E73;}
	.st256{fill:#D41D6A;}
	.st257{fill:url(#SVGID_00000087404349454005775770000008550391191854360724_);}
	.st258{fill:#741039;}
	.st259{fill:#FF5B25;}
	.st260{fill:url(#SVGID_00000070827580188680747660000018246942395833391504_);}
	.st261{fill:url(#SVGID_00000103243933510504753330000016861934057668750235_);fill-opacity:0.3;}
	.st262{fill:#24110B;}
	.st263{fill-rule:evenodd;clip-rule:evenodd;fill:#FFC480;}
	.st264{fill-rule:evenodd;clip-rule:evenodd;fill:url(#SVGID_00000064340555691651293890000004870884910876334474_);}
	.st265{fill:#EFE073;}
	.st266{fill:url(#SVGID_00000144297560352408696720000014148964222783971766_);}
	.st267{fill:url(#SVGID_00000153673489578104436230000018010805562145252787_);}
	.st268{fill:#E60810;}
	.st269{clip-path:url(#SVGID_00000141428659200316306300000010458330264255909052_);fill:#F9F9F9;}
	.st270{clip-path:url(#SVGID_00000141428659200316306300000010458330264255909052_);}
	.st271{clip-path:url(#SVGID_00000105403640261183991650000017904545233894703777_);}
	.st272{clip-path:url(#SVGID_00000046301964351184936490000004058915364003718031_);}
	.st273{opacity:0.25;}
	.st274{fill:url(#SVGID_00000030484206711252492770000006321909007594495630_);}
	.st275{fill:url(#SVGID_00000014625680471660488290000014228200043313730698_);}
	.st276{fill:url(#SVGID_00000132768970625425166580000003560079649961843358_);}
	.st277{fill:url(#SVGID_00000062178083748071066650000005892675058236506042_);}
	.st278{fill:url(#SVGID_00000064326430734107502700000017303775152497530801_);}
	.st279{fill:url(#SVGID_00000078021581284739832450000010003951786704819079_);}
	.st280{fill:url(#SVGID_00000058553970756132436540000014006855492507468223_);}
	.st281{fill:url(#SVGID_00000143617195044401307610000015661711976779023783_);}
	.st282{fill:url(#SVGID_00000098194407509237003020000008072179538116620940_);}
	.st283{fill:url(#SVGID_00000132766298499823927380000000148830224692568230_);}
	.st284{fill:url(#SVGID_00000017504876795409095020000006008712799522973360_);}
	.st285{fill:url(#SVGID_00000111890636074377825800000003010950442407956616_);}
	.st286{clip-path:url(#SVGID_00000058567966915709760540000007244103138705451699_);}
	.st287{fill:#283137;}
	.st288{fill:#607D87;}
	.st289{fill:#DD3A36;}
	.st290{fill:#556E78;}
	.st291{fill:#0E161A;}
	.st292{fill:#F5F7F7;}
	.st293{fill-rule:evenodd;clip-rule:evenodd;fill:url(#SVGID_00000005246737455190026840000016023732739503959186_);}
	.st294{fill:#C3C3C3;}
	.st295{fill:url(#SVGID_00000044876707216990657370000014260210576268769710_);}
	.st296{fill:url(#SVGID_00000013898809871426483930000002568242748365445038_);}
	.st297{fill:url(#SVGID_00000163779330939528012290000005791142364462595999_);}
	.st298{fill-rule:evenodd;clip-rule:evenodd;fill:#F1F0F1;}
	.st299{fill:#E3E2E3;}
	.st300{fill:url(#SVGID_00000046302632148654796380000017186570826979369656_);}
	.st301{fill:url(#SVGID_00000132062589792809789240000001646193242515645092_);}
	.st302{fill:url(#SVGID_00000129173634685215503750000010114939737591302834_);}
	.st303{fill:url(#SVGID_00000022556238898765069750000013537605780229263549_);}
	.st304{fill:url(#SVGID_00000156561841825487347590000014744296684010590646_);}
	.st305{fill:url(#SVGID_00000181052263356450849380000010509993226402872713_);}
	.st306{fill:url(#SVGID_00000072245975589185318360000009383131219876679598_);}
	.st307{fill:#F1F0F1;}
	.st308{stroke:#000000;stroke-width:1.2242;stroke-miterlimit:10;}
	.st309{fill:#E11075;stroke:#000000;stroke-width:1.2242;stroke-miterlimit:10;}
	
		.st310{clip-path:url(#SVGID_00000021816467296615470790000014196316234575003800_);fill:#E11075;stroke:#000000;stroke-width:1.2242;stroke-miterlimit:10;}
	.st311{clip-path:url(#SVGID_00000048497351870417840970000011498777386032095878_);fill:#FFFFFF;}
	.st312{fill:url(#SVGID_00000040556669591276911340000000995535152467020464_);}
	.st313{fill-rule:evenodd;clip-rule:evenodd;fill:url(#SVGID_00000036245836254177600060000003808987478551722929_);}
	.st314{fill-rule:evenodd;clip-rule:evenodd;fill:url(#SVGID_00000065783441401988464310000012273243918347486123_);}
	.st315{fill-rule:evenodd;clip-rule:evenodd;fill:url(#SVGID_00000062157717141420756760000005071965156859753399_);}
	.st316{fill:url(#SVGID_00000148642402081805854220000006970026663836258466_);}
	.st317{clip-path:url(#SVGID_00000180355522614108137870000004251848083501772175_);fill:#FFFFFF;}
	.st318{fill:url(#SVGID_00000153694979246126843670000015135304984357501589_);}
	.st319{fill:none;stroke:#FFFFFF;stroke-width:0.497;stroke-miterlimit:10;}
	.st320{fill:none;stroke:#FFFFFF;stroke-width:0.1746;stroke-miterlimit:10;}
	.st321{opacity:0.4;fill:none;stroke:#FFFFFF;stroke-width:0.0617;enable-background:new    ;}
	.st322{opacity:0;}
	.st323{clip-path:url(#SVGID_00000129183392022933762060000015738889216104488351_);fill:#FFFFFF;}
	.st324{fill:url(#SVGID_00000142159979882184390180000009861877071741396108_);}
	.st325{fill:#F95757;}
	.st326{clip-path:url(#SVGID_00000021822824623902397970000017610677945592970408_);fill:#FFFFFF;}
	.st327{fill-rule:evenodd;clip-rule:evenodd;fill:#D63252;}
	.st328{clip-path:url(#SVGID_00000108302019005021262970000003222446736596001197_);fill:#02E139;}
	.st329{clip-path:url(#SVGID_00000108302019005021262970000003222446736596001197_);}
	.st330{clip-path:url(#SVGID_00000129898939024122722310000005339137161491628725_);fill:#FF4D00;}
	.st331{clip-path:url(#SVGID_00000129898939024122722310000005339137161491628725_);}
	.st332{clip-path:url(#SVGID_00000178903033175637258910000006479817973131959718_);fill:#FF433E;}
	.st333{clip-path:url(#SVGID_00000178903033175637258910000006479817973131959718_);}
	.st334{clip-path:url(#SVGID_00000098188187727019691760000009882645432123700122_);}
	.st335{fill:#FF5500;}
	.st336{clip-path:url(#SVGID_00000170990617470866494500000010039125998222621321_);}
	
		.st337{clip-path:url(#SVGID_00000170990617470866494500000010039125998222621321_);fill:#FFFFFF;filter:url(#Adobe_OpacityMaskFilter);}
	
		.st338{clip-path:url(#SVGID_00000170990617470866494500000010039125998222621321_);mask:url(#mask0_2_26_00000012448397747548172950000012112826593663890354_);}
	.st339{fill:url(#SVGID_00000173141214490940543950000014992846799362313877_);}
	.st340{clip-path:url(#SVGID_00000178186778403957515170000017275956568692348593_);}
	.st341{clip-path:url(#SVGID_00000117644664927170287500000000813506785221160594_);}
	.st342{fill:#3CCC64;}
	.st343{fill:#191919;}
	.st344{clip-path:url(#SVGID_00000091699855254813478880000011602087752069875895_);}
	.st345{fill:url(#SVGID_00000180327714737190820240000009267521731471048598_);}
	.st346{fill:url(#SVGID_00000083077893244070363400000010027036404523805826_);}
	.st347{clip-path:url(#SVGID_00000063593063175669646210000017932082873308266915_);}
	.st348{fill-rule:evenodd;clip-rule:evenodd;fill:#06FB98;}
	.st349{clip-path:url(#SVGID_00000176003579642524904790000012526518284859479957_);fill:#24201F;}
	.st350{clip-path:url(#SVGID_00000176003579642524904790000012526518284859479957_);}
	.st351{fill:#F1E1D4;}
	.st352{clip-path:url(#SVGID_00000084524036093531959150000011028202316836853650_);}
	.st353{fill:#7B2BF8;}
	.st354{fill:#FDFDFE;}
	.st355{clip-path:url(#SVGID_00000080922239828281183710000017215296732771052463_);fill:#13131F;}
	.st356{clip-path:url(#SVGID_00000080922239828281183710000017215296732771052463_);}
	.st357{fill:url(#SVGID_00000063620366682224803300000014579137685839480501_);}
	.st358{fill:url(#SVGID_00000047053383322619679220000010458820144674823348_);}
	.st359{fill:url(#SVGID_00000049223362329823915090000014291555244327294594_);}
</style>
<g>
	<circle class="st0" cx="25" cy="25" r="18.6"/>
</g>
<g>
	<defs>
		<path id="SVGID_00000049216730309314658860000002060103908743321728_" d="M35.61,14.39c-2.83-2.84-6.6-4.4-10.61-4.4
			c-8.27,0-15,6.74-15,15.01s6.73,15.01,15,15.01c4.01,0,7.77-1.56,10.61-4.4C38.44,32.78,40,29.01,40,25S38.44,17.22,35.61,14.39z"
			/>
	</defs>
	<clipPath id="SVGID_00000098218475978258419330000003988678859135693995_">
		<use xlink:href="#SVGID_00000049216730309314658860000002060103908743321728_"  style="overflow:visible;"/>
	</clipPath>
	
		<rect x="5" y="5.51" style="clip-path:url(#SVGID_00000098218475978258419330000003988678859135693995_);fill:#24201F;" width="40" height="40"/>
	<g style="clip-path:url(#SVGID_00000098218475978258419330000003988678859135693995_);">
		<defs>
			<rect id="SVGID_00000178889292490930688310000000989402458842744253_" x="8.82" y="7.55" width="32.35" height="32.35"/>
		</defs>
		<clipPath id="SVGID_00000135658732252778613020000003260187864758114460_">
			<use xlink:href="#SVGID_00000178889292490930688310000000989402458842744253_"  style="overflow:visible;"/>
		</clipPath>
	</g>
	<g style="clip-path:url(#SVGID_00000098218475978258419330000003988678859135693995_);">
		<path class="st351" d="M14.51,27.85c-0.52-0.52-0.88-1.13-1.06-1.81c-0.17-0.69-0.17-1.38,0-2.07c0.18-0.69,0.53-1.3,1.05-1.82
			c0.53-0.53,1.14-0.88,1.83-1.05c0.69-0.17,1.38-0.17,2.07,0c0.69,0.17,1.3,0.52,1.82,1.05l1.3,1.29l1.92-1.92l-1.3-1.29
			c-0.52-0.52-0.88-1.13-1.06-1.81c-0.17-0.69-0.18-1.38-0.01-2.06c0.17-0.69,0.53-1.3,1.06-1.82c0.52-0.52,1.13-0.87,1.82-1.05
			c0.69-0.17,1.38-0.17,2.07,0.01c0.69,0.17,1.3,0.52,1.82,1.05c0.52,0.52,0.87,1.13,1.05,1.82c0.18,0.68,0.18,1.37,0.01,2.06
			c-0.17,0.69-0.52,1.3-1.04,1.82l-1.29,1.29l1.92,1.91l1.29-1.29c0.52-0.52,1.13-0.87,1.82-1.05c0.69-0.17,1.38-0.17,2.07,0.01
			c0.69,0.17,1.3,0.53,1.83,1.05c0.52,0.52,0.87,1.13,1.05,1.82c0.18,0.68,0.18,1.37,0,2.05c-0.17,0.69-0.52,1.29-1.05,1.82
			c-0.53,0.53-1.14,0.88-1.83,1.05c-0.69,0.17-1.38,0.17-2.07-0.01c-0.68-0.17-1.29-0.52-1.81-1.05l-1.29-1.29l-1.92,1.92l1.29,1.29
			c0.52,0.52,0.87,1.13,1.04,1.81c0.17,0.69,0.17,1.38,0,2.07c-0.17,0.69-0.53,1.3-1.06,1.82c-0.52,0.52-1.13,0.87-1.82,1.05
			c-0.69,0.17-1.38,0.17-2.07,0c-0.68-0.17-1.29-0.52-1.81-1.05c-0.53-0.53-0.88-1.13-1.06-1.82c-0.17-0.69-0.17-1.38,0-2.07
			c0.18-0.69,0.53-1.29,1.06-1.81l1.3-1.3l-1.92-1.91l-1.3,1.3c-0.52,0.52-1.13,0.87-1.83,1.04c-0.69,0.17-1.38,0.17-2.07,0
			C15.64,28.72,15.03,28.37,14.51,27.85z M16.07,26.29c0.24,0.24,0.51,0.39,0.82,0.47c0.32,0.08,0.63,0.09,0.94,0.01
			c0.31-0.08,0.59-0.24,0.82-0.47l1.3-1.3l-1.3-1.29c-0.24-0.24-0.51-0.39-0.83-0.47c-0.31-0.08-0.62-0.08-0.94,0
			c-0.31,0.08-0.59,0.24-0.83,0.48c-0.24,0.24-0.4,0.51-0.48,0.82c-0.08,0.31-0.08,0.62,0,0.93C15.67,25.78,15.83,26.05,16.07,26.29
			z M23.71,18.67l1.3,1.29l1.29-1.29c0.24-0.24,0.4-0.51,0.47-0.82c0.08-0.31,0.08-0.62-0.01-0.94c-0.08-0.31-0.24-0.59-0.47-0.82
			c-0.24-0.24-0.51-0.39-0.82-0.47c-0.31-0.08-0.62-0.08-0.94,0c-0.31,0.07-0.58,0.23-0.82,0.47c-0.24,0.24-0.4,0.51-0.49,0.82
			c-0.08,0.31-0.08,0.62,0,0.93C23.31,18.16,23.47,18.43,23.71,18.67z M29.69,25l1.29,1.29c0.24,0.24,0.51,0.4,0.82,0.48
			c0.31,0.08,0.99,0.08,1.3-0.01c0.31-0.08,0.59-0.24,0.83-0.48c0.24-0.24,0.4-0.51,0.47-0.82c0.08-0.31,0.09-0.62,0.01-0.93
			s-0.24-0.59-0.47-0.82c-0.24-0.24-0.52-0.4-0.83-0.48s-0.99-0.08-1.3,0c-0.3,0.08-0.58,0.24-0.82,0.48L29.69,25z M23.71,33.91
			c0.24,0.24,0.51,0.39,0.82,0.47c0.31,0.08,0.62,0.08,0.93-0.01c0.31-0.08,0.59-0.24,0.82-0.47c0.24-0.24,0.4-0.52,0.48-0.83
			c0.08-0.31,0.09-0.62,0.01-0.93c-0.07-0.32-0.23-0.59-0.47-0.83l-1.29-1.29l-1.3,1.3c-0.24,0.24-0.4,0.51-0.48,0.82
			c-0.08,0.31-0.08,0.62,0,0.93C23.31,33.39,23.47,33.67,23.71,33.91z M23.09,25l1.92,1.91L26.93,25l-1.92-1.91L23.09,25z"/>
	</g>
</g>
</svg>
