<?xml version="1.0" encoding="UTF-8"?>
<svg id="Ebene_1" data-name="Ebene 1" xmlns="http://www.w3.org/2000/svg" xmlns:xlink="http://www.w3.org/1999/xlink" viewBox="0 0 50 50">
  <defs>
    <style>
      .cls-1 {
        fill: #fff;
      }

      .cls-2 {
        fill: #3ccd64;
      }

      .cls-3 {
        clip-path: url(#clippath);
      }

      .cls-4 {
        fill: #191919;
      }
    </style>
    <clipPath id="clippath">
      <path d="m35.61,14.39c-2.83-2.84-6.6-4.4-10.61-4.4-8.27,0-15,6.74-15,15.01s6.73,15.01,15,15.01c4.01,0,7.77-1.56,10.61-4.4,2.83-2.84,4.39-6.61,4.39-10.61,0-4.01-1.56-7.78-4.39-10.61Z"/>
    </clipPath>
  </defs>
  <g>
    <circle class="cls-1" cx="25" cy="25" r="18.6"/>
    <g>
      <path d="m35.61,14.39c-2.83-2.84-6.6-4.4-10.61-4.4-8.27,0-15,6.74-15,15.01s6.73,15.01,15,15.01c4.01,0,7.77-1.56,10.61-4.4,2.83-2.84,4.39-6.61,4.39-10.61,0-4.01-1.56-7.78-4.39-10.61Z"/>
      <g class="cls-3">
        <rect x="4.11" y="5.6" width="41.78" height="38.79"/>
      </g>
    </g>
  </g>
  <g>
    <path class="cls-2" d="m25,39.25c7.87,0,14.25-6.38,14.25-14.25s-6.38-14.25-14.25-14.25-14.25,6.38-14.25,14.25,6.38,14.25,14.25,14.25Z"/>
    <path class="cls-4" d="m38.19,25.15c0,6.4-4.45,11.74-10.39,13.04l-.09-.4c-.89.2-1.81.29-2.72.29-6.4,0-11.85-4.83-12.68-11.24-.07-.56-.11-1.13-.11-1.69h-.41c0-7.37,5.91-13.35,13.19-13.35v.41c7.05,0,12.79,5.8,12.79,12.94h.41Z"/>
    <path class="cls-2" d="m31.95,35.03l-.44-.67c4.93-3.42,6.32-10.26,3.12-15.43l.66-.44c3.43,5.54,1.94,12.88-3.35,16.54Z"/>
    <path class="cls-2" d="m14.89,31.86c-.91-1.4-1.54-2.99-1.83-4.65-.3-1.67-.26-3.38.1-5.03.37-1.65,1.06-3.21,2.02-4.57.97-1.36,2.2-2.5,3.61-3.35l.4.72c-3.42,2.05-5.54,5.87-5.54,9.97,0,2.3.66,4.54,1.9,6.44l-.66.46Z"/>
    <path class="cls-2" d="m20.24,34.68c-5.29-2.61-7.48-9.02-4.87-14.33.2-.4.42-.78.66-1.15l.69.45c-1.06,1.61-1.62,3.5-1.62,5.43,0,3.79,2.11,7.19,5.51,8.87l-.36.74Z"/>
    <path class="cls-2" d="m35.39,27.64l-.78-.21c.21-.82.32-1.66.32-2.5,0-5.43-4.37-9.84-9.74-9.84v-.82c5.83,0,10.56,4.77,10.56,10.66,0,.91-.12,1.83-.34,2.71h0Z"/>
    <path class="cls-1" d="m32.93,21.08c-1.93,2.98-3.66,2.08-5.71,1.67-2.06-.4-3.19,1.8-3.19,1.8,0,0,0,0,0-.01-.04.07-.08.15-.11.22-.07.13-.13.27-.18.4,0-.15.03-.3.07-.45.04-.15.09-.29.15-.43.07-.17.16-.34.27-.5.32-2.08-1.38-2.89-3.53-4.14-2.39-1.4-1.32-2.92-1.32-2.92,0,0-4.05,4.25-1.35,8.28,2.7,4.02,6.12,5.16,2.56,11.21,0,0,2.42,1.42,6.31.73-1.02-4.4-.76-6.05.85-7.55l-.18.06c-.06.02-.13.04-.19.06l-.1.03s-.06.01-.1.02c-.06.01-.13.02-.2.03-.07,0-.13,0-.2.01-.03,0-.07,0-.1,0-.03,0-.07,0-.1,0-.07,0-.13,0-.2-.02.06-.02.13-.04.19-.05.03,0,.06-.02.09-.02l.09-.03c.06-.02.12-.04.18-.05.06-.02.12-.04.18-.06.03-.01.06-.02.09-.03l.09-.03c.06-.02.12-.04.18-.07l.17-.07c.06-.02.11-.05.17-.08.23-.11.45-.22.68-.35l.16-.09c.76-.39,1.44-.83,2.06-1.39,3.82-3.45,2.21-6.18,2.21-6.18Z"/>
  </g>
</svg>