<?xml version="1.0" encoding="UTF-8"?>
<svg id="Ebene_1" data-name="Ebene 1" xmlns="http://www.w3.org/2000/svg" width="50" height="50" xmlns:xlink="http://www.w3.org/1999/xlink" viewBox="0 0 50 50">
  <defs>
    <style>
      .cls-1, .cls-2 {
        fill: #000;
      }

      .cls-1, .cls-3, .cls-4 {
        stroke-width: 0px;
      }

      .cls-5 {
        clip-path: url(#clippath);
      }

      .cls-3 {
        fill: #3ccd64;
      }

      .cls-4 {
        fill: #fff;
      }
    </style>
    <clipPath id="clippath">
      <path class="cls-1" d="M35.61,14.39c-2.83-2.84-6.6-4.4-10.61-4.4-8.27,0-15,6.74-15,15.01s6.73,15.01,15,15.01c4.01,0,7.77-1.56,10.61-4.4,2.83-2.84,4.39-6.61,4.39-10.61,0-4.01-1.56-7.78-4.39-10.61Z"/>
    </clipPath>
  </defs>
  <g>
    <circle class="cls-4" cx="25" cy="25" r="18.6"/>
    <g>
      <path class="cls-2" d="M35.61,14.39c-2.83-2.84-6.6-4.4-10.61-4.4-8.27,0-15,6.74-15,15.01s6.73,15.01,15,15.01c4.01,0,7.77-1.56,10.61-4.4,2.83-2.84,4.39-6.61,4.39-10.61,0-4.01-1.56-7.78-4.39-10.61Z"/>
      <g class="cls-5">
        <rect class="cls-1" x="4.11" y="5.6" width="41.78" height="38.79"/>
      </g>
    </g>
  </g>
  <g>
    <path class="cls-4" d="M36.7,19.2s-.28,1.13-2.2,1.13c-.65,0-.87.19-1.01.37-.11.13-.17.24-.33.27-.26-.05-.28-.32-.59-.49-.16-.09-.39-.15-.76-.15-1.93,0-2.32-1.13-2.32-1.13-.43,1.65.94,2.84,1.8,3.44.43.3.59.87.38,1.35-1,2.3-2.15,3.02-3.71,3.02-.28,0-.58-.02-.88-.06-.08-.01-.17-.02-.25-.03-.06,0-.11-.02-.17-.03-.06,0-.11-.02-.17-.03-.52-.09-1.07-.22-1.65-.36-.06-.01-.11-.03-.17-.04-.86-.2-1.78-.41-2.78-.57-.1-.02-.2-.03-.29-.04-.02,0-.05,0-.07,0-.05,0-.09-.01-.14-.02-.02,0-.05,0-.07,0-.05,0-.09-.01-.14-.02-.09,0-.18-.02-.27-.03-.4-.03-.77-.05-1.12-.05-.67,0-1.25.06-1.74.16-.05.01-.1.02-.15.03-.05.01-.1.02-.15.03-.07.02-.14.04-.21.05-.04.01-.09.03-.13.04-.04.01-.09.03-.13.04-.04.01-.08.03-.12.04-.02,0-.04.01-.06.02-.04.01-.08.03-.11.04-.02,0-.04.01-.05.02-.04.02-.07.03-.11.05-.02,0-.03.02-.05.02-.03.02-.07.03-.1.05-.27.13-.48.27-.65.39-.02.01-.04.03-.06.04-.03.02-.06.05-.09.07,0,0,0,0-.01.01,0,0,0,0,0,0,0,0,0,0,0,0,0,0,0,0-.01,0,0,0-.02.02-.03.03-.15.13-.25.25-.33.39-.12.21-.16.36-.16.36.48,1.09,1.16,2.1,2.03,2.97,0,0,.01,0,.02.01,0,0,0,0,0,0,0,0,0,.01.01.02,1.76,1.76,4.07,2.76,6.55,2.84.18.4.54.94,1.17.87,0,0,.4,1.11,1.48.86,0,0,.09,1.05,2.47,1.04,0,0-1.51-.8-1.52-2.18,0-.39-.07-.75-.21-1.07,1.4-.46,2.68-1.25,3.76-2.31.02-.02.03-.03.05-.05.62-.62,1.15-1.31,1.58-2.06.75-1.3,1.18-2.77,1.26-4.29,0-.02,0-.04,0-.06.02-.16.04-.31.05-.44.03-.33.22-.62.5-.81.99-.65,2.76-2.25,2.19-3.78h0Z"/>
    <path class="cls-3" d="M15.33,23.76c0-2.39.93-4.63,2.61-6.32.48-.48,1-.9,1.56-1.25,1.83-1.15,4.25.08,4.32,2.24,0,.04,0,.08,0,.13v6.73l.85.16v-6.89s0-.09,0-.13c.06-2.16,2.49-3.4,4.32-2.24.56.35,1.09.77,1.57,1.25.6.6,1.1,1.26,1.5,1.98.36.03.66.11.92.24.05.03.09.05.14.08-.48-1.05-1.15-2.02-1.99-2.86-.97-.97-2.12-1.72-3.36-2.2-.06-.02-.12-.05-.19-.07-.17-.06-.33-.12-.5-.17-.32-.1-.65-.18-.99-.24-.47-.09-.94-.14-1.42-.16-.14,0-.27,0-.41,0s-.28,0-.41,0c-.48.02-.95.07-1.41.16-.34.06-.67.14-.99.24-.17.05-.34.11-.51.17-.06.02-.13.05-.19.07-1.25.48-2.39,1.22-3.36,2.2-1.84,1.84-2.85,4.28-2.85,6.88,0,.94.13,1.85.39,2.73.08-.09.19-.21.33-.33.1-.09.21-.18.33-.26-.17-.69-.26-1.41-.26-2.14h0Z"/>
  </g>
</svg>