<svg id="ae902e22-2bde-49fd-92d5-e8debe858f96" data-name="Ebene 1" xmlns="http://www.w3.org/2000/svg" viewBox="0 0 50 50"><defs><style>.a226af20-13c8-4f6c-9a1a-4948b8bc9147{fill:#fff;}.be7b7bbe-5910-4890-b919-5f5bfab8a2b6{fill:#e90810;}</style></defs><circle class="a226af20-13c8-4f6c-9a1a-4948b8bc9147" cx="25" cy="25" r="18.6"/><path d="M35.607,14.385A15.021,15.021,0,1,0,40,25,14.893,14.893,0,0,0,35.607,14.385Z"/><path class="a226af20-13c8-4f6c-9a1a-4948b8bc9147" d="M32.122,24.449a5.164,5.164,0,0,1-.649,2.558,4.761,4.761,0,0,1-1.994,1.85,7.105,7.105,0,0,1-3.338.708H23.684v5.757H19.72V19.286h6.421a7.4,7.4,0,0,1,3.292.663,4.6,4.6,0,0,1,2.017,1.827A5.254,5.254,0,0,1,32.122,24.449Zm-6.282,2.01a2.389,2.389,0,0,0,1.692-.525,2.261,2.261,0,0,0,0-2.97,2.389,2.389,0,0,0-1.692-.525H23.684v4.02Z"/><path class="be7b7bbe-5910-4890-b919-5f5bfab8a2b6" d="M32.281,14.678H19.72v2.728H32.281Z"/></svg>