<svg id="f34ae1f4-47e3-4727-b78d-6e8877bfef21" data-name="Ebene 1" xmlns="http://www.w3.org/2000/svg" xmlns:xlink="http://www.w3.org/1999/xlink" viewBox="0 0 50 50"><defs><style>.b1e10f2b-09a2-4a8f-861d-aa6098c17275{fill:#fff;}.af9ecd0c-dd97-4296-9cf4-b494ddac531d{fill:#f2e373;}.bec03b15-c706-47c0-847a-bc71600f6ad7{fill:url(#bc0ef953-295f-4696-a756-3633b25ec43d);}.a41defe1-7590-479b-839a-9469e24ce445{fill:url(#a17427f8-0c3a-4537-9802-a7761f9934fb);}</style><linearGradient id="bc0ef953-295f-4696-a756-3633b25ec43d" x1="20.814" y1="21.117" x2="27.651" y2="39.901" gradientUnits="userSpaceOnUse"><stop offset="0.38" stop-color="#f5ca5c"/><stop offset="1" stop-color="#df3532"/></linearGradient><linearGradient id="a17427f8-0c3a-4537-9802-a7761f9934fb" x1="17.933" y1="13.536" x2="28.354" y2="31.585" gradientUnits="userSpaceOnUse"><stop offset="0" stop-color="#f5ca5c"/><stop offset="1" stop-color="#df3532"/></linearGradient></defs><circle class="b1e10f2b-09a2-4a8f-861d-aa6098c17275" cx="25" cy="25" r="18.6"/><circle class="af9ecd0c-dd97-4296-9cf4-b494ddac531d" cx="24.837" cy="25.851" r="14.084"/><path class="bec03b15-c706-47c0-847a-bc71600f6ad7" d="M10.794,24.764q-.041.539-.041,1.087A14.063,14.063,0,0,0,24.837,39.936a16.005,16.005,0,0,0,9.984-3.593,18.548,18.548,0,0,0,2.324-2.076s.123-.247-.322-.1a5.222,5.222,0,0,1-4.1.049A5.02,5.02,0,0,1,29.656,29.2a5.394,5.394,0,0,1,2.7-4.226A5.331,5.331,0,0,0,34.228,23.1s-5.338,2.5-7.167,2.5S10.794,24.764,10.794,24.764Z"/><path class="a41defe1-7590-479b-839a-9469e24ce445" d="M10.856,27.565c-.053-.563-.1-1.133-.1-1.714a13.953,13.953,0,0,1,8.7-13.017c2.262-.879,4.4-1.544,7.017-2.54s2.669-2.021,2.725-2.1.333-.13.389.186a3.562,3.562,0,0,1-.445,3.169c-.549.726-1.965,1.705-4.578,3.188-2.374,1.347-4.041,4.023-2.762,6.284a4.973,4.973,0,0,0,6.006,2.5c2.428-.76,3.188-1.779,6.172-1.909a8.35,8.35,0,0,1,6.432,2.855c.055.111-.019.2-.148.2s-5.9-1.224-8.62.7-3.243,2.8-4.059,4.152S25.764,33,23.113,34s-6.132,1.381-8.693-.13A8.373,8.373,0,0,1,10.856,27.565Z"/></svg>