<svg width="596" height="227" viewBox="0 0 596 227" fill="none" xmlns="http://www.w3.org/2000/svg">
<path d="M317.94 213.89L311.8 214.89H311.35C310.89 215 310.44 215 309.98 215.12L308.39 215.34C227.91 228.53 159.82 230.24 100.39 220.69C84.39 218.07 60.84 213.64 40.72 205C16.94 194.79 3.41001 180.92 0.570011 163.76C-6.58999 121.81 55.57 88.17 76.05 77.14C130.38 47.7 197.34 26.56 280.66 12.46C363.98 -1.64001 434.23 -3.79001 495.15 6.09999C534.94 12.57 588.59 25.42 595 63C601.41 100.58 555 130.41 519.52 149.62C466.52 178.27 401.76 199.07 321.39 213.16L319.8 213.39C319.35 213.51 318.89 213.51 318.44 213.62C318.17 213.89 318.05 213.89 317.94 213.89ZM311 211.61H311.22L317.48 210.48H317.59C318.04 210.36 318.5 210.36 318.95 210.25L320.55 210.02C400.46 196.02 464.91 175.35 517.65 146.82C598.14 103.28 593 73.5 591.43 63.73C584.84 24.17 516.87 13.14 494.59 9.61999C434 -0.16001 364.21 1.88999 281.23 16C198.25 30.11 131.75 51.11 77.64 80.32C-2.84 123.86 2.28001 153.64 3.87001 163.42C10.57 202.97 78.55 213.89 100.87 217.52C159.98 227.07 227.73 225.37 307.87 212.18L309.47 211.95C309.92 211.84 310.38 211.84 310.83 211.73L311 211.61Z" fill="black"/>
<path d="M312 197.86C310.41 198.09 308.7 198.43 306.89 198.65C303.47 199.22 299.61 199.79 295.4 200.47L294.95 200.59C293.13 200.81 291.2 201.16 289.15 201.38C287.33 201.61 285.4 201.95 283.36 202.18H283C279.94 202.63 276.64 202.97 273.34 203.43H272.89L268.68 203.88C267.54 204 266.29 204.11 265.16 204.34H265C239.2 207.18 214.64 208.89 192.14 209.23C151.22 209.79 118.36 206.04 94.72 198.09C72.07 190.47 57.63 178.88 52 163.64C51.0279 161.024 50.3047 158.322 49.84 155.57C47.84 143.64 50.75 131.82 58.59 120.57C69.51 104.89 90.19 89.88 120.09 76.13C148.09 63.13 183.52 51.46 225.35 41.23C251.83 34.75 273.09 30.89 283.44 29.23C293.79 27.57 315.49 24.12 342.32 21.39C371.87 18.39 415.07 15.7 453.37 19.46C486.22 22.64 510.78 30.03 526.24 41.51C537.04 49.58 543.63 59.58 545.56 71.51C546.034 74.3643 546.225 77.2583 546.13 80.15V80.15C545.67 96.4 536.01 111.97 517.48 126.41C497.77 141.71 468 156.14 429 169.1C407.4 176.26 383.64 182.74 358.29 188.54C357.433 188.783 356.561 188.974 355.68 189.11L346.93 191C344.65 191.45 342.49 191.91 340.33 192.36L338.17 192.82C336.92 193.04 335.79 193.27 334.54 193.5C333.29 193.73 331.92 194.07 330.54 194.3L328.38 194.75C324.17 195.55 320.31 196.23 316.9 196.91C315.33 197.29 313.62 197.63 312 197.86ZM272.67 200.13H273.24C276.42 199.79 279.6 199.34 282.67 198.88H283C284.94 198.65 286.87 198.31 288.8 198.09C290.73 197.87 292.8 197.52 294.6 197.29L295.05 197.18C299.26 196.49 303.05 195.93 306.42 195.47C310.06 194.9 312.9 194.47 316.54 193.77C319.95 193.2 323.81 192.4 328.02 191.61L330.18 191.15C331.43 190.92 332.79 190.7 334.04 190.36L337.57 189.67L339.73 189.22C341.89 188.77 344.05 188.31 346.32 187.86L355.07 185.92C355.98 185.7 356.78 185.58 357.69 185.35C383 179.67 406.6 173.08 428.09 166C466.74 153.16 496.18 138.95 515.5 123.83C533.23 110 542.44 95.33 542.9 80.1C542.992 77.4207 542.801 74.7392 542.33 72.1C540.51 61.1 534.33 51.75 524.25 44.25C509.25 33.25 485.38 25.95 453.1 22.88C415.02 19.24 372.05 21.88 342.72 24.81C315.9 27.43 294.41 30.81 284.07 32.54C273.73 34.27 252.47 38.22 226.21 44.59C185.21 54.59 148.91 66.53 121.52 79.26C92.19 92.83 72 107.38 61.39 122.61C54.11 133.07 51.39 144.09 53.2 155.12C53.628 157.678 54.2977 160.189 55.2 162.62C60.54 176.94 74.2 187.86 95.89 195.13C119.19 202.97 151.59 206.61 192.17 206.04C214.68 205.7 239.12 204.11 264.81 201.16H265.03C266.214 201.068 267.392 200.914 268.56 200.7L272.65 200.13H272.67Z" fill="black"/>
<path d="M179.14 164.55L178.8 164.44H178.48L178.8 167.62C179.8 167.51 180.73 167.51 181.8 167.4C184.461 167.192 187.133 167.149 189.8 167.27C186.195 166.581 182.635 165.672 179.14 164.55V164.55ZM210.69 173H211.29H210.69ZM216.29 170L216.67 169.92L216.29 170ZM217.55 169.81H217.45V170H217.68L217.55 169.81ZM545.39 71.69C543.46 59.75 536.87 49.75 526.07 41.69C510.61 30.21 486.07 22.82 453.2 19.63C414.9 15.88 371.7 18.63 342.2 21.57C315.37 24.29 293.77 27.57 283.32 29.41C272.87 31.25 251.67 35 225.18 41.45C183.35 51.68 147.88 63.39 119.92 76.35C90 90.1 69.34 105.1 58.42 120.79C50.58 132.04 47.63 143.87 49.67 155.79C50.0133 157.854 50.508 159.889 51.15 161.88C51.37 162.56 51.59 163.21 51.83 163.88C51.99 164.3 52.15 164.71 52.32 165.12C58.32 179.74 72.56 190.91 94.57 198.32C118.22 206.32 151.07 210.03 191.99 209.46H192.67L193.12 208.9C199.02 202.66 205.37 196.2 211.72 190.7C211.85 190.58 211.98 190.48 212.11 190.37L215.63 187.3H211C210.74 187.3 210.47 187.3 210.21 187.3C179.86 187.59 155.4 184.88 137.5 179.05H137.34L137.55 178.97C153.26 172.65 166.27 169.15 178.26 167.8H178.33C187.1 170.54 197.88 172.29 210.42 173.02C203.032 172.625 195.681 171.716 188.42 170.3C187.11 170.03 185.82 169.74 184.56 169.45L183 169C181.49 168.59 180 168.17 178.62 167.73L178.28 167.65H178.17C176.017 166.983 173.977 166.227 172.05 165.38C160.36 167.32 147.47 171.25 132.25 177.66L128.54 179.25L128.3 179.35L132.3 180.83C150.14 187.54 175.3 190.95 206.87 190.83C201.52 195.61 196.41 200.95 191.52 206.06C151.28 206.63 119.22 202.88 96.04 195.15C75.11 188.15 61.68 177.75 55.96 164.15C55.74 163.65 55.53 163.15 55.34 162.61C55.15 162.07 54.93 161.5 54.75 160.93C54.1261 159.028 53.6415 157.083 53.3 155.11C51.48 144.11 54.2 133.06 61.48 122.6C72 107.38 92.18 92.83 121.51 79.3C148.91 66.57 185.17 54.63 226.2 44.63C252.46 38.27 273.72 34.29 284.06 32.58C294.4 30.87 315.89 27.47 342.72 24.85C372.04 21.85 415.01 19.28 453.09 22.92C485.37 25.99 509.24 33.26 524.25 44.29C534.37 51.79 540.5 61.11 542.32 72.14C542.796 74.7785 542.987 77.4606 542.89 80.14C542.44 95.37 533.23 110.03 515.5 123.9C496.29 138.9 467.07 153.11 428.77 165.84C422.4 162.55 415.58 159.14 408.77 156.18C438.44 145.73 461.06 134.36 476.06 122.31L479.36 119.58H478.68L475.04 119.38C453.9 118.02 438.1 119.16 425.48 122.79L425.14 122.91L424.8 123.13C415.924 129.188 406.39 134.22 396.38 138.13L394.79 138.7C391.72 139.95 388.42 141.2 385.13 142.33L383.08 143.02L383.14 142.65C383.27 141.86 383.39 141.06 383.48 140.27C384.075 135.715 384.322 131.122 384.22 126.53C384.22 125.81 384.22 125.08 384.13 124.35C384.04 123.62 384.05 122.89 383.99 122.15C383.93 121.41 383.86 120.67 383.8 119.92C383.74 119.17 383.64 118.43 383.53 117.69C383.4 116.69 383.25 115.69 383.08 114.69C382.91 113.69 382.67 112.69 382.48 111.69C382.39 111.19 382.28 110.69 382.17 110.21C380.452 102.453 377.619 94.985 373.76 88.04C372.447 85.6695 371.015 83.3666 369.47 81.14C369 80.46 368.52 79.77 368.02 79.14C367.52 78.51 367.18 77.99 366.74 77.43C366.3 76.87 365.8 76.23 365.32 75.64C359.988 69.1177 353.712 63.4283 346.7 58.76C341.181 55.045 335.226 52.0223 328.97 49.76C315.989 45.0704 302.058 43.6251 288.39 45.55C287.046 45.6892 285.711 45.8995 284.39 46.18H284.04C270.495 48.884 257.815 54.8534 247.1 63.57C242.169 67.5033 237.736 72.0233 233.9 77.03L233.57 77.44C230.977 80.8021 228.638 84.3518 226.57 88.06C226.16 88.8 225.77 89.55 225.39 90.3C225.07 90.89 224.78 91.49 224.49 92.11C224.2 92.73 223.99 93.11 223.77 93.65C222.643 96.1383 221.642 98.6814 220.77 101.27V101.27C220.53 101.97 220.3 102.67 220.07 103.37C219.84 104.07 219.65 104.76 219.45 105.47C219.3 106 219.14 106.55 219 107.09C219 107.2 219 107.3 218.93 107.4C218.868 107.576 218.818 107.757 218.78 107.94C218.65 108.41 218.54 108.94 218.43 109.39C218.421 109.446 218.421 109.504 218.43 109.56V109.71C218.33 110.1 218.26 110.47 218.18 110.86C218.1 111.25 218.03 111.55 217.96 111.86C217.81 112.59 217.68 113.33 217.55 114.07C217.27 115.72 217.03 117.36 216.83 119.01C216.77 119.57 216.71 120.14 216.66 120.71C216.6 121.46 216.54 122.21 216.49 122.97C216.29 126.344 216.29 129.726 216.49 133.1C216.56 134.45 216.66 135.81 216.81 137.17C216.81 137.46 216.81 137.76 216.9 138.05C217.03 139.05 217.17 139.92 217.31 140.82C217.31 141.01 217.31 141.2 217.4 141.38C217.395 141.416 217.395 141.453 217.4 141.49C217.4 141.64 217.45 141.79 217.47 141.94C217.463 141.976 217.463 142.014 217.47 142.05C217.47 142.24 217.53 142.42 217.55 142.6C217.61 143 217.68 143.38 217.75 143.78C218.48 147.695 219.482 151.554 220.75 155.33C222.397 160.42 224.544 165.334 227.16 170H227.23C227.67 170.79 228.14 171.57 228.61 172.37L229.11 173.18H230.11C229.64 173.18 229.19 173.18 228.73 173.18H228.55L224.45 173.37H224.64C225.64 173.37 226.55 173.37 227.48 173.31C227.86 173.31 228.23 173.31 228.61 173.31H228.67H230.1L233.1 173.19L231.53 170.72C231.36 170.45 231.19 170.18 231.03 169.89C228.043 164.96 225.618 159.71 223.8 154.24C222.449 150.236 221.422 146.129 220.73 141.96C220.51 140.49 220.28 139.12 220.16 137.64C220.07 136.85 219.99 136.05 219.93 135.26C219.31 128.353 219.619 121.394 220.85 114.57C223.022 101.738 228.295 89.6308 236.21 79.3C237.31 77.9 238.46 76.53 239.64 75.2C242.552 71.8738 245.736 68.7965 249.16 66C259.461 57.6727 271.635 51.9787 284.63 49.41L284.96 49.35L286.68 49.06L288.68 48.72C301.819 46.8667 315.213 48.2747 327.68 52.82C333.648 54.9705 339.335 57.8311 344.62 61.34C361.896 72.7783 374.079 90.4544 378.62 110.67C378.84 112.04 379.18 113.4 379.41 114.88C380.061 118.638 380.442 122.438 380.55 126.25C380.671 132.205 380.151 138.156 379 144C379 144.25 378.91 144.49 378.86 144.74L378.3 147.69L381.14 146.78L382.31 146.38C383.58 145.95 384.8 145.51 386.02 145.08C389.43 143.94 392.62 142.69 395.8 141.44L397.39 140.87C407.54 136.861 417.22 131.754 426.26 125.64C437.63 122.46 451.95 121.32 470.14 122.12L470.01 122.22C454.77 133.66 432.31 144.43 403.3 154.28L398.87 155.76H398.92L403.19 157.45L403.55 157.59C411.819 160.941 419.895 164.75 427.74 169L428.42 169.34H428.88C467.88 156.34 497.65 141.94 517.32 126.6C535.84 112.16 545.51 96.6 545.96 80.33C546.055 77.4382 545.864 74.5442 545.39 71.69V71.69ZM217.55 169.81H217.45V170H217.68L217.55 169.81ZM216.68 170L216.28 170.07L216.68 170ZM216.53 173.38H216.71L218.66 173.44H220.19C218.86 173.44 217.53 173.36 216.29 173.3C215.95 173.3 215.62 173.3 215.29 173.3H214.92C214.864 173.291 214.806 173.291 214.75 173.3L216.53 173.38ZM178.47 164.54L178.79 167.72C179.79 167.61 180.72 167.61 181.79 167.5C184.451 167.292 187.123 167.249 189.79 167.37C186.195 166.679 182.645 165.771 179.16 164.65L178.82 164.54H178.47ZM179.13 164.65L178.79 164.54H178.47L178.79 167.72C179.79 167.61 180.72 167.61 181.79 167.5C184.451 167.292 187.123 167.249 189.79 167.37C186.186 166.647 182.629 165.706 179.14 164.55L179.13 164.65ZM216.29 170L216.67 169.92L216.29 170ZM217.55 169.81H217.45V170H217.68L217.55 169.81ZM217.55 169.84H217.45V170H217.68L217.55 169.84ZM216.29 170L216.67 169.92L216.29 170ZM179.14 164.55L178.8 164.44H178.48L178.8 167.62C179.8 167.51 180.73 167.51 181.8 167.4C184.461 167.192 187.133 167.149 189.8 167.27C186.195 166.581 182.635 165.672 179.14 164.55V164.55Z" fill="black"/>
<path d="M179.14 164.55L178.8 164.44H178.48L178.8 167.62C179.8 167.51 180.73 167.51 181.8 167.4C184.461 167.192 187.133 167.149 189.8 167.27C186.195 166.581 182.635 165.672 179.14 164.55V164.55ZM210.69 173H211.29H210.69ZM216.29 170L216.67 169.92L216.29 170ZM217.55 169.81H217.45V170H217.68L217.55 169.81ZM545.39 71.69C543.46 59.75 536.87 49.75 526.07 41.69C510.61 30.21 486.07 22.82 453.2 19.63C414.9 15.88 371.7 18.63 342.2 21.57C315.37 24.29 293.77 27.57 283.32 29.41C272.87 31.25 251.67 35 225.18 41.45C183.35 51.68 147.88 63.39 119.92 76.35C90 90.1 69.34 105.1 58.42 120.79C50.58 132.04 47.63 143.87 49.67 155.79C50.0133 157.854 50.508 159.889 51.15 161.88C51.37 162.56 51.59 163.21 51.83 163.88C51.99 164.3 52.15 164.71 52.32 165.12C58.32 179.74 72.56 190.91 94.57 198.32C118.22 206.32 151.07 210.03 191.99 209.46H192.67L193.12 208.9C199.02 202.66 205.37 196.2 211.72 190.7C211.85 190.58 211.98 190.48 212.11 190.37L215.63 187.3H211C210.74 187.3 210.47 187.3 210.21 187.3C179.86 187.59 155.4 184.88 137.5 179.05H137.34L137.55 178.97C153.26 172.65 166.27 169.15 178.26 167.8H178.33C187.1 170.54 197.88 172.29 210.42 173.02C203.032 172.625 195.681 171.716 188.42 170.3C187.11 170.03 185.82 169.74 184.56 169.45L183 169C181.49 168.59 180 168.17 178.62 167.73L178.28 167.65H178.17C176.017 166.983 173.977 166.227 172.05 165.38C160.36 167.32 147.47 171.25 132.25 177.66L128.54 179.25L128.3 179.35L132.3 180.83C150.14 187.54 175.3 190.95 206.87 190.83C201.52 195.61 196.41 200.95 191.52 206.06C151.28 206.63 119.22 202.88 96.04 195.15C75.11 188.15 61.68 177.75 55.96 164.15C55.74 163.65 55.53 163.15 55.34 162.61C55.15 162.07 54.93 161.5 54.75 160.93C54.1261 159.028 53.6415 157.083 53.3 155.11C51.48 144.11 54.2 133.06 61.48 122.6C72 107.38 92.18 92.83 121.51 79.3C148.91 66.57 185.17 54.63 226.2 44.63C252.46 38.27 273.72 34.29 284.06 32.58C294.4 30.87 315.89 27.47 342.72 24.85C372.04 21.85 415.01 19.28 453.09 22.92C485.37 25.99 509.24 33.26 524.25 44.29C534.37 51.79 540.5 61.11 542.32 72.14C542.796 74.7785 542.987 77.4606 542.89 80.14C542.44 95.37 533.23 110.03 515.5 123.9C496.29 138.9 467.07 153.11 428.77 165.84C422.4 162.55 415.58 159.14 408.77 156.18C438.44 145.73 461.06 134.36 476.06 122.31L479.36 119.58H478.68L475.04 119.38C453.9 118.02 438.1 119.16 425.48 122.79L425.14 122.91L424.8 123.13C415.924 129.188 406.39 134.22 396.38 138.13L394.79 138.7C391.72 139.95 388.42 141.2 385.13 142.33L383.08 143.02L383.14 142.65C383.27 141.86 383.39 141.06 383.48 140.27C384.075 135.715 384.322 131.122 384.22 126.53C384.22 125.81 384.22 125.08 384.13 124.35C384.04 123.62 384.05 122.89 383.99 122.15C383.93 121.41 383.86 120.67 383.8 119.92C383.74 119.17 383.64 118.43 383.53 117.69C383.4 116.69 383.25 115.69 383.08 114.69C382.91 113.69 382.67 112.69 382.48 111.69C382.39 111.19 382.28 110.69 382.17 110.21C380.452 102.453 377.619 94.985 373.76 88.04C372.447 85.6695 371.015 83.3666 369.47 81.14C369 80.46 368.52 79.77 368.02 79.14C367.52 78.51 367.18 77.99 366.74 77.43C366.3 76.87 365.8 76.23 365.32 75.64C359.988 69.1177 353.712 63.4283 346.7 58.76C341.181 55.045 335.226 52.0223 328.97 49.76C315.989 45.0704 302.058 43.6251 288.39 45.55C287.046 45.6892 285.711 45.8995 284.39 46.18H284.04C270.495 48.884 257.815 54.8534 247.1 63.57C242.169 67.5033 237.736 72.0233 233.9 77.03L233.57 77.44C230.977 80.8021 228.638 84.3518 226.57 88.06C226.16 88.8 225.77 89.55 225.39 90.3C225.07 90.89 224.78 91.49 224.49 92.11C224.2 92.73 223.99 93.11 223.77 93.65C222.643 96.1383 221.642 98.6814 220.77 101.27V101.27C220.53 101.97 220.3 102.67 220.07 103.37C219.84 104.07 219.65 104.76 219.45 105.47C219.3 106 219.14 106.55 219 107.09C219 107.2 219 107.3 218.93 107.4C218.868 107.576 218.818 107.757 218.78 107.94C218.65 108.41 218.54 108.94 218.43 109.39C218.421 109.446 218.421 109.504 218.43 109.56V109.71C218.33 110.1 218.26 110.47 218.18 110.86C218.1 111.25 218.03 111.55 217.96 111.86C217.81 112.59 217.68 113.33 217.55 114.07C217.27 115.72 217.03 117.36 216.83 119.01C216.77 119.57 216.71 120.14 216.66 120.71C216.6 121.46 216.54 122.21 216.49 122.97C216.29 126.344 216.29 129.726 216.49 133.1C216.56 134.45 216.66 135.81 216.81 137.17C216.81 137.46 216.81 137.76 216.9 138.05C217.03 139.05 217.17 139.92 217.31 140.82C217.31 141.01 217.31 141.2 217.4 141.38C217.395 141.416 217.395 141.453 217.4 141.49C217.4 141.64 217.45 141.79 217.47 141.94C217.463 141.976 217.463 142.014 217.47 142.05C217.47 142.24 217.53 142.42 217.55 142.6C217.61 143 217.68 143.38 217.75 143.78C218.48 147.695 219.482 151.554 220.75 155.33C222.397 160.42 224.544 165.334 227.16 170H227.23C227.67 170.79 228.14 171.57 228.61 172.37L229.11 173.18H230.11C229.64 173.18 229.19 173.18 228.73 173.18H228.55L224.45 173.37H224.64C225.64 173.37 226.55 173.37 227.48 173.31C227.86 173.31 228.23 173.31 228.61 173.31H228.67H230.1L233.1 173.19L231.53 170.72C231.36 170.45 231.19 170.18 231.03 169.89C228.043 164.96 225.618 159.71 223.8 154.24C222.449 150.236 221.422 146.129 220.73 141.96C220.51 140.49 220.28 139.12 220.16 137.64C220.07 136.85 219.99 136.05 219.93 135.26C219.31 128.353 219.619 121.394 220.85 114.57C223.022 101.738 228.295 89.6308 236.21 79.3C237.31 77.9 238.46 76.53 239.64 75.2C242.552 71.8738 245.736 68.7965 249.16 66C259.461 57.6727 271.635 51.9787 284.63 49.41L284.96 49.35L286.68 49.06L288.68 48.72C301.819 46.8667 315.213 48.2747 327.68 52.82C333.648 54.9705 339.335 57.8311 344.62 61.34C361.896 72.7783 374.079 90.4544 378.62 110.67C378.84 112.04 379.18 113.4 379.41 114.88C380.061 118.638 380.442 122.438 380.55 126.25C380.671 132.205 380.151 138.156 379 144C379 144.25 378.91 144.49 378.86 144.74L378.3 147.69L381.14 146.78L382.31 146.38C383.58 145.95 384.8 145.51 386.02 145.08C389.43 143.94 392.62 142.69 395.8 141.44L397.39 140.87C407.54 136.861 417.22 131.754 426.26 125.64C437.63 122.46 451.95 121.32 470.14 122.12L470.01 122.22C454.77 133.66 432.31 144.43 403.3 154.28L398.87 155.76H398.92L403.19 157.45L403.55 157.59C411.819 160.941 419.895 164.75 427.74 169L428.42 169.34H428.88C467.88 156.34 497.65 141.94 517.32 126.6C535.84 112.16 545.51 96.6 545.96 80.33C546.055 77.4382 545.864 74.5442 545.39 71.69V71.69ZM217.55 169.81H217.45V170H217.68L217.55 169.81ZM216.68 170L216.28 170.07L216.68 170ZM216.53 173.38H216.71L218.66 173.44H220.19C218.86 173.44 217.53 173.36 216.29 173.3C215.95 173.3 215.62 173.3 215.29 173.3H214.92C214.864 173.291 214.806 173.291 214.75 173.3L216.53 173.38ZM178.47 164.54L178.79 167.72C179.79 167.61 180.72 167.61 181.79 167.5C184.451 167.292 187.123 167.249 189.79 167.37C186.195 166.679 182.645 165.771 179.16 164.65L178.82 164.54H178.47ZM179.13 164.65L178.79 164.54H178.47L178.79 167.72C179.79 167.61 180.72 167.61 181.79 167.5C184.451 167.292 187.123 167.249 189.79 167.37C186.186 166.647 182.629 165.706 179.14 164.55L179.13 164.65ZM216.29 170L216.67 169.92L216.29 170ZM216.29 170L216.67 169.92L216.29 170ZM179.14 164.55L178.8 164.44H178.48L178.8 167.62C179.8 167.51 180.73 167.51 181.8 167.4C184.461 167.192 187.133 167.149 189.8 167.27C186.195 166.581 182.635 165.672 179.14 164.55V164.55Z" fill="black"/>
<path d="M216.56 169.69L215.97 169.78H215.85C213.76 169.72 211.7 169.62 209.7 169.5C207.153 169.347 204.687 169.147 202.3 168.9C198.3 168.507 194.56 167.983 191.08 167.33C186.978 166.598 182.93 165.596 178.96 164.33L178.61 164.21H178.27C176.09 164.45 173.87 164.783 171.61 165.21C160.11 167.21 147.49 171.04 132.61 177.21C117.21 171.39 107.51 162.92 103.74 152.08C103.53 151.49 103.34 150.89 103.17 150.27C103 149.65 102.89 149.21 102.78 148.69C102.63 147.99 102.51 147.29 102.37 146.63C100.78 137.31 103.28 128.11 109.76 119.35L110.21 118.78C119 107.15 134.92 96 157.66 85.67C169.952 80.1661 182.545 75.3617 195.38 71.28C209.38 66.71 224.78 62.42 241.09 58.5C248.35 56.77 255 55.24 261 54C261.29 53.93 261.59 53.88 261.89 53.82C256.625 56.4898 251.669 59.7292 247.11 63.48C242.131 67.4605 237.661 72.0382 233.8 77.11L233.59 77.37C232.497 78.7767 231.463 80.22 230.49 81.7C226.393 87.7756 223.124 94.3704 220.77 101.31V101.31C220.53 102.01 220.3 102.71 220.07 103.41C219.84 104.11 219.65 104.8 219.45 105.51C219.36 105.82 219.28 106.13 219.2 106.45C219.12 106.77 219.07 106.91 219 107.13C218.93 107.35 219 107.34 218.93 107.44C218.868 107.616 218.818 107.797 218.78 107.98C218.65 108.45 218.54 108.98 218.43 109.43C218.421 109.486 218.421 109.544 218.43 109.6V109.75C218.33 110.14 218.26 110.51 218.18 110.9C218.1 111.29 218.03 111.59 217.96 111.9C217.96 112.02 217.9 112.13 217.88 112.26C217.75 112.84 217.65 113.41 217.55 113.99C217.25 115.67 217.02 117.36 216.83 119.05C216.77 119.61 216.71 120.18 216.66 120.75C216.6 121.5 216.54 122.25 216.49 123.01C216.29 126.384 216.29 129.766 216.49 133.14C216.57 134.49 216.67 135.84 216.82 137.19C216.82 137.46 216.82 137.72 216.9 137.98C217.03 138.98 217.18 139.91 217.32 140.84C217.334 140.944 217.354 141.048 217.38 141.15C217.44 141.62 217.51 142.07 217.58 142.53C217.74 143.53 217.92 144.53 218.14 145.53C218.14 145.63 218.14 145.72 218.19 145.83C218.32 146.38 218.44 146.94 218.57 147.48C219.08 149.66 219.65 151.7 220.26 153.66C220.42 154.19 220.59 154.66 220.76 155.24L221.42 157.11C221.65 157.74 221.88 158.36 222.13 158.99C222.62 160.23 223.13 161.47 223.67 162.69C223.91 163.22 224.14 163.69 224.39 164.25C224.64 164.81 224.88 165.25 225.14 165.77C225.82 167.17 226.56 168.55 227.34 169.89C227.78 170.68 228.25 171.46 228.72 172.26L229.22 173.07H230.22C229.75 173.07 229.3 173.07 228.84 173.07H228.66L224.56 173.26H224.75C225.75 173.26 226.66 173.26 227.59 173.2H228.71H228.78H230.21H230.44L233.39 173.08L231.93 170.61C231.76 170.34 231.59 170.07 231.42 169.78C228.376 164.882 225.887 159.66 224 154.21C222.673 150.204 221.669 146.097 221 141.93C220.78 140.46 220.55 139.09 220.44 137.61C220.33 136.75 220.24 135.89 220.17 135.02C219.601 128.179 219.938 121.293 221.17 114.54C223.353 101.717 228.632 89.6202 236.55 79.3C237.4 78.22 238.27 77.16 239.17 76.12C250.973 62.2736 267.135 52.8542 285 49.41V49.35L284.45 46.17V46.11C282.82 46.39 280.84 46.75 278.53 47.17C269.77 48.78 256.42 51.42 240.53 55.17C207.22 63.17 179.03 72.34 156.53 82.57C133.68 93.03 117.32 104.28 108.11 116.21L107.65 116.78C100.27 126.56 97.42 136.78 99.24 147.25C99.36 147.95 99.5 148.62 99.66 149.25C99.82 149.88 99.98 150.53 100.15 151.18C100.29 151.66 100.44 152.18 100.59 152.62C104.28 163.89 113.59 172.75 128.25 179.03C128.33 179.076 128.414 179.116 128.5 179.15C129.69 179.66 130.93 180.15 132.21 180.63L132.89 180.85L133.46 180.63C134.82 180.06 136.16 179.5 137.46 178.97L137.68 178.89C153.3 172.61 166.23 169.05 178.29 167.69H178.45C179.89 168.14 181.39 168.56 182.94 168.96C181.43 168.55 179.94 168.13 178.56 167.69L178.22 167.61H178.11C175.957 166.943 173.917 166.187 171.99 165.34C174.19 164.97 176.34 164.66 178.45 164.43L178.77 167.61C179.77 167.5 180.7 167.5 181.77 167.39C184.431 167.182 187.103 167.139 189.77 167.26C194.435 168.172 199.145 168.84 203.88 169.26C205.88 169.45 207.88 169.6 209.99 169.73C212.1 169.86 214.09 169.94 216.2 170.01H216.31L216.69 169.93L217.12 169.87L217.45 169.82V170H217.68H218.93C220.78 170 222.62 170.1 224.38 170.1H227.23C227.203 170.066 227.18 170.029 227.16 169.99H224.16C222.42 169.99 220.6 169.91 218.76 169.89H218L217.67 169.82H217.54H217.44L216.56 169.69ZM216.71 173.36H216.76L218.66 173.43H220.19C218.86 173.43 217.53 173.35 216.29 173.29C215.95 173.29 215.62 173.29 215.29 173.29H215L216.71 173.36ZM216.54 169.76L216.77 169.84L216.54 169.76ZM227.14 170.08H224.14C222.4 170.08 220.58 170 218.74 169.98H218L217.67 169.91H217.54H217.44V170H217.67H218.92C220.77 170 222.61 170.1 224.37 170.1H227.22C227.197 170.068 227.177 170.035 227.16 170L227.14 170.08Z" fill="black"/>
<path d="M378.53 147.84L379.1 144.84C380.354 138.746 380.924 132.531 380.8 126.31C380.699 122.517 380.318 118.737 379.66 115C379.44 113.52 379.1 112.16 378.87 110.8C374.333 90.5799 362.149 72.8992 344.87 61.46C339.586 57.9491 333.899 55.0885 327.93 52.94C315.463 48.3965 302.069 46.9918 288.93 48.85L288.36 45.55C296.09 44.3 312.23 41.8 332.69 39.87C355.76 37.59 389.64 35.55 420.1 38.27H420.33C445.79 40.55 465.12 45.89 477.96 54.19L478.53 54.53C488.65 61.24 494.67 69.76 496.38 80.11C496.633 81.6113 496.784 83.1282 496.83 84.65C497.28 97.72 490.24 110.46 475.83 122.28L475.26 122.73H474.58C454.35 121.48 438.58 122.5 426.27 126.03C417.228 132.14 407.548 137.246 397.4 141.26L395.81 141.83C392.62 143.08 389.44 144.33 386.03 145.47C384.44 146.03 382.85 146.6 381.14 147.17L378.53 147.84ZM312 45.31C317.795 46.1338 323.491 47.5444 329 49.52C335.256 51.7823 341.211 54.805 346.73 58.52C357.956 66.0008 367.23 76.057 373.78 87.85C377.637 94.7869 380.463 102.249 382.17 110C382.51 111.48 382.73 113 383.07 114.43C383.732 118.341 384.113 122.295 384.21 126.26C384.343 131.777 383.961 137.294 383.07 142.74L385.12 142.06C388.42 140.92 391.71 139.67 394.78 138.42L396.37 137.85C406.379 133.938 415.913 128.906 424.79 122.85L425.13 122.62L425.47 122.5C437.98 118.87 453.55 117.84 474.35 119.09C487.54 108.09 494.02 96.47 493.56 84.65C493.518 83.2405 493.368 81.8363 493.11 80.45C491.52 71.24 486.17 63.51 477.19 57.37L476.74 57.03C464.46 48.96 445.48 43.73 420.36 41.34H420.13C389.9 38.62 356.13 40.66 333.06 42.94C325.33 43.72 318.28 44.52 312 45.31Z" fill="black"/>
<path d="M217.68 169.9V170L218.01 169.93L217.68 169.9ZM227.16 170.01H224.16C222.42 170.01 220.6 169.93 218.76 169.91L218.93 170.02C220.78 170.02 222.62 170.12 224.38 170.12H227.23C227.203 170.083 227.179 170.042 227.16 170V170.01ZM216.79 169.77L216.06 169.89H216C213.91 169.82 211.88 169.73 209.89 169.6C207.6 169.48 205.39 169.31 203.23 169.09C198.885 168.702 194.563 168.095 190.28 167.27V167.27C186.461 166.563 182.69 165.614 178.99 164.43L178.64 164.32H178.54L178.3 164.24C166.45 160.3 158.4 154.3 154.35 146.34C153.97 145.59 153.61 144.81 153.3 144.01C153.14 143.61 152.98 143.2 152.83 142.78C152.334 141.367 151.956 139.915 151.7 138.44C150.7 132.98 152.5 127.44 157.05 121.73C160.967 117.04 165.541 112.941 170.63 109.56C177.427 104.918 184.572 100.806 192 97.26C204.417 91.3146 217.191 86.1479 230.25 81.79L230.5 81.7C229.1 83.78 227.8 85.9167 226.6 88.11C226.19 88.85 225.8 89.6 225.42 90.35C225.1 90.94 224.81 91.54 224.52 92.16C224.23 92.78 224.02 93.16 223.8 93.7C222.673 96.1883 221.672 98.7315 220.8 101.32V101.32C220.56 102.02 220.33 102.72 220.1 103.42C219.87 104.12 219.68 104.81 219.48 105.52C219.33 106.05 219.17 106.6 219.03 107.14C219.03 107.25 219.03 107.35 218.96 107.45C218.898 107.626 218.848 107.807 218.81 107.99C218.68 108.46 218.57 108.99 218.46 109.44C218.451 109.496 218.451 109.554 218.46 109.61V109.76C218.36 110.15 218.29 110.52 218.21 110.91C218.13 111.3 218 111.84 217.91 112.31C217.82 112.78 217.68 113.46 217.58 114.04C217.28 115.72 217.05 117.41 216.86 119.1C216.8 119.66 216.74 120.23 216.69 120.8C216.63 121.55 216.57 122.3 216.52 123.06C216.32 126.434 216.32 129.816 216.52 133.19C216.6 134.54 216.7 135.89 216.85 137.24C216.85 137.51 216.85 137.77 216.93 138.03C217.06 139.03 217.21 139.96 217.35 140.89C217.364 140.994 217.384 141.098 217.41 141.2C217.47 141.67 217.54 142.12 217.61 142.58C217.77 143.58 217.95 144.58 218.17 145.58C218.17 145.68 218.17 145.77 218.22 145.88C218.35 146.43 218.47 146.99 218.6 147.53C219.11 149.71 219.68 151.75 220.29 153.71C220.45 154.24 220.62 154.71 220.79 155.29L221.45 157.16C221.68 157.79 221.91 158.41 222.16 159.04C222.65 160.28 223.16 161.52 223.7 162.74C223.94 163.27 224.17 163.74 224.42 164.3C224.67 164.86 224.91 165.3 225.17 165.82C225.85 167.22 226.59 168.6 227.37 169.94C227.81 170.73 228.28 171.51 228.75 172.31L229.25 173.12H230.25C229.78 173.12 229.33 173.12 228.87 173.12H228.69L224.59 173.31H224.78C225.78 173.31 226.69 173.31 227.62 173.25H228.74H228.81H230.24H230.47L233.42 173.13L232.08 170.78C231.87 170.46 231.68 170.14 231.5 169.78C228.551 164.883 226.153 159.675 224.35 154.25C222.99 150.252 221.963 146.148 221.28 141.98C221.05 140.5 220.82 139.14 220.71 137.66C219.8 129.975 220.029 122.198 221.39 114.58C223.597 101.75 228.904 89.6523 236.85 79.34L239.36 76.05L240.15 75.05L239.83 75.15L234.92 76.75L234.11 77.02H233.99C233.9 77.02 233.8 77.02 233.71 77.11C225.71 79.7767 218.197 82.4866 211.17 85.24C203.837 88.1266 197.09 91.08 190.93 94.1C173.65 102.4 161.37 110.93 154.67 119.45C149.55 125.93 147.5 132.52 148.67 138.89C148.931 140.161 149.265 141.417 149.67 142.65C149.918 143.494 150.208 144.325 150.54 145.14C150.68 145.48 150.82 145.82 150.97 146.14C154.55 154.24 161.53 160.57 171.84 165.06L172 165.13L172.26 165.24C174.46 164.87 176.61 164.56 178.72 164.33L179.04 167.51C180.04 167.4 180.97 167.4 182.04 167.29C184.701 167.082 187.373 167.039 190.04 167.16C194.705 168.072 199.415 168.74 204.15 169.16C206.15 169.35 208.15 169.5 210.26 169.63C212.37 169.76 214.36 169.84 216.47 169.91H216.58L216.96 169.83L217.39 169.77L217.72 169.72L216.79 169.77ZM227.5 170.02C227.473 169.986 227.45 169.949 227.43 169.91H224.43C222.69 169.91 220.87 169.83 219.03 169.81L219.2 169.92C221.05 169.92 222.89 170.02 224.65 170.02H227.5ZM217.95 169.87L218.28 169.8H217.95V169.87ZM216.95 173.22H217L218.9 173.29H220.43C219.1 173.29 217.77 173.21 216.53 173.15C216.19 173.15 215.86 173.15 215.53 173.15H215L216.95 173.22ZM227.16 170H224.16C222.42 170 220.6 169.92 218.76 169.9H217.45V170H217.68H218.93C220.78 170 222.62 170.1 224.38 170.1H227.23C227.204 170.069 227.18 170.035 227.16 170V170Z" fill="black"/>
<path d="M378.53 147.84L379.1 144.84C380.354 138.746 380.924 132.531 380.8 126.31C380.699 122.517 380.318 118.737 379.66 115C379.44 113.52 379.1 112.16 378.87 110.8C374.333 90.58 362.149 72.8992 344.87 61.46L340.32 58.39L345.78 58.28C361.226 58.0173 376.674 58.6852 392.04 60.28C411.14 62.55 425.46 66.41 434.79 72.1C442.06 76.42 446.27 81.87 447.29 88.24C447.625 90.4196 447.739 92.6275 447.63 94.83C447.06 105.83 440.01 116.2 426.71 125.64L426.37 125.86C418.87 131.21 409.1 136.21 397.61 140.98L396.02 141.55C392.84 142.8 389.66 144.05 386.25 145.19C384.66 145.76 383.06 146.33 381.36 146.89L378.53 147.84ZM351 61.57C360.326 68.6415 368.069 77.5866 373.73 87.83C377.606 94.7704 380.449 102.239 382.17 110C382.51 111.48 382.73 113 383.07 114.43C383.732 118.341 384.113 122.295 384.21 126.26C384.343 131.777 383.961 137.294 383.07 142.74L385.12 142.06C388.42 140.92 391.71 139.67 394.78 138.42L396.37 137.85C406.379 133.938 415.913 128.906 424.79 122.85L425.13 122.62C437.3 113.87 443.78 104.43 444.23 94.62C444.342 92.68 444.227 90.7337 443.89 88.82C443 83.51 439.34 79 433 75.09C424.13 69.75 410.26 66 391.62 63.73C378.131 62.252 364.57 61.5309 351 61.57V61.57Z" fill="black"/>
<path d="M227.16 170H224.16C222.42 170 220.6 169.92 218.76 169.9L218.93 170.01C220.78 170.01 222.62 170.11 224.38 170.11H227.23C227.203 170.076 227.18 170.039 227.16 170V170ZM233.23 173.15L231.89 170.8C231.68 170.48 231.49 170.16 231.31 169.8C228.361 164.903 225.963 159.695 224.16 154.27C222.8 150.272 221.773 146.168 221.09 142C220.86 140.52 220.63 139.16 220.52 137.68L220.18 134.95L219.87 135.16L217.94 136.41L216.73 137.21H216.66C213.745 139.164 211.02 141.387 208.52 143.85C204.29 148.08 202.23 152.31 202.36 156.34C202.36 156.54 202.36 156.73 202.36 156.92C202.381 157.883 202.536 158.839 202.82 159.76C202.9 160.07 203 160.38 203.1 160.68C203.821 162.738 204.938 164.633 206.39 166.26C207.394 167.402 208.514 168.437 209.73 169.35C209.779 169.392 209.833 169.429 209.89 169.46C209.89 169.46 209.98 169.53 210.02 169.58C212.02 169.7 214.09 169.793 216.23 169.86H216.32L216.09 169.75L215.88 169.64L215.66 169.53L215.21 169.19H215.09C214.75 169.01 214.42 168.81 214.09 168.61C211.699 167.274 209.604 165.468 207.93 163.3C206.994 162.034 206.315 160.597 205.93 159.07C205.88 158.78 205.82 158.45 205.78 158.07C205.74 157.69 205.65 157.19 205.58 156.75C205.24 153.57 207.06 150.04 210.7 146.29C212.704 144.266 214.883 142.422 217.21 140.78V140.78C217.23 140.98 217.247 141.18 217.26 141.38C217.255 141.416 217.255 141.453 217.26 141.49C217.26 141.64 217.31 141.79 217.33 141.94C217.323 141.976 217.323 142.014 217.33 142.05C217.33 142.2 217.39 142.35 217.41 142.49C217.57 143.49 217.75 144.49 217.97 145.49C217.97 145.59 217.97 145.68 218.02 145.79C218.15 146.34 218.27 146.9 218.4 147.44C218.91 149.62 219.48 151.66 220.09 153.62C220.25 154.15 220.42 154.62 220.59 155.2L221.25 157.07C221.48 157.7 221.71 158.32 221.96 158.95C222.45 160.19 222.96 161.43 223.5 162.65C223.74 163.18 223.97 163.65 224.22 164.21C224.47 164.77 224.71 165.21 224.97 165.73C225.65 167.13 226.39 168.51 227.17 169.85C227.61 170.64 228.08 171.42 228.55 172.22L229.05 173.03H230.05C229.58 173.03 229.13 173.03 228.67 173.03H228.49L224.39 173.22H224.58C225.58 173.22 226.49 173.22 227.42 173.16H228.54H228.61H230.04H230.27L233.22 173.04L233.23 173.15ZM227.23 170.15C227.203 170.116 227.18 170.079 227.16 170.04H224.16C222.42 170.04 220.6 169.96 218.76 169.94L218.93 170.05C220.78 170.05 222.62 170.15 224.38 170.15H227.23ZM227.16 170.04H224.16C222.42 170.04 220.6 169.96 218.76 169.94H218L217.67 170.01H218.92C220.77 170.01 222.61 170.11 224.37 170.11H227.22C227.197 170.075 227.177 170.038 227.16 170V170.04Z" fill="black"/>
<path d="M378.53 147.84L379.1 144.84C380.354 138.746 380.924 132.531 380.8 126.31C380.699 122.517 380.318 118.737 379.66 115C379.44 113.52 379.1 112.16 378.87 110.8L378.3 108.07L381.03 108.75C384.701 109.611 388.278 110.83 391.71 112.39C397.85 115.23 401.49 118.87 402.51 123.07C402.63 123.64 402.74 124.21 402.85 124.89C403.65 130.46 401.6 135.89 396.6 141.15L396.37 141.37L396.03 141.49C392.85 142.74 389.67 143.99 386.26 145.13C384.67 145.69 383.07 146.26 381.37 146.83L378.53 147.84ZM382.73 112.72L383.07 114.42C383.732 118.331 384.113 122.285 384.21 126.25C384.343 131.767 383.961 137.284 383.07 142.73L385.12 142.05C388.3 140.91 391.37 139.77 394.44 138.52C398.44 134.09 400.13 129.66 399.56 125.34C399.44 124.88 399.44 124.43 399.33 123.86C398.53 120.68 395.47 117.86 390.33 115.45C387.872 114.344 385.331 113.431 382.73 112.72V112.72Z" fill="black"/>
<path d="M449.35 179.67C444.23 177.51 438.09 174.33 431.61 171.03L427.86 169.1L429.45 166.1L433.2 168.04C439.68 171.33 445.71 174.52 450.71 176.56L449.35 179.67Z" fill="black"/>
<path d="M398 140.68L395.84 138.07C404.241 131.211 413.887 126.039 424.25 122.84C424.589 122.741 424.923 122.624 425.25 122.49L426.04 125.79C425.82 125.9 425.47 125.9 425.25 126.02C415.317 129.128 406.068 134.104 398 140.68Z" fill="black"/>
<path d="M550.4 130.34C540.4 129.77 529.03 128.41 516.4 126.7L515.4 126.59C502.1 125 488.34 123.29 474.82 122.38L475 119C488.65 119.8 502.4 121.5 515.81 123.21L516.81 123.32C529.42 124.91 540.68 126.32 550.68 126.84L550.4 130.34Z" fill="black"/>
<path d="M386.94 144.66L384.21 142.66C390.01 135.16 395.01 129.25 399.78 124.02C414.33 108.22 428.66 98.45 444.91 93.22L445.25 93.1C459.12 88.67 475.38 85.26 494.93 82.87C511.41 80.87 528.23 79.58 544.37 78.44L546.08 78.33C562.56 77.14 578 76 592.8 74.07L593.25 77.48C578.36 79.41 562.79 80.55 546.31 81.69L544.6 81.8C528.46 82.94 511.75 84.19 495.27 86.23C475.94 88.62 459.8 91.92 446.16 96.35L445.82 96.46C430.25 101.46 416.38 111.01 402.17 126.36C397.62 131.36 392.74 137.27 386.94 144.66Z" fill="black"/>
<path d="M383.87 127.27L381 125.45C384.07 120.68 386.8 116.58 389.41 112.95C403.05 93.95 416.58 81.12 432.26 72.48L432.49 72.37C432.696 72.281 432.888 72.1631 433.06 72.02C445 65.43 459.43 59.63 476.94 54.02H477.05C491.94 49.36 506.83 45.61 524.68 41.18L525.68 40.95C540.35 37.32 554.21 33.95 567.4 29.95L568.4 33.13C555.22 37.13 541.24 40.63 526.57 44.27L525.57 44.5C507.77 49 492.88 52.7 478 57.36H477.89C460.61 62.82 446.4 68.61 434.58 75.09C434.35 75.21 434.24 75.32 434.12 75.32L433.9 75.43C418.78 83.85 405.48 96.35 392.18 114.99C389.67 118.52 386.94 122.61 383.87 127.27Z" fill="black"/>
<path d="M373.75 89.42L370.8 87.71C375.824 78.6609 381.888 70.2303 388.87 62.59C389.44 62.02 390.01 61.34 390.58 60.77C397.97 53.16 407.4 45.77 419.22 38.26L419.56 38.04C429.91 31.44 441.05 25.53 452.41 19.51L454.12 18.6C463.33 13.71 472.12 9.16 480.12 4.5L481.83 7.5C473.64 12.27 464.89 16.82 455.68 21.71L453.98 22.62C442.49 28.62 431.36 34.55 420.98 41.15L420.64 41.37C409.11 48.61 400 55.77 392.85 63.16L391.15 64.86C384.551 72.4504 378.723 80.6774 373.75 89.42V89.42Z" fill="black"/>
<path d="M330 51.79L326.82 50.54C328.07 47.47 329.55 44.4 331.36 40.54C334.43 34.29 337.84 28.03 341.03 22.24L342.16 20.3C345.01 15.08 348.07 9.73 350.69 4.5L353.75 6C351.13 11.23 348.06 16.69 345.22 21.92L344.09 23.85C340.9 29.65 337.49 35.78 334.42 42.04C332.6 45.77 331.13 48.84 330 51.79Z" fill="black"/>
<path d="M247 65.89C244.73 63.27 242.23 60.77 239.5 58.04C234.84 53.38 229.95 49.04 224.5 44.18L223 42.92C218.22 38.61 213.67 34.63 209.36 30.42L211.77 28C215.98 32.1 220.52 36.19 225.3 40.39L226.78 41.64C232.23 46.53 237.12 50.97 241.9 55.64C244.62 58.36 247.12 60.98 249.51 63.64L247 65.89Z" fill="black"/>
<path d="M426.26 125.68C417.22 131.794 407.54 136.901 397.39 140.91L395.8 141.48C392.62 142.73 389.43 143.98 386.02 145.12C384.8 145.55 383.58 145.99 382.31 146.42L381.14 146.82L378.3 147.73L378.86 144.78C378.91 144.53 378.97 144.29 379 144.04C375.5 145.2 371.7 146.36 367.61 147.62C360.34 149.78 352.49 151.82 343.85 153.87C335.21 155.92 326.23 157.87 316.91 159.55C312.71 160.35 308.96 161.017 305.66 161.55C302.48 162 298.61 162.69 294.29 163.37C284.52 164.96 275.76 166.21 267.47 167.12C258.6 168.12 250.19 168.94 242.23 169.39C238.6 169.6 234.88 169.71 231.31 169.8H230.93C231.09 170.09 231.26 170.36 231.43 170.63L233 173.1H233.23C235.35 173.04 237.46 172.95 239.54 172.85L242.7 172.68C250.7 172.22 259.18 171.43 268.03 170.41C276.33 169.5 285.08 168.25 294.97 166.65C296.8 166.42 298.55 166.15 300.21 165.88L303.08 165.4L304.08 165.22C304.86 165.1 305.61 164.96 306.31 164.84C309.61 164.27 313.47 163.59 317.68 162.79C327.11 161.08 336.21 159.15 344.85 157.11C348.7 156.21 352.38 155.29 355.92 154.34H356.11C360.54 153.17 364.75 151.97 368.83 150.78C373.26 149.53 377.36 148.17 381.22 146.92C381.56 146.8 381.9 146.69 382.22 146.56C383.55 146.12 384.83 145.67 386.1 145.21C389.51 144.07 392.69 142.82 395.87 141.57L397.47 141C409.06 136.23 418.72 131.12 426.34 125.77C437.65 122.6 451.89 121.46 469.97 122.24L470.1 122.14C452 121.36 437.63 122.5 426.26 125.68ZM216.79 169.77L216.06 169.89H216C213.91 169.82 211.88 169.73 209.89 169.6C207.6 169.48 205.39 169.31 203.23 169.09C198.885 168.702 194.563 168.095 190.28 167.27V167.27C186.46 166.563 182.69 165.614 178.99 164.43L178.64 164.32H178.3C176.18 164.56 174.02 164.85 171.81 165.23C160.13 167.18 147.26 171.09 132.05 177.5L128.32 179.09L128.07 179.21L128.33 179.31L132 180.7C150.76 187.7 177.35 191.15 211.11 190.7H211.75C221.57 190.57 232.16 190.13 243.06 189.34L244.99 189.23C245.67 189.12 246.47 189.12 247.26 189L248.17 188.89C252.72 188.55 257.17 188.21 261.47 187.75C264.09 187.53 266.59 187.19 268.97 186.96L273.86 186.39C276.02 186.16 278.18 185.82 280.23 185.59L280.8 185.48C287.62 184.68 294.21 183.77 300.57 182.75C303.98 182.3 306.83 181.84 309.21 181.39C311.59 180.94 314.56 180.48 317.4 179.8C324.1 178.55 330.7 177.18 337.29 175.7C339.56 175.25 341.84 174.79 344.22 174.23L348.88 173.09C351.04 172.52 353.2 172.09 355.48 171.5C359.57 170.59 363.78 169.45 368.09 168.32L370.71 167.63C371.71 167.41 372.64 167.07 373.66 166.84L374.01 166.72C384.3 163.81 394.27 160.79 403.58 157.66L404.01 157.52H404.13C436 146.71 460 134.77 475.6 122L478.67 119.47L478.89 119.27L474.57 119.05C453.43 117.68 437.63 118.82 425.01 122.46L424.67 122.57L424.33 122.8C415.454 128.858 405.92 133.89 395.91 137.8L394.32 138.37C391.25 139.62 387.96 140.87 384.66 142.01L383.13 142.55C383.13 142.55 383.13 142.55 383.08 142.55L379.89 143.68L379 144C375.5 145.16 371.7 146.32 367.61 147.58C360.34 149.74 352.49 151.78 343.85 153.83C335.21 155.88 326.23 157.83 316.91 159.51C312.71 160.31 308.96 160.977 305.66 161.51C302.48 161.96 298.61 162.65 294.29 163.33C284.52 164.92 275.76 166.17 267.47 167.08C258.6 168.08 250.19 168.9 242.23 169.35C238.6 169.56 234.88 169.67 231.31 169.76H230.93H229.93C229 169.76 228.1 169.84 227.19 169.86H224.14C222.4 169.86 220.58 169.78 218.74 169.76H217.43V170H217.66H218.91C220.76 170 222.6 170.1 224.36 170.1H227.21C227.183 170.066 227.16 170.029 227.14 169.99H227.21C227.65 170.78 228.12 171.56 228.59 172.36L229.09 173.17H230.09C231.09 173.17 232.03 173.17 233.01 173.17H233.24C235.36 173.11 237.47 173.02 239.55 172.92L242.71 172.75C250.71 172.29 259.19 171.5 268.04 170.48C276.34 169.57 285.09 168.32 294.98 166.72C296.81 166.49 298.56 166.22 300.22 165.95L303.09 165.47L304.09 165.29C304.87 165.17 305.62 165.03 306.32 164.91C309.62 164.34 313.48 163.66 317.69 162.86C327.12 161.15 336.22 159.22 344.86 157.18C348.71 156.28 352.39 155.36 355.93 154.41H356.12C360.55 153.24 364.76 152.04 368.84 150.85C373.27 149.6 377.37 148.24 381.23 146.99C381.57 146.87 381.91 146.76 382.23 146.63C383.56 146.19 384.84 145.74 386.11 145.28C389.52 144.14 392.7 142.89 395.88 141.64L397.48 141.07C409.07 136.3 418.73 131.19 426.35 125.84C437.66 122.67 451.9 121.53 469.98 122.31H470.23C454.99 133.79 432.6 144.47 403.5 154.36H403.39L398.89 155.86C390.79 158.51 382.3 161.06 373.49 163.46L373.15 163.57C372.15 163.8 371.22 164.14 370.15 164.37L366.97 165.16C362.88 166.3 358.79 167.32 354.92 168.23C352.65 168.8 350.49 169.23 348.33 169.82L343.67 170.96C341.28 171.41 339.01 171.96 336.74 172.44C330.14 173.8 323.55 175.17 316.96 176.44C313.77 177 310.96 177.44 308.43 177.91C305.9 178.38 303.2 178.82 299.91 179.28C293.65 180.19 286.91 181.21 280.24 182.01L279.67 182.12C277.67 182.46 275.47 182.69 273.31 182.92L268.42 183.48C266.03 183.82 263.53 184.05 261.03 184.28C256.71 184.62 252.28 185.08 247.84 185.42L247.05 185.53C246.25 185.64 245.57 185.64 244.78 185.76L242.84 185.87C232.98 186.58 223.46 187.01 214.47 187.18L211.01 187.24H210.22C179.93 187.53 155.51 184.83 137.62 179.02L137.45 178.97H137.36C153.05 172.65 165.94 169.12 178.16 167.75H178.05C175.897 167.083 173.857 166.327 171.93 165.48C174.13 165.11 176.28 164.8 178.39 164.57L178.71 167.75C179.71 167.64 180.64 167.64 181.71 167.53C184.371 167.322 187.043 167.279 189.71 167.4C194.375 168.312 199.085 168.98 203.82 169.4C205.82 169.59 207.82 169.74 209.93 169.87C212.04 170 214.03 170.08 216.14 170.15H216.25L216.63 170.07L217.06 170.01L217.39 169.96" fill="black"/>
<path d="M218.14 115.56C210.552 108.971 202.238 103.268 193.36 98.56L190.63 97.2C181.08 92.54 169.94 88.9 156.63 85.83C145.04 83.1 132.87 81.28 120.48 79.35L118.48 79.01C108.13 77.42 98.36 75.94 88.92 74.12L89.61 70.82C99.04 72.64 108.82 74.12 119.05 75.71L121.05 76.05C133.56 77.99 145.72 79.8 157.43 82.53C169.385 85.0833 181.015 88.9744 192.1 94.13L194.83 95.49C203.983 100.298 212.533 106.176 220.3 113L218.14 115.56Z" fill="black"/>
<path d="M221.32 156C216.77 152.47 212.57 149.29 208.48 146.45C189.95 133.45 173.48 125.76 156.53 122.35L155.39 122.12C142.39 119.62 127.31 118.71 109.01 119.4H108.9C92.42 119.96 75.25 121.67 60.13 123.15H59.79C44.11 124.74 29.33 126.22 15.58 126.78L15.46 123.37C29.1 122.81 43.88 121.37 59.46 119.74H59.8C74.92 118.26 92.09 116.55 108.68 115.99H108.8C127.32 115.3 142.8 116.21 155.97 118.83L157.11 119.05C174.5 122.58 191.44 130.42 210.3 143.72C214.4 146.72 218.72 149.72 223.3 153.38L221.32 156Z" fill="black"/>
<path d="M225.41 170.12H224.41C222.65 170.12 220.81 170.04 218.96 170.02L218.79 169.91C214.88 167.44 211.32 165.33 207.94 163.44C206.43 162.6 204.94 161.79 203.51 161.03C203.37 160.96 203.25 160.89 203.11 160.83C185.56 151.53 170.04 146.92 154.32 146.33C153.6 146.33 152.86 146.28 152.13 146.27H150.7C137.29 146.27 121.93 148.21 103.7 152.06L101.99 152.41L100.61 152.71C85.24 156 69.75 160.3 55.86 164.16L53.99 164.67L52.32 165.11C36.17 169.66 20.94 173.87 6.73 176.82L6 173.53C20 170.59 35.18 166.42 51.13 161.89L51.36 161.83L53.06 161.37L54.63 160.94C68.57 157.07 84.22 152.78 99.63 149.32L101.14 148.98L102.69 148.65C120.76 144.78 136.06 142.83 149.38 142.74C150.13 142.74 150.88 142.74 151.61 142.74H151.84H152.74C168.9 143.09 184.74 147.45 202.29 156.46L204.93 157.84L205.69 158.25C211.45 161.33 217.77 165.15 225.21 170L225.41 170.12Z" fill="black"/>
<path d="M217.12 169.87L216.69 169.93L216.31 170.01H216.2C214.093 169.943 212.023 169.85 209.99 169.73C207.9 169.6 205.86 169.45 203.88 169.26L203.2 169.1C202.9 169.02 202.6 168.96 202.3 168.9C198.607 168.081 194.856 167.556 191.08 167.33V167.33L190.29 167.28H189.81C187.143 167.159 184.471 167.202 181.81 167.41C180.81 167.52 179.88 167.52 178.81 167.63L178.49 164.45V164.22C179.509 164.092 180.533 164.019 181.56 164C189.914 163.425 198.305 164.243 206.39 166.42C208.917 167.087 211.483 167.867 214.09 168.76L215.09 169.11H215.32L215.66 169.34L216.59 169.7L216.82 169.78C216.916 169.819 217.017 169.846 217.12 169.86V169.87Z" fill="black"/>
<path d="M64.8 212.64L63.54 209.57C73.32 205.47 83.54 200.47 94.35 195.13L95.15 194.79C107.15 188.88 119.58 182.79 132.09 177.51L133.34 180.58C120.95 185.81 108.56 191.83 96.62 197.75L95.83 198.2C84.92 203.54 74.68 208.54 64.8 212.64Z" fill="black"/>
<path d="M312 197.86C310.41 198.09 308.7 198.43 306.89 198.65C303.47 199.22 299.61 199.79 295.4 200.47L294.4 200.59L289.17 201.27C287.35 201.5 285.42 201.84 283.38 202.06H283C279.94 202.52 276.64 202.86 273.34 203.32H273L268.8 203.77C243.341 206.802 217.745 208.548 192.11 209L188.11 209.11L190.84 206.11C196.925 199.539 203.337 193.278 210.05 187.35L210.5 186.9H211.07C222.32 186.78 234.49 186.21 247.07 185.19L247.98 185.08C252.53 184.74 256.98 184.28 261.17 183.94C263.78 183.71 266.4 183.37 268.9 183.15L273.45 182.58C275.61 182.35 277.65 182.12 279.58 181.78L280.27 181.67C287.09 180.87 293.68 179.85 299.93 178.94C303.23 178.48 306.073 178.027 308.46 177.58C310.96 177.12 313.8 176.67 316.98 176.1C323.57 174.85 330.17 173.48 336.76 172.1C339.03 171.64 341.31 171.1 343.69 170.62L348.81 169.37C350.86 168.92 352.9 168.46 354.95 167.89C358.81 166.983 362.787 165.96 366.88 164.82L370.07 164.03C381.66 160.85 392.8 157.55 403.14 154.03L403.83 153.91L404.28 154.03C412.69 157.32 421.22 161.64 429.18 165.73L432.81 167.55L429 168.87C404.423 176.902 379.459 183.694 354.2 189.22L347.38 190.7C344.88 191.27 342.49 191.7 340.22 192.18L338.06 192.63L334.42 193.31C333.17 193.54 331.81 193.88 330.56 194.11L328.4 194.56C324.19 195.36 320.33 196.04 316.92 196.72C315.322 197.262 313.674 197.644 312 197.86ZM272.67 200.13H273.12C276.31 199.79 279.49 199.34 282.56 198.88H282.9C284.83 198.65 286.77 198.31 288.58 198.09C290.39 197.87 292.22 197.63 293.81 197.4L294.72 197.29C298.93 196.61 302.72 196.04 306.09 195.59C307.776 195.224 309.483 194.957 311.2 194.79C312.8 194.56 314.5 194.22 316.2 193.88C319.61 193.31 323.47 192.52 327.68 191.72L329.84 191.27C331.09 191.04 332.34 190.81 333.7 190.47C334.84 190.24 336.09 190.02 337.23 189.79L339.39 189.33C341.66 188.88 344.05 188.33 346.55 187.86L353.25 186.38C378.6 180.69 402.36 174.38 423.84 167.38C417.25 163.97 410.32 160.68 403.5 157.95C393.27 161.36 382.24 164.77 370.76 167.84L368.14 168.52C363.82 169.66 359.62 170.8 355.53 171.7C353.48 172.16 351.43 172.7 349.39 173.18L344.16 174.43C341.77 175 339.5 175.43 337.23 175.91C330.63 177.39 323.93 178.75 317.33 180C314.15 180.57 311.33 181.14 308.81 181.48C306.29 181.82 303.58 182.39 300.17 182.84C293.797 183.867 287.203 184.777 280.39 185.57L279.71 185.69C277.66 185.91 275.62 186.14 273.46 186.48L268.91 187.05C266.41 187.28 263.79 187.62 261.07 187.85C256.75 188.3 252.31 188.64 247.77 188.98L246.86 189.1C234.35 190.01 222.42 190.57 211.28 190.8C205.93 195.46 200.59 200.8 195.59 206.03C217.98 205.58 242.31 203.76 267.89 200.8L272.66 200.12L272.67 200.13Z" fill="black"/>
<path d="M176.42 225.94L174.15 223.43C178.24 219.8 183.01 214.68 188.01 209.34L190.86 206.27L193.36 208.66L190.52 211.66C185.4 217.07 180.63 222.18 176.42 225.94Z" fill="black"/>
<path d="M382.311 143.445L380.81 146.507L403.16 157.461L404.661 154.399L382.311 143.445Z" fill="black"/>
<path d="M228.7 173.22L228.58 173.33C227.46 174.42 219.84 181.85 214.58 187.11C214.528 187.172 214.472 187.228 214.41 187.28L212.59 189.11L210.1 187.39L210.33 187.17L210.56 186.94C210.56 186.94 221.73 174.94 224.42 173.41L228.52 173.22H228.7Z" fill="black"/>
<path d="M230.08 173.19C229.61 173.19 229.16 173.19 228.7 173.19H228.52L224.42 173.38H220.2C218.87 173.38 217.54 173.3 216.3 173.24C215.96 173.24 215.63 173.24 215.3 173.24H214.93C214.874 173.231 214.816 173.231 214.76 173.24V173.24H214.25H213.71H213.3H212.55H212.2H211.89C211.704 173.256 211.516 173.256 211.33 173.24H210.73H210.42C203.032 172.845 195.681 171.936 188.42 170.52C187.11 170.25 185.82 169.96 184.56 169.67L183 169C181.49 168.59 180 168.17 178.62 167.73L178.28 167.65H178.17C176.017 166.983 173.977 166.227 172.05 165.38C174.25 165.01 176.4 164.7 178.51 164.47L178.83 167.65C179.83 167.54 180.76 167.54 181.83 167.43C184.491 167.222 187.163 167.179 189.83 167.3C194.495 168.212 199.205 168.88 203.94 169.3C205.94 169.49 207.94 169.64 210.05 169.77C212.16 169.9 214.15 169.98 216.26 170.05H216.37L216.75 169.97L217.18 169.91L217.51 169.86V170H217.74H218.99C220.84 170 222.68 170.1 224.44 170.1H227.29C227.263 170.066 227.24 170.029 227.22 169.99H227.29C227.73 170.78 228.2 171.56 228.67 172.36L229.17 173.17L230.08 173.19Z" fill="black"/>
<path d="M383.47 140.21C383.35 141.01 383.23 141.82 383.08 142.62C382.9 143.62 382.69 144.68 382.47 145.71L382.31 146.42L382.26 146.58V146.65L381.35 146.96C376.91 148.44 372.56 149.75 368.9 150.85C364.9 152.03 360.69 153.19 356.15 154.36H355.96C352.48 155.26 348.82 156.16 344.96 157.08C335.2 159.43 326.15 161.21 317.83 162.78C314.32 163.45 310.69 164.09 306.44 164.83L304.14 165.24L303.14 165.42L300.27 165.9C298.64 166.15 296.86 166.41 295.03 166.66C285.41 168.22 276.57 169.45 268.03 170.41C259.28 171.41 250.73 172.16 242.6 172.7L239.6 172.87C237.52 172.97 235.41 173.06 233.29 173.12H233C232 173.12 231.06 173.12 230.08 173.12H229.08L228.58 172.31C228.11 171.51 227.64 170.73 227.2 169.94C226.42 168.56 225.68 167.19 225 165.82C224.74 165.31 224.49 164.82 224.25 164.3C224.01 163.78 223.77 163.3 223.53 162.74C222.96 161.5 222.45 160.27 221.99 159.04C221.74 158.41 221.51 157.79 221.28 157.16C221.05 156.53 220.82 155.81 220.6 155.16L220.12 153.74C219.51 151.74 218.94 149.74 218.43 147.56C218.3 147.02 218.18 146.46 218.05 145.91C218.05 145.8 218.05 145.71 218 145.61C217.87 145.04 217.75 144.47 217.64 143.88C217.53 143.29 217.45 142.93 217.36 142.44L217.13 140.94L216.67 137.94C216.67 137.72 216.62 137.51 216.6 137.29C215.736 129.477 215.992 121.581 217.36 113.84C219.361 102.359 223.746 91.4239 230.23 81.74C231.23 80.18 232.35 78.67 233.49 77.18C237.456 72.0911 241.955 67.4413 246.91 63.31C256.166 55.7586 266.914 50.2513 278.45 47.15C280.217 46.67 282.007 46.2533 283.82 45.9L287.96 45.2C302.378 43.0932 317.097 44.7889 330.659 50.1192C344.221 55.4495 356.155 64.2295 365.28 75.59C365.76 76.18 366.28 76.78 366.7 77.38C367.12 77.98 367.57 78.52 367.98 79.09C368.39 79.66 368.98 80.45 369.43 81.09C370.843 83.17 372.177 85.31 373.43 87.51C377.266 94.4359 380.114 101.865 381.89 109.58C382.11 110.28 382.32 110.96 382.48 111.64C382.723 112.556 382.917 113.484 383.06 114.42C383.064 114.477 383.064 114.533 383.06 114.59C383.23 115.59 383.38 116.59 383.51 117.59C383.62 118.33 383.71 119.07 383.78 119.82C383.85 120.57 383.91 121.31 383.97 122.05C384.03 122.79 384.07 123.5 384.11 124.25C384.15 125 384.17 125.58 384.2 126.25V126.42C384.369 131.029 384.124 135.644 383.47 140.21Z" fill="black"/>
</svg>
