<svg id="ac0dc1c0-b9a1-4ca2-a960-1c220f51b22a" data-name="Ebene 1" xmlns="http://www.w3.org/2000/svg" viewBox="0 0 50 50"><defs><style>.aa1555eb-fe4a-4778-9c62-c5ac65e54620{fill:#fff;}.a8297d17-30a6-4436-b4fa-ca8e8d6a4c98{fill:#3054bc;}</style></defs><circle class="aa1555eb-fe4a-4778-9c62-c5ac65e54620" cx="25" cy="25" r="18.6"/><path class="a8297d17-30a6-4436-b4fa-ca8e8d6a4c98" d="M34.7,20.84H23.47a.23.23,0,0,1-.21-.13L21,16.62a.19.19,0,0,1,0-.08.25.25,0,0,1,.24-.21H36.92a.23.23,0,0,1,.23.21.11.11,0,0,1,0,.08l-2.23,4.09A.23.23,0,0,1,34.7,20.84Z"/><path class="a8297d17-30a6-4436-b4fa-ca8e8d6a4c98" d="M17.58,16.57l5.7,9.68a.23.23,0,0,1,0,.24l-2.12,3.83-.05.05a.24.24,0,0,1-.29-.1l-7.95-13.5a.23.23,0,0,1,0-.3l.07,0h4.38A.23.23,0,0,1,17.58,16.57Z"/><path class="a8297d17-30a6-4436-b4fa-ca8e8d6a4c98" d="M22.85,33.58l5.54-9.78a.23.23,0,0,1,.2-.12L33,23.6a.08.08,0,0,1,.07,0,.23.23,0,0,1,.06.3L25.37,37.55a.24.24,0,0,1-.29.11.12.12,0,0,1,0,0l-2.18-3.8A.24.24,0,0,1,22.85,33.58Z"/></svg>