<svg id="b3302bce-c2eb-4dd7-ac97-0005ba2d1dbc" data-name="Ebene 1" xmlns="http://www.w3.org/2000/svg" viewBox="0 0 50 50"><defs><style>.b3803c68-2c86-4a8e-87be-6b8508c7138d{fill:#fff;}.e6a859ae-f7c9-4013-9d82-43230260097f{fill:#151a20;}</style></defs><circle class="b3803c68-2c86-4a8e-87be-6b8508c7138d" cx="25" cy="25" r="18.6"/><path class="e6a859ae-f7c9-4013-9d82-43230260097f" d="M35.61,14.39A15,15,0,1,0,25,40,15,15,0,0,0,35.61,14.39Z"/><path class="b3803c68-2c86-4a8e-87be-6b8508c7138d" d="M34.53,15.46A13.5,13.5,0,1,0,38.48,25,13.42,13.42,0,0,0,34.53,15.46ZM25,37.55A12.55,12.55,0,1,1,37.54,25,12.56,12.56,0,0,1,25,37.55Z"/><path class="b3803c68-2c86-4a8e-87be-6b8508c7138d" d="M29.43,25.32a12.42,12.42,0,0,0-3.09-1.79h0c-1.93-.88-3.6-1.65-3.48-3.45a1.7,1.7,0,0,1,1-1.33,3.58,3.58,0,0,1,1.64-.4h.2a5.86,5.86,0,0,1,4.21,2.26l.08.09.09-.07.5-.43.08-.08L30.54,20a6.78,6.78,0,0,0-4.84-2.57h-.52a6.83,6.83,0,0,0-3.62,1.09,3.9,3.9,0,0,0-1.93,3.14c-.05,3,2.37,4,4.51,4.84h0c1.89.78,3.52,1.46,3.48,3.26,0,1.2-1.72,1.85-2.89,1.85h-.16A6.5,6.5,0,0,1,20,29.42l-.08-.09-.08.08-.49.45-.08.08.08.08a7.4,7.4,0,0,0,5.39,2.53h.09a8.18,8.18,0,0,0,3.79-.94,3.73,3.73,0,0,0,.86-6.29Zm-6.27-2.58A11.66,11.66,0,0,0,26,24.33h0a11.49,11.49,0,0,1,2.8,1.6,3,3,0,0,1,1.08,2.6,2.85,2.85,0,0,1-1.56,2.17,2.15,2.15,0,0,0,.23-.91,3.21,3.21,0,0,0-1.29-2.67,11.5,11.5,0,0,0-2.77-1.44c-2-.84-4-1.64-4-4a3,3,0,0,1,1.54-2.41l.1-.07a2.19,2.19,0,0,0-.2.8A3.09,3.09,0,0,0,23.16,22.74Z"/></svg>