<svg id="a8c8a982-7229-464d-b613-da83325ab954" data-name="Ebene 1" xmlns="http://www.w3.org/2000/svg" viewBox="0 0 50 50"><defs><style>.b5a18638-0251-488a-94f1-7945804e2b3a{fill:#fff;}.ae511c07-63b2-4687-90ad-960901831b7c{fill:#4520e6;}</style></defs><circle class="b5a18638-0251-488a-94f1-7945804e2b3a" cx="25" cy="25" r="18.6"/><path class="ae511c07-63b2-4687-90ad-960901831b7c" d="M35.61,14.39A15,15,0,1,0,25,40,15,15,0,0,0,35.61,14.39Z"/><g id="ecc00bd7-275b-4ded-b74f-38b65933be64" data-name="Page-1"><g id="b4d4fbf9-9360-4b31-a428-7b0932005c30" data-name="BandWebsite Desktop UI Home"><path id="f58213a9-de3c-4c2f-bf5f-f9f8c2628f4d" data-name="Logo1" class="b5a18638-0251-488a-94f1-7945804e2b3a" d="M31.19,21.72a3.82,3.82,0,0,0-1.57-3.1L32.18,16H30.65l-2,2.06a3.68,3.68,0,0,0-1.2-.19h-7V28l8.43-8.55a2.74,2.74,0,0,1-1.43,5.05H27.2L17.82,34h1.52l1.84-1.87h6.24A3.83,3.83,0,0,0,29.36,25,3.88,3.88,0,0,0,31.19,21.72Zm-9.7,3.6V19h5.93a1.51,1.51,0,0,1,.3,0Zm8.62,3A2.71,2.71,0,0,1,27.42,31H22.26l5.36-5.44A2.7,2.7,0,0,1,30.11,28.28Z"/></g></g></svg>